<svg width="217" height="208" viewBox="0 0 217 208" fill="none" xmlns="http://www.w3.org/2000/svg">
<path d="M79.8188 172.484C78.5552 175.386 75.1979 176.773 72.3533 175.385C58.6968 168.719 47.2722 158.395 39.4887 145.602C30.7373 131.219 27.0604 114.488 29.0092 97.9204C30.9581 81.3525 38.4278 65.84 50.298 53.7092C62.1683 41.5784 77.7993 33.4832 94.847 30.6375C111.895 27.7919 129.44 30.3492 144.852 37.9259C160.265 45.5027 172.713 57.6905 180.33 72.6616C187.947 87.6328 190.323 104.58 187.101 120.963C184.239 135.511 177.1 148.917 166.592 159.613C164.366 161.879 160.729 161.7 158.543 159.395C156.241 156.966 156.437 153.127 158.735 150.695C167.17 141.77 172.909 130.737 175.257 118.799C177.994 104.885 175.976 90.4915 169.506 77.7762C163.037 65.061 152.465 54.7096 139.375 48.2746C126.285 41.8395 111.383 39.6675 96.9043 42.0844C82.4254 44.5012 69.1496 51.3767 59.068 61.6796C48.9864 71.9825 42.6422 85.1575 40.987 99.229C39.3318 113.3 42.4547 127.51 49.8874 139.726C56.2991 150.264 65.6197 158.83 76.7574 164.501C79.6852 165.992 81.1303 169.472 79.8188 172.484Z" fill="#17A2B8"/>
<path d="M81.69 110.024C81.69 107.256 82.186 105.088 83.178 103.52C84.186 101.952 85.85 101.168 88.17 101.168C90.49 101.168 92.146 101.952 93.138 103.52C94.146 105.088 94.65 107.256 94.65 110.024C94.65 112.808 94.146 114.992 93.138 116.576C92.146 118.16 90.49 118.952 88.17 118.952C85.85 118.952 84.186 118.16 83.178 116.576C82.186 114.992 81.69 112.808 81.69 110.024ZM91.338 110.024C91.338 108.84 91.258 107.848 91.098 107.048C90.954 106.232 90.65 105.568 90.186 105.056C89.738 104.544 89.066 104.288 88.17 104.288C87.274 104.288 86.594 104.544 86.13 105.056C85.682 105.568 85.378 106.232 85.218 107.048C85.074 107.848 85.002 108.84 85.002 110.024C85.002 111.24 85.074 112.264 85.218 113.096C85.362 113.912 85.666 114.576 86.13 115.088C86.594 115.584 87.274 115.832 88.17 115.832C89.066 115.832 89.746 115.584 90.21 115.088C90.674 114.576 90.978 113.912 91.122 113.096C91.266 112.264 91.338 111.24 91.338 110.024ZM99.0776 119.168C98.4696 119.168 97.9656 118.984 97.5656 118.616C97.1816 118.232 96.9896 117.76 96.9896 117.2C96.9896 116.64 97.1816 116.176 97.5656 115.808C97.9656 115.424 98.4696 115.232 99.0776 115.232C99.6696 115.232 100.158 115.424 100.542 115.808C100.926 116.176 101.118 116.64 101.118 117.2C101.118 117.76 100.926 118.232 100.542 118.616C100.158 118.984 99.6696 119.168 99.0776 119.168ZM103.44 110.024C103.44 107.256 103.936 105.088 104.928 103.52C105.936 101.952 107.6 101.168 109.92 101.168C112.24 101.168 113.896 101.952 114.888 103.52C115.896 105.088 116.4 107.256 116.4 110.024C116.4 112.808 115.896 114.992 114.888 116.576C113.896 118.16 112.24 118.952 109.92 118.952C107.6 118.952 105.936 118.16 104.928 116.576C103.936 114.992 103.44 112.808 103.44 110.024ZM113.088 110.024C113.088 108.84 113.008 107.848 112.848 107.048C112.704 106.232 112.4 105.568 111.936 105.056C111.488 104.544 110.816 104.288 109.92 104.288C109.024 104.288 108.344 104.544 107.88 105.056C107.432 105.568 107.128 106.232 106.968 107.048C106.824 107.848 106.752 108.84 106.752 110.024C106.752 111.24 106.824 112.264 106.968 113.096C107.112 113.912 107.416 114.576 107.88 115.088C108.344 115.584 109.024 115.832 109.92 115.832C110.816 115.832 111.496 115.584 111.96 115.088C112.424 114.576 112.728 113.912 112.872 113.096C113.016 112.264 113.088 111.24 113.088 110.024ZM118.572 105.8C118.572 104.584 118.924 103.632 119.628 102.944C120.348 102.256 121.268 101.912 122.388 101.912C123.508 101.912 124.42 102.256 125.124 102.944C125.844 103.632 126.204 104.584 126.204 105.8C126.204 107.032 125.844 107.992 125.124 108.68C124.42 109.368 123.508 109.712 122.388 109.712C121.268 109.712 120.348 109.368 119.628 108.68C118.924 107.992 118.572 107.032 118.572 105.8ZM133.98 102.2L124.548 119H121.284L130.692 102.2H133.98ZM122.364 103.928C121.484 103.928 121.044 104.552 121.044 105.8C121.044 107.064 121.484 107.696 122.364 107.696C122.796 107.696 123.132 107.544 123.372 107.24C123.612 106.92 123.732 106.44 123.732 105.8C123.732 104.552 123.276 103.928 122.364 103.928ZM129.108 115.376C129.108 114.144 129.46 113.192 130.164 112.52C130.884 111.832 131.804 111.488 132.924 111.488C134.044 111.488 134.948 111.832 135.636 112.52C136.34 113.192 136.692 114.144 136.692 115.376C136.692 116.608 136.34 117.568 135.636 118.256C134.948 118.944 134.044 119.288 132.924 119.288C131.788 119.288 130.868 118.944 130.164 118.256C129.46 117.568 129.108 116.608 129.108 115.376ZM132.9 113.504C131.988 113.504 131.532 114.128 131.532 115.376C131.532 116.64 131.988 117.272 132.9 117.272C133.796 117.272 134.244 116.64 134.244 115.376C134.244 114.128 133.796 113.504 132.9 113.504Z" fill="#171717"/>
<path d="M109 199.506C162.813 199.506 206.5 157.456 206.5 105.506C206.5 53.5571 162.813 11.5063 109 11.5063C55.1874 11.5063 11.5 53.5571 11.5 105.506C11.5 157.456 55.1874 199.506 109 199.506Z" stroke="#E5E5E5" stroke-width="2"/>
</svg>
