<svg width="60" height="60" viewBox="0 0 60 60" fill="none" xmlns="http://www.w3.org/2000/svg">
<path d="M27.5732 29.9906C27.5732 30.543 27.3538 31.0727 26.9632 31.4632C26.5727 31.8538 26.043 32.0732 25.4906 32.0732H12.9953C12.443 32.0732 11.9133 31.8538 11.5227 31.4632C11.1322 31.0727 10.9128 30.543 10.9128 29.9906C10.9128 29.4383 11.1322 28.9086 11.5227 28.518C11.9133 28.1275 12.443 27.9081 12.9953 27.9081H25.4906C26.043 27.9081 26.5727 28.1275 26.9632 28.518C27.3538 28.9086 27.5732 29.4383 27.5732 29.9906ZM25.4906 19.5779H12.9953C12.443 19.5779 11.9133 19.7973 11.5227 20.1878C11.1322 20.5784 10.9128 21.1081 10.9128 21.6604C10.9128 22.2127 11.1322 22.7425 11.5227 23.133C11.9133 23.5236 12.443 23.743 12.9953 23.743H25.4906C26.043 23.743 26.5727 23.5236 26.9632 23.133C27.3538 22.7425 27.5732 22.2127 27.5732 21.6604C27.5732 21.1081 27.3538 20.5784 26.9632 20.1878C26.5727 19.7973 26.043 19.5779 25.4906 19.5779ZM54.6464 36.621V52.8987C54.6497 53.2659 54.5559 53.6274 54.3744 53.9466C54.193 54.2658 53.9304 54.5313 53.6132 54.7163C53.2961 54.9013 52.9357 54.9992 52.5685 55C52.2014 55.0008 51.8405 54.9045 51.5225 54.7209L45.2749 51.1442L39.0272 54.7209C38.7093 54.9045 38.3484 55.0008 37.9813 55C37.6141 54.9992 37.2537 54.9013 36.9365 54.7163C36.6194 54.5313 36.3568 54.2658 36.1753 53.9466C35.9939 53.6274 35.9001 53.2659 35.9034 52.8987V46.6511H4.66511C3.56045 46.6511 2.50104 46.2122 1.71993 45.4311C0.938822 44.65 0.5 43.5906 0.5 42.4859V9.16511C0.5 8.06045 0.938822 7.00104 1.71993 6.21993C2.50104 5.43882 3.56045 5 4.66511 5H50.4813C51.5859 5 52.6453 5.43882 53.4264 6.21993C54.2075 7.00104 54.6464 8.06045 54.6464 9.16511V17.1126C55.9628 18.3733 57.0105 19.8875 57.7262 21.5638C58.4419 23.2402 58.8109 25.0441 58.8109 26.8668C58.8109 28.6896 58.4419 30.4934 57.7262 32.1698C57.0105 33.8461 55.9628 35.3603 54.6464 36.621ZM35.9034 42.4859V36.621C33.634 34.4323 32.1997 31.5201 31.8481 28.3868C31.4965 25.2536 32.2497 22.096 33.9776 19.4587C35.7055 16.8215 38.2998 14.8701 41.3128 13.9414C44.3258 13.0126 47.5685 13.1648 50.4813 14.3715V9.16511H4.66511V42.4859H35.9034ZM50.4813 39.3621C48.832 40.0512 47.0623 40.406 45.2749 40.406C43.4874 40.406 41.7178 40.0512 40.0685 39.3621V49.3115L44.2336 46.927C44.5483 46.7471 44.9046 46.6525 45.2671 46.6525C45.6296 46.6525 45.9858 46.7471 46.3005 46.927L50.4656 49.3115L50.4813 39.3621ZM54.6464 26.8668C54.6464 25.0133 54.0967 23.2014 53.067 21.6603C52.0372 20.1192 50.5736 18.918 48.8612 18.2087C47.1488 17.4994 45.2645 17.3138 43.4466 17.6754C41.6287 18.037 39.9589 18.9295 38.6482 20.2402C37.3376 21.5508 36.4451 23.2206 36.0835 25.0385C35.7219 26.8564 35.9075 28.7407 36.6168 30.4531C37.3261 32.1655 38.5272 33.6292 40.0684 34.6589C41.6095 35.6887 43.4214 36.2383 45.2749 36.2383C46.5056 36.2383 47.7242 35.9959 48.8612 35.5249C49.9982 35.054 51.0313 34.3637 51.9015 33.4934C52.7717 32.6232 53.462 31.5901 53.933 30.4531C54.404 29.3161 54.6464 28.0975 54.6464 26.8668Z" fill="#445ED6"/>
</svg>
