<svg width="16" height="16" viewBox="0 0 16 16" fill="none" xmlns="http://www.w3.org/2000/svg">
<path d="M14.9487 6.07872C14.8862 5.88655 14.7682 5.71718 14.6096 5.59195C14.451 5.46671 14.2589 5.39122 14.0575 5.37497L10.37 5.07747L8.94623 1.63435C8.86923 1.44674 8.73819 1.28625 8.56975 1.17331C8.40131 1.06037 8.20309 1.00006 8.00029 1.00006C7.79749 1.00006 7.59928 1.06037 7.43084 1.17331C7.2624 1.28625 7.13135 1.44674 7.05436 1.63435L5.63186 5.07685L1.94248 5.37497C1.74072 5.39204 1.54847 5.46826 1.38984 5.5941C1.23121 5.71994 1.11323 5.88979 1.05071 6.08238C0.988178 6.27497 0.983875 6.48173 1.03833 6.67675C1.09279 6.87178 1.2036 7.04639 1.35686 7.17872L4.16936 9.6056L3.31248 13.2343C3.2652 13.4314 3.27738 13.638 3.34747 13.8281C3.41756 14.0182 3.54241 14.1833 3.70627 14.3024C3.87013 14.4216 4.06563 14.4896 4.26808 14.4977C4.47053 14.5058 4.67085 14.4538 4.84373 14.3481L7.99998 12.4056L11.1581 14.3481C11.331 14.4532 11.531 14.5047 11.7331 14.4963C11.9352 14.4879 12.1303 14.4198 12.2939 14.3008C12.4574 14.1817 12.582 14.0169 12.652 13.8271C12.7221 13.6374 12.7344 13.4311 12.6875 13.2343L11.8275 9.60497L14.64 7.1781C14.7945 7.04599 14.9063 6.871 14.9613 6.67529C15.0162 6.47957 15.0119 6.27195 14.9487 6.07872ZM13.99 6.4206L10.9462 9.0456C10.8768 9.10543 10.8252 9.18318 10.797 9.27037C10.7687 9.35756 10.765 9.45082 10.7862 9.53997L11.7162 13.465C11.7186 13.4704 11.7189 13.4765 11.7169 13.4821C11.7149 13.4877 11.7109 13.4923 11.7056 13.495C11.6944 13.5037 11.6912 13.5018 11.6819 13.495L8.26186 11.3918C8.18299 11.3438 8.09235 11.3184 7.99998 11.3187V1.99997C8.01498 1.99997 8.01686 2.00497 8.02186 2.01622L9.56248 5.74122C9.59765 5.82637 9.65566 5.90014 9.7301 5.9544C9.80455 6.00867 9.89253 6.04131 9.98436 6.04872L13.9787 6.37122C13.9887 6.37122 13.9944 6.37122 14 6.38935C14.0056 6.40747 14 6.41435 13.99 6.4206Z" fill="#F7C32E"/>
</svg>
