<svg width="50" height="50" viewBox="0 0 50 50" fill="none" xmlns="http://www.w3.org/2000/svg">
<path d="M24.5313 18.0521L8.90628 10.0937C8.82097 10.05 8.74937 9.98363 8.69937 9.90184C8.64938 9.82005 8.62292 9.72606 8.62292 9.6302C8.62292 9.53434 8.64938 9.44034 8.69937 9.35856C8.74937 9.27677 8.82097 9.21036 8.90628 9.16666L24.5313 1.15624C24.6794 1.07953 24.8437 1.03949 25.0104 1.03949C25.1772 1.03949 25.3415 1.07953 25.4896 1.15624L41.1146 9.16666C41.1999 9.21036 41.2715 9.27677 41.3215 9.35856C41.3715 9.44034 41.398 9.53434 41.398 9.6302C41.398 9.72606 41.3715 9.82005 41.3215 9.90184C41.2715 9.98363 41.1999 10.05 41.1146 10.0937L25.4896 18.0521C25.3415 18.1288 25.1772 18.1688 25.0104 18.1688C24.8437 18.1688 24.6794 18.1288 24.5313 18.0521Z" fill="#656769" stroke="#45413C" stroke-width="0.5" stroke-linecap="round" stroke-linejoin="round"/>
<path d="M8.65625 9.625V17.9063" stroke="#45413C" stroke-width="0.5" stroke-linecap="round" stroke-linejoin="round"/>
<path d="M9.65625 17.8958C9.66627 17.753 9.64675 17.6097 9.59891 17.4748C9.55106 17.3399 9.47593 17.2162 9.37818 17.1117C9.28044 17.0071 9.16218 16.9238 9.0308 16.8669C8.89942 16.8101 8.75774 16.7809 8.61458 16.7813C8.47143 16.7809 8.32974 16.8101 8.19836 16.8669C8.06698 16.9238 7.94873 17.0071 7.85099 17.1117C7.75324 17.2162 7.6781 17.3399 7.63026 17.4748C7.58242 17.6097 7.5629 17.753 7.57292 17.8958L7.375 21.7396H9.85417L9.65625 17.8958Z" fill="#FFE500" stroke="#45413C" stroke-width="0.5" stroke-linecap="round" stroke-linejoin="round"/>
<path d="M32.8542 35.5104L25 32.5208L17.1459 35.5104C15.8141 36.0186 14.6678 36.919 13.8588 38.0927C13.0497 39.2663 12.6159 40.6578 12.6146 42.0833V46.875H37.3855V42.0833C37.3842 40.6578 36.9504 39.2663 36.1413 38.0927C35.3322 36.919 34.186 36.0186 32.8542 35.5104Z" fill="#656769"/>
<path d="M32.8542 35.5104L25 32.5208L17.1459 35.5104C15.8141 36.0186 14.6678 36.919 13.8588 38.0927C13.0497 39.2663 12.6159 40.6578 12.6146 42.0833V45.2083C12.6159 43.7828 13.0497 42.3913 13.8588 41.2177C14.6678 40.044 15.8141 39.1436 17.1459 38.6354L25 35.6354L32.8542 38.625C34.186 39.1332 35.3322 40.0336 36.1413 41.2072C36.9504 42.3809 37.3842 43.7724 37.3855 45.1979V42.0729C37.3821 40.6492 36.9473 39.2599 36.1384 38.0884C35.3294 36.9168 34.1844 36.018 32.8542 35.5104Z" fill="#525252"/>
<path d="M32.8542 35.5104L25 32.5208L17.1459 35.5104C15.8141 36.0186 14.6678 36.919 13.8588 38.0927C13.0497 39.2663 12.6159 40.6578 12.6146 42.0833V46.875H37.3855V42.0833C37.3842 40.6578 36.9504 39.2663 36.1413 38.0927C35.3322 36.919 34.186 36.0186 32.8542 35.5104Z" stroke="#45413C" stroke-width="0.5" stroke-linecap="round" stroke-linejoin="round"/>
<path d="M25 36.5729C25 36.5729 22.3541 35.4166 22.3541 33.9271V30.9583C22.3528 30.61 22.4202 30.2648 22.5526 29.9426C22.6849 29.6204 22.8796 29.3275 23.1254 29.0807C23.3712 28.8339 23.6634 28.6381 23.9851 28.5045C24.3067 28.3708 24.6516 28.3021 25 28.3021C25.3483 28.3021 25.6932 28.3708 26.0149 28.5045C26.3366 28.6381 26.6287 28.8339 26.8746 29.0807C27.1204 29.3275 27.3151 29.6204 27.4474 29.9426C27.5798 30.2648 27.6472 30.61 27.6458 30.9583V33.9271C27.6458 35.4166 25 36.5729 25 36.5729Z" fill="#FFE500"/>
<path d="M25 28.3021C24.2982 28.3021 23.6253 28.5808 23.1291 29.077C22.6329 29.5732 22.3541 30.2462 22.3541 30.9479V31.5729C22.3541 32.2746 22.6329 32.9476 23.1291 33.4438C23.6253 33.94 24.2982 34.2187 25 34.2187C25.7017 34.2187 26.3747 33.94 26.8708 33.4438C27.367 32.9476 27.6458 32.2746 27.6458 31.5729V30.9583C27.6472 30.61 27.5797 30.2648 27.4474 29.9426C27.315 29.6204 27.1204 29.3275 26.8745 29.0807C26.6287 28.8339 26.3366 28.6381 26.0149 28.5045C25.6932 28.3708 25.3483 28.3021 25 28.3021Z" fill="#EBCB00"/>
<path d="M14.0104 37.8646L17.7708 46.875M35.9895 37.8646L32.2291 46.875M21.3958 42.1666L22.1562 46.875M28.6041 42.1666L27.8437 46.875M25 36.5729C25 36.5729 22.3541 35.4166 22.3541 33.9271V30.9583C22.3528 30.61 22.4202 30.2648 22.5525 29.9426C22.6849 29.6204 22.8796 29.3275 23.1254 29.0807C23.3712 28.8339 23.6633 28.6381 23.985 28.5045C24.3067 28.3708 24.6516 28.3021 25 28.3021C25.3483 28.3021 25.6932 28.3708 26.0149 28.5045C26.3366 28.6381 26.6287 28.8339 26.8745 29.0807C27.1204 29.3275 27.315 29.6204 27.4474 29.9426C27.5797 30.2648 27.6472 30.61 27.6458 30.9583V33.9271C27.6458 35.4166 25 36.5729 25 36.5729Z" stroke="#45413C" stroke-width="0.5" stroke-linecap="round" stroke-linejoin="round"/>
<path opacity="0.15" d="M9.375 47.3958C9.375 47.8102 11.0212 48.2076 13.9515 48.5007C16.8817 48.7937 20.856 48.9583 25 48.9583C29.144 48.9583 33.1183 48.7937 36.0485 48.5007C38.9788 48.2076 40.625 47.8102 40.625 47.3958C40.625 46.9814 38.9788 46.584 36.0485 46.291C33.1183 45.9979 29.144 45.8333 25 45.8333C20.856 45.8333 16.8817 45.9979 13.9515 46.291C11.0212 46.584 9.375 46.9814 9.375 47.3958Z" fill="#45413C"/>
<path d="M25 7.19794C27.713 7.19794 30.3148 8.27565 32.2332 10.194C34.1515 12.1123 35.2292 14.7142 35.2292 17.4271V22.7813H14.7709V17.4271C14.7709 14.7142 15.8486 12.1123 17.7669 10.194C19.6853 8.27565 22.2871 7.19794 25 7.19794Z" fill="#724F3D" stroke="#45413C" stroke-width="0.5" stroke-linecap="round" stroke-linejoin="round"/>
<path d="M36.3229 22C36.2723 21.6175 36.1068 21.2594 35.8482 20.9729C35.5897 20.6865 35.2503 20.4853 34.875 20.3959L34.2604 20.2292C33.8076 20.1013 33.4093 19.8281 33.127 19.4516C32.8447 19.0752 32.6939 18.6164 32.6979 18.1459V16.0209C32.6968 15.5913 32.5544 15.174 32.2928 14.8333C32.0311 14.4926 31.6647 14.2474 31.25 14.1354C29.264 14.9295 27.1384 15.3156 25 15.2709C22.8616 15.3156 20.736 14.9295 18.75 14.1354C18.3333 14.2455 17.9646 14.4898 17.701 14.8307C17.4373 15.1716 17.2934 15.5899 17.2917 16.0209V18.1667C17.2957 18.6372 17.1449 19.096 16.8626 19.4725C16.5802 19.8489 16.182 20.1221 15.7292 20.25L15.1146 20.4167C14.7392 20.5061 14.3999 20.7074 14.1414 20.9938C13.8828 21.2802 13.7173 21.6383 13.6667 22.0209C13.6388 22.2846 13.6669 22.5512 13.7491 22.8033C13.8313 23.0554 13.9658 23.2873 14.1437 23.4839C14.3217 23.6805 14.5391 23.8374 14.7817 23.9443C15.0244 24.0512 15.2869 24.1057 15.5521 24.1042H15.6667C15.9104 26.4069 16.9977 28.5379 18.7191 30.0866C20.4404 31.6354 22.674 32.4923 24.9896 32.4923C27.3051 32.4923 29.5388 31.6354 31.2601 30.0866C32.9815 28.5379 34.0688 26.4069 34.3125 24.1042H34.4271C34.6951 24.1075 34.9607 24.0536 35.2062 23.9461C35.4518 23.8387 35.6716 23.6801 35.851 23.481C36.0304 23.2818 36.1653 23.0468 36.2467 22.7914C36.328 22.536 36.354 22.2662 36.3229 22Z" fill="#FFE500" stroke="#45413C" stroke-width="0.5" stroke-linecap="round" stroke-linejoin="round"/>
<path d="M19.3437 21.7813C19.3437 21.9399 19.3907 22.095 19.4789 22.2269C19.567 22.3588 19.6923 22.4616 19.8388 22.5223C19.9854 22.583 20.1467 22.5989 20.3023 22.568C20.4578 22.537 20.6008 22.4606 20.7129 22.3484C20.8251 22.2363 20.9015 22.0933 20.9325 21.9378C20.9634 21.7822 20.9475 21.6209 20.8868 21.4743C20.8261 21.3278 20.7233 21.2025 20.5914 21.1144C20.4595 21.0262 20.3044 20.9792 20.1458 20.9792C20.0401 20.9778 19.9351 20.9976 19.8372 21.0374C19.7392 21.0772 19.6503 21.1362 19.5755 21.211C19.5007 21.2858 19.4417 21.3747 19.4019 21.4727C19.3621 21.5706 19.3423 21.6756 19.3437 21.7813ZM30.6562 21.7813C30.6562 21.9399 30.6092 22.095 30.521 22.2269C30.4329 22.3588 30.3076 22.4616 30.1611 22.5223C30.0145 22.583 29.8532 22.5989 29.6976 22.568C29.542 22.537 29.3991 22.4606 29.287 22.3484C29.1748 22.2363 29.0984 22.0933 29.0674 21.9378C29.0365 21.7822 29.0524 21.6209 29.1131 21.4743C29.1738 21.3278 29.2766 21.2025 29.4085 21.1144C29.5404 21.0262 29.6955 20.9792 29.8541 20.9792C29.9598 20.9778 30.0648 20.9976 30.1627 21.0374C30.2607 21.0772 30.3496 21.1362 30.4244 21.211C30.4992 21.2858 30.5582 21.3747 30.598 21.4727C30.6378 21.5706 30.6576 21.6756 30.6562 21.7813Z" fill="#45413C" stroke="#45413C" stroke-width="0.5" stroke-linecap="round" stroke-linejoin="round"/>
<path d="M22.0416 26.6667C21.9757 26.6681 21.9109 26.6837 21.8516 26.7125C21.7922 26.7413 21.7398 26.7825 21.6979 26.8334C21.6543 26.8824 21.6223 26.9407 21.6042 27.0038C21.5862 27.0669 21.5826 27.1332 21.5937 27.1979C21.7344 27.9992 22.153 28.7252 22.776 29.2484C23.399 29.7715 24.1864 30.0583 25 30.0583C25.8135 30.0583 26.6009 29.7715 27.2239 29.2484C27.8469 28.7252 28.2655 27.9992 28.4062 27.1979C28.4173 27.1332 28.4137 27.0669 28.3957 27.0038C28.3776 26.9407 28.3456 26.8824 28.302 26.8334C28.2601 26.7825 28.2077 26.7413 28.1484 26.7125C28.089 26.6837 28.0242 26.6681 27.9583 26.6667H22.0416Z" fill="#FF6242"/>
<path d="M25 28.125C24.0595 28.0882 23.1343 28.3709 22.375 28.9271C22.7032 29.2926 23.1048 29.585 23.5534 29.7851C24.0021 29.9852 24.4879 30.0887 24.9792 30.0887C25.4704 30.0887 25.9562 29.9852 26.4049 29.7851C26.8536 29.585 27.2551 29.2926 27.5833 28.9271C26.8354 28.3799 25.9263 28.0976 25 28.125Z" fill="#FFA694"/>
<path d="M22.0416 26.6667C21.9757 26.6681 21.9109 26.6837 21.8516 26.7125C21.7922 26.7413 21.7398 26.7825 21.6979 26.8334C21.6543 26.8824 21.6223 26.9407 21.6042 27.0038C21.5862 27.0669 21.5826 27.1332 21.5937 27.1979C21.7344 27.9992 22.153 28.7252 22.776 29.2484C23.399 29.7715 24.1864 30.0583 25 30.0583C25.8135 30.0583 26.6009 29.7715 27.2239 29.2484C27.8469 28.7252 28.2655 27.9992 28.4062 27.1979C28.4173 27.1332 28.4137 27.0669 28.3957 27.0038C28.3776 26.9407 28.3456 26.8824 28.302 26.8334C28.2601 26.7825 28.2077 26.7413 28.1484 26.7125C28.089 26.6837 28.0242 26.6681 27.9583 26.6667H22.0416Z" stroke="#45413C" stroke-width="0.5" stroke-linecap="round" stroke-linejoin="round"/>
<path d="M17.7709 25.1979C17.7709 25.3637 17.8806 25.5227 18.076 25.6399C18.2713 25.7571 18.5363 25.8229 18.8125 25.8229C19.0888 25.8229 19.3538 25.7571 19.5491 25.6399C19.7445 25.5227 19.8542 25.3637 19.8542 25.1979C19.8542 25.0322 19.7445 24.8732 19.5491 24.756C19.3538 24.6388 19.0888 24.5729 18.8125 24.5729C18.5363 24.5729 18.2713 24.6388 18.076 24.756C17.8806 24.8732 17.7709 25.0322 17.7709 25.1979ZM30.1459 25.1979C30.1459 25.3637 30.2556 25.5227 30.451 25.6399C30.6463 25.7571 30.9113 25.8229 31.1875 25.8229C31.4638 25.8229 31.7288 25.7571 31.9241 25.6399C32.1195 25.5227 32.2292 25.3637 32.2292 25.1979C32.2292 25.0322 32.1195 24.8732 31.9241 24.756C31.7288 24.6388 31.4638 24.5729 31.1875 24.5729C30.9113 24.5729 30.6463 24.6388 30.451 24.756C30.2556 24.8732 30.1459 25.0322 30.1459 25.1979Z" fill="#FFAA54"/>
<path d="M15.2916 9.37502C15.2916 8.10419 19.3541 7.07294 25 7.07294C30.6458 7.07294 34.7083 8.1146 34.7083 9.37502L35.75 18.3229C35.75 16.9896 30.9479 15.9063 25.0208 15.9063C19.0937 15.9063 14.2916 16.9479 14.2916 18.3229L15.2916 9.37502Z" fill="#656769"/>
<path d="M25 10.4896C29.8125 10.4896 33.5625 11.1146 35.0105 11.9792L34.7084 9.37502C34.7084 8.10419 30.6459 7.07294 25 7.07294C19.3542 7.07294 15.2917 8.1146 15.2917 9.37502L14.9896 12.0104C16.4375 11.1146 20.1875 10.4896 25 10.4896Z" fill="#525252"/>
<path d="M15.2916 9.37502C15.2916 8.10419 19.3541 7.07294 25 7.07294C30.6458 7.07294 34.7083 8.1146 34.7083 9.37502L35.75 18.3229C35.75 16.9896 30.9479 15.9063 25.0208 15.9063C19.0937 15.9063 14.2916 16.9479 14.2916 18.3229L15.2916 9.37502Z" stroke="#45413C" stroke-width="0.5" stroke-linecap="round" stroke-linejoin="round"/>
</svg>
