<svg width="50" height="50" viewBox="0 0 50 50" fill="none" xmlns="http://www.w3.org/2000/svg">
<g clip-path="url(#clip0_3640_21117)">
<path d="M8.33392 26.0018C8.08231 24.9683 7.18248 21.7695 6.86162 21.3598C6.64222 21.0799 6.38245 20.8643 5.9007 21.0698C5.48775 21.2461 5.55474 21.7227 5.63276 22.1169C5.7188 22.5507 6.23033 24.5982 6.52836 25.6627C6.41528 25.5349 6.26502 25.4458 6.09869 25.4078C5.93237 25.3699 5.75832 25.385 5.60101 25.451C5.27349 25.6005 5.14739 25.8798 5.18383 26.0815L5.25414 26.4675C5.13656 26.4033 5.00459 26.3699 4.87059 26.3705C4.73659 26.3712 4.60494 26.4058 4.48798 26.4712C4.20492 26.6224 3.91989 27.0282 4.0593 27.3208L4.2462 27.713L4.18783 27.6651C3.82856 27.3695 3.20499 27.5515 3.10307 27.9454C3.0252 28.2478 3.1566 28.6048 3.32489 28.8814C3.345 28.9142 3.36632 28.9494 3.389 28.9862C3.40987 29.0509 3.42182 29.0875 3.42182 29.0875C3.64999 29.7942 4.09438 30.8743 4.76015 31.6439C5.06906 32.0006 5.42546 32.3546 5.7061 32.7375C6.06793 33.2318 6.07882 33.7968 6.33618 34.4119C7.63265 33.9686 8.89612 33.434 10.1171 32.8122L10.0609 32.5522C9.9541 32.0601 9.83661 31.4203 9.90632 31.0033C10.0311 30.5332 10.1882 30.0724 10.3766 29.624C10.5305 29.2598 10.5978 28.8649 10.5731 28.4703C10.5238 28.0219 10.4077 27.3807 10.0742 26.9128C10.0081 26.8218 9.92556 26.7439 9.83087 26.6832C9.82011 26.6753 9.80868 26.6684 9.7967 26.6626C9.70956 26.61 9.61634 26.5682 9.51908 26.5381C9.48077 26.526 9.44116 26.515 9.40023 26.5053C9.37967 26.4999 9.35925 26.4958 9.33869 26.4917C9.31934 26.4865 9.2997 26.4824 9.27987 26.4795C9.24963 26.4725 9.21939 26.4684 9.18915 26.4644L9.13033 26.4562C9.12624 26.4562 9.1208 26.4548 9.11521 26.4548C8.88639 26.4309 8.65605 26.425 8.42631 26.437L8.38881 26.2457C8.37883 26.1917 8.35978 26.1083 8.33392 26.0018Z" fill="white"/>
<path d="M31.7056 47.3067C31.6191 46.7428 31.5353 46.1534 31.4593 45.5295H31.4242C29.9009 45.5295 24.435 45.6481 23.2253 45.6481L23.0517 45.6422C22.9498 46.4567 22.835 47.2128 22.7191 47.9301C22.6551 48.2367 22.5751 48.5782 22.4738 48.9329L22.2924 49.5604H32.2103C32.1151 49.1913 32.0355 48.8824 32.0355 48.8824C31.9395 48.5464 31.8648 48.2236 31.8034 47.9298C31.7708 47.7255 31.7381 47.5178 31.7056 47.3067Z" fill="white"/>
<path d="M24.4166 45.6354C23.8902 45.6432 23.4705 45.648 23.2254 45.648L23.0504 45.6519C23.3015 43.6526 23.4251 41.6393 23.4206 39.6242C23.4206 36.3302 23.2286 33.0948 23.1459 31.6839C23.0477 29.9893 22.8923 28.4632 22.8394 26.8985L23.1871 26.977C24.4836 27.3194 25.8154 27.5108 27.1559 27.5472C28.4215 27.5504 30.2222 27.3506 31.4584 26.8586L31.4789 26.8516C31.5177 28.4608 31.4719 30.0723 31.3801 31.6839C31.2974 33.0948 31.1054 36.3302 31.1054 39.6242C31.1012 41.5978 31.2194 43.5697 31.4594 45.5287L31.4249 45.5294C30.2096 45.5294 26.488 45.6049 24.4166 45.6354Z" fill="#17A2B8"/>
<path d="M34.3297 25.2178C36.3734 26.0059 38.0315 24.1745 38.0191 22.6362C38.0135 21.7599 37.8643 20.8905 37.5776 20.0624C37.214 18.9305 36.5095 16.6308 36.4587 12.522C36.5598 11.3654 36.4548 9.69446 36.4089 9.05259C36.2505 6.82667 35.2552 4.34084 33.8233 2.95896C32.9493 2.06961 31.8954 1.37717 30.7322 0.927947C29.7366 0.544336 28.8109 0.359863 27.0641 0.359863C24.2 0.359863 21.6509 1.83534 20.5195 2.91828C18.6429 4.71492 17.4524 7.99671 17.6026 12.522C17.6026 15.8198 17.3519 18.1985 16.9999 19.5501C16.734 20.6672 16.5823 21.8083 16.5473 22.9561C16.5345 24.4938 18.0839 26.1804 20.3688 25.6592L34.3297 25.2178Z" fill="#957F6E"/>
<path d="M23.6566 23.2721C23.7597 23.18 23.844 23.0687 23.905 22.9446C24.0964 22.4697 24.0618 21.8248 24.0632 21.2964C23.1721 20.8862 22.3896 20.2729 21.7784 19.5057C21.1168 18.6941 20.6341 17.752 20.3619 16.7409L20.0826 16.6978C19.7686 16.6454 19.4736 16.5124 19.2264 16.3118C18.9219 16.0529 18.6768 15.7314 18.508 15.3691C18.1499 14.6524 17.9958 13.851 18.0624 13.0525C18.0716 12.8484 18.1236 12.6485 18.2151 12.4658C18.294 12.3334 18.4016 12.2204 18.5299 12.1351C18.6583 12.0497 18.8041 11.9943 18.9567 11.9727C19.1578 11.9401 19.3639 11.9671 19.5498 12.0504C19.7356 12.1337 19.893 12.2697 20.0023 12.4415C21.1666 10.4278 25.3785 8.10501 28.8874 7.35139C28.8874 7.35139 29.0194 7.33144 29.2352 7.30104C29.6446 7.24236 30.0621 7.28189 30.4532 7.41637C30.8443 7.55085 31.1978 7.77642 31.4845 8.07447C32.7879 9.44001 33.5821 11.1084 34.0457 12.6317C34.3038 12.3981 34.4919 12.2283 34.4919 12.2283C34.6106 12.1252 34.7502 12.0491 34.901 12.0049C35.0519 11.9608 35.2105 11.9498 35.366 11.9726C35.5187 11.994 35.6646 12.0494 35.7931 12.1348C35.9215 12.2201 36.0292 12.3331 36.1081 12.4655C36.1996 12.6482 36.2516 12.8481 36.2609 13.0522C36.3274 13.8507 36.1733 14.652 35.8152 15.3688C35.6464 15.731 35.4013 16.0526 35.0969 16.3115C34.8496 16.5121 34.5545 16.6451 34.2404 16.6975L34.0938 16.7203C34.0236 16.9833 33.9447 17.2042 33.9058 17.3224C33.6497 18.018 32.183 20.4725 30.358 21.2635C30.3602 21.7972 30.3215 22.4615 30.5177 22.9446C30.6493 23.2697 31.2662 23.752 31.9149 24.1905C31.9149 24.1905 33.0318 24.9664 32.8471 25.6553C32.6464 26.4033 31.4582 26.8586 31.4582 26.8586C30.222 27.3503 28.4212 27.5504 27.1556 27.5472C25.8152 27.5108 24.4834 27.3194 23.1869 26.977C23.1869 26.977 21.7515 26.5385 21.5737 25.8904C21.2881 24.8489 22.4418 24.1588 22.4418 24.1588C22.875 23.9041 23.2819 23.6071 23.6566 23.2721Z" fill="white"/>
<path d="M34.7485 12.4847C34.8223 12.4246 34.9074 12.3798 34.9988 12.3529C35.0901 12.3261 35.1859 12.3177 35.2806 12.3283C35.3752 12.3388 35.4668 12.3682 35.55 12.4145C35.6332 12.4609 35.7063 12.5233 35.765 12.5983C35.8945 12.7806 35.9019 13.0407 35.9102 13.2557C35.9222 13.5179 35.9073 13.7806 35.8659 14.0397C35.705 14.9959 35.2078 16.1622 34.1435 16.3476C34.0511 16.3739 33.9728 16.4354 33.9254 16.5189C33.878 16.6024 33.8653 16.7012 33.8901 16.7939C33.9175 16.8856 33.9792 16.9631 34.0624 17.0103C34.1455 17.0576 34.2437 17.0709 34.3364 17.0475C35.8031 16.792 36.5043 15.1228 36.6221 13.7988C36.6786 13.1624 36.6605 12.3699 36.1231 11.9308C35.8542 11.7138 35.5173 11.5989 35.1718 11.6063C34.8264 11.6137 34.4947 11.7431 34.2354 11.9715C34.1681 12.04 34.1304 12.1321 34.1304 12.2281C34.1304 12.3241 34.1681 12.4163 34.2354 12.4847C34.3044 12.551 34.3964 12.588 34.492 12.588C34.5877 12.588 34.6796 12.551 34.7486 12.4847H34.7485Z" fill="#211715"/>
<path d="M33.8659 15.8843C33.8481 16.1927 33.7911 16.4975 33.6961 16.7915C33.6616 16.9076 33.6236 17.0227 33.5851 17.1375C33.5724 17.1753 33.5021 17.3514 33.5485 17.2474C33.4072 17.5564 33.2445 17.8551 33.0616 18.1415C32.5501 18.9885 31.898 19.7421 31.1334 20.3701C30.7144 20.7163 30.2238 20.9652 29.697 21.0989C29.2421 21.2039 29.4346 21.9038 29.8899 21.7987C30.9825 21.5466 31.899 20.7643 32.6217 19.9408C33.2403 19.2611 33.7558 18.4944 34.1518 17.6652C34.41 17.1049 34.5588 16.5004 34.5903 15.8843C34.6063 15.417 33.8804 15.4176 33.8645 15.8843H33.8659Z" fill="#211715"/>
<path d="M20.0876 11.9715C19.8283 11.743 19.4966 11.6137 19.1511 11.6062C18.8056 11.5988 18.4687 11.7138 18.1998 11.9308C17.6624 12.3693 17.6441 13.1622 17.7008 13.7988C17.8186 15.1231 18.5193 16.7927 19.9863 17.0475C20.079 17.0703 20.177 17.0568 20.26 17.0096C20.3431 16.9624 20.4049 16.8852 20.4328 16.7939C20.4575 16.7011 20.4448 16.6023 20.3974 16.5188C20.3499 16.4353 20.2716 16.3738 20.1792 16.3475C19.1155 16.1623 18.6171 14.9959 18.457 14.0397C18.4156 13.7805 18.4008 13.5178 18.4127 13.2557C18.3992 13.0294 18.4485 12.8038 18.5552 12.6038C18.6135 12.5279 18.6863 12.4644 18.7696 12.4172C18.8528 12.3699 18.9446 12.3399 19.0396 12.3287C19.1347 12.3176 19.231 12.3257 19.3228 12.3525C19.4147 12.3793 19.5002 12.4242 19.5744 12.4847C19.6436 12.5504 19.7355 12.5871 19.831 12.5871C19.9265 12.5871 20.0183 12.5504 20.0876 12.4847C20.1549 12.4162 20.1926 12.3241 20.1926 12.2281C20.1926 12.1321 20.1549 12.0399 20.0876 11.9715Z" fill="#211715"/>
<path d="M19.7768 15.7884C20.1764 18.0922 21.4283 20.3502 23.5647 21.4587C24.1436 21.7593 24.7743 21.9475 25.4233 22.0133C25.5194 22.0127 25.6113 21.9743 25.6793 21.9064C25.7472 21.8384 25.7856 21.7465 25.7862 21.6504C25.7841 21.5548 25.7452 21.4637 25.6776 21.3961C25.61 21.3285 25.5189 21.2896 25.4233 21.2875C23.2479 21.0607 21.5524 19.1041 20.8697 17.1445C20.6966 16.6395 20.5651 16.1213 20.4766 15.5949C20.4503 15.5025 20.3888 15.4241 20.3052 15.3767C20.2217 15.3293 20.1229 15.3166 20.0301 15.3415C19.9385 15.3689 19.861 15.4306 19.8138 15.5138C19.7666 15.5969 19.7533 15.6951 19.7766 15.7878L19.7768 15.7884Z" fill="#211715"/>
<path d="M20.2723 25.3093C19.3027 25.5228 18.283 25.3066 17.5855 24.5754C17.2993 24.2778 17.0923 23.9133 16.9834 23.5151C16.8721 23.1014 16.9112 22.644 16.9481 22.1852C16.9954 21.5989 17.0723 21.0153 17.1786 20.4367C17.2572 20.0085 17.3733 19.5899 17.4619 19.1641C17.6459 18.2275 17.7699 17.2801 17.8331 16.3276C17.9439 15.0044 17.9864 13.6763 17.9605 12.3486C17.9174 11.0849 18.0026 9.82 18.2148 8.57344C18.5494 6.70423 19.2373 4.78632 20.5487 3.40368C21.2041 2.74085 21.9686 2.19563 22.8088 1.79182C23.8871 1.23461 25.0604 0.884666 26.2678 0.760136C26.9368 0.705702 27.6091 0.705702 28.2781 0.760136C28.7739 0.791406 29.2658 0.867984 29.7476 0.988912C30.8043 1.2622 31.7944 1.74759 32.6576 2.41555C33.4608 3.02219 34.1414 3.77592 34.6632 4.63662C35.2779 5.69223 35.7022 6.84771 35.9167 8.05027C36.1038 9.06335 36.1269 10.1235 36.1366 11.1517C36.1423 11.7554 36.0885 12.3572 36.1032 12.96C36.1195 13.633 36.1547 14.3057 36.2129 14.9763C36.3465 16.6646 36.6646 18.3333 37.1615 19.9524C37.3279 20.4469 37.4609 20.9521 37.5596 21.4644C37.6503 21.9897 37.7197 22.6042 37.6042 23.0975C37.5034 23.5319 37.2911 23.9326 36.9883 24.2601C36.6854 24.5875 36.3025 24.8304 35.8773 24.9649C35.3956 25.0905 34.8863 25.0564 34.4257 24.8678C34.3329 24.843 34.2341 24.8556 34.1506 24.9031C34.0671 24.9505 34.0055 25.0288 33.9793 25.1212C33.9558 25.2139 33.9691 25.3122 34.0163 25.3953C34.0635 25.4785 34.1411 25.5402 34.2327 25.5676C34.7625 25.7673 35.3383 25.8118 35.8924 25.6959C36.4466 25.58 36.9563 25.3085 37.3617 24.9133C37.7441 24.5442 38.036 24.0916 38.2143 23.5908C38.3782 23.0653 38.4247 22.5102 38.3504 21.9648C38.2647 20.997 37.95 20.1021 37.686 19.1764C37.4586 18.3725 37.2798 17.5558 37.1506 16.7304C36.9616 15.4939 36.8545 14.2463 36.8302 12.9956C36.814 12.3606 36.8695 11.7276 36.8621 11.0921C36.8556 10.5355 36.8318 9.97921 36.7964 9.42383C36.7337 8.22086 36.4881 7.03446 36.0682 5.9054C35.6297 4.75472 35.0163 3.63125 34.1357 2.75712C33.3579 1.96137 32.4456 1.3095 31.4407 0.831657C30.4433 0.377198 29.3717 0.107218 28.2781 0.0347971C26.8944 -0.0853889 25.5006 0.0579166 24.1704 0.457118C23.049 0.805088 21.9918 1.33342 21.0404 2.02135C19.4512 3.1864 18.4622 4.91152 17.8974 6.77529C17.552 7.95444 17.3422 9.16911 17.2719 10.3958C17.2256 11.0929 17.2251 11.789 17.2392 12.4873C17.2543 13.2211 17.2291 13.9587 17.2011 14.692C17.1678 15.8247 17.0738 16.9548 16.9196 18.0774C16.7814 19.0117 16.5172 19.918 16.3788 20.8523C16.2836 21.4619 16.2211 22.0761 16.1916 22.6924C16.162 23.1619 16.2366 23.6322 16.41 24.0696C16.6102 24.5472 16.919 24.9716 17.3118 25.3091C17.7046 25.6466 18.1706 25.8879 18.6729 26.0139C19.263 26.1505 19.8765 26.1488 20.4658 26.0091C20.9217 25.9087 20.7288 25.2089 20.2729 25.3093H20.2723Z" fill="#211715"/>
<path d="M28.791 7.0009C27.3551 7.32531 25.9614 7.81427 24.6375 8.45808C23.3701 9.04233 22.1823 9.78559 21.1027 10.6699C20.6154 11.0681 20.1845 11.5306 19.8219 12.0449C19.5576 12.4313 20.1863 12.7948 20.4486 12.4111C21.0507 11.5305 22.0222 10.8092 22.9398 10.2231C24.124 9.47071 25.3864 8.84908 26.7048 8.36917C27.4481 8.09447 28.2094 7.87112 28.9833 7.70069C29.4397 7.6018 29.2466 6.90186 28.7904 7.0009H28.791Z" fill="#211715"/>
<path d="M28.0382 6.22547C30.3645 7.09143 32.0843 8.93207 33.1065 11.1593C33.3497 11.6958 33.5553 12.2485 33.7216 12.8135C33.8551 13.2599 34.5558 13.0697 34.4213 12.6206C33.7154 10.2601 32.3931 8.06263 30.3539 6.62707C29.6965 6.17026 28.983 5.80003 28.2309 5.52553C28.1381 5.5008 28.0393 5.51352 27.9558 5.56095C27.8723 5.60838 27.8107 5.68673 27.7844 5.77911C27.7609 5.87183 27.7742 5.97005 27.8214 6.05323C27.8686 6.13641 27.9462 6.19813 28.0379 6.22547H28.0382Z" fill="#211715"/>
<path d="M29.9941 21.4507C29.9846 21.7704 29.9952 22.0904 30.0259 22.4089C30.0413 22.7108 30.129 23.0046 30.2814 23.2657C30.6401 23.7835 31.2189 24.1561 31.7313 24.5038C31.8144 24.5516 31.9129 24.5645 32.0055 24.5399C32.0981 24.5153 32.1772 24.455 32.2255 24.3723C32.2738 24.2896 32.2875 24.1912 32.2635 24.0984C32.2396 24.0057 32.1799 23.9262 32.0975 23.8772C31.8535 23.7117 31.611 23.5425 31.3826 23.3556C31.2827 23.2738 31.1849 23.1892 31.0922 23.0985C31.0517 23.0592 31.012 23.019 30.9741 22.9775C30.9549 22.9564 30.9363 22.9348 30.918 22.9128C30.8809 22.8685 30.9581 22.9783 30.908 22.8992C30.8862 22.8644 30.8642 22.831 30.8456 22.7943C30.8257 22.7551 30.8654 22.8531 30.8456 22.7887C30.8347 22.7545 30.8224 22.7209 30.8126 22.6865C30.7802 22.573 30.7575 22.4569 30.7446 22.3396C30.7203 22.0439 30.7124 21.7471 30.7207 21.4505C30.7237 20.9834 29.9979 20.9828 29.9949 21.4505L29.9941 21.4507Z" fill="#211715"/>
<path d="M23.7009 21.4824C23.7088 21.7728 23.7005 22.0634 23.6759 22.3529C23.6619 22.4738 23.6375 22.5933 23.6031 22.71C23.5931 22.7436 23.5816 22.7764 23.57 22.8095C23.5781 22.7866 23.5905 22.7745 23.5725 22.8027C23.5597 22.8228 23.4897 22.9264 23.5405 22.8622C23.2095 23.2811 22.7072 23.566 22.2582 23.845C22.1759 23.8939 22.1162 23.9734 22.0922 24.0662C22.0683 24.1589 22.0819 24.2574 22.1303 24.3401C22.1786 24.4228 22.2577 24.483 22.3503 24.5077C22.4428 24.5323 22.5414 24.5193 22.6245 24.4716C22.9176 24.2892 23.2071 24.0998 23.4815 23.8901C23.7252 23.7181 23.943 23.5122 24.1282 23.2784C24.2779 23.0411 24.3662 22.7704 24.3853 22.4905C24.4226 22.1557 24.4366 21.8187 24.4271 21.4819C24.4241 21.015 23.6983 21.014 23.7014 21.4819L23.7009 21.4824Z" fill="#211715"/>
<path d="M17.4548 42.2755C16.822 43.0832 15.97 44.1542 15.1852 44.7277C14.6481 45.1248 14.0273 45.3938 13.3703 45.5143C12.7133 45.6349 12.0375 45.6038 11.3943 45.4233C9.67722 44.9721 8.69937 43.4569 7.98492 41.8318C6.95671 39.4924 6.22457 36.9795 5.495 34.6433C6.95853 34.3258 9.29119 33.2577 10.7552 32.4863C11.2151 33.6147 11.6313 34.6454 12.0751 35.7052C13.2676 32.7405 13.4008 31.2058 14.4755 28.4001C14.6501 27.9204 14.9195 27.4807 15.2676 27.1072C15.6082 26.7423 16.1359 26.6404 16.5853 26.4233C18.0461 25.7177 20.3917 25.0863 21.8141 24.3247L21.9548 24.2491C22.2885 23.8987 22.6263 23.5701 22.9527 23.2872C22.6313 26.3017 22.975 28.7378 23.1455 31.6836C23.2282 33.0945 23.4203 36.3299 23.4203 39.6239C23.4224 42.4074 23.1877 45.186 22.7187 47.9297C22.6547 48.2363 22.5747 48.5778 22.4734 48.9325L22.292 49.6383C19.9593 49.6383 17.109 49.6383 17.109 49.6383C17.5038 46.7178 17.9659 42.7468 17.9659 42.1173C17.9659 41.9601 17.9625 41.8015 17.9556 41.6416C17.8135 41.8164 17.644 42.0342 17.4548 42.2755Z" fill="white"/>
<path d="M37.579 26.2175C36.0689 25.6154 33.9872 24.9818 32.8019 24.347C32.8019 24.347 32.7933 24.3425 32.7774 24.3331C32.2882 23.8555 31.7631 23.4161 31.2068 23.0187C31.5609 25.8967 31.5441 28.7907 31.3795 31.6839C31.2968 33.0948 31.1047 36.3302 31.1047 39.6242C31.1033 42.4075 31.3371 45.186 31.8036 47.93C31.865 48.2233 31.9397 48.5462 32.0357 48.8826L32.2172 49.5606H37.4187C37.0319 46.6639 36.5583 42.74 36.5583 42.1185L42.736 35.3747C41.7229 32.7277 41.5442 31.2091 40.5304 28.5621C40.3553 28.081 40.0851 27.6402 39.7361 27.2658C39.3948 26.9 38.8657 26.7978 38.4153 26.5802C38.1688 26.4612 37.8858 26.3402 37.579 26.2175Z" fill="white"/>
<path d="M23.0901 27.3268C24.2034 27.6225 25.3428 27.8099 26.4922 27.8863C27.5922 27.947 28.6956 27.8779 29.7794 27.6803C30.3855 27.5833 30.9802 27.4253 31.5545 27.2087C31.6457 27.1807 31.7228 27.1189 31.7699 27.0358C31.817 26.9528 31.8306 26.8549 31.8079 26.7622C31.7817 26.6698 31.7202 26.5914 31.6366 26.544C31.5531 26.4966 31.4543 26.4839 31.3615 26.5088C30.3653 26.8719 29.3206 27.0853 28.2618 27.1419C27.2126 27.2181 26.1582 27.1728 25.1194 27.0069C24.5013 26.9125 23.8886 26.7857 23.2837 26.627C22.8318 26.5073 22.639 27.2072 23.0908 27.327L23.0901 27.3268Z" fill="#211715"/>
<path d="M21.631 24.0116C20.767 24.4704 19.8329 24.7881 18.9148 25.1183C18.4255 25.2943 17.9357 25.4694 17.4517 25.6596C17.0091 25.8335 16.5836 26.0485 16.1412 26.2208C15.6384 26.4158 15.1963 26.6124 14.8462 27.0388C14.4993 27.4816 14.229 27.9794 14.0467 28.5115C13.6677 29.5225 13.354 30.5537 13.057 31.591C12.7185 32.7738 12.3643 33.9489 11.9254 35.099C11.9006 35.1918 11.9133 35.2907 11.9607 35.3742C12.0081 35.4578 12.0865 35.5193 12.179 35.5455C12.2718 35.5691 12.3701 35.5558 12.4534 35.5085C12.5367 35.4612 12.5985 35.3835 12.6258 35.2917C13.3744 33.3301 13.8344 31.2806 14.5299 29.3021C14.6846 28.7851 14.8987 28.2878 15.168 27.8202C15.2949 27.6033 15.4579 27.4096 15.6499 27.2475C15.8278 27.1264 16.0217 27.0305 16.2258 26.9626C16.6529 26.7973 17.0622 26.593 17.4869 26.4223C17.9557 26.2339 18.4306 26.062 18.9057 25.891C19.949 25.5152 21.0159 25.1596 21.9979 24.6382C22.4107 24.419 22.0443 23.7924 21.6316 24.0115L21.631 24.0116Z" fill="#211715"/>
<path d="M13.6519 38.4287C12.7522 36.437 11.93 34.4134 11.1053 32.3898C11.0893 32.337 11.0618 32.2884 11.0246 32.2476C10.9874 32.2068 10.9416 32.1749 10.8905 32.1541C10.8394 32.1333 10.7843 32.1242 10.7292 32.1275C10.6741 32.1308 10.6204 32.1463 10.5721 32.173C9.72205 32.62 8.85458 33.0323 7.96972 33.4099C7.14178 33.7826 6.28132 34.0783 5.3992 34.2934C5.30686 34.3197 5.22856 34.3812 5.18115 34.4647C5.13375 34.5482 5.12105 34.647 5.14578 34.7397C5.61165 36.2326 6.06058 37.7314 6.5765 39.208C6.84292 39.9703 7.12704 40.7266 7.43928 41.4713C7.6867 42.0904 7.97665 42.6916 8.30706 43.2707C8.94787 44.3515 9.84075 45.2949 11.0571 45.7019C11.7179 45.9206 12.4184 45.9932 13.11 45.9146C13.8017 45.836 14.468 45.6082 15.063 45.2468C16.2912 44.4908 17.1551 43.2341 18.0342 42.1221C18.0995 42.0526 18.1359 41.9609 18.1359 41.8655C18.1359 41.7701 18.0995 41.6784 18.0342 41.6089C17.9658 41.5414 17.8736 41.5036 17.7776 41.5036C17.6815 41.5036 17.5894 41.5414 17.521 41.6089C16.7719 42.5564 16.0461 43.5868 15.0938 44.3447C14.6106 44.7254 14.0475 44.9917 13.4467 45.1238C12.8459 45.2559 12.223 45.2503 11.6247 45.1074C10.4918 44.8419 9.65597 44.0574 9.04933 43.0938C8.32445 41.9422 7.85087 40.6264 7.39498 39.3512C6.82856 37.7664 6.34696 36.1532 5.84556 34.5471L5.59214 34.9935C6.51503 34.7653 7.41506 34.453 8.2809 34.0605C9.1837 33.6774 10.0698 33.2573 10.9391 32.8L10.406 32.5831C11.2542 34.6646 12.1002 36.7465 13.0258 38.7952C13.0748 38.8779 13.1544 38.9378 13.2473 38.9622C13.3403 38.9866 13.4391 38.9734 13.5223 38.9254C13.6037 38.8753 13.6627 38.7958 13.687 38.7033C13.7112 38.6109 13.6989 38.5126 13.6525 38.429L13.6519 38.4287Z" fill="#211715"/>
<path d="M8.73977 26.1503C8.63075 25.6037 8.46759 25.0641 8.31639 24.5279C8.10122 23.7616 7.87789 22.9963 7.62084 22.243C7.42291 21.6633 7.22679 20.9405 6.59596 20.6915C6.07717 20.4867 5.39129 20.7733 5.24901 21.3294C5.15178 21.7095 5.25763 22.1157 5.34381 22.4893C5.58453 23.5326 5.85187 24.5707 6.13523 25.6028C6.25877 26.0526 6.95916 25.8617 6.83501 25.4099C6.59429 24.5329 6.37005 23.6503 6.15549 22.766C6.08442 22.4733 6.00428 22.179 5.95711 21.8813C5.93443 21.7395 5.91175 21.5426 5.97601 21.4532C6.02764 21.4083 6.09001 21.3774 6.15708 21.3635C6.22415 21.3497 6.29365 21.3534 6.35886 21.3743C6.41948 21.4095 6.47305 21.4557 6.51688 21.5104C6.53457 21.5299 6.59928 21.6162 6.55513 21.5514C6.56547 21.5654 6.57506 21.5799 6.58386 21.5949C6.62333 21.6676 6.65946 21.741 6.69333 21.8167C6.71859 21.8734 6.66566 21.7457 6.69968 21.8319C6.70951 21.857 6.7198 21.8818 6.72993 21.9075C6.75518 21.9717 6.77952 22.0364 6.80341 22.1012C6.85452 22.2404 6.90306 22.3807 6.95039 22.5214C7.18597 23.2213 7.39433 23.9306 7.59498 24.6413C7.7536 25.2033 7.92582 25.7691 8.04013 26.3425C8.0528 26.3885 8.0744 26.4315 8.10369 26.4691C8.13298 26.5067 8.16939 26.5382 8.21085 26.5617C8.25231 26.5853 8.29799 26.6004 8.3453 26.6063C8.39261 26.6122 8.44061 26.6087 8.48657 26.596C8.53253 26.5833 8.57554 26.5617 8.61315 26.5324C8.65077 26.5032 8.68224 26.4667 8.70578 26.4253C8.72932 26.3838 8.74446 26.3381 8.75035 26.2908C8.75623 26.2435 8.75274 26.1955 8.74007 26.1496L8.73977 26.1503Z" fill="#211715"/>
<path d="M3.0718 29.1846C3.33277 30.0467 3.73323 30.8603 4.25726 31.593C4.57192 32.0115 4.95145 32.3737 5.28183 32.7789C5.60406 33.174 5.70249 33.6219 5.84281 34.1005C5.97391 34.5477 6.67445 34.3575 6.54275 33.9075C6.40288 33.4306 6.30006 32.9356 5.99916 32.5278C5.67633 32.0902 5.28274 31.7158 4.93935 31.2959C4.39591 30.6313 4.03574 29.8024 3.77173 28.9916C3.62763 28.5495 2.92664 28.7387 3.0718 29.1846Z" fill="#211715"/>
<path d="M8.8181 28.8556C8.77526 28.6094 8.71729 28.3661 8.64451 28.127C8.5885 27.9029 8.45055 27.7079 8.25787 27.5804C8.05132 27.4695 7.82301 27.4051 7.58894 27.3916C7.53178 27.3834 7.47341 27.3636 7.41444 27.3601C7.35547 27.3567 7.37634 27.345 7.40628 27.3651C7.471 27.4073 7.36772 27.3046 7.35517 27.2714C7.3324 27.2169 7.33009 27.1561 7.34867 27.1001C7.35396 27.0805 7.43833 26.9115 7.40008 26.9488C7.51258 26.84 7.84024 26.843 7.99175 26.8298C8.20344 26.8123 8.41513 26.7982 8.62682 26.7961C8.84383 26.787 9.06114 26.8051 9.27368 26.8498C9.45164 26.8769 9.6168 26.9586 9.74635 27.0836C9.86865 27.2363 9.96099 27.4107 10.0185 27.5977C10.1466 27.94 10.2137 28.3021 10.2168 28.6676C10.2027 29.2678 9.91117 29.7782 9.72262 30.344C9.67725 30.4812 9.63189 30.6188 9.59182 30.7579C9.58033 30.7981 9.56823 30.8385 9.56007 30.8789C9.5519 30.9192 9.54903 30.9576 9.54374 30.9971C9.55886 30.8834 9.53346 31.0709 9.53058 31.1039C9.48522 31.6167 9.60362 32.1505 9.71082 32.6492C9.80895 33.1055 10.5087 32.9124 10.4108 32.4562C10.2964 31.981 10.2488 31.4921 10.2692 31.0038C10.2659 31.0593 10.2465 31.096 10.2721 31.0208C10.2896 30.9694 10.3023 30.915 10.3175 30.8633C10.3672 30.6997 10.4213 30.5373 10.4768 30.3755C10.5246 30.2364 10.5735 30.0977 10.6259 29.9604C10.6376 29.9302 10.6497 29.9 10.6615 29.8697C10.697 29.779 10.6299 29.9341 10.6657 29.859C10.7058 29.7749 10.7466 29.6914 10.7792 29.6042C10.9181 29.2275 10.9698 28.8243 10.9305 28.4248C10.8877 27.9464 10.7651 27.4786 10.5676 27.0408C10.4643 26.8116 10.3076 26.6105 10.1106 26.4544C9.91362 26.2983 9.68204 26.1918 9.43532 26.1437C8.93659 26.0558 8.42736 26.0445 7.92522 26.1103C7.67696 26.1212 7.43146 26.167 7.19595 26.2463C7.07677 26.295 6.96974 26.3692 6.88244 26.4638C6.79514 26.5584 6.72971 26.671 6.69077 26.7937C6.48709 27.3037 6.72418 27.9721 7.3021 28.079C7.46238 28.1092 7.78687 28.0891 7.90254 28.2203C7.96143 28.3318 7.9979 28.4537 8.0099 28.5792C8.05555 28.7338 8.0917 28.8911 8.11816 29.0502C8.14426 29.1426 8.20575 29.2211 8.28929 29.2686C8.37284 29.316 8.47172 29.3287 8.56452 29.3037C8.65599 29.276 8.7333 29.2142 8.78047 29.1311C8.82764 29.048 8.84106 28.95 8.81795 28.8572L8.8181 28.8556Z" fill="#211715"/>
<path d="M4.76722 29.131C4.78416 29.1915 4.7707 29.0532 4.76919 29.1368C4.76752 29.2234 4.78854 29.0899 4.76798 29.1507C4.75996 29.1744 4.71808 29.2668 4.75996 29.1897C4.74212 29.2224 4.7267 29.2559 4.70674 29.2875C4.69691 29.3027 4.68496 29.3178 4.67559 29.3343C4.67786 29.3303 4.71747 29.2889 4.68965 29.3161C4.66712 29.3385 4.64777 29.364 4.62478 29.3863C4.62267 29.3882 4.59318 29.4204 4.58592 29.4215C4.58683 29.4215 4.65926 29.3752 4.59938 29.4097C4.58925 29.4155 4.57882 29.4218 4.56914 29.4282C4.502 29.4723 4.58547 29.4207 4.58562 29.4233C4.58577 29.4259 4.46889 29.4548 4.52514 29.4413C4.57458 29.4297 4.51501 29.4413 4.5011 29.4427C4.48719 29.444 4.47085 29.444 4.45573 29.4442C4.43729 29.4442 4.31405 29.4336 4.39933 29.4458C4.35811 29.4398 4.3173 29.4312 4.27716 29.42C4.2572 29.4145 4.23769 29.4077 4.21773 29.4017C4.21229 29.3999 4.16406 29.3814 4.20382 29.3976C4.23981 29.4127 4.15332 29.3707 4.13926 29.3622C4.12247 29.3522 4.1066 29.3412 4.09027 29.3303C4.10161 29.3379 4.14485 29.379 4.09889 29.3346C4.07061 29.3072 4.04218 29.2804 4.01557 29.2514C3.98896 29.2224 3.96794 29.1953 3.94375 29.1675C3.90716 29.1256 3.97308 29.2097 3.94042 29.1632C3.93074 29.1498 3.92061 29.1366 3.91018 29.1232C3.85847 29.0513 3.80978 28.9776 3.76245 28.9029C3.67414 28.7692 3.59435 28.6301 3.52354 28.4864C3.51901 28.4768 3.4992 28.4223 3.51931 28.4763C3.51311 28.4598 3.50691 28.4435 3.50117 28.427C3.48771 28.3886 3.47561 28.3499 3.46548 28.3106C3.45974 28.2884 3.4558 28.2652 3.45036 28.2434C3.44688 28.2303 3.44038 28.1724 3.44749 28.2394C3.4428 28.1951 3.44492 28.1509 3.44219 28.1068C3.44129 28.0916 3.4496 28.0348 3.43857 28.1059C3.44099 28.09 3.44431 28.0739 3.44809 28.0584C3.45347 28.0424 3.45801 28.0261 3.4617 28.0097C3.46624 27.9723 3.45414 28.0445 3.44658 28.0437C3.44658 28.0437 3.46609 28.0089 3.46835 28.0039C3.49134 27.9551 3.47289 28.0318 3.45127 28.0216C3.45217 28.0216 3.51175 27.9593 3.51553 27.9549C3.55545 27.9147 3.49965 27.9748 3.49784 27.9678C3.51047 27.958 3.52393 27.9493 3.53806 27.9418C3.55197 27.9335 3.56679 27.9267 3.58055 27.9182C3.63544 27.8848 3.53262 27.9282 3.57269 27.9202C3.60474 27.9138 3.63604 27.8987 3.6681 27.8911C3.68443 27.8872 3.70136 27.8854 3.71739 27.881C3.75988 27.8695 3.62954 27.8834 3.70892 27.8837C3.74264 27.8837 3.77651 27.8837 3.81023 27.8837C3.8692 27.8837 3.78831 27.881 3.78937 27.8799C3.79299 27.8762 3.83322 27.889 3.83911 27.8904C3.85544 27.8945 3.87147 27.9005 3.88795 27.9046C3.94919 27.9197 3.85469 27.8777 3.88372 27.9017C3.90247 27.9168 4.00468 27.98 3.92908 27.9218C3.99834 27.9876 4.09019 28.0242 4.18568 28.0242C4.28117 28.0242 4.37302 27.9876 4.44228 27.9218C4.56233 27.791 4.60165 27.5338 4.44228 27.4077C4.26832 27.2671 4.05622 27.1819 3.83335 27.163C3.61048 27.1442 3.38707 27.1925 3.19195 27.3019C2.7542 27.5471 2.64775 28.042 2.76706 28.5035C2.83339 28.7325 2.93321 28.9504 3.06327 29.1502C3.18158 29.3494 3.31509 29.5391 3.46261 29.7177C3.61525 29.8959 3.81357 30.0292 4.03626 30.1032C4.25894 30.1772 4.49758 30.1892 4.72655 30.1378C5.20421 30.0262 5.60354 29.4191 5.46746 28.9381C5.44187 28.8453 5.38047 28.7665 5.29676 28.7189C5.21305 28.6714 5.11389 28.6591 5.0211 28.6847C4.9283 28.7103 4.84947 28.7717 4.80194 28.8554C4.75441 28.9391 4.74209 29.0382 4.76767 29.131H4.76722Z" fill="#211715"/>
<path d="M5.62258 26.3084C5.20918 25.8548 4.47416 25.959 4.05562 26.3422C3.93987 26.4427 3.84527 26.5652 3.77733 26.7026C3.7094 26.8401 3.66948 26.9896 3.65991 27.1427C3.65916 27.4334 3.84061 27.7048 3.98304 27.9475C4.20985 28.3346 4.48203 28.7066 4.74165 29.0739C4.85153 29.2468 4.98247 29.4054 5.13146 29.5461C5.35812 29.7245 5.64197 29.8142 5.92998 29.7986C6.65577 29.7675 7.06071 29.0577 6.87729 28.3892C6.75406 27.9392 6.05367 28.1303 6.17751 28.5821C6.1892 28.6202 6.19755 28.6593 6.20246 28.6989C6.20427 28.7208 6.20367 28.7429 6.20351 28.7648C6.20351 28.7695 6.19444 28.8357 6.20246 28.7917C6.19679 28.8607 6.16827 28.9258 6.12141 28.9768C6.15513 28.9314 6.08966 29.0045 6.07832 29.0167C6.0511 29.046 6.08497 29.015 6.09117 29.0104C6.07922 29.0194 6.06652 29.0276 6.05397 29.0356C6.00527 29.0677 5.94666 29.0811 5.88885 29.0736C5.81797 29.0751 5.74749 29.0626 5.6814 29.037C5.65963 29.0228 5.63596 29.0117 5.61109 29.0042C5.60579 29.0029 5.5621 28.9756 5.61608 29.0104C5.66643 29.0429 5.61109 29.0046 5.60171 28.9952C5.55832 28.9499 5.51764 28.9045 5.47742 28.8566C5.45171 28.8263 5.47939 28.8602 5.48332 28.8652C5.4691 28.8469 5.45534 28.8283 5.44174 28.8099C5.41679 28.7761 5.39244 28.742 5.36825 28.7078C5.1868 28.4507 5.01004 28.1907 4.83207 27.9321C4.70425 27.7454 4.58698 27.5516 4.48082 27.3518C4.45632 27.3064 4.43409 27.2586 4.40899 27.2131C4.38238 27.1649 4.39523 27.2046 4.38435 27.1558C4.39327 27.1953 4.38435 27.144 4.38435 27.1455C4.391 27.1107 4.40245 27.0771 4.41837 27.0454C4.45842 26.9665 4.51481 26.897 4.58379 26.8416C4.63614 26.798 4.6978 26.7669 4.76403 26.7509C4.82952 26.7323 4.89819 26.7276 4.96558 26.7373C4.92718 26.7302 5.00187 26.748 5.00943 26.7506C5.06856 26.7702 4.96785 26.7342 5.02546 26.755C5.08595 26.7769 5.05661 26.7639 5.10908 26.8215C5.14268 26.8556 5.1827 26.8828 5.22685 26.9014C5.27099 26.92 5.31839 26.9297 5.36629 26.9299C5.41419 26.9301 5.46166 26.9208 5.50596 26.9025C5.55025 26.8843 5.5905 26.8575 5.62437 26.8236C5.65825 26.7897 5.68508 26.7495 5.70332 26.7052C5.72156 26.6609 5.73086 26.6134 5.73066 26.5655C5.73047 26.5176 5.72079 26.4702 5.70219 26.4261C5.68358 26.3819 5.65642 26.3419 5.62228 26.3083L5.62258 26.3084Z" fill="#211715"/>
<path d="M7.27163 27.8403C7.28435 27.9284 7.27295 28.0183 7.23867 28.1004C7.25818 28.055 7.18635 28.1784 7.20843 28.1471C7.18558 28.1673 7.16415 28.1891 7.14432 28.2123C7.10611 28.2407 7.06237 28.2607 7.01594 28.2711C6.9538 28.2909 6.9913 28.2794 7.01186 28.2767C6.9938 28.2794 6.97552 28.2805 6.95727 28.2797C6.93849 28.2794 6.92005 28.2746 6.90345 28.2658C6.76624 28.1783 6.65625 28.0542 6.58591 27.9075C6.44408 27.6746 6.29862 27.4446 6.15089 27.2152C5.90654 26.8343 5.64631 26.4527 5.54062 26.0239C5.53926 26.0181 5.52625 25.9545 5.53654 26.0041C5.54757 26.0568 5.55468 25.9623 5.53775 26.0078C5.51779 26.0612 5.57192 25.9091 5.54213 25.9794C5.56377 25.9209 5.60343 25.8709 5.65538 25.8364C5.71865 25.7868 5.79478 25.7563 5.87481 25.7485C5.95483 25.7407 6.03541 25.756 6.10704 25.7925C6.27237 25.8994 6.411 26.0427 6.51227 26.2115C6.6473 26.3884 6.77855 26.5699 6.89649 26.7587C7.14326 27.1541 7.77137 26.7902 7.52324 26.3924C7.37378 26.1591 7.21253 25.9335 7.04014 25.7166C6.88625 25.48 6.67739 25.2841 6.43138 25.1457C5.83199 24.8661 5.01003 25.1266 4.83887 25.8149C4.76704 26.1046 4.88045 26.398 4.99597 26.66C5.13105 26.9474 5.28774 27.2242 5.46471 27.4879C5.64329 27.768 5.81687 28.0513 5.99499 28.3314C6.14912 28.609 6.38984 28.8285 6.68041 28.9564C6.84151 29.0061 7.01266 29.0137 7.17751 28.9784C7.34236 28.943 7.4954 28.866 7.62198 28.7547C7.75169 28.6422 7.85322 28.5009 7.9184 28.3421C7.98358 28.1833 8.0106 28.0115 7.99727 27.8403C7.99534 27.7447 7.95649 27.6535 7.88885 27.5859C7.8212 27.5182 7.73002 27.4794 7.63438 27.4774C7.53841 27.4783 7.44664 27.5169 7.37877 27.5847C7.31091 27.6526 7.27254 27.7444 7.27163 27.8403Z" fill="#211715"/>
<path d="M32.9328 24.8189C34.6573 25.6398 36.5281 26.1006 38.2588 26.9056C38.6882 27.1055 39.1946 27.2056 39.5236 27.5685C39.8633 27.9709 40.1221 28.4352 40.2859 28.9357C40.6586 29.9358 40.9663 30.9561 41.2605 31.9817C41.5971 33.1583 41.9502 34.3268 42.3873 35.4707C42.4152 35.562 42.477 35.6391 42.5601 35.6863C42.6431 35.7334 42.741 35.747 42.8337 35.7241C42.9261 35.6979 43.0045 35.6364 43.0519 35.5529C43.0993 35.4694 43.112 35.3705 43.0871 35.2777C42.303 33.2253 41.8321 31.0759 41.0845 29.0117C40.8904 28.4756 40.6973 27.9326 40.3637 27.4646C40.0698 26.9867 39.6135 26.6308 39.0785 26.4619C38.6551 26.2943 38.2441 26.099 37.8221 25.9265C37.3587 25.7372 36.8883 25.5653 36.4174 25.3953C35.3712 25.0173 34.3043 24.6709 33.2985 24.192C33.2148 24.146 33.1166 24.1339 33.0243 24.1581C32.9319 24.1824 32.8524 24.2411 32.802 24.3222C32.7543 24.4055 32.7412 24.5043 32.7655 24.5971C32.7899 24.69 32.8497 24.7696 32.9322 24.8188L32.9328 24.8189Z" fill="#211715"/>
<path d="M15.4106 27.0055C15.7019 30.0862 16.1101 33.1666 16.6545 36.2128C16.7739 36.8805 16.9017 37.5472 17.0499 38.2087C17.2658 39.0907 17.4288 39.9848 17.538 40.8863C17.6023 41.451 17.615 42.0205 17.5758 42.5875C17.5315 43.1319 17.4725 43.6736 17.4131 44.2157C17.2179 45.9939 17 47.7695 16.7593 49.5424C16.7369 49.6351 16.7507 49.7328 16.7978 49.8157C16.8448 49.8987 16.9217 49.9606 17.0127 49.9889C17.1055 50.0138 17.2043 50.0012 17.2879 49.9537C17.3714 49.9063 17.4329 49.8278 17.459 49.7354C17.6795 48.1029 17.8831 46.4682 18.0699 44.8313C18.1909 43.7662 18.3658 42.6807 18.3171 41.6059C18.2415 39.9328 17.7879 38.3247 17.4775 36.6885C17.1813 35.1285 16.9418 33.5576 16.7246 31.9849C16.4959 30.3295 16.2937 28.6692 16.1364 27.0054C16.1339 26.9099 16.0949 26.8191 16.0274 26.7515C15.9598 26.684 15.869 26.645 15.7735 26.6425C15.6775 26.6431 15.5856 26.6816 15.5177 26.7495C15.4498 26.8174 15.4113 26.9093 15.4106 27.0054V27.0055Z" fill="#211715"/>
<path d="M22.56 23.5854C22.3919 25.4188 22.4693 27.2517 22.6012 29.0845C22.7087 30.571 22.8106 32.0569 22.8862 33.5451C23.064 37.0458 23.1806 40.5693 22.86 44.0651C22.7879 44.8514 22.6963 45.636 22.585 46.4188C22.4859 47.234 22.3317 48.0416 22.1236 48.836C21.9965 49.2863 22.6966 49.4785 22.8236 49.029C23.0143 48.309 23.1575 47.5773 23.2523 46.8386C23.356 46.1267 23.4488 45.413 23.5235 44.6975C23.6998 42.9996 23.7865 41.2937 23.7834 39.5867C23.7822 36.3153 23.6206 33.041 23.3782 29.779C23.2247 27.7146 23.0964 25.6525 23.2858 23.5856C23.2851 23.4895 23.2467 23.3976 23.1788 23.3297C23.1109 23.2618 23.019 23.2233 22.9229 23.2227C22.8273 23.2247 22.7362 23.2635 22.6685 23.3312C22.6009 23.3988 22.562 23.4898 22.56 23.5854Z" fill="#211715"/>
<path d="M21.931 37.528C21.4966 36.2465 21.0944 34.9545 20.6861 33.6644C20.4829 33.0224 20.2788 32.3805 20.0685 31.7409C19.9882 31.4965 19.9061 31.252 19.848 31.0012C19.8217 30.8938 19.8062 30.784 19.8017 30.6735C19.8001 30.6173 19.7981 30.6899 19.7961 30.6985C19.8002 30.6795 19.8052 30.6607 19.8113 30.6422C19.8179 30.6154 19.8281 30.5897 19.8415 30.5656C20.1275 30.042 20.4923 29.5654 20.9231 29.1527C20.9899 29.084 21.0273 28.9919 21.0273 28.8961C21.0273 28.8002 20.9899 28.7082 20.9231 28.6395C20.6582 28.3909 20.4084 28.1267 20.1751 27.8484C20.0662 27.718 19.9699 27.5782 19.8627 27.4469C19.8276 27.4038 19.8429 27.3668 19.8314 27.415C19.8565 27.3638 19.8892 27.3166 19.9281 27.2748C20.2331 26.8436 20.5567 26.4252 20.8897 26.0154C21.641 25.0521 22.487 24.1664 23.4148 23.3716C23.4822 23.3032 23.52 23.211 23.52 23.115C23.52 23.019 23.4822 22.9268 23.4148 22.8584C23.3457 22.7923 23.2538 22.7554 23.1582 22.7554C23.0626 22.7554 22.9707 22.7923 22.9016 22.8584C22.1077 23.534 21.377 24.2804 20.7185 25.0885C20.3844 25.4842 20.061 25.8885 19.7482 26.3014C19.6187 26.4716 19.4913 26.6436 19.3663 26.8171C19.2032 27.044 19.0466 27.2813 19.1243 27.5757C19.2037 27.8794 19.4872 28.1534 19.6838 28.3877C19.9107 28.6565 20.1531 28.9119 20.4096 29.1527V28.6395C19.9897 29.0586 19.6197 29.5249 19.3071 30.0291C19.1813 30.2153 19.1022 30.4291 19.0765 30.6524C19.0821 30.9494 19.1364 31.2435 19.2373 31.5229C19.6315 32.8383 20.0747 34.1419 20.4906 35.4507C20.7318 36.2094 20.9758 36.967 21.2315 37.721C21.3808 38.161 22.0821 37.9721 21.9315 37.528H21.931Z" fill="#211715"/>
<path d="M23.2254 46.0108C25.458 46.0099 27.6911 45.939 29.9239 45.9071C30.424 45.9 30.9244 45.892 31.4247 45.892C31.8917 45.892 31.8924 45.1662 31.4247 45.1662C29.138 45.1671 26.8509 45.2353 24.5646 45.2699C24.1184 45.2767 23.6725 45.285 23.2258 45.285C22.7589 45.285 22.7582 46.0108 23.2258 46.0108H23.2254Z" fill="#211715"/>
<path d="M37.7824 49.5601C37.5684 47.9565 37.3673 46.3513 37.1791 44.7445C37.0561 43.686 36.8828 42.6102 36.9372 41.5415C37.0205 39.8983 37.4805 38.3147 37.7809 36.7048C38.0705 35.1545 38.3067 33.594 38.5208 32.0325C38.7499 30.3611 38.956 28.6859 39.1147 27.0063C39.1141 26.9102 39.0756 26.8183 39.0077 26.7504C38.9398 26.6825 38.8479 26.644 38.7518 26.6434C38.6562 26.6454 38.5651 26.6843 38.4975 26.7519C38.4298 26.8195 38.3909 26.9107 38.3889 27.0063C38.1016 30.0404 37.7 33.0734 37.1616 36.0732C36.8752 37.6685 36.4325 39.2397 36.2651 40.8541C36.1978 41.4211 36.1837 41.9931 36.2229 42.5627C36.2683 43.1118 36.3301 43.6597 36.3918 44.2072C36.5932 45.9941 36.819 47.7785 37.0571 49.5609C37.0601 49.6562 37.0993 49.7467 37.1668 49.8141C37.2342 49.8815 37.3247 49.9207 37.42 49.9238C37.596 49.9238 37.8091 49.7565 37.7829 49.5609L37.7824 49.5601Z" fill="#211715"/>
<path d="M32.1421 24.0437C32.8421 24.7085 33.4794 25.4364 34.0459 26.2182C34.192 26.4188 34.3356 26.6211 34.479 26.823L34.7238 27.1696C34.7619 27.235 34.8055 27.2971 34.8541 27.3551C34.8662 27.3671 34.9048 27.4593 34.9014 27.382C34.9045 27.4529 34.7629 27.5828 34.7218 27.6359C34.6244 27.7614 34.5224 27.8834 34.4177 28.0029C34.2233 28.225 34.0173 28.4362 33.8025 28.6387C33.7357 28.7074 33.6984 28.7995 33.6984 28.8953C33.6984 28.9911 33.7357 29.0832 33.8025 29.1519C34.1292 29.4669 34.4352 29.8028 34.7185 30.1574C34.8098 30.2671 34.881 30.3921 34.9288 30.5267C34.9329 30.5418 34.9427 30.4781 34.924 30.5478C34.9212 30.5581 34.9222 30.5673 34.914 30.6145C34.8967 30.713 34.8775 30.811 34.8564 30.9086C34.6447 31.8809 34.2757 32.8214 33.9809 33.7707C33.8421 34.2178 34.5425 34.4091 34.6807 33.9636C34.8653 33.3697 35.0519 32.7762 35.2488 32.186C35.3943 31.7661 35.5107 31.3367 35.5973 30.9008C35.6505 30.7114 35.66 30.5124 35.6251 30.3188C35.5649 30.1276 35.4701 29.9491 35.3455 29.7921C35.029 29.3851 34.685 29.0001 34.3161 28.6398V29.1527C34.5644 28.9197 34.7995 28.673 35.0203 28.4137C35.2156 28.1833 35.483 27.9194 35.5832 27.6274C35.6972 27.2964 35.5147 27.0353 35.3315 26.7757C35.1574 26.5292 34.9837 26.2824 34.8077 26.0375C34.1717 25.1351 33.4511 24.2954 32.6557 23.5297C32.3169 23.2084 31.8026 23.7209 32.1425 24.0429L32.1421 24.0437Z" fill="#211715"/>
<path d="M32.3856 48.7857C32.1988 48.0741 32.0592 47.3509 31.9677 46.6209C31.87 45.944 31.7859 45.2652 31.7153 44.5846C31.5442 42.8864 31.4616 41.1805 31.4678 39.4738C31.4711 37.6675 31.5283 35.8616 31.6139 34.0575C31.6831 32.6038 31.7867 31.1518 31.8296 29.697C31.9089 27.5113 31.8273 25.3228 31.5854 23.149C31.5827 23.0537 31.5435 22.963 31.4761 22.8955C31.4086 22.828 31.3179 22.7889 31.2225 22.7861C31.1265 22.7867 31.0345 22.8252 30.9666 22.8931C30.8987 22.961 30.8602 23.053 30.8596 23.149C31.0793 25.0986 31.1663 27.0609 31.12 29.0224C31.0921 30.5506 30.9876 32.0748 30.9105 33.6009C30.7338 37.1031 30.6203 40.6273 30.9446 44.1241C31.0202 44.939 31.1184 45.7513 31.2319 46.5616C31.3281 47.3767 31.4797 48.1844 31.6855 48.9789C31.8121 49.4277 32.5126 49.237 32.3855 48.786L32.3856 48.7857Z" fill="#211715"/>
<path d="M28.9759 38.3914C28.8005 38.5571 28.6379 38.736 28.4896 38.9264C28.7515 39.2004 29.03 39.4579 29.3237 39.6976L29.4053 39.758C29.878 39.087 30.5005 38.6845 31.2407 38.3886C32.3367 37.9457 33.5126 37.7346 34.6942 37.7686C35.8613 37.8072 37.1495 38.1737 38.0196 39.0038C38.7303 38.1882 40.0582 37.5553 41.083 37.2993C42.0996 37.07 43.1476 37.0143 44.1828 37.1344C44.8056 37.1915 45.4123 37.3646 45.9714 37.6448L45.9948 37.6215C46.1763 37.4493 46.5392 37.0867 46.847 36.7604C45.732 35.9172 45.1068 35.7914 43.7927 35.6635C42.7921 35.5661 41.6552 35.5333 40.6778 35.7777C39.7004 36.022 38.4449 36.43 37.7498 37.2032C36.9673 36.6515 35.8723 36.3389 34.6955 36.3001C33.5138 36.266 32.3379 36.4771 31.2419 36.92C30.7382 37.1092 30.2613 37.3634 29.8234 37.6761C29.5276 37.8983 29.2446 38.1371 28.9759 38.3914Z" fill="white"/>
<path d="M43.136 41.8742C43.892 41.2013 46.2785 38.9595 46.919 38.3187C46.3932 37.7744 45.3886 37.2459 44.1821 37.1335C43.147 37.0134 42.099 37.0691 41.0824 37.2984C40.0575 37.5544 38.7301 38.1873 38.019 39.0029C37.1489 38.1728 35.8606 37.8063 34.6936 37.7677C33.512 37.7337 32.3361 37.9448 31.2401 38.3876C30.3479 38.744 29.6273 39.2554 29.1327 40.2042C29.8164 40.8021 32.3516 42.7506 33.063 43.3152L43.136 41.8742Z" fill="#3F88C9"/>
<path d="M39.8127 40.4657C39.7714 40.4322 39.7297 40.3993 39.6877 40.3669C39.1515 39.9528 38.7626 39.8879 38.2117 40.1957L37.9158 40.4528C37.6904 40.2137 37.4993 40.0155 37.4178 39.9447C37.3001 39.8384 37.157 39.7642 37.0022 39.7295C36.8475 39.6947 36.6864 39.7005 36.5346 39.7464C36.1868 39.8759 36.0404 40.0663 36.0404 40.358L36.0073 40.606C35.8227 40.4105 35.6563 40.2422 35.5295 40.1285C35.422 40.0321 34.8985 39.7742 34.5501 40.0359C34.2429 40.2668 34.1954 40.5757 34.3734 40.8471C34.392 40.8786 34.4091 40.911 34.4245 40.9442L34.3464 40.9035C34.2477 40.8489 34.1384 40.8161 34.0259 40.8071C33.9134 40.7981 33.8003 40.8132 33.6942 40.8515C33.588 40.8897 33.4912 40.9502 33.4103 41.0289C33.3294 41.1075 33.2662 41.2025 33.2249 41.3076C33.1698 41.5588 33.2014 41.8213 33.3146 42.0523C33.5404 42.4886 34.5265 43.5831 35.0588 44.1456C36.2783 45.0074 38.2243 44.4073 39.7831 44.045C40.0022 43.9909 40.2108 43.9011 40.4008 43.7792C40.9838 43.3746 41.284 42.8772 41.7603 42.351C41.9625 42.156 42.1419 41.9385 42.2949 41.7028C42.4501 41.4004 42.578 41.0705 42.4915 40.7413C42.4563 40.5689 42.3596 40.4151 42.2193 40.3088C41.9874 40.156 41.6771 40.2289 41.42 40.3339C41.036 40.491 40.6789 40.7072 40.3616 40.9746C40.1918 40.7913 40.0083 40.6212 39.8127 40.4657Z" fill="white"/>
<path d="M40.2177 43.4657C39.886 43.6938 39.4632 43.7477 39.0799 43.8401C38.6284 43.949 38.1757 44.0557 37.7174 44.1325C36.9337 44.2641 36.0433 44.3264 35.3372 43.8965C34.9371 43.6529 34.5721 44.2804 34.9708 44.5233C35.8176 45.0386 36.8446 44.9987 37.7884 44.8521C38.2783 44.7765 38.7616 44.6631 39.2432 44.5472C39.6968 44.4378 40.1912 44.3624 40.5839 44.0925C40.6652 44.0423 40.7241 43.9627 40.7484 43.8702C40.7726 43.7778 40.7603 43.6796 40.7141 43.5959C40.665 43.5135 40.5854 43.4536 40.4925 43.4293C40.3997 43.4049 40.301 43.418 40.2177 43.4657Z" fill="#211715"/>
<path d="M40.9024 41.0678C40.5511 40.5906 40.1118 40.1852 39.6081 39.8732C39.3785 39.7293 39.1146 39.6493 38.8437 39.6414C38.5559 39.6519 38.2755 39.7351 38.0286 39.8834C37.9454 39.9319 37.885 40.0115 37.8606 40.1047C37.8362 40.1978 37.8498 40.2968 37.8984 40.3799C37.947 40.463 38.0266 40.5234 38.1197 40.5479C38.2128 40.5723 38.3118 40.5587 38.3949 40.5101C38.4367 40.4873 38.515 40.4464 38.5334 40.4384C38.5127 40.4475 38.5708 40.4233 38.5773 40.4216C38.5998 40.4136 38.6227 40.4065 38.6455 40.3993C38.6943 40.384 38.7443 40.3727 38.7949 40.3652C38.7232 40.3748 38.8359 40.3669 38.8597 40.3674C38.8691 40.3674 38.9567 40.3734 38.9071 40.3684C38.8635 40.364 38.9302 40.3734 38.9382 40.3751C38.9815 40.3845 39.0242 40.3966 39.066 40.4112C39.0859 40.4183 39.1374 40.4415 39.0924 40.4207C39.1147 40.4312 39.1366 40.4419 39.1582 40.4533C39.2102 40.4805 39.2606 40.5106 39.3094 40.5425C39.492 40.6643 39.664 40.8014 39.8235 40.9522C39.9872 41.1005 40.1384 41.2619 40.2758 41.4347C40.3264 41.5156 40.406 41.5741 40.4983 41.5983C40.5905 41.6225 40.6886 41.6105 40.7724 41.5649C40.855 41.5159 40.9149 41.4363 40.9393 41.3434C40.9637 41.2505 40.9505 41.1518 40.9025 41.0685L40.9024 41.0678Z" fill="#211715"/>
<path d="M39.3289 41.4232C38.9557 41.0721 38.6214 40.6739 38.2704 40.3004C38.0965 40.1152 37.9242 39.9272 37.7412 39.7506C37.5919 39.5987 37.4088 39.4843 37.2069 39.4166C37.0049 39.3489 36.7899 39.3299 36.5792 39.3611C36.3353 39.3938 36.1109 39.5119 35.9458 39.6944C35.7807 39.8768 35.6855 40.1119 35.6772 40.3578C35.6668 40.8251 36.3926 40.8249 36.403 40.3578C36.403 40.3332 36.4041 40.3085 36.4064 40.2841C36.4014 40.3222 36.4029 40.3202 36.4113 40.278C36.4252 40.2377 36.4243 40.2356 36.4088 40.2717C36.4182 40.252 36.4289 40.233 36.4408 40.2147C36.4053 40.2701 36.4821 40.1744 36.4986 40.1617C36.4625 40.1897 36.5771 40.1201 36.5914 40.1133C36.6611 40.079 36.738 40.0621 36.8157 40.0641C36.8933 40.0662 36.9693 40.087 37.037 40.125C37.2593 40.2308 37.4341 40.4716 37.5994 40.6462C38.0039 41.0737 38.3857 41.533 38.8149 41.9364C39.1548 42.2564 39.6691 41.7443 39.3281 41.4232H39.3289Z" fill="#211715"/>
<path d="M33.9434 43.3106C32.7047 42.331 31.3812 41.4577 30.1153 40.5133C30.033 40.4519 29.9509 40.3903 29.869 40.3284C29.8336 40.3015 29.7984 40.2747 29.7631 40.2476L29.7128 40.2091C29.6674 40.1738 29.7777 40.2599 29.7028 40.2012C29.597 40.1182 29.4911 40.0349 29.39 39.947L29.4467 40.3867C29.692 39.9049 30.0523 39.491 30.4957 39.1816C31.0038 38.8568 31.5592 38.613 32.1422 38.4589C33.3898 38.0935 34.7634 37.9832 36.0282 38.3311C36.6735 38.4948 37.2691 38.8132 37.7636 39.2589C37.8322 39.3259 37.9243 39.3635 38.0202 39.3635C38.1161 39.3635 38.2082 39.3259 38.2768 39.2589C38.999 38.4451 40.0913 37.9295 41.1304 37.6603C41.8207 37.4914 42.5308 37.4177 43.2411 37.4411C43.906 37.4337 44.5681 37.5264 45.2054 37.716C45.7522 37.8833 46.2517 38.1775 46.6631 38.5747V38.0615C45.5319 39.1902 44.3212 40.2467 43.1368 41.3191C42.8813 41.5502 42.6253 41.7808 42.3688 42.0107C42.0194 42.322 42.5341 42.8339 42.882 42.5239C44.0901 41.4473 45.2853 40.3559 46.4676 39.2498C46.706 39.0271 46.9454 38.8051 47.1764 38.5747C47.2431 38.5059 47.2803 38.4139 47.2803 38.3181C47.2803 38.2223 47.2431 38.1303 47.1764 38.0615C46.2414 37.1111 44.8905 36.7932 43.6039 36.728C42.1794 36.631 40.7541 36.9028 39.4653 37.5173C38.8245 37.8137 38.2467 38.2307 37.7636 38.7457H38.2768C37.2822 37.8127 35.8938 37.4211 34.5538 37.4009C33.7559 37.3908 32.9602 37.489 32.1887 37.6927C31.5119 37.8549 30.8629 38.1164 30.2627 38.4688C29.6527 38.8487 29.1549 39.3842 28.8207 40.0204C28.7813 40.09 28.7655 40.1704 28.7757 40.2497C28.786 40.329 28.8216 40.4029 28.8774 40.4602C29.4024 40.9166 29.9831 41.3159 30.5453 41.7246C31.2587 42.2434 31.9771 42.7557 32.6907 43.2743C32.8475 43.3883 33.0038 43.5029 33.1594 43.618C33.218 43.6614 33.2763 43.7051 33.3345 43.7491C33.3478 43.7593 33.4373 43.8276 33.3895 43.7909C33.3418 43.7541 33.4169 43.8123 33.4307 43.8232C33.5001 43.8885 33.5919 43.9249 33.6873 43.9249C33.7826 43.9249 33.8744 43.8885 33.9439 43.8232C34.0113 43.7548 34.0491 43.6627 34.0491 43.5666C34.0491 43.4706 34.0113 43.3784 33.9439 43.31L33.9434 43.3106Z" fill="#211715"/>
<path d="M29.5068 39.3832C29.5995 39.4536 29.4917 39.369 29.4752 39.3549C29.4368 39.3225 29.3996 39.2894 29.3611 39.2562C29.2782 39.1831 29.1963 39.109 29.1152 39.0339C28.9833 38.9218 28.8599 38.7999 28.7463 38.6693V39.1825C29.5383 38.2018 30.6019 37.4765 31.8041 37.0972C33.0693 36.6513 34.4287 36.5419 35.7489 36.7797C36.3984 36.8975 37.0166 37.148 37.5649 37.5153C37.6343 37.5556 37.7149 37.5718 37.7944 37.5616C37.8739 37.5513 37.9478 37.5151 38.0047 37.4586C38.4092 37.0483 38.9011 36.7344 39.4437 36.5405C40.0059 36.3141 40.59 36.1466 41.1866 36.0404C41.8766 35.9401 42.5758 35.9205 43.2703 35.9821C43.8615 36.0052 44.4494 36.0826 45.0265 36.2131C45.6239 36.3879 46.1804 36.68 46.6635 37.0724L46.59 36.5025C46.3124 36.7956 46.0306 37.0848 45.7378 37.3636C45.3993 37.6868 45.9131 38.1995 46.251 37.8768C46.5431 37.5982 46.8256 37.3088 47.1032 37.0157C47.1412 36.9759 47.1699 36.928 47.187 36.8757C47.2042 36.8234 47.2094 36.7679 47.2024 36.7132C47.1953 36.6586 47.1762 36.6063 47.1463 36.56C47.1164 36.5137 47.0766 36.4747 47.0297 36.4458C46.5425 36.0591 45.9913 35.7607 45.4011 35.564C44.8011 35.4048 44.1859 35.3092 43.5659 35.2788C42.8186 35.2038 42.0654 35.2086 41.3191 35.2932C40.6484 35.3854 39.9906 35.5551 39.359 35.7988C38.674 36.0572 37.9933 36.3991 37.4915 36.9454L37.9313 36.8887C36.8218 36.1189 35.3858 35.8803 34.0604 35.9399C32.6391 36.0035 31.1384 36.4 29.9275 37.163C29.2817 37.5654 28.7091 38.0747 28.234 38.669C28.1697 38.739 28.134 38.8306 28.134 38.9256C28.134 39.0206 28.1697 39.1122 28.234 39.1822C28.5022 39.4933 28.8068 39.7711 29.1412 40.0096C29.2244 40.0576 29.3232 40.0709 29.4162 40.0465C29.5091 40.0221 29.5887 39.9621 29.6376 39.8794C29.6839 39.7958 29.6962 39.6975 29.6719 39.6051C29.6477 39.5126 29.5888 39.4331 29.5074 39.3829L29.5068 39.3832Z" fill="#211715"/>
<path d="M34.5295 40.5901C34.3332 40.4823 34.1101 40.4332 33.8867 40.4487C33.6633 40.4642 33.449 40.5436 33.2695 40.6775C33.1251 40.7816 33.0096 40.9207 32.9338 41.0818C32.858 41.2429 32.8245 41.4206 32.8365 41.5982C32.8633 41.9629 33.0032 42.31 33.2367 42.5913C33.4655 42.8983 33.7121 43.1916 33.9637 43.48C34.2353 43.7911 34.513 44.0966 34.7969 44.3965C35.1183 44.7368 35.6309 44.2229 35.3101 43.8833C35.048 43.6057 34.7909 43.3235 34.5389 43.0365C34.2893 42.7527 34.0178 42.4377 33.8216 42.1675C33.7444 42.0705 33.677 41.9661 33.6205 41.8557C33.58 41.759 33.5598 41.655 33.5613 41.5501C33.5613 41.54 33.5665 41.4258 33.5606 41.4745C33.5621 41.4623 33.5925 41.3453 33.5713 41.4059C33.5502 41.4665 33.5931 41.371 33.6005 41.3589C33.6459 41.2833 33.5532 41.4051 33.6187 41.3353C33.6491 41.3011 33.6823 41.2695 33.7178 41.2408C33.671 41.2768 33.7611 41.2173 33.7659 41.2146C33.8272 41.182 33.8955 41.1651 33.9649 41.1654C34.0343 41.1657 34.1025 41.1832 34.1635 41.2163C34.2471 41.2625 34.3453 41.2747 34.4378 41.2505C34.5302 41.2262 34.6098 41.1674 34.66 41.0861C34.7077 41.0028 34.7208 40.9041 34.6965 40.8112C34.6721 40.7184 34.6123 40.6388 34.5298 40.5897L34.5295 40.5901Z" fill="#211715"/>
<path d="M37.6696 41.8917C37.3188 41.5116 36.9767 41.1233 36.6276 40.7413C36.4552 40.5526 36.2818 40.365 36.1035 40.1819C35.9706 40.0291 35.8205 39.8921 35.6562 39.7736C35.127 39.4378 34.3902 39.4913 34.0427 40.056C33.6461 40.7008 34.2258 41.2849 34.6116 41.7568C35.0395 42.2906 35.4958 42.8009 35.9786 43.2857C36.3113 43.6139 36.8254 43.101 36.492 42.7725C36.112 42.3979 35.7542 42.0042 35.4131 41.5941C35.2395 41.3855 35.0687 41.1744 34.8966 40.9645C34.8176 40.8707 34.7474 40.7698 34.6867 40.6633C34.6704 40.6364 34.6558 40.6086 34.643 40.5798C34.6407 40.5729 34.6223 40.4938 34.6309 40.5316C34.6385 40.5641 34.6413 40.4702 34.6297 40.5222C34.647 40.4478 34.6913 40.3824 34.7541 40.3388C34.8168 40.2952 34.8935 40.2764 34.9693 40.2862C35.036 40.2906 34.9297 40.2779 34.9944 40.2891C35.0141 40.2924 35.0337 40.2971 35.0531 40.3019C35.1023 40.314 35.1506 40.3296 35.1976 40.3485C35.1441 40.3267 35.2385 40.37 35.2568 40.3804C35.2707 40.3884 35.2856 40.3997 35.3003 40.4068C35.3582 40.4348 35.254 40.3556 35.2825 40.3931C35.4043 40.5278 35.5335 40.6558 35.6694 40.7762C35.825 40.9388 35.9777 41.1042 36.1294 41.2705C36.4734 41.647 36.8098 42.0298 37.1564 42.4046C37.2246 42.4717 37.3166 42.5092 37.4124 42.5088C37.5081 42.5084 37.5998 42.4702 37.6675 42.4025C37.7352 42.3348 37.7734 42.2431 37.7738 42.1474C37.7742 42.0516 37.7367 41.9596 37.6696 41.8914V41.8917Z" fill="#211715"/>
<path d="M40.797 41.0914C40.998 40.9493 41.2111 40.8253 41.4339 40.7208C41.5789 40.6535 41.8059 40.5393 41.9705 40.5897C42.1 40.6287 42.1461 40.8077 42.1559 40.9261C42.1531 41.1523 42.0848 41.3729 41.9593 41.5612C41.8524 41.7227 41.7276 41.8715 41.5872 42.005C41.436 42.1662 41.2943 42.3348 41.1543 42.5053C40.8865 42.866 40.5716 43.1891 40.218 43.4662C40.1369 43.5166 40.0782 43.5962 40.0539 43.6886C40.0297 43.7809 40.0419 43.8791 40.0879 43.9628C40.137 44.0453 40.2165 44.1051 40.3094 44.1295C40.4023 44.1539 40.501 44.1407 40.5843 44.093C41.0761 43.7445 41.4325 43.2943 41.8171 42.838C41.9856 42.6379 42.1712 42.4538 42.3411 42.2552C42.5449 42.0191 42.7002 41.7452 42.7984 41.4491C42.9904 40.8783 42.8254 40.0732 42.1683 39.8931C41.5774 39.7311 40.8948 40.1397 40.4309 40.4651C40.3498 40.5154 40.291 40.595 40.2668 40.6874C40.2426 40.7798 40.2547 40.878 40.3007 40.9616C40.3499 41.0441 40.4295 41.104 40.5224 41.1283C40.6153 41.1527 40.714 41.1396 40.7973 41.0918L40.797 41.0914Z" fill="#211715"/>
<path d="M25.8284 18.123C26.2634 18.3479 26.7479 18.4601 27.2375 18.4492C27.7446 18.4708 28.2445 18.3234 28.6588 18.0302C28.7265 17.9619 28.7644 17.8697 28.7644 17.7736C28.7644 17.6775 28.7265 17.5853 28.6588 17.517C28.5896 17.4511 28.4978 17.4144 28.4023 17.4144C28.3067 17.4144 28.2149 17.4511 28.1457 17.517C28.2556 17.4314 28.1694 17.4975 28.1413 17.5156C28.1131 17.5338 28.0837 17.5506 28.0539 17.5661C28.0292 17.5791 27.922 17.6216 28.0211 17.585C27.981 17.6002 27.9415 17.6153 27.9001 17.6287C27.7901 17.6635 27.6775 17.6892 27.5634 17.7055C27.6166 17.6977 27.5511 17.7065 27.5304 17.7084C27.4972 17.7117 27.4641 17.7145 27.431 17.7166C27.3514 17.7217 27.2715 17.7238 27.1917 17.7234C27.1202 17.7234 27.0486 17.7205 26.9774 17.7157C26.9446 17.7134 26.9118 17.7108 26.8791 17.7075C26.8761 17.7075 26.7582 17.6907 26.8308 17.7022C26.7245 17.686 26.6194 17.6626 26.5162 17.6324C26.4721 17.6192 26.4292 17.6033 26.3858 17.5885C26.2926 17.5566 26.4381 17.6157 26.3542 17.5761C26.3002 17.5507 26.2469 17.5242 26.1942 17.4963C26.1106 17.4497 26.0123 17.4373 25.9198 17.4615C25.8273 17.4858 25.7477 17.5449 25.6978 17.6265C25.6502 17.7098 25.6372 17.8085 25.6615 17.9013C25.6859 17.9941 25.7456 18.0737 25.828 18.123H25.8284Z" fill="#211715"/>
<path d="M27.0547 14.8013C27.1197 15.0359 27.1717 15.2739 27.2104 15.5142L27.1976 15.4178C27.2021 15.4503 27.203 15.4833 27.2002 15.5161L27.2132 15.4196C27.211 15.4347 27.2074 15.4495 27.2024 15.4639L27.2389 15.3773C27.2347 15.3872 27.2297 15.3967 27.2237 15.4057L27.2804 15.3322C27.2736 15.3407 27.2658 15.3484 27.2572 15.3552L27.3306 15.2985C27.3126 15.3098 27.2937 15.3199 27.2742 15.3287L27.3609 15.2923C27.3304 15.3052 27.2985 15.3145 27.2658 15.3199L27.3622 15.3069C27.3326 15.3105 27.3026 15.3105 27.2729 15.3069L27.3694 15.3199C27.3356 15.3153 27.3025 15.3071 27.269 15.3026C27.2222 15.2875 27.1722 15.2853 27.1242 15.2961C27.0762 15.2982 27.0296 15.313 26.9892 15.3392C26.9061 15.3877 26.8457 15.4673 26.8213 15.5604C26.7969 15.6535 26.8105 15.7525 26.859 15.8356C26.882 15.8766 26.9131 15.9124 26.9504 15.941C26.9877 15.9696 27.0305 15.9903 27.076 16.0019C27.1524 16.0123 27.2272 16.0321 27.3043 16.0352C27.4212 16.0358 27.5364 16.0084 27.6405 15.9552C27.7063 15.9254 27.7646 15.8812 27.8111 15.8259C27.8577 15.7706 27.8912 15.7056 27.9093 15.6357C27.9332 15.5219 27.932 15.4043 27.906 15.2911C27.8671 15.0614 27.8141 14.8338 27.7548 14.6085C27.7421 14.5626 27.7205 14.5196 27.6912 14.482C27.6619 14.4444 27.6255 14.4129 27.5841 14.3894C27.5426 14.3658 27.497 14.3507 27.4497 14.3448C27.4024 14.3389 27.3544 14.3424 27.3084 14.3551C27.2625 14.3678 27.2195 14.3894 27.1819 14.4186C27.1443 14.4479 27.1128 14.4843 27.0893 14.5258C27.0657 14.5672 27.0506 14.6129 27.0447 14.6602C27.0388 14.7075 27.0423 14.7555 27.055 14.8015L27.0547 14.8013Z" fill="#211715"/>
<path d="M23.2826 12.783C23.1636 13.1699 23.2411 14.0599 23.974 14.1357C24.9428 14.1298 24.9944 13.0538 24.6682 12.548C24.4012 12.1337 23.6161 11.9613 23.2826 12.783Z" fill="#211715"/>
<path d="M31.0404 12.783C31.1594 13.1699 31.0818 14.0599 30.3489 14.1357C29.3801 14.1298 29.3286 13.0538 29.6546 12.548C29.9216 12.1336 30.7067 11.9613 31.0404 12.783Z" fill="#211715"/>
</g>
<defs>
<clipPath id="clip0_3640_21117">
<rect width="50" height="50" fill="white"/>
</clipPath>
</defs>
</svg>
