<svg width="59" height="60" viewBox="0 0 59 60" fill="none" xmlns="http://www.w3.org/2000/svg">
<g clip-path="url(#clip0_3640_21115)">
<path d="M39.2157 23.5625L25.8125 14.4716C25.476 14.2432 25.0848 14.112 24.6807 14.0921C24.2767 14.0722 23.8749 14.1643 23.5183 14.3585C23.1617 14.5528 22.8636 14.8419 22.6558 15.195C22.4481 15.5482 22.3385 15.9521 22.3388 16.3636V34.5455C22.3385 34.957 22.4481 35.3609 22.6558 35.7141C22.8636 36.0672 23.1617 36.3563 23.5183 36.5506C23.8749 36.7448 24.2767 36.8369 24.6807 36.817C25.0848 36.7971 25.476 36.6659 25.8125 36.4375L39.2157 27.3466C39.5221 27.1391 39.7734 26.8578 39.9472 26.5278C40.121 26.1977 40.212 25.829 40.212 25.4545C40.212 25.0801 40.121 24.7114 39.9472 24.3813C39.7734 24.0512 39.5221 23.77 39.2157 23.5625ZM26.8065 30.2983V20.625L33.9493 25.4545L26.8065 30.2983ZM53.6131 5H4.46775C3.28283 5 2.14644 5.47889 1.30857 6.33133C0.470708 7.18377 0 8.33993 0 9.54545V41.3636C0 42.5692 0.470708 43.7253 1.30857 44.5778C2.14644 45.4302 3.28283 45.9091 4.46775 45.9091H53.6131C54.798 45.9091 55.9344 45.4302 56.7722 44.5778C57.6101 43.7253 58.0808 42.5692 58.0808 41.3636V9.54545C58.0808 8.33993 57.6101 7.18377 56.7722 6.33133C55.9344 5.47889 54.798 5 53.6131 5ZM53.6131 41.3636H4.46775V9.54545H53.6131V41.3636ZM58.0808 52.7273C58.0808 53.33 57.8455 53.9081 57.4265 54.3343C57.0076 54.7606 56.4394 55 55.8469 55H2.23388C1.64142 55 1.07322 54.7606 0.654287 54.3343C0.235354 53.9081 0 53.33 0 52.7273C0 52.1245 0.235354 51.5464 0.654287 51.1202C1.07322 50.694 1.64142 50.4545 2.23388 50.4545H55.8469C56.4394 50.4545 57.0076 50.694 57.4265 51.1202C57.8455 51.5464 58.0808 52.1245 58.0808 52.7273Z" fill="#F7C32E"/>
</g>
<defs>
<clipPath id="clip0_3640_21115">
<rect width="58.9744" height="60" fill="white"/>
</clipPath>
</defs>
</svg>
