<svg width="16" height="17" viewBox="0 0 16 17" fill="none" xmlns="http://www.w3.org/2000/svg">
<path d="M8.00002 15.9998C8.83466 15.9998 9.51127 15.6008 9.51127 15.1085C9.51127 14.6163 8.83466 14.2173 8.00002 14.2173C7.16538 14.2173 6.48877 14.6163 6.48877 15.1085C6.48877 15.6008 7.16538 15.9998 8.00002 15.9998Z" fill="#424242"/>
<path d="M8.00004 1C5.36504 1 3.22754 2.95875 3.22754 5.37375C3.22754 6.00375 3.41754 6.6775 3.69629 7.27125C4.08754 8.10625 4.51379 8.72375 4.63879 8.95125C4.98629 9.58375 4.93629 10.25 5.03254 10.6675C5.21379 11.4475 5.75629 11.73 7.99879 11.73C10.2413 11.73 10.7238 11.4612 10.925 10.7425C11.0625 10.2537 10.9288 9.72 11.275 9.08875C11.4 8.86125 11.9088 8.1075 12.3013 7.27125C12.58 6.6775 12.77 6.00375 12.77 5.37375C12.7725 2.95875 10.635 1 8.00004 1Z" fill="#FFD600"/>
<path d="M7.99982 11.824C9.51446 11.824 10.7423 11.5744 10.7423 11.2665C10.7423 10.9586 9.51446 10.709 7.99982 10.709C6.48518 10.709 5.25732 10.9586 5.25732 11.2665C5.25732 11.5744 6.48518 11.824 7.99982 11.824Z" fill="#B26500"/>
<path d="M7.99982 11.824C9.51446 11.824 10.7423 11.5744 10.7423 11.2665C10.7423 10.9586 9.51446 10.709 7.99982 10.709C6.48518 10.709 5.25732 10.9586 5.25732 11.2665C5.25732 11.5744 6.48518 11.824 7.99982 11.824Z" fill="#B26500"/>
<path d="M8.00022 11.5238C9.10409 11.5238 9.99896 11.4085 9.99896 11.2663C9.99896 11.1241 9.10409 11.0088 8.00022 11.0088C6.89634 11.0088 6.00146 11.1241 6.00146 11.2663C6.00146 11.4085 6.89634 11.5238 8.00022 11.5238Z" fill="#FFA000"/>
<path d="M6.66291 7.59619C6.58541 7.79119 6.38416 8.19244 6.48916 8.37244C6.73291 8.79119 7.31416 8.94119 7.31416 9.32619C7.31416 9.91369 6.88666 11.8174 6.88666 11.8174" stroke="#B26500" stroke-width="0.25" stroke-miterlimit="10"/>
<path d="M9.25424 7.52637C9.25424 7.52637 9.53424 8.12637 9.41549 8.39512C9.32674 8.59512 8.79299 8.91762 8.72424 8.97137C8.40549 9.22137 8.82924 11.8189 8.82924 11.8189" stroke="#B26500" stroke-width="0.25" stroke-miterlimit="10"/>
<path d="M6.66276 7.59639C7.09276 6.74639 7.31401 4.80639 6.76776 4.90514C5.84651 5.07139 6.98151 8.25889 7.54026 7.89264C8.09901 7.52639 8.79151 4.91139 7.94151 4.90139C7.09151 4.89139 7.99901 8.23389 8.57651 7.86264C9.03276 7.56889 10.1465 4.90514 9.23151 4.90514C8.45276 4.90514 9.25526 7.52639 9.25526 7.52639" stroke="white" stroke-width="0.25" stroke-miterlimit="10"/>
<path d="M10.7362 11.3823C10.7362 11.3823 10.0162 11.7298 7.99997 11.7298C5.98372 11.7298 5.26372 11.3823 5.26372 11.3823C5.26372 11.3823 5.21872 12.0248 5.36747 12.3161C5.54622 12.6661 5.68372 12.7873 5.68372 12.7873L5.75872 13.1436L5.72872 13.2373C5.68997 13.3598 5.71747 13.4948 5.80372 13.5911L5.86872 13.6636L5.94122 14.0061L5.91622 14.0748C5.86872 14.2061 5.90122 14.3523 5.99872 14.4523L6.04622 14.5011L6.10497 14.7811C6.10497 14.7811 6.40247 15.4161 7.99997 15.4161C9.59747 15.4161 9.89497 14.7811 9.89497 14.7811L9.89997 14.7573L9.93247 14.7248C9.99747 14.6611 10.0187 14.5661 9.98747 14.4811L9.96872 14.4323L10.0462 14.0623L10.1825 13.9186C10.25 13.8473 10.265 13.7423 10.2212 13.6548L10.1587 13.5311L10.2375 13.1598L10.2875 13.1211C10.3612 13.0398 10.3625 12.9173 10.33 12.8336C10.305 12.7673 10.325 12.6923 10.3762 12.6436C10.455 12.5686 10.5562 12.4548 10.6312 12.3136C10.785 12.0273 10.7362 11.3823 10.7362 11.3823Z" fill="#82AEC0"/>
<path d="M5.68359 12.7874L5.75109 13.1462C6.47859 13.1424 7.44984 13.1787 9.31359 12.8824C9.64984 12.8062 10.0536 12.6549 9.60734 12.7174C9.60734 12.7162 7.89609 12.8799 5.68359 12.7874Z" fill="#2F7889"/>
<path d="M5.93334 14.0089C6.73834 13.9952 8.38334 13.9152 10.1508 13.5314L10.2296 13.1602C8.38084 13.5802 6.64209 13.6552 5.86084 13.6652L5.93334 14.0089Z" fill="#2F7889"/>
<path d="M10.0387 14.061C8.40248 14.416 6.87123 14.5073 6.04248 14.5273L6.09623 14.7823C6.09623 14.7823 6.12248 15.5735 7.99123 15.5735C9.85998 15.5735 9.88623 14.7823 9.88623 14.7823C9.88623 14.7823 9.08873 15.0098 8.10748 14.8985C8.00748 14.8873 8.00623 14.7535 8.10623 14.741C8.69248 14.6635 9.39248 14.5485 9.96123 14.431L10.0387 14.061Z" fill="#2F7889"/>
<path d="M5.27246 11.3823C5.27246 11.3823 6.07996 11.7298 7.99246 11.7298C9.90496 11.7298 10.7275 11.3823 10.7275 11.3823" stroke="#82AEC0" stroke-width="0.499638" stroke-miterlimit="10" stroke-linecap="round"/>
<path d="M6.23505 1.78983C6.7238 1.66983 7.23505 1.72983 7.58505 2.15483C7.6838 2.27483 7.76005 2.41733 7.77755 2.57233C7.81255 2.87108 7.62755 3.15358 7.40755 3.36108C6.78005 3.95358 5.8888 4.24108 5.4838 5.05858C5.3888 5.24983 5.3138 5.45608 5.1688 5.61233C5.0238 5.76858 4.78255 5.86358 4.5938 5.76358C4.4938 5.71108 4.42505 5.61233 4.3688 5.51358C4.0138 4.88108 4.04005 4.07483 4.35255 3.41983C4.6963 2.70233 5.45005 1.98233 6.23505 1.78983Z" fill="#FFFF8D"/>
<path d="M5.80633 11.9911C5.69633 11.9411 5.74008 11.7761 5.86008 11.7849C6.26258 11.8161 6.94758 11.8549 7.85383 11.8549C8.80883 11.8549 9.64883 11.7836 10.1388 11.7311C10.2601 11.7186 10.3063 11.8849 10.1951 11.9361C9.81758 12.1136 9.12633 12.3161 7.94133 12.3161C6.78508 12.3161 6.14758 12.1449 5.80633 11.9911Z" fill="#FFD600"/>
<path d="M6.49229 13.2537C6.40854 13.2837 6.32229 13.325 6.27979 13.4025C6.26479 13.4312 6.25604 13.4637 6.26229 13.4962C6.27229 13.5437 6.31604 13.5775 6.35979 13.5987C6.44729 13.6412 6.54604 13.6525 6.64229 13.6537C6.84104 13.6562 7.03854 13.6187 7.23479 13.5812C7.29354 13.57 7.35354 13.5587 7.40604 13.53C7.45854 13.5012 7.50354 13.4525 7.51229 13.3937C7.52479 13.315 7.46854 13.2387 7.39979 13.2012C7.16229 13.07 6.73229 13.1675 6.49229 13.2537Z" fill="#94D1E0"/>
<path d="M6.67882 14.0776C6.59507 14.1076 6.50882 14.1488 6.46632 14.2263C6.45132 14.2551 6.44257 14.2876 6.44882 14.3201C6.45882 14.3676 6.50257 14.4013 6.54632 14.4226C6.63382 14.4651 6.73257 14.4763 6.82882 14.4776C7.02757 14.4801 7.22507 14.4426 7.42132 14.4051C7.48007 14.3938 7.54007 14.3826 7.59257 14.3538C7.64507 14.3251 7.69007 14.2763 7.69882 14.2176C7.71132 14.1388 7.65507 14.0626 7.58632 14.0251C7.34882 13.8951 6.91757 13.9926 6.67882 14.0776Z" fill="#94D1E0"/>
<path d="M6.25145 11.0252C6.3652 11.0364 6.4852 11.0264 6.58145 10.9652C6.6777 10.9039 6.73895 10.7789 6.7002 10.6714C6.6802 10.6152 6.63645 10.5702 6.59395 10.5277C6.5002 10.4352 6.40645 10.3427 6.31395 10.2502C6.2102 10.1464 6.10645 10.0439 5.99395 9.95018C5.8202 9.80518 5.58645 9.66893 5.3577 9.77518C5.1627 9.86518 5.11645 10.0427 5.2027 10.2289C5.38645 10.6202 5.81395 10.9802 6.25145 11.0252Z" fill="#FFFF8D"/>
</svg>
