<svg width="20" height="20" viewBox="0 0 20 20" fill="none" xmlns="http://www.w3.org/2000/svg">
<path d="M8.14437 2.44725C9.07623 1.21829 10.9238 1.21829 11.8556 2.44725C12.3641 3.11782 13.1948 3.4619 14.0285 3.34727C15.5564 3.13719 16.8628 4.44359 16.6527 5.97153C16.5381 6.80523 16.8822 7.63591 17.5527 8.14437C18.7817 9.07623 18.7817 10.9238 17.5527 11.8556C16.8822 12.3641 16.5381 13.1948 16.6527 14.0285C16.8628 15.5564 15.5564 16.8628 14.0285 16.6527C13.1948 16.5381 12.3641 16.8822 11.8556 17.5527C10.9238 18.7817 9.07623 18.7817 8.14437 17.5527C7.63591 16.8822 6.80523 16.5381 5.97153 16.6527C4.44359 16.8628 3.13719 15.5564 3.34727 14.0285C3.4619 13.1948 3.11782 12.3641 2.44725 11.8556C1.21829 10.9238 1.21829 9.07623 2.44725 8.14437C3.11782 7.63591 3.4619 6.80523 3.34727 5.97153C3.13719 4.44359 4.44359 3.13719 5.97153 3.34727C6.80523 3.4619 7.63591 3.11782 8.14437 2.44725Z" fill="#09B850"/>
<g clip-path="url(#clip0_4739_13223)">
<path d="M12.8942 8.39895L8.89421 12.399C8.85937 12.4339 8.81797 12.4616 8.77239 12.4806C8.72681 12.4995 8.67794 12.5092 8.62858 12.5092C8.57923 12.5092 8.53036 12.4995 8.48477 12.4806C8.43919 12.4616 8.39779 12.4339 8.36296 12.399L6.61296 10.649C6.57807 10.6141 6.5504 10.5727 6.53152 10.5271C6.51265 10.4815 6.50293 10.4327 6.50293 10.3833C6.50293 10.334 6.51265 10.2851 6.53152 10.2396C6.5504 10.194 6.57807 10.1526 6.61296 10.1177C6.64784 10.0828 6.68925 10.0551 6.73482 10.0363C6.7804 10.0174 6.82925 10.0077 6.87858 10.0077C6.92791 10.0077 6.97676 10.0174 7.02234 10.0363C7.06791 10.0551 7.10932 10.0828 7.14421 10.1177L8.62889 11.6024L12.3636 7.86833C12.434 7.79788 12.5296 7.7583 12.6292 7.7583C12.7288 7.7583 12.8244 7.79788 12.8948 7.86833C12.9653 7.93877 13.0049 8.03432 13.0049 8.13395C13.0049 8.23358 12.9653 8.32913 12.8948 8.39958L12.8942 8.39895Z" fill="white"/>
</g>
<defs>
<clipPath id="clip0_4739_13223">
<rect width="8" height="8" fill="white" transform="translate(6.0166 6.0332)"/>
</clipPath>
</defs>
</svg>
