<svg width="9" height="9" viewBox="0 0 9 9" fill="none" xmlns="http://www.w3.org/2000/svg">
<g clip-path="url(#clip0_4739_13225)">
<path d="M6.89421 2.39895L2.89421 6.39895C2.85937 6.43391 2.81797 6.46165 2.77239 6.48058C2.72681 6.4995 2.67794 6.50925 2.62858 6.50925C2.57923 6.50925 2.53036 6.4995 2.48477 6.48058C2.43919 6.46165 2.39779 6.43391 2.36296 6.39895L0.612955 4.64895C0.578073 4.61407 0.550403 4.57266 0.531524 4.52708C0.512646 4.48151 0.50293 4.43266 0.50293 4.38333C0.50293 4.334 0.512646 4.28515 0.531524 4.23957C0.550403 4.19399 0.578073 4.15258 0.612955 4.1177C0.647838 4.08282 0.689249 4.05515 0.734825 4.03627C0.780401 4.01739 0.829249 4.00768 0.87858 4.00768C0.927911 4.00768 0.976759 4.01739 1.02234 4.03627C1.06791 4.05515 1.10932 4.08282 1.14421 4.1177L2.62889 5.60239L6.36358 1.86833C6.43403 1.79788 6.52958 1.7583 6.62921 1.7583C6.72884 1.7583 6.82438 1.79788 6.89483 1.86833C6.96528 1.93877 7.00486 2.03432 7.00486 2.13395C7.00486 2.23358 6.96528 2.32913 6.89483 2.39958L6.89421 2.39895Z" fill="white"/>
</g>
<defs>
<clipPath id="clip0_4739_13225">
<rect width="8" height="8" fill="white" transform="translate(0.0166016 0.0332031)"/>
</clipPath>
</defs>
</svg>
