<svg width="17" height="17" viewBox="0 0 17 17" fill="none" xmlns="http://www.w3.org/2000/svg">
<g clip-path="url(#clip0_4844_10315)">
<path d="M12.1532 3.00734C12.4582 2.85984 12.6695 2.54859 12.6695 2.18734C12.6695 1.68484 12.262 1.27734 11.7595 1.27734C11.257 1.27734 10.8495 1.68484 10.8495 2.18734C10.8495 2.55359 11.0657 2.86734 11.377 3.01234C11.017 4.96234 10.4645 6.41359 8.4082 6.72359C8.4082 6.72359 8.96195 9.49234 11.552 9.49234C14.142 9.49234 14.4045 6.75109 14.4045 6.75109C12.3032 6.85859 12.1257 4.21734 12.1532 3.00734Z" fill="#F19534"/>
<path d="M4.68066 3.00734C4.37566 2.85984 4.16441 2.54859 4.16441 2.18734C4.16441 1.68484 4.57191 1.27734 5.07441 1.27734C5.57691 1.27734 5.98441 1.68484 5.98441 2.18734C5.98441 2.55359 5.76816 2.86734 5.45691 3.01234C5.81691 4.96234 6.36941 6.41359 8.42566 6.72359C8.42566 6.72359 7.87191 9.49234 5.28191 9.49234C2.69191 9.49234 2.43066 6.75234 2.43066 6.75234C4.53066 6.85859 4.70816 4.21734 4.68066 3.00734Z" fill="#F19534"/>
<path d="M11.5166 9.49215C11.5279 9.49215 11.5391 9.4934 11.5504 9.4934C12.2641 9.4934 12.8004 9.28465 13.2029 8.9834L11.5166 9.49215Z" fill="#FFCA28"/>
<path d="M15.2431 2.38862C14.8268 2.33237 14.4293 2.72862 14.3568 3.27112C14.3118 3.60987 14.4031 3.92612 14.5793 4.12987L14.2793 5.37362C14.2793 5.37362 13.8206 8.31237 11.5031 8.89237C9.65058 9.35612 8.97933 5.96487 8.81683 4.91737C9.16933 4.74237 9.41308 4.37987 9.41308 3.95862C9.41308 3.36737 8.93433 2.88862 8.34308 2.88862C7.75183 2.88862 7.27308 3.36737 7.27308 3.95862C7.27308 4.38237 7.52058 4.74862 7.87933 4.92112C7.75058 5.95487 7.18308 9.23362 5.18308 8.89112C3.15308 8.54237 2.26683 5.12362 2.06183 4.19362C2.30558 3.99362 2.44183 3.64112 2.39183 3.26237C2.31933 2.71862 1.88933 2.32862 1.43183 2.38987C0.97433 2.45112 0.66308 2.94112 0.73558 3.48362C0.78808 3.87862 1.03058 4.19237 1.33433 4.31112L2.92433 14.1899C2.92433 14.1899 4.31183 15.2861 8.34308 15.2861C12.3743 15.2861 13.7618 14.1899 13.7618 14.1899L15.3556 4.28487C15.6131 4.14987 15.8156 3.84612 15.8656 3.47362C15.9393 2.92987 15.6606 2.44487 15.2431 2.38862Z" fill="#FFCA28"/>
<path d="M8.39328 12.7697C9.06569 12.7697 9.61078 12.1199 9.61078 11.3184C9.61078 10.5169 9.06569 9.86719 8.39328 9.86719C7.72087 9.86719 7.17578 10.5169 7.17578 11.3184C7.17578 12.1199 7.72087 12.7697 8.39328 12.7697Z" fill="#26A69A"/>
<path d="M8.39331 10.226C8.44081 10.2785 8.48331 10.3747 8.39331 10.5622C8.30331 10.7497 7.81831 11.0035 7.72956 11.0547C7.64081 11.1072 7.58206 11.0835 7.55456 11.0622C7.42331 10.9572 7.47331 10.7197 7.55831 10.5747C7.74081 10.261 8.12706 9.93723 8.39331 10.226Z" fill="#69F0AE"/>
<path d="M8.3032 11.86C8.1657 11.9262 7.71445 12.1275 7.8632 12.3662C7.9507 12.5075 8.13195 12.5675 8.2982 12.575C8.46445 12.5825 8.6282 12.53 8.7757 12.4537C9.4757 12.0912 9.53195 11.1387 9.3957 11.0662C9.2557 10.9912 9.1607 11.185 9.0882 11.2675C8.86945 11.5137 8.59945 11.7162 8.3032 11.86Z" fill="#00796B"/>
<path d="M15.0991 10.1313C15.2941 9.05253 14.5691 8.78253 14.5691 8.78253C14.5691 8.78253 14.1016 8.69753 13.8816 9.91128C13.6616 11.1238 14.1291 11.2088 14.1291 11.2088C14.1291 11.2088 14.9029 11.21 15.0991 10.1313Z" fill="#26A69A"/>
<path d="M14.7768 9.151C14.9468 9.3785 14.7456 9.71475 14.4193 9.9385C14.3231 10.0048 14.1956 9.97975 14.1768 9.92475C14.1243 9.76725 14.1468 9.5885 14.2168 9.43725C14.4243 8.9835 14.6906 9.036 14.7768 9.151Z" fill="#69F0AE"/>
<path d="M1.55806 10.1635C1.36181 9.08601 2.08806 8.81476 2.08806 8.81476C2.08806 8.81476 2.55556 8.72976 2.77556 9.94351C2.99556 11.156 2.52806 11.241 2.52806 11.241C2.52806 11.241 1.75306 11.2423 1.55806 10.1635Z" fill="#26A69A"/>
<path d="M2.31045 9.18092C2.47795 9.30592 2.4092 9.46967 2.28295 9.58342C2.1392 9.71467 2.0292 9.85842 1.9067 10.0072C1.88795 10.0297 1.8667 10.0547 1.8367 10.0609C1.7792 10.0734 1.73295 10.0147 1.7142 9.95842C1.66045 9.80092 1.67045 9.61592 1.75045 9.47092C1.97795 9.05717 2.24545 9.13217 2.31045 9.18092Z" fill="#69F0AE"/>
<path d="M12.8371 11.1762C12.7508 11.6675 12.3571 12.0087 11.9558 11.9387C11.5546 11.8687 11.4996 11.45 11.5858 10.9587C11.6721 10.4675 11.8658 10.0912 12.2658 10.1612C12.6671 10.2312 12.9233 10.6862 12.8371 11.1762Z" fill="#F44336"/>
<path d="M4.14177 11.1762C4.22802 11.6675 4.62177 12.0087 5.02302 11.9387C5.42427 11.8687 5.47927 11.45 5.39302 10.9587C5.30677 10.4675 5.11302 10.0912 4.71302 10.1612C4.31302 10.2312 4.05677 10.6862 4.14177 11.1762Z" fill="#F44336"/>
<path d="M4.72332 10.8485C4.63207 10.951 4.40957 11.1573 4.33082 10.9998C4.22332 10.7848 4.37207 10.4598 4.54207 10.3523C4.71207 10.2448 4.85082 10.3298 4.87457 10.426C4.90332 10.5485 4.80457 10.756 4.72332 10.8485Z" fill="#FFA8A4"/>
<path d="M11.8355 11.1626C11.7117 11.1438 11.698 10.7176 12.0305 10.3826C12.1892 10.2226 12.4167 10.4126 12.3592 10.6688C12.3042 10.9126 12.0617 11.1976 11.8355 11.1626Z" fill="#FFA8A4"/>
<path d="M13.9817 12.5571C13.233 12.9321 11.5155 13.9309 8.34424 13.9309C5.17299 13.9309 3.45549 12.9321 2.70674 12.5571C2.70674 12.5571 2.43799 12.7009 2.43799 12.8509V14.0021C2.43799 14.1559 2.51924 14.2971 2.65174 14.3759C3.23674 14.7209 5.01924 15.5359 8.34549 15.5359C11.6717 15.5359 13.4542 14.7209 14.0392 14.3759C14.1717 14.2971 14.253 14.1559 14.253 14.0021V12.8509C14.2505 12.7009 13.9817 12.5571 13.9817 12.5571Z" fill="#FFCA28"/>
<path d="M5.28791 14.1362C5.63791 14.2049 5.74416 14.2349 5.72041 14.4299C5.67166 14.8137 4.87541 14.7224 4.40416 14.5987C3.43041 14.3424 3.23291 14.0724 3.23291 13.8312C3.23291 13.6099 3.40291 13.5837 3.66541 13.6762C3.97916 13.7874 4.46416 13.9749 5.28791 14.1362Z" fill="#FFF59D"/>
<path d="M13.982 12.8101C13.982 12.8101 11.9108 13.9826 8.34453 13.9826C4.77828 13.9826 2.70703 12.8101 2.70703 12.8101" stroke="#F19534" stroke-width="4" stroke-miterlimit="10" stroke-linecap="round"/>
<path d="M3.70912 6.47731C4.37412 6.00231 4.73162 5.15106 4.76287 3.79606C4.76537 3.67356 4.80037 3.63731 4.86662 3.62981C4.97287 3.61856 4.99037 3.71481 4.98912 3.78356C4.95912 5.24606 4.77287 6.15981 4.03537 6.67481C3.99912 6.69981 3.74037 6.85731 3.63037 6.74856C3.49912 6.62106 3.66662 6.50731 3.70912 6.47731Z" fill="#FFCA28"/>
<path d="M4.31817 2.22345C4.29692 1.9972 4.34942 1.5897 4.94317 1.4047C5.11692 1.35095 5.22442 1.43595 5.24442 1.5022C5.29442 1.6672 5.14942 1.7322 5.08317 1.75345C4.62692 1.90095 4.60442 2.12845 4.51067 2.27345C4.41692 2.41845 4.32567 2.2922 4.31817 2.22345Z" fill="#FFCA28"/>
<path d="M10.1156 6.17718C10.7168 5.64343 11.1156 5.04718 11.3781 3.68968C11.4018 3.56968 11.4368 3.53718 11.5018 3.53968C11.6081 3.54218 11.6131 3.64093 11.6018 3.70843C11.3793 5.15593 11.1681 5.56843 10.4268 6.38968C10.3431 6.48218 10.1393 6.56593 10.0243 6.46968C9.92056 6.38343 10.0406 6.24468 10.1156 6.17718Z" fill="#FFCA28"/>
<path d="M11.0008 2.23468C10.9795 2.00843 11.032 1.60093 11.6258 1.41593C11.7995 1.36218 11.907 1.44718 11.927 1.51343C11.977 1.67843 11.832 1.74343 11.7658 1.76468C11.3095 1.91218 11.287 2.13968 11.1933 2.28468C11.1008 2.42968 11.0083 2.30343 11.0008 2.23468Z" fill="#FFCA28"/>
<path d="M4.28683 9.23359C2.83433 8.57484 2.40683 6.85609 2.17933 6.10984C2.14933 6.01109 2.16433 5.91734 2.26308 5.88734C2.36183 5.85734 2.42058 5.92109 2.45183 6.01984C2.61683 6.56109 3.25808 8.36859 4.58183 8.88234C4.67808 8.91984 4.82808 9.01109 4.74683 9.16734C4.69308 9.26859 4.52058 9.33984 4.28683 9.23359Z" fill="#FFF59D"/>
<path d="M1.92291 3.36C1.85291 3.215 1.82416 3.0775 1.44291 2.91875C1.34666 2.87875 1.28291 2.79 1.30916 2.69C1.33541 2.59 1.43541 2.515 1.58041 2.54C2.05166 2.62125 2.15416 3.1 2.17416 3.26625C2.19291 3.42625 1.99416 3.505 1.92291 3.36Z" fill="#FFF59D"/>
<path d="M12.4467 9.23359C13.8992 8.57484 14.3267 6.85609 14.5542 6.10984C14.5842 6.01109 14.5692 5.91734 14.4704 5.88734C14.3717 5.85734 14.3129 5.92109 14.2817 6.01984C14.1167 6.56109 13.4754 8.36859 12.1517 8.88234C12.0554 8.91984 11.9054 9.01109 11.9867 9.16734C12.0404 9.26859 12.2129 9.33984 12.4467 9.23359Z" fill="#FFF59D"/>
<path d="M14.8106 3.36C14.8806 3.215 14.9093 3.0775 15.2906 2.91875C15.3868 2.87875 15.4506 2.79 15.4243 2.69C15.3981 2.59 15.2981 2.515 15.1531 2.54C14.6818 2.62125 14.5793 3.1 14.5593 3.26625C14.5406 3.42625 14.7406 3.505 14.8106 3.36Z" fill="#FFF59D"/>
<path d="M7.76045 3.97464C7.8367 3.81839 7.97045 3.60464 8.4067 3.51464C8.5742 3.47964 8.62295 3.40714 8.60795 3.29714C8.57795 3.06839 8.29295 3.08464 8.1392 3.12089C7.6267 3.24089 7.51295 3.69589 7.4917 3.87589C7.47045 4.04714 7.68545 4.13089 7.76045 3.97464Z" fill="#FFF59D"/>
</g>
<defs>
<clipPath id="clip0_4844_10315">
<rect width="16" height="16" fill="white" transform="translate(0.337891 0.28125)"/>
</clipPath>
</defs>
</svg>
