<svg width="15" height="5" viewBox="0 0 15 5" fill="none" xmlns="http://www.w3.org/2000/svg">
<path d="M7.5 0.500488C7.10444 0.500488 6.71776 0.617786 6.38886 0.837549C6.05996 1.05731 5.80362 1.36967 5.65224 1.73512C5.50087 2.10057 5.46126 2.50271 5.53843 2.89067C5.6156 3.27863 5.80608 3.635 6.08579 3.9147C6.36549 4.19441 6.72186 4.38489 7.10982 4.46206C7.49778 4.53923 7.89991 4.49962 8.26537 4.34825C8.63082 4.19687 8.94318 3.94053 9.16294 3.61163C9.3827 3.28273 9.5 2.89605 9.5 2.50049C9.5 1.97006 9.28929 1.46135 8.91421 1.08627C8.53914 0.711202 8.03043 0.500488 7.5 0.500488ZM7.5 3.50049C7.30222 3.50049 7.10888 3.44184 6.94443 3.33196C6.77998 3.22208 6.65181 3.0659 6.57612 2.88317C6.50043 2.70045 6.48063 2.49938 6.51922 2.3054C6.5578 2.11142 6.65304 1.93323 6.79289 1.79338C6.93275 1.65353 7.11093 1.55829 7.30491 1.5197C7.49889 1.48112 7.69996 1.50092 7.88268 1.57661C8.06541 1.6523 8.22159 1.78047 8.33147 1.94492C8.44135 2.10937 8.5 2.30271 8.5 2.50049C8.5 2.7657 8.39464 3.02006 8.20711 3.20759C8.01957 3.39513 7.76522 3.50049 7.5 3.50049ZM2.5 0.500488C2.10444 0.500488 1.71776 0.617786 1.38886 0.837549C1.05996 1.05731 0.803617 1.36967 0.652242 1.73512C0.500867 2.10057 0.46126 2.50271 0.53843 2.89067C0.615601 3.27863 0.806082 3.635 1.08579 3.9147C1.36549 4.19441 1.72186 4.38489 2.10982 4.46206C2.49778 4.53923 2.89992 4.49962 3.26537 4.34825C3.63082 4.19687 3.94318 3.94053 4.16294 3.61163C4.3827 3.28273 4.5 2.89605 4.5 2.50049C4.5 1.97006 4.28929 1.46135 3.91421 1.08627C3.53914 0.711202 3.03043 0.500488 2.5 0.500488ZM2.5 3.50049C2.30222 3.50049 2.10888 3.44184 1.94443 3.33196C1.77998 3.22208 1.65181 3.0659 1.57612 2.88317C1.50043 2.70045 1.48063 2.49938 1.51922 2.3054C1.5578 2.11142 1.65304 1.93323 1.79289 1.79338C1.93275 1.65353 2.11093 1.55829 2.30491 1.5197C2.49889 1.48112 2.69996 1.50092 2.88268 1.57661C3.06541 1.6523 3.22159 1.78047 3.33147 1.94492C3.44135 2.10937 3.5 2.30271 3.5 2.50049C3.5 2.7657 3.39464 3.02006 3.20711 3.20759C3.01957 3.39513 2.76522 3.50049 2.5 3.50049ZM12.5 0.500488C12.1044 0.500488 11.7178 0.617786 11.3889 0.837549C11.06 1.05731 10.8036 1.36967 10.6522 1.73512C10.5009 2.10057 10.4613 2.50271 10.5384 2.89067C10.6156 3.27863 10.8061 3.635 11.0858 3.9147C11.3655 4.19441 11.7219 4.38489 12.1098 4.46206C12.4978 4.53923 12.8999 4.49962 13.2654 4.34825C13.6308 4.19687 13.9432 3.94053 14.1629 3.61163C14.3827 3.28273 14.5 2.89605 14.5 2.50049C14.5 1.97006 14.2893 1.46135 13.9142 1.08627C13.5391 0.711202 13.0304 0.500488 12.5 0.500488ZM12.5 3.50049C12.3022 3.50049 12.1089 3.44184 11.9444 3.33196C11.78 3.22208 11.6518 3.0659 11.5761 2.88317C11.5004 2.70045 11.4806 2.49938 11.5192 2.3054C11.5578 2.11142 11.653 1.93323 11.7929 1.79338C11.9327 1.65353 12.1109 1.55829 12.3049 1.5197C12.4989 1.48112 12.7 1.50092 12.8827 1.57661C13.0654 1.6523 13.2216 1.78047 13.3315 1.94492C13.4414 2.10937 13.5 2.30271 13.5 2.50049C13.5 2.7657 13.3946 3.02006 13.2071 3.20759C13.0196 3.39513 12.7652 3.50049 12.5 3.50049Z" fill="#17A2B8"/>
</svg>
