<svg width="96" height="96" viewBox="0 0 96 96" fill="none" xmlns="http://www.w3.org/2000/svg">
<rect width="96" height="96" rx="48" fill="#17A2B8"/>
<path d="M63.8846 40.201L43.8846 60.201C43.7685 60.3172 43.6306 60.4094 43.4789 60.4723C43.3271 60.5352 43.1645 60.5676 43.0002 60.5676C42.8359 60.5676 42.6733 60.5352 42.5215 60.4723C42.3698 60.4094 42.2319 60.3172 42.1158 60.201L33.3658 51.451C33.1313 51.2164 32.9995 50.8983 32.9995 50.5666C32.9995 50.2349 33.1313 49.9168 33.3658 49.6822C33.6004 49.4477 33.9185 49.3159 34.2502 49.3159C34.5819 49.3159 34.9 49.4477 35.1346 49.6822L43.0002 57.5494L62.1158 38.4322C62.3504 38.1977 62.6685 38.0659 63.0002 38.0659C63.3319 38.0659 63.65 38.1977 63.8846 38.4322C64.1191 38.6668 64.2509 38.9849 64.2509 39.3166C64.2509 39.6483 64.1191 39.9664 63.8846 40.201Z" fill="white"/>
</svg>
