<svg width="96" height="96" viewBox="0 0 96 96" fill="none" xmlns="http://www.w3.org/2000/svg">
<rect width="96" height="96" rx="48" fill="#17A2B8"/>
<path d="M63.8843 62.1492L56.0608 54.3273C58.3284 51.605 59.4591 48.1132 59.2177 44.5785C58.9764 41.0437 57.3816 37.738 54.7651 35.3491C52.1486 32.9603 48.7118 31.6721 45.1697 31.7526C41.6276 31.8331 38.2529 33.2761 35.7477 35.7813C33.2424 38.2866 31.7994 41.6613 31.7189 45.2034C31.6384 48.7455 32.9266 52.1823 35.3154 54.7988C37.7043 57.4153 41.01 59.0101 44.5448 59.2514C48.0795 59.4928 51.5713 58.362 54.2936 56.0945L62.1155 63.9179C62.2316 64.0341 62.3695 64.1262 62.5213 64.1891C62.673 64.2519 62.8356 64.2843 62.9999 64.2843C63.1641 64.2843 63.3268 64.2519 63.4785 64.1891C63.6302 64.1262 63.7681 64.0341 63.8843 63.9179C64.0004 63.8018 64.0925 63.6639 64.1554 63.5122C64.2182 63.3604 64.2506 63.1978 64.2506 63.0336C64.2506 62.8693 64.2182 62.7067 64.1554 62.5549C64.0925 62.4032 64.0004 62.2653 63.8843 62.1492ZM34.2499 45.5336C34.2499 43.3085 34.9097 41.1334 36.1458 39.2834C37.382 37.4333 39.139 35.9914 41.1947 35.1399C43.2503 34.2884 45.5124 34.0656 47.6946 34.4997C49.8769 34.9338 51.8815 36.0053 53.4548 37.5786C55.0282 39.152 56.0996 41.1565 56.5337 43.3388C56.9678 45.5211 56.745 47.7831 55.8935 49.8388C55.042 51.8944 53.6001 53.6514 51.75 54.8876C49.9 56.1238 47.7249 56.7836 45.4999 56.7836C42.5172 56.7803 39.6576 55.5939 37.5486 53.4849C35.4395 51.3758 34.2532 48.5162 34.2499 45.5336Z" fill="white"/>
</svg>
