<svg width="96" height="96" viewBox="0 0 96 96" fill="none" xmlns="http://www.w3.org/2000/svg">
<rect width="96" height="96" rx="48" fill="#17A2B8"/>
<g clip-path="url(#clip0_4739_13189)">
<path d="M64.7228 37.1752L59.7228 32.1752C59.6067 32.059 59.4688 31.9668 59.3171 31.9039C59.1653 31.841 59.0027 31.8086 58.8384 31.8086C58.6741 31.8086 58.5115 31.841 58.3597 31.9039C58.208 31.9668 58.0701 32.059 57.954 32.1752L42.954 47.1752C42.838 47.2914 42.7459 47.4293 42.6832 47.581C42.6205 47.7328 42.5883 47.8954 42.5884 48.0596V53.0596C42.5884 53.3911 42.7201 53.709 42.9545 53.9435C43.1889 54.1779 43.5069 54.3096 43.8384 54.3096H48.8384C49.0026 54.3097 49.1652 54.2775 49.3169 54.2148C49.4687 54.152 49.6066 54.06 49.7228 53.944L64.7228 38.944C64.839 38.8279 64.9312 38.69 64.9941 38.5383C65.057 38.3865 65.0894 38.2238 65.0894 38.0596C65.0894 37.8953 65.057 37.7327 64.9941 37.5809C64.9312 37.4292 64.839 37.2913 64.7228 37.1752ZM48.3212 51.8096H45.0884V48.5768L55.0884 38.5768L58.3212 41.8096L48.3212 51.8096ZM60.0884 40.0424L56.8556 36.8096L58.8384 34.8268L62.0712 38.0596L60.0884 40.0424ZM63.8384 48.0596V60.5596C63.8384 61.2226 63.575 61.8585 63.1062 62.3273C62.6373 62.7962 62.0014 63.0596 61.3384 63.0596H36.3384C35.6753 63.0596 35.0395 62.7962 34.5706 62.3273C34.1018 61.8585 33.8384 61.2226 33.8384 60.5596V35.5596C33.8384 34.8965 34.1018 34.2607 34.5706 33.7918C35.0395 33.323 35.6753 33.0596 36.3384 33.0596H48.8384C49.1699 33.0596 49.4878 33.1913 49.7223 33.4257C49.9567 33.6601 50.0884 33.9781 50.0884 34.3096C50.0884 34.6411 49.9567 34.959 49.7223 35.1935C49.4878 35.4279 49.1699 35.5596 48.8384 35.5596H36.3384V60.5596H61.3384V48.0596C61.3384 47.7281 61.4701 47.4101 61.7045 47.1757C61.9389 46.9413 62.2569 46.8096 62.5884 46.8096C62.9199 46.8096 63.2378 46.9413 63.4723 47.1757C63.7067 47.4101 63.8384 47.7281 63.8384 48.0596Z" fill="white"/>
</g>
<defs>
<clipPath id="clip0_4739_13189">
<rect width="40" height="40" fill="white" transform="translate(28 28.0664)"/>
</clipPath>
</defs>
</svg>
