<svg width="208" height="257" viewBox="0 0 208 257" fill="none" xmlns="http://www.w3.org/2000/svg">
<g clip-path="url(#clip0_3745_5264)">
<g clip-path="url(#clip1_3745_5264)">
<g clip-path="url(#clip2_3745_5264)">
<mask id="mask0_3745_5264" style="mask-type:luminance" maskUnits="userSpaceOnUse" x="-63" y="0" width="271" height="257">
<path d="M207.697 58.0365L-8.89844 0L-62.0006 198.18L154.595 256.217L207.697 58.0365Z" fill="white"/>
</mask>
<g mask="url(#mask0_3745_5264)">
<g opacity="0.2">
<path d="M41.3427 147.898C40.0377 147.549 38.9977 146.901 38.3457 145.988C37.1798 144.331 37.5399 142.003 39.3417 139.612L58.8537 113.762C61.5157 110.231 66.8687 107.29 71.8187 106.639C74.6377 106.261 77.0047 106.684 78.4877 107.846L96.8097 122.087C98.0547 123.053 98.5577 124.427 98.2837 126.041C97.5907 129.809 92.6927 134.006 86.8577 135.79L49.0297 147.375C46.0657 148.294 43.3617 148.439 41.3427 147.898ZM76.1127 107.553C74.9307 107.236 73.4977 107.168 71.9047 107.4C67.1467 108.023 62.0117 110.839 59.4707 114.217L39.9587 140.067C38.3587 142.196 37.9992 144.129 38.9957 145.53C40.4267 147.574 44.2647 148.022 48.7757 146.648L86.5867 135.032C92.9117 133.089 96.9197 128.865 97.4827 125.879C97.7327 124.549 97.3367 123.467 96.3047 122.69L77.9827 108.449C77.4827 108.051 76.8507 107.75 76.1127 107.553Z" fill="#17A2B8"/>
<path d="M39.6548 151.242C38.4238 150.912 37.4201 150.327 36.7232 149.481C35.3786 147.803 35.5352 145.446 37.2351 142.844L55.8628 114.094C60.1768 107.447 71.6898 103.178 76.7568 106.328L98.5268 119.911C100.02 120.839 100.72 122.265 100.543 124.01C100.155 128.018 95.2098 132.782 89.0518 135.086L48.6608 150.228C45.2198 151.547 42.0188 151.875 39.6548 151.242ZM74.7788 106.325C69.5348 104.92 60.1588 108.892 56.5168 114.507L37.8897 143.256C36.4051 145.547 36.198 147.6 37.3311 148.985C39.0758 151.139 43.5298 151.357 48.3998 149.526L88.7918 134.384C95.5098 131.861 99.4708 127.123 99.7638 123.96C99.9178 122.498 99.3498 121.371 98.1078 120.59L76.3378 107.007C75.8908 106.702 75.3698 106.484 74.7788 106.325Z" fill="#17A2B8"/>
<path d="M38.1321 154.866C36.9747 154.556 36.0312 154.04 35.3392 153.274C33.8025 151.624 33.7999 149.172 35.3112 146.387L52.6281 114.65C56.6191 107.337 68.8071 101.931 74.7241 104.86L100.207 117.488C101.979 118.358 102.901 119.844 102.863 121.758C102.767 126.055 97.9881 131.286 91.4541 134.201L48.6791 153.317C44.7001 155.071 40.8891 155.605 38.1321 154.866ZM73.1991 105.137C67.3401 103.567 56.8261 108.632 53.3141 115.045L35.9971 146.782C34.6519 149.242 34.6351 151.372 35.9224 152.772C37.6838 154.667 42.1981 155.349 48.3631 152.626L91.1561 133.541C98.1691 130.412 102.034 125.147 102.114 121.795C102.14 120.22 101.363 118.984 99.8731 118.242L74.3901 105.614C74.0291 105.386 73.6171 105.249 73.1991 105.137Z" fill="#17A2B8"/>
<path d="M36.9079 158.836C35.8493 158.552 34.9486 158.073 34.2302 157.406C32.5014 155.783 32.2592 153.24 33.5999 150.305L49.1428 115.536C52.7198 107.506 65.5208 100.892 72.3398 103.51L101.832 114.866C103.939 115.668 105.113 117.195 105.214 119.278C105.461 123.773 100.759 129.603 94.0429 133.102L48.9758 156.534C44.4738 158.86 40.0348 159.673 36.9079 158.836ZM71.3369 104.006C64.7879 102.251 53.0978 108.556 49.8238 115.85L34.2809 150.619C33.1063 153.23 33.2733 155.463 34.7528 156.835C36.8588 158.822 41.9819 159.299 48.6109 155.829L93.6529 132.391C100.917 128.618 104.636 122.813 104.416 119.301C104.303 117.558 103.304 116.262 101.535 115.577L72.0439 104.222C71.8289 104.138 71.5829 104.072 71.3369 104.006Z" fill="#17A2B8"/>
<path d="M35.9774 163.094C35.0173 162.837 34.1525 162.42 33.4389 161.834C31.4869 160.256 31.0231 157.654 32.0948 154.541L45.353 116.682C48.403 107.957 61.734 99.957 69.517 102.227L103.259 111.901C105.707 112.609 107.183 114.191 107.473 116.457C108.088 121.155 103.549 127.557 96.662 131.695L49.687 159.887C44.654 162.915 39.523 164.044 35.9774 163.094ZM69.1889 102.956C61.8529 100.991 48.952 108.763 46.096 116.96L32.8382 154.819C31.8522 157.613 32.2473 159.88 33.9369 161.256C36.9257 163.691 43.245 162.853 49.308 159.232L96.308 131.047C103.819 126.549 107.248 120.35 106.754 116.58C106.508 114.643 105.239 113.275 103.104 112.676L69.362 103.002C69.288 102.983 69.2389 102.969 69.1889 102.956Z" fill="#17A2B8"/>
<path d="M35.4084 167.686C34.5467 167.455 33.7672 167.114 33.0766 166.639C30.8765 165.101 30.1354 162.451 30.9626 159.166L41.3717 118.251C43.7657 108.823 57.5287 99.4097 66.3527 101.141L104.587 108.724C107.415 109.297 109.242 110.946 109.745 113.401C110.763 118.366 106.551 125.224 99.4787 130.051L50.8357 163.384C45.2767 167.193 39.4457 168.768 35.4084 167.686ZM105.011 109.602C104.839 109.556 104.642 109.503 104.438 109.475L66.2047 101.892C57.8857 100.243 44.3977 109.519 42.1167 118.424L31.7078 159.34C30.9596 162.329 31.5583 164.624 33.5204 165.967C37.0772 168.449 44.0297 167.123 50.4017 162.741L99.0447 129.407C106.642 124.194 109.814 117.479 108.995 113.543C108.577 111.559 107.202 110.189 105.011 109.602Z" fill="#17A2B8"/>
<path d="M35.1727 172.5C34.4587 172.308 33.7958 172.025 33.2018 171.682C30.7407 170.231 29.6729 167.52 30.1999 164.076L37.1168 120.142C38.7118 110.052 52.8228 99.0453 62.7018 100.19L105.682 105.222C108.958 105.599 111.168 107.298 111.921 110.004C113.369 115.137 109.45 122.574 102.385 128.062L52.5058 166.995C46.5058 171.661 39.7518 173.727 35.1727 172.5ZM105.626 105.628L105.576 106.01L62.5958 100.978C53.2288 99.8922 39.3818 110.706 37.8752 120.267L30.9582 164.2C30.4545 167.36 31.3552 169.711 33.5653 171.014C37.759 173.483 45.3388 171.586 51.9838 166.381L101.882 127.479C108.69 122.16 112.517 115.066 111.144 110.244C110.473 107.823 108.537 106.382 105.545 106.028L105.626 105.628Z" fill="#17A2B8"/>
<path d="M35.4665 177.613C34.9249 177.468 34.3965 177.273 33.9059 177.036C31.1278 175.686 29.6956 172.956 29.8977 169.346L32.6279 122.524C33.2455 111.75 47.5626 99.0852 58.5786 99.5325L106.493 101.511C110.249 101.674 112.929 103.393 113.986 106.339C115.871 111.615 112.325 119.628 105.367 125.803L54.7216 170.646C48.3216 176.312 40.7106 179.018 35.4665 177.613ZM106.475 101.875L106.45 102.264L58.5346 100.285C48.0946 99.8602 34.0083 112.35 33.4126 122.55L30.6824 169.372C30.4789 172.691 31.7128 175.078 34.2333 176.307C39.1396 178.676 47.3486 176.104 54.1686 170.05L104.796 125.176C111.541 119.207 114.988 111.563 113.192 106.548C112.222 103.863 109.879 102.366 106.407 102.226L106.475 101.875Z" fill="#17A2B8"/>
<path d="M36.3288 182.958C35.9842 182.866 35.6461 182.749 35.3326 182.638C32.1752 181.423 30.354 178.668 30.1753 174.904L27.993 125.342C27.768 120.273 30.4692 114.328 35.4354 108.99C40.9238 103.08 48.0348 99.291 53.9908 99.1208L106.967 97.4734C111.278 97.3369 114.434 99.0523 115.857 102.307C118.257 107.827 115.25 116.194 108.353 123.124L57.5588 174.333C50.8248 181.148 42.2868 184.554 36.3288 182.958ZM110.33 98.6117C109.32 98.3412 108.216 98.2297 106.991 98.2706L53.9968 99.8868C48.2508 100.061 41.3278 103.741 35.9766 109.53C31.2306 114.637 28.5426 120.534 28.7416 125.305L30.9485 174.874C31.0946 178.366 32.711 180.802 35.6042 181.92C41.2988 184.105 50.0828 180.765 57.0178 173.793L107.812 122.584C114.357 115.981 117.38 107.75 115.141 102.616C114.26 100.587 112.595 99.2186 110.33 98.6117Z" fill="#17A2B8"/>
<path d="M37.7959 188.517C37.7221 188.497 37.6482 188.478 37.5744 188.458C33.9998 187.421 31.7024 184.67 31.0938 180.738L23.173 128.663C22.4046 123.554 24.5546 117.303 29.078 111.451C34.5103 104.471 42.0948 99.7025 48.8748 99.0152L107.065 93.1763C111.975 92.6733 115.687 94.3796 117.532 97.9317C120.456 103.565 117.99 112.473 111.391 120.063L61.1158 178.001C54.1328 186.041 44.5908 190.338 37.7959 188.517ZM107.107 93.6094L107.138 93.9867L48.9478 99.8255C42.3598 100.485 34.994 105.128 29.6816 111.955C25.2914 117.606 23.1942 123.66 23.9348 128.577L31.8556 180.652C32.4251 184.337 34.4617 186.78 37.7901 187.751C44.3308 189.635 53.6608 185.44 60.5298 177.528L110.792 119.639C117.195 112.287 119.618 103.736 116.832 98.3769C115.143 95.13 111.682 93.57 107.125 94.0359L107.107 93.6094Z" fill="#17A2B8"/>
<path d="M39.9759 194.268C36.3323 193.291 33.7853 190.685 32.7546 186.85L18.243 132.588C16.8754 127.45 18.4002 120.873 22.4743 114.531C27.6712 106.461 35.6191 100.63 43.2379 99.376L106.7 88.7289C112.254 87.7922 116.616 89.4354 118.982 93.3115C122.514 99.1345 120.735 108.332 114.402 116.705L65.4519 181.614C58.6189 190.67 48.4669 195.963 40.7949 194.461C40.5239 194.388 40.2469 194.34 39.9759 194.268ZM112.817 89.6301C111.069 89.1617 109.055 89.0965 106.817 89.4721L43.3549 100.119C35.9533 101.352 28.2059 107.026 23.1289 114.944C19.188 121.084 17.6733 127.427 18.9885 132.366L33.5002 186.628C34.5488 190.494 37.1108 192.947 40.9249 193.679C48.3259 195.108 58.1479 189.964 64.8169 181.128L113.767 116.218C119.792 108.211 121.635 99.1628 118.295 93.7074C117.056 91.6356 115.181 90.2633 112.817 89.6301Z" fill="#17A2B8"/>
<path d="M42.9439 200.124C39.3499 199.161 36.6516 196.725 35.2465 193.106L13.216 137.066C11.1754 131.88 12.0685 125.002 15.6439 118.158C20.3739 109.171 28.7629 102.088 37.042 100.141L105.8 84.007C111.938 82.5675 117.143 84.1201 120.09 88.2841C124.258 94.1982 123.183 103.822 117.334 112.851L70.5989 185.05C64.1529 195.026 53.6679 201.364 45.0829 200.513C44.3429 200.42 43.6339 200.309 42.9439 200.124ZM105.887 84.3729L105.974 84.7388L37.2334 100.904C29.1776 102.805 20.9644 109.725 16.3364 118.528C12.8694 125.164 11.9865 131.808 13.9501 136.789L35.9805 192.828C37.5822 196.895 40.7629 199.303 45.1579 199.742C53.4589 200.569 63.6439 194.363 69.9449 184.637L116.654 112.432C122.326 103.671 123.42 94.3693 119.44 88.7424C116.643 84.8034 111.875 83.3941 105.967 84.7634L105.887 84.3729Z" fill="#17A2B8"/>
<path d="M46.7949 206.033C43.2989 205.097 40.4929 202.868 38.7239 199.521L8.20931 142.157C5.43991 136.934 5.60932 129.704 8.66152 122.35C12.8146 112.365 21.3212 104.153 30.3365 101.429L104.267 79.0888C111.102 77.0188 117.112 78.4185 120.79 82.9098C125.637 88.848 125.365 98.9236 120.117 108.562L76.6769 188.26C70.7979 199.074 60.0769 206.587 50.6759 206.519C49.2969 206.545 48.0009 206.356 46.7949 206.033ZM104.49 79.8338L30.5591 102.174C21.7737 104.828 13.4428 112.876 9.37372 122.646C6.39882 129.81 6.22142 136.774 8.88271 141.81L39.3729 199.168C41.6149 203.406 45.6309 205.748 50.6389 205.771C59.7809 205.822 70.2209 198.471 75.9779 187.915L119.418 108.217C124.513 98.8535 124.829 89.106 120.182 83.406C116.722 79.1839 111.007 77.8634 104.49 79.8338Z" fill="#17A2B8"/>
<path d="M51.5371 211.97C48.1401 211.059 45.2991 209.059 43.2281 206.053L3.25468 147.947C-0.373324 142.678 -1.00802 135.101 1.51618 127.157C4.96088 116.271 13.4309 106.916 23.0971 103.338L102.076 74.0732C109.633 71.2744 116.55 72.4424 121.045 77.2318C126.707 83.2827 127.354 93.4728 122.717 103.882L83.7191 191.228C78.4861 202.979 67.9961 211.503 57.6371 212.444C55.4521 212.623 53.4081 212.471 51.5371 211.97ZM113.955 73.8558C110.508 72.9323 106.522 73.2349 102.311 74.769L23.3575 104.04C13.9211 107.548 5.64008 116.69 2.24818 127.38C-0.192124 135.108 0.403377 142.438 3.87398 147.506L43.8541 205.588C46.9151 210.019 51.7691 212.19 57.5581 211.658C67.6431 210.75 77.8771 202.394 82.9891 190.9L121.987 103.554C126.488 93.4519 125.917 83.5719 120.455 77.7591C118.676 75.8326 116.466 74.5287 113.955 73.8558Z" fill="#17A2B8"/>
<path d="M57.284 217.806C54.059 216.942 51.207 215.176 48.908 212.53L-1.58678 154.399C-6.18498 149.107 -7.69098 141.138 -5.78018 132.53C-3.16858 120.814 5.12182 110.356 15.2978 105.86L99.028 68.907C107.286 65.2677 115.191 66.0943 120.689 71.1789C127.186 77.1637 128.841 87.7292 125.005 98.6953L91.745 193.773C87.423 206.164 77.104 215.92 66.121 218.012C63.007 218.601 59.992 218.531 57.284 217.806ZM99.22 69.2747L99.387 69.6358L15.6386 106.558C5.67452 110.953 -2.43358 121.222 -5.00378 132.685C-6.87998 141.066 -5.41308 148.787 -0.972284 153.878L49.491 212.027C53.525 216.667 59.386 218.527 66.01 217.244C76.745 215.191 86.794 205.653 91.051 193.508L124.311 98.4302C128.043 87.7527 126.482 77.5284 120.198 71.7325C114.931 66.8682 107.328 66.0961 99.369 69.6046L99.22 69.2747Z" fill="#17A2B8"/>
<path d="M64.1018 223.481C61.0738 222.67 58.3178 221.14 55.8998 218.937L-6.17446 161.578C-11.8857 156.305 -14.4355 147.898 -13.1674 138.537C-11.4844 126.151 -3.55896 114.594 7.05954 109.136L95.1958 63.7149C104.131 59.1236 113.076 59.5171 119.758 64.8132C127.177 70.7026 129.971 81.547 127.066 93.0787L101.01 195.834C97.6768 208.964 88.0278 219.664 76.3988 223.085C72.0438 224.37 67.8688 224.49 64.1018 223.481ZM95.3698 64.0514L95.5428 64.3879L7.40034 109.833C-2.98166 115.197 -10.7608 126.503 -12.4025 138.637C-13.6293 147.745 -11.1745 155.915 -5.65186 161.006L56.4228 218.365C61.6288 223.161 68.6338 224.59 76.1698 222.365C87.5198 219.001 96.9788 208.514 100.24 195.654L126.296 92.8988C129.147 81.6689 126.453 71.1411 119.271 65.4473C112.852 60.3533 104.191 59.9832 95.5548 64.4437L95.3698 64.0514Z" fill="#17A2B8"/>
<path d="M71.9311 228.821C69.1981 228.089 66.6281 226.847 64.2951 225.115L-10.4868 169.491C-17.5032 164.263 -21.2509 155.404 -20.7044 145.191C-20.0287 132.034 -12.7592 119.773 -1.71451 113.217L90.3341 58.5116C99.7501 52.9156 110.083 52.7583 117.969 58.0874C126.571 63.8981 130.54 74.6884 128.624 86.9596L111.326 197.307C109.204 210.841 100.198 222.688 88.3531 227.502C82.7831 229.779 77.0761 230.2 71.9311 228.821ZM90.5511 58.8859L90.7491 59.229L-1.31781 113.903C-12.1129 120.316 -19.236 132.325 -19.9263 145.241C-20.4315 155.202 -16.828 163.812 -10.0068 168.882L64.7751 224.505C71.2921 229.336 79.7721 230.184 88.0931 226.799C99.6761 222.074 108.518 210.446 110.592 197.189L127.884 86.8667C129.77 74.9038 125.907 64.4056 117.55 58.7658C109.932 53.6143 99.9151 53.777 90.7561 59.2044L90.5511 58.8859Z" fill="#17A2B8"/>
<path d="M80.9767 233.855C78.6387 233.229 76.3847 232.282 74.2487 230.998L-14.2915 178.172C-22.843 173.06 -27.943 163.733 -28.2706 152.548C-28.6812 138.915 -22.0216 125.78 -10.8922 118.218L84.4337 53.4512C94.3687 46.7028 105.894 45.837 115.24 51.1354C125.021 56.6821 130.428 67.6205 129.683 80.4429L122.898 198.035C122.097 212.055 114.148 224.687 102.185 231.024C95.1997 234.74 87.7717 235.676 80.9767 233.855ZM84.6627 53.7763L84.8927 54.1014L-10.4578 118.862C-21.3621 126.273 -27.9066 139.175 -27.5039 152.542C-27.1777 163.437 -22.2285 172.54 -13.9035 177.512L74.6617 230.344C82.7847 235.183 92.6757 235.198 101.838 230.351C113.582 224.14 121.36 211.752 122.145 197.992L128.93 80.3991C129.644 67.8851 124.406 57.2028 114.87 51.827C105.775 46.675 94.5717 47.5216 84.8857 54.126L84.6627 53.7763Z" fill="#17A2B8"/>
<path d="M91.142 238.371C89.345 237.889 87.594 237.236 85.858 236.428L-17.5793 187.597C-27.909 182.721 -34.596 172.916 -35.9322 160.669C-37.4686 146.708 -31.5372 132.745 -20.484 124.188L77.359 48.5495C87.704 40.5666 100.412 38.8316 111.375 43.9043C122.528 49.0544 129.541 60.1066 130.129 73.4706L135.731 197.915C136.367 212.082 129.52 225.721 117.837 233.477C109.455 239.06 99.981 240.739 91.142 238.371ZM106.169 42.8519C96.69 40.3123 86.435 42.5462 77.849 49.1817L-19.9937 124.82C-30.8399 133.196 -36.6562 146.926 -35.1457 160.59C-33.8421 172.564 -27.3059 182.144 -17.2339 186.899L86.204 235.729C96.208 240.44 107.57 239.398 117.427 232.84C128.885 225.234 135.611 211.853 134.982 197.951L129.356 73.5006C128.763 60.4516 121.919 49.6555 111.054 44.6091C109.459 43.8654 107.818 43.2939 106.169 42.8519Z" fill="#17A2B8"/>
<path d="M102.253 242.192C101.244 241.922 100.248 241.602 99.2337 241.251L-20.1382 197.826C-32.3299 193.399 -41.088 182.854 -43.5888 169.637C-46.274 155.237 -41.3502 140.898 -30.3468 131.246L69.0367 43.9483C79.6017 34.6536 93.4827 31.8885 106.203 36.5094C118.899 41.1237 127.753 52.195 129.891 66.0795L149.878 196.803C152.099 211.264 146.665 225.439 135.34 234.715C125.752 242.531 113.603 245.233 102.253 242.192ZM102.937 36.2931C91.3407 33.1861 79.0637 36.17 69.5407 44.5314L-29.8434 131.829C-40.6397 141.299 -45.4977 155.392 -42.8384 169.495C-40.3948 182.434 -31.8187 192.771 -19.8912 197.101L99.4807 240.527C111.408 244.856 124.609 242.462 134.812 234.125C145.93 225.031 151.26 211.144 149.079 196.932L129.091 66.208C127.017 52.5778 118.332 41.7626 105.932 37.2274C104.917 36.8766 103.921 36.5569 102.937 36.2931Z" fill="#17A2B8"/>
<path d="M114.511 245.292L-21.8268 208.76C-36.3025 204.881 -47.2732 193.928 -51.1502 179.446C-55.0272 164.964 -51.0205 150.01 -40.4283 139.431L59.3219 39.7368C69.9449 29.1397 84.9229 25.1395 99.3979 29.0182C113.874 32.897 124.845 43.85 128.722 58.3324L165.285 194.552C169.162 209.034 165.156 223.988 154.563 234.567C143.971 245.146 128.987 249.171 114.511 245.292ZM59.6199 40.0013L59.8879 40.2838L-39.887 139.972C-50.2968 150.362 -54.2311 165.045 -50.4113 179.249C-46.5915 193.452 -35.8274 204.192 -21.6225 207.998L114.716 244.53C128.921 248.336 143.612 244.417 154.022 234.026C164.432 223.636 168.366 208.953 164.546 194.749L127.983 58.5298C124.163 44.3263 113.406 33.5623 99.2009 29.756C84.9959 25.9498 70.3039 29.8685 59.8939 40.2592L59.6199 40.0013Z" fill="#17A2B8"/>
</g>
</g>
</g>
</g>
</g>
<defs>
<clipPath id="clip0_3745_5264">
<rect width="270" height="257" fill="white" transform="translate(-62)"/>
</clipPath>
<clipPath id="clip1_3745_5264">
<rect width="270" height="257" fill="white" transform="translate(-62)"/>
</clipPath>
<clipPath id="clip2_3745_5264">
<rect width="270" height="257" fill="white" transform="translate(-62)"/>
</clipPath>
</defs>
</svg>
