<svg width="50" height="50" viewBox="0 0 50 50" fill="none" xmlns="http://www.w3.org/2000/svg">
<path d="M42.1875 17.1875H32.8125V7.8125C32.8125 6.9837 32.4833 6.18884 31.8972 5.60279C31.3112 5.01674 30.5163 4.6875 29.6875 4.6875H20.3125C19.4837 4.6875 18.6888 5.01674 18.1028 5.60279C17.5167 6.18884 17.1875 6.9837 17.1875 7.8125V17.1875H7.8125C6.9837 17.1875 6.18884 17.5167 5.60279 18.1028C5.01674 18.6888 4.6875 19.4837 4.6875 20.3125V29.6875C4.6875 30.5163 5.01674 31.3112 5.60279 31.8972C6.18884 32.4833 6.9837 32.8125 7.8125 32.8125H17.1875V42.1875C17.1875 43.0163 17.5167 43.8112 18.1028 44.3972C18.6888 44.9833 19.4837 45.3125 20.3125 45.3125H29.6875C30.5163 45.3125 31.3112 44.9833 31.8972 44.3972C32.4833 43.8112 32.8125 43.0163 32.8125 42.1875V32.8125H42.1875C43.0163 32.8125 43.8112 32.4833 44.3972 31.8972C44.9833 31.3112 45.3125 30.5163 45.3125 29.6875V20.3125C45.3125 19.4837 44.9833 18.6888 44.3972 18.1028C43.8112 17.5167 43.0163 17.1875 42.1875 17.1875ZM42.1875 29.6875H31.25C30.8356 29.6875 30.4382 29.8521 30.1451 30.1451C29.8521 30.4382 29.6875 30.8356 29.6875 31.25V42.1875H20.3125V31.25C20.3125 30.8356 20.1479 30.4382 19.8549 30.1451C19.5618 29.8521 19.1644 29.6875 18.75 29.6875H7.8125V20.3125H18.75C19.1644 20.3125 19.5618 20.1479 19.8549 19.8549C20.1479 19.5618 20.3125 19.1644 20.3125 18.75V7.8125H29.6875V18.75C29.6875 19.1644 29.8521 19.5618 30.1451 19.8549C30.4382 20.1479 30.8356 20.3125 31.25 20.3125H42.1875V29.6875Z" fill="black"/>
</svg>
