<svg width="50" height="50" viewBox="0 0 50 50" fill="none" xmlns="http://www.w3.org/2000/svg">
<path d="M49.6679 21.0761L44.6836 11.1035C44.5 10.7364 44.2458 10.4091 43.9357 10.1403C43.6256 9.87147 43.2655 9.66635 42.8761 9.53667C42.4867 9.407 42.0756 9.35529 41.6662 9.38452C41.2569 9.41374 40.8572 9.52333 40.4902 9.70701L35.6328 12.1347L25.4004 9.42771C25.1378 9.35938 24.8621 9.35938 24.5996 9.42771L14.3672 12.1347L9.50974 9.70701C9.14271 9.52333 8.7431 9.41374 8.33372 9.38452C7.92433 9.35529 7.51321 9.407 7.12381 9.53667C6.73441 9.66635 6.37437 9.87147 6.06425 10.1403C5.75413 10.4091 5.5 10.7364 5.31638 11.1035L0.332007 21.0742C0.148327 21.4412 0.0387457 21.8408 0.00952006 22.2502C-0.0197056 22.6596 0.0319972 23.0707 0.161676 23.4601C0.291354 23.8495 0.496468 24.2096 0.765305 24.5197C1.03414 24.8298 1.36143 25.0839 1.72849 25.2676L7.00193 27.9062L17.8398 35.6465C17.9995 35.7601 18.179 35.8429 18.3691 35.8906L30.8691 39.0156C31.1309 39.0812 31.4052 39.078 31.6653 39.0061C31.9255 38.9342 32.1626 38.7962 32.3535 38.6054L43.1094 27.8476L48.2695 25.2676C49.0103 24.8967 49.5735 24.2469 49.8354 23.4609C50.0973 22.675 50.0363 21.8172 49.666 21.0761H49.6679ZM38.9472 27.5937L32.2265 22.2109C31.9255 21.9698 31.5458 21.8486 31.1607 21.8706C30.7756 21.8926 30.4123 22.0562 30.1406 22.3301C26.6621 25.834 22.7851 25.3906 20.3125 23.8281L28.7578 15.625H34.9707L40.2851 26.2519L38.9472 27.5937ZM8.1113 12.5L12.1094 14.4961L7.11521 24.4668L3.12498 22.4726L8.1113 12.5ZM30.7676 35.7676L19.4179 32.9316L9.80857 26.0683L15.2773 15.1308L25 12.5547L26.914 13.0605L18.125 21.5918L18.1094 21.6094C17.7785 21.9402 17.5262 22.3411 17.371 22.7825C17.2158 23.2239 17.1617 23.6945 17.2127 24.1596C17.2637 24.6247 17.4184 25.0724 17.6656 25.4697C17.9127 25.867 18.2459 26.2037 18.6406 26.4551C22.6562 29.0195 27.5019 28.6035 31.3183 25.4785L36.7187 29.8164L30.7676 35.7676ZM42.8769 24.4648L37.8926 14.5039L41.8886 12.5L46.875 22.4726L42.8769 24.4648ZM25.7383 42.5644C25.6538 42.9021 25.4591 43.202 25.1849 43.4164C24.9106 43.6308 24.5727 43.7475 24.2246 43.748C24.0962 43.7479 23.9683 43.7321 23.8437 43.7011L15.7051 41.666C15.5147 41.619 15.3351 41.5362 15.1758 41.4219L10.0293 37.7461C9.71283 37.4976 9.50442 37.1367 9.44744 36.7384C9.39047 36.3401 9.48931 35.9352 9.7234 35.608C9.95748 35.2808 10.3088 35.0565 10.7041 34.9818C11.0994 34.9071 11.5083 34.9878 11.8457 35.207L16.75 38.7109L24.6094 40.6719C25.0113 40.7724 25.3568 41.0285 25.57 41.3837C25.7832 41.739 25.8465 42.1644 25.7461 42.5664L25.7383 42.5644Z" fill="#525252"/>
</svg>
