<svg width="50" height="50" viewBox="0 0 50 50" fill="none" xmlns="http://www.w3.org/2000/svg">
<path d="M28.125 32.3594C30.5744 30.8338 32.4603 28.552 33.4974 25.8591C34.5345 23.1663 34.6663 20.2089 33.8729 17.4345C33.0796 14.66 31.4042 12.2195 29.1002 10.482C26.7963 8.74452 23.9891 7.80469 21.1035 7.80469C18.2178 7.80469 15.4107 8.74452 13.1068 10.482C10.8028 12.2195 9.12742 14.66 8.33406 17.4345C7.5407 20.2089 7.67253 23.1663 8.70962 25.8591C9.7467 28.552 11.6326 30.8338 14.082 32.3594C10.0488 33.6797 6.4199 36.1465 3.50193 39.6191C3.23516 39.9364 3.10536 40.3467 3.14107 40.7597C3.17678 41.1726 3.37509 41.5545 3.69236 41.8213C4.00964 42.0881 4.41989 42.2179 4.83288 42.1822C5.24586 42.1464 5.62774 41.9481 5.89451 41.6309C9.81443 36.9512 15.2168 34.375 21.0937 34.375C26.9707 34.375 32.373 36.9512 36.3047 41.6309C36.5714 41.9481 36.9533 42.1464 37.3663 42.1822C37.7793 42.2179 38.1895 42.0881 38.5068 41.8213C38.8241 41.5545 39.0224 41.1726 39.0581 40.7597C39.0938 40.3467 38.964 39.9364 38.6972 39.6191C35.7773 36.1465 32.1484 33.6797 28.125 32.3594ZM10.9375 21.0938C10.9375 19.085 11.5331 17.1214 12.6491 15.4512C13.7651 13.7811 15.3513 12.4793 17.2071 11.7106C19.0629 10.9419 21.105 10.7408 23.0751 11.1326C25.0452 11.5245 26.8549 12.4918 28.2753 13.9122C29.6957 15.3326 30.663 17.1422 31.0548 19.1124C31.4467 21.0825 31.2456 23.1246 30.4769 24.9804C29.7082 26.8362 28.4064 28.4224 26.7362 29.5384C25.0661 30.6543 23.1024 31.25 21.0937 31.25C18.4011 31.2469 15.8196 30.1759 13.9156 28.2719C12.0116 26.3679 10.9406 23.7864 10.9375 21.0938ZM40.5 12.8125C41.6135 15.4314 42.1874 18.248 42.1874 21.0938C42.1874 23.9395 41.6135 26.7561 40.5 29.375C40.3798 29.6567 40.1794 29.8968 39.9239 30.0656C39.6683 30.2344 39.3687 30.3243 39.0625 30.3242C38.8038 30.3244 38.5492 30.2604 38.3214 30.1379C38.0936 30.0155 37.8997 29.8384 37.7572 29.6225C37.6147 29.4066 37.5281 29.1588 37.505 28.9012C37.4819 28.6436 37.5231 28.3842 37.625 28.1465C38.5736 25.9162 39.0625 23.5174 39.0625 21.0938C39.0625 18.6701 38.5736 16.2713 37.625 14.041C37.4621 13.6598 37.4573 13.2294 37.6117 12.8446C37.7661 12.4599 38.067 12.1522 38.4482 11.9893C38.8295 11.8263 39.2598 11.8216 39.6446 11.9759C40.0294 12.1303 40.3371 12.4313 40.5 12.8125ZM48.4375 21.0938C48.4448 24.7971 47.6944 28.4627 46.2324 31.8652C46.0614 32.234 45.7534 32.5216 45.3739 32.667C44.9943 32.8124 44.573 32.8042 44.1994 32.6441C43.8258 32.4839 43.5293 32.1845 43.3728 31.8094C43.2163 31.4343 43.2122 31.0129 43.3613 30.6348C44.6488 27.6186 45.3125 24.3732 45.3125 21.0938C45.3125 17.8143 44.6488 14.5689 43.3613 11.5527C43.2734 11.3631 43.2244 11.1577 43.2172 10.9488C43.2101 10.7399 43.2449 10.5316 43.3197 10.3364C43.3945 10.1412 43.5077 9.963 43.6526 9.81232C43.7975 9.66165 43.9712 9.54158 44.1633 9.45923C44.3555 9.37689 44.5622 9.33393 44.7712 9.33292C44.9803 9.3319 45.1874 9.37284 45.3803 9.45332C45.5732 9.53379 45.7481 9.65216 45.8944 9.80142C46.0408 9.95068 46.1557 10.1278 46.2324 10.3223C47.6944 13.7248 48.4448 17.3904 48.4375 21.0938Z" fill="#525252"/>
</svg>
