<svg width="50" height="50" viewBox="0 0 50 50" fill="none" xmlns="http://www.w3.org/2000/svg">
<path d="M35.9375 35.9375C35.9375 37.5951 35.279 39.1848 34.1069 40.3569C32.9348 41.529 31.3451 42.1875 29.6875 42.1875C27.0117 42.1875 24.4238 40.4434 23.5352 38.043C23.3999 37.6565 23.4218 37.2324 23.596 36.8619C23.7703 36.4914 24.083 36.2041 24.4669 36.0618C24.8508 35.9195 25.2752 35.9336 25.6489 36.101C26.0225 36.2684 26.3155 36.5758 26.4648 36.957C26.9023 38.1387 28.3203 39.0625 29.6875 39.0625C30.5163 39.0625 31.3112 38.7333 31.8972 38.1472C32.4833 37.5612 32.8125 36.7663 32.8125 35.9375C32.8125 35.1087 32.4833 34.3138 31.8972 33.7278C31.3112 33.1417 30.5163 32.8125 29.6875 32.8125H7.8125C7.3981 32.8125 7.00067 32.6479 6.70765 32.3549C6.41462 32.0618 6.25 31.6644 6.25 31.25C6.25 30.8356 6.41462 30.4382 6.70765 30.1451C7.00067 29.8521 7.3981 29.6875 7.8125 29.6875H29.6875C31.3451 29.6875 32.9348 30.346 34.1069 31.5181C35.279 32.6902 35.9375 34.2799 35.9375 35.9375ZM23.4375 20.3125C25.0951 20.3125 26.6848 19.654 27.8569 18.4819C29.029 17.3098 29.6875 15.7201 29.6875 14.0625C29.6875 12.4049 29.029 10.8152 27.8569 9.64308C26.6848 8.47098 25.0951 7.8125 23.4375 7.8125C20.7617 7.8125 18.1738 9.55664 17.2852 11.957C17.1499 12.3435 17.1718 12.7676 17.346 13.1381C17.5203 13.5086 17.833 13.7959 18.2169 13.9382C18.6008 14.0805 19.0252 14.0664 19.3989 13.899C19.7725 13.7316 20.0655 13.4242 20.2148 13.043C20.6523 11.8613 22.0703 10.9375 23.4375 10.9375C24.2663 10.9375 25.0612 11.2667 25.6472 11.8528C26.2333 12.4388 26.5625 13.2337 26.5625 14.0625C26.5625 14.8913 26.2333 15.6862 25.6472 16.2722C25.0612 16.8583 24.2663 17.1875 23.4375 17.1875H4.6875C4.2731 17.1875 3.87567 17.3521 3.58265 17.6451C3.28962 17.9382 3.125 18.3356 3.125 18.75C3.125 19.1644 3.28962 19.5618 3.58265 19.8549C3.87567 20.1479 4.2731 20.3125 4.6875 20.3125H23.4375ZM40.625 14.0625C37.9492 14.0625 35.3613 15.8066 34.4727 18.207C34.3374 18.5935 34.3593 19.0176 34.5335 19.3881C34.7078 19.7586 35.0205 20.0459 35.4044 20.1882C35.7883 20.3305 36.2127 20.3164 36.5864 20.149C36.96 19.9816 37.253 19.6742 37.4023 19.293C37.8398 18.1113 39.2578 17.1875 40.625 17.1875C41.4538 17.1875 42.2487 17.5167 42.8347 18.1028C43.4208 18.6888 43.75 19.4837 43.75 20.3125C43.75 21.1413 43.4208 21.9362 42.8347 22.5222C42.2487 23.1083 41.4538 23.4375 40.625 23.4375H6.25C5.8356 23.4375 5.43817 23.6021 5.14515 23.8951C4.85212 24.1882 4.6875 24.5856 4.6875 25C4.6875 25.4144 4.85212 25.8118 5.14515 26.1049C5.43817 26.3979 5.8356 26.5625 6.25 26.5625H40.625C42.2826 26.5625 43.8723 25.904 45.0444 24.7319C46.2165 23.5598 46.875 21.9701 46.875 20.3125C46.875 18.6549 46.2165 17.0652 45.0444 15.8931C43.8723 14.721 42.2826 14.0625 40.625 14.0625Z" fill="#737373"/>
</svg>
