<svg width="50" height="50" viewBox="0 0 50 50" fill="none" xmlns="http://www.w3.org/2000/svg">
<path d="M40.625 6.25H35.9375V4.6875C35.9375 4.2731 35.7729 3.87567 35.4799 3.58265C35.1868 3.28962 34.7894 3.125 34.375 3.125C33.9606 3.125 33.5632 3.28962 33.2701 3.58265C32.9771 3.87567 32.8125 4.2731 32.8125 4.6875V6.25H17.1875V4.6875C17.1875 4.2731 17.0229 3.87567 16.7299 3.58265C16.4368 3.28962 16.0394 3.125 15.625 3.125C15.2106 3.125 14.8132 3.28962 14.5201 3.58265C14.2271 3.87567 14.0625 4.2731 14.0625 4.6875V6.25H9.375C8.5462 6.25 7.75134 6.57924 7.16529 7.16529C6.57924 7.75134 6.25 8.5462 6.25 9.375V40.625C6.25 41.4538 6.57924 42.2487 7.16529 42.8347C7.75134 43.4208 8.5462 43.75 9.375 43.75H40.625C41.4538 43.75 42.2487 43.4208 42.8347 42.8347C43.4208 42.2487 43.75 41.4538 43.75 40.625V9.375C43.75 8.5462 43.4208 7.75134 42.8347 7.16529C42.2487 6.57924 41.4538 6.25 40.625 6.25ZM40.625 40.625H9.375V9.375H14.0625V10.9375C14.0625 11.3519 14.2271 11.7493 14.5201 12.0424C14.8132 12.3354 15.2106 12.5 15.625 12.5C16.0394 12.5 16.4368 12.3354 16.7299 12.0424C17.0229 11.7493 17.1875 11.3519 17.1875 10.9375V9.375H32.8125V10.9375C32.8125 11.3519 32.9771 11.7493 33.2701 12.0424C33.5632 12.3354 33.9606 12.5 34.375 12.5C34.7894 12.5 35.1868 12.3354 35.4799 12.0424C35.7729 11.7493 35.9375 11.3519 35.9375 10.9375V9.375H40.625V40.625ZM29.6875 17.1875C28.8002 17.187 27.923 17.376 27.1147 17.7418C26.3063 18.1076 25.5853 18.6417 25 19.3086C24.1606 18.3568 23.0513 17.6831 21.8197 17.377C20.5881 17.071 19.2925 17.1471 18.1052 17.5953C16.9179 18.0435 15.8952 18.8426 15.173 19.8862C14.4509 20.9297 14.0635 22.1684 14.0625 23.4375C14.0625 30.5703 23.8828 35.5625 24.3008 35.7734C24.5179 35.8821 24.7573 35.9386 25 35.9386C25.2427 35.9386 25.4821 35.8821 25.6992 35.7734C26.1172 35.5625 35.9375 30.5703 35.9375 23.4375C35.9375 21.7799 35.279 20.1902 34.1069 19.0181C32.9348 17.846 31.3451 17.1875 29.6875 17.1875ZM25 32.6035C22.3066 31.082 17.1875 27.3789 17.1875 23.4375C17.1875 22.6087 17.5167 21.8138 18.1028 21.2278C18.6888 20.6417 19.4837 20.3125 20.3125 20.3125C21.1413 20.3125 21.9362 20.6417 22.5222 21.2278C23.1083 21.8138 23.4375 22.6087 23.4375 23.4375C23.4375 23.8519 23.6021 24.2493 23.8951 24.5424C24.1882 24.8354 24.5856 25 25 25C25.4144 25 25.8118 24.8354 26.1049 24.5424C26.3979 24.2493 26.5625 23.8519 26.5625 23.4375C26.5625 22.6087 26.8917 21.8138 27.4778 21.2278C28.0638 20.6417 28.8587 20.3125 29.6875 20.3125C30.5163 20.3125 31.3112 20.6417 31.8972 21.2278C32.4833 21.8138 32.8125 22.6087 32.8125 23.4375C32.8125 27.3809 27.6934 31.084 25 32.6035Z" fill="#525252"/>
</svg>
