<svg width="50" height="50" viewBox="0 0 50 50" fill="none" xmlns="http://www.w3.org/2000/svg">
<path d="M46.875 21.875C46.8719 18.9752 45.7186 16.195 43.6681 14.1445C41.6176 12.094 38.8374 10.9407 35.9375 10.9375C35.5918 10.9375 35.2461 10.9571 34.9043 10.9883C34.0224 9.10607 32.6225 7.51408 30.8683 6.39884C29.1142 5.2836 27.0787 4.69128 25 4.69128C22.9214 4.69128 20.8858 5.2836 19.1317 6.39884C17.3776 7.51408 15.9776 9.10607 15.0957 10.9883C14.754 10.9571 14.4082 10.9375 14.0625 10.9375C11.5797 10.9382 9.17093 11.7835 7.23222 13.3346C5.29351 14.8857 3.94022 17.0503 3.39484 19.4725C2.84945 21.8947 3.14441 24.4304 4.23123 26.6627C5.31805 28.8951 7.13206 30.6912 9.37505 31.7559V40.625C9.37505 41.4538 9.70429 42.2487 10.2903 42.8348C10.8764 43.4208 11.6712 43.75 12.5 43.75H37.5C38.3288 43.75 39.1237 43.4208 39.7098 42.8348C40.2958 42.2487 40.625 41.4538 40.625 40.625V31.7559C42.4936 30.8673 44.0723 29.4676 45.1784 27.7189C46.2845 25.9703 46.8727 23.9442 46.875 21.875ZM37.5 40.625H12.5V32.6993C13.0175 32.7747 13.5397 32.8125 14.0625 32.8125H35.9375C36.4604 32.8125 36.9826 32.7747 37.5 32.6993V40.625ZM35.9375 29.6875H33.252L34.3282 25.379C34.4207 24.9798 34.3528 24.5602 34.1389 24.2107C33.9251 23.8611 33.5825 23.6096 33.185 23.5102C32.7875 23.4108 32.3668 23.4716 32.0137 23.6794C31.6605 23.8872 31.4031 24.2254 31.2969 24.6211L30.0293 29.6875H26.5625V25C26.5625 24.5856 26.3979 24.1882 26.1049 23.8952C25.8119 23.6022 25.4144 23.4375 25 23.4375C24.5856 23.4375 24.1882 23.6022 23.8952 23.8952C23.6022 24.1882 23.4375 24.5856 23.4375 25V29.6875H19.9707L18.7032 24.6211C18.6563 24.4191 18.5697 24.2283 18.4483 24.0601C18.327 23.8918 18.1734 23.7494 17.9964 23.6412C17.8194 23.5329 17.6227 23.461 17.4176 23.4296C17.2126 23.3982 17.0033 23.4079 16.8021 23.4582C16.6008 23.5085 16.4116 23.5984 16.2455 23.7226C16.0793 23.8468 15.9396 24.0029 15.8344 24.1817C15.7292 24.3605 15.6606 24.5584 15.6327 24.764C15.6048 24.9695 15.6182 25.1786 15.6719 25.379L16.7481 29.6875H14.0625C11.9905 29.6875 10.0034 28.8645 8.53827 27.3993C7.07315 25.9342 6.25005 23.9471 6.25005 21.875C6.25005 19.803 7.07315 17.8159 8.53827 16.3508C10.0034 14.8856 11.9905 14.0625 14.0625 14.0625H14.1758C14.1002 14.5799 14.0624 15.1022 14.0625 15.625C14.0625 16.0394 14.2272 16.4369 14.5202 16.7299C14.8132 17.0229 15.2106 17.1875 15.625 17.1875C16.0394 17.1875 16.4369 17.0229 16.7299 16.7299C17.0229 16.4369 17.1875 16.0394 17.1875 15.625C17.1875 13.553 18.0106 11.5659 19.4758 10.1008C20.9409 8.63565 22.928 7.81255 25 7.81255C27.0721 7.81255 29.0592 8.63565 30.5243 10.1008C31.9894 11.5659 32.8125 13.553 32.8125 15.625C32.8125 16.0394 32.9772 16.4369 33.2702 16.7299C33.5632 17.0229 33.9606 17.1875 34.375 17.1875C34.7894 17.1875 35.1869 17.0229 35.4799 16.7299C35.7729 16.4369 35.9375 16.0394 35.9375 15.625C35.9377 15.1022 35.8999 14.5799 35.8243 14.0625H35.9375C38.0095 14.0625 39.9967 14.8856 41.4618 16.3508C42.9269 17.8159 43.75 19.803 43.75 21.875C43.75 23.9471 42.9269 25.9342 41.4618 27.3993C39.9967 28.8645 38.0095 29.6875 35.9375 29.6875Z" fill="#525252"/>
</svg>
