<svg width="50" height="50" viewBox="0 0 50 50" fill="none" xmlns="http://www.w3.org/2000/svg">
<path d="M28.125 39.0625C28.125 39.6806 27.9417 40.2848 27.5983 40.7987C27.255 41.3126 26.7669 41.7131 26.1959 41.9496C25.6249 42.1861 24.9965 42.248 24.3903 42.1275C23.7842 42.0069 23.2273 41.7092 22.7903 41.2722C22.3533 40.8352 22.0556 40.2783 21.935 39.6722C21.8145 39.066 21.8764 38.4376 22.1129 37.8666C22.3494 37.2956 22.7499 36.8075 23.2638 36.4642C23.7777 36.1208 24.3819 35.9375 25 35.9375C25.8288 35.9375 26.6237 36.2667 27.2097 36.8528C27.7958 37.4388 28.125 38.2337 28.125 39.0625ZM25 31.25C25.4144 31.25 25.8118 31.0854 26.1049 30.7924C26.3979 30.4993 26.5625 30.1019 26.5625 29.6875V9.375C26.5625 8.9606 26.3979 8.56317 26.1049 8.27015C25.8118 7.97712 25.4144 7.8125 25 7.8125C24.5856 7.8125 24.1882 7.97712 23.8951 8.27015C23.6021 8.56317 23.4375 8.9606 23.4375 9.375V29.6875C23.4375 30.1019 23.6021 30.4993 23.8951 30.7924C24.1882 31.0854 24.5856 31.25 25 31.25Z" fill="#525252"/>
</svg>
