<svg width="50" height="50" viewBox="0 0 50 50" fill="none" xmlns="http://www.w3.org/2000/svg">
<path d="M46.5331 44.7265C46.405 44.8869 46.2464 45.0205 46.0666 45.1196C45.8868 45.2186 45.6892 45.2813 45.4851 45.304C45.2811 45.3267 45.0745 45.3089 44.8773 45.2517C44.6801 45.1945 44.4961 45.099 44.3359 44.9707C44.2636 44.9121 36.7538 39.0625 24.9999 39.0625C13.246 39.0625 5.73432 44.9218 5.66401 44.9726C5.50357 45.1009 5.31945 45.1963 5.12215 45.2533C4.92486 45.3104 4.71825 45.3281 4.51412 45.3053C4.10187 45.2594 3.72476 45.0515 3.46576 44.7275C3.20676 44.4035 3.08708 43.9899 3.13305 43.5776C3.17902 43.1654 3.38687 42.7883 3.71088 42.5293C4.02924 42.2754 11.2343 36.6191 22.9081 35.9961C22.3009 33.5766 22.084 31.0757 22.2656 28.5879C22.6054 24.3476 24.3984 18.6992 30.664 14.4316C29.5949 14.1665 28.4958 14.0424 27.3945 14.0625C23.6835 14.1836 21.3515 16.3496 20.2656 20.6875C20.1818 21.0262 19.9871 21.3272 19.7124 21.5424C19.4377 21.7576 19.0989 21.8747 18.7499 21.875C18.6222 21.8756 18.4948 21.8599 18.371 21.8281C17.9691 21.7275 17.6236 21.4715 17.4104 21.1162C17.1972 20.7609 17.1339 20.3355 17.2343 19.9336C19.041 12.7168 23.7011 11.0625 27.2929 10.9492C28.7194 10.9181 30.1437 11.0791 31.5273 11.4277C30.7792 10.1914 29.6855 8.90231 28.166 8.25388C26.2128 7.42575 23.8359 7.78708 21.0742 9.33005C20.7116 9.53207 20.2836 9.58177 19.8843 9.46823C19.4851 9.35468 19.1473 9.08718 18.9453 8.72458C18.7432 8.36198 18.6935 7.93398 18.8071 7.53473C18.9206 7.13548 19.1881 6.79769 19.5507 6.59567C23.2109 4.55466 26.5273 4.14646 29.4101 5.38474C31.8496 6.43161 33.4589 8.46677 34.4628 10.2675C35.6699 8.38474 37.1738 7.10935 38.8359 6.56833C41.1523 5.81247 43.6484 6.42771 46.2578 8.39841C46.5738 8.65314 46.7783 9.02085 46.8279 9.4237C46.8776 9.82654 46.7686 10.2329 46.5239 10.5568C46.2792 10.8806 45.9181 11.0966 45.517 11.1589C45.1159 11.2212 44.7063 11.125 44.3749 10.8906C42.6347 9.57614 41.0996 9.12107 39.8144 9.53708C38.3906 9.99607 37.3007 11.4902 36.6171 12.7812C38.0226 13.0661 39.3748 13.5689 40.6249 14.2715C43.4785 15.9023 46.8749 19.3593 46.8749 26.5644C46.8749 26.9788 46.7103 27.3763 46.4173 27.6693C46.1243 27.9623 45.7268 28.1269 45.3124 28.1269C44.898 28.1269 44.5006 27.9623 44.2076 27.6693C43.9146 27.3763 43.7499 26.9788 43.7499 26.5644C43.7499 21.9824 42.1738 18.7519 39.0624 16.9941C38.7 16.7883 38.3249 16.6056 37.9394 16.4472C38.9232 18.4473 39.2682 20.7015 38.9277 22.9043C38.6821 24.534 38.0922 26.0926 37.1972 27.4765C36.9577 27.8124 36.595 28.04 36.1884 28.1095C35.7817 28.1791 35.3641 28.085 35.0266 27.8477C34.689 27.6105 34.459 27.2494 34.3867 26.8433C34.3144 26.4371 34.4057 26.0188 34.6406 25.6797C34.7851 25.4668 37.83 20.9179 34.0039 16.0371C28.7304 19.0078 25.8222 23.3125 25.3789 28.8476C25.2061 31.2456 25.4594 33.6552 26.1269 35.9648C38.3632 36.3183 45.955 42.2793 46.2831 42.539C46.6051 42.7968 46.8121 43.1715 46.8589 43.5813C46.9057 43.9911 46.7886 44.4027 46.5331 44.7265ZM4.68744 27.3437C4.68744 26.2621 5.00818 25.2048 5.60909 24.3054C6.21001 23.4061 7.06411 22.7052 8.06339 22.2913C9.06268 21.8773 10.1623 21.769 11.2231 21.9801C12.2839 22.1911 13.2584 22.7119 14.0232 23.4767C14.788 24.2415 15.3089 25.216 15.5199 26.2768C15.7309 27.3377 15.6226 28.4372 15.2087 29.4365C14.7947 30.4358 14.0938 31.2899 13.1945 31.8908C12.2951 32.4917 11.2378 32.8125 10.1562 32.8125C8.70579 32.8125 7.31479 32.2363 6.2892 31.2107C5.26361 30.1851 4.68744 28.7941 4.68744 27.3437ZM7.81244 27.3437C7.81244 27.8073 7.9499 28.2604 8.20744 28.6458C8.46497 29.0313 8.83102 29.3317 9.25928 29.5091C9.68754 29.6865 10.1588 29.7329 10.6134 29.6424C11.0681 29.552 11.4857 29.3288 11.8135 29.001C12.1413 28.6732 12.3645 28.2556 12.4549 27.801C12.5453 27.3463 12.4989 26.8751 12.3215 26.4468C12.1441 26.0185 11.8437 25.6525 11.4583 25.395C11.0729 25.1374 10.6197 25 10.1562 25C9.53459 25 8.93845 25.2469 8.49891 25.6864C8.05937 26.126 7.81244 26.7221 7.81244 27.3437Z" fill="#525252"/>
</svg>
