<svg width="50" height="50" viewBox="0 0 50 50" fill="none" xmlns="http://www.w3.org/2000/svg">
<path d="M18.75 20.3125C18.75 19.8981 18.9146 19.5007 19.2076 19.2076C19.5007 18.9146 19.8981 18.75 20.3125 18.75H32.8125C33.2269 18.75 33.6243 18.9146 33.9174 19.2076C34.2104 19.5007 34.375 19.8981 34.375 20.3125C34.375 20.7269 34.2104 21.1243 33.9174 21.4174C33.6243 21.7104 33.2269 21.875 32.8125 21.875H20.3125C19.8981 21.875 19.5007 21.7104 19.2076 21.4174C18.9146 21.1243 18.75 20.7269 18.75 20.3125ZM20.3125 28.125H32.8125C33.2269 28.125 33.6243 27.9604 33.9174 27.6674C34.2104 27.3743 34.375 26.9769 34.375 26.5625C34.375 26.1481 34.2104 25.7507 33.9174 25.4576C33.6243 25.1646 33.2269 25 32.8125 25H20.3125C19.8981 25 19.5007 25.1646 19.2076 25.4576C18.9146 25.7507 18.75 26.1481 18.75 26.5625C18.75 26.9769 18.9146 27.3743 19.2076 27.6674C19.5007 27.9604 19.8981 28.125 20.3125 28.125ZM45.3125 37.5C45.3125 39.1576 44.654 40.7473 43.4819 41.9194C42.3098 43.0915 40.7201 43.75 39.0625 43.75H17.1875C15.5299 43.75 13.9402 43.0915 12.7681 41.9194C11.596 40.7473 10.9375 39.1576 10.9375 37.5V12.5C10.9375 11.6712 10.6083 10.8763 10.0222 10.2903C9.43616 9.70424 8.6413 9.375 7.8125 9.375C6.9837 9.375 6.18884 9.70424 5.60279 10.2903C5.01674 10.8763 4.6875 11.6712 4.6875 12.5C4.6875 13.6211 5.63086 14.3789 5.64062 14.3867C5.89922 14.5857 6.08903 14.8607 6.18341 15.173C6.27779 15.4854 6.27202 15.8195 6.16689 16.1284C6.06177 16.4373 5.86258 16.7055 5.59725 16.8955C5.33193 17.0854 5.0138 17.1875 4.6875 17.1875C4.34961 17.1881 4.02089 17.0776 3.75195 16.873C3.52539 16.707 1.5625 15.1582 1.5625 12.5C1.5625 10.8424 2.22098 9.25268 3.39308 8.08058C4.56519 6.90848 6.1549 6.25 7.8125 6.25H34.375C36.0326 6.25 37.6223 6.90848 38.7944 8.08058C39.9665 9.25268 40.625 10.8424 40.625 12.5V32.8125H42.1875C42.5256 32.8125 42.8545 32.9222 43.125 33.125C43.3594 33.293 45.3125 34.8418 45.3125 37.5ZM18.8008 33.8828C18.9075 33.5677 19.1113 33.2944 19.3828 33.1022C19.6544 32.9099 19.9798 32.8085 20.3125 32.8125H37.5V12.5C37.5 11.6712 37.1708 10.8763 36.5847 10.2903C35.9987 9.70424 35.2038 9.375 34.375 9.375H13.2207C13.7733 10.3236 14.0638 11.4021 14.0625 12.5V37.5C14.0625 38.3288 14.3917 39.1237 14.9778 39.7097C15.5638 40.2958 16.3587 40.625 17.1875 40.625C18.0163 40.625 18.8112 40.2958 19.3972 39.7097C19.9833 39.1237 20.3125 38.3288 20.3125 37.5C20.3125 36.3789 19.3691 35.6211 19.3594 35.6133C19.0931 35.4228 18.8951 35.1518 18.7945 34.8402C18.6939 34.5287 18.6961 34.193 18.8008 33.8828ZM42.1875 37.5C42.168 36.9211 41.9445 36.3677 41.5566 35.9375H23.1973C23.3543 36.4435 23.434 36.9702 23.4336 37.5C23.4351 38.5974 23.146 39.6756 22.5957 40.625H39.0625C39.8913 40.625 40.6862 40.2958 41.2722 39.7097C41.8583 39.1237 42.1875 38.3288 42.1875 37.5Z" fill="#525252"/>
</svg>
