<svg width="40" height="40" viewBox="0 0 40 40" fill="none" xmlns="http://www.w3.org/2000/svg">
<path d="M35.8847 12.1348L15.8847 32.1348C15.7686 32.251 15.6308 32.3432 15.479 32.4061C15.3273 32.469 15.1646 32.5014 15.0003 32.5014C14.8361 32.5014 14.6734 32.469 14.5217 32.4061C14.3699 32.3432 14.232 32.251 14.116 32.1348L5.36595 23.3848C5.1314 23.1502 4.99963 22.8321 4.99963 22.5004C4.99963 22.1687 5.1314 21.8506 5.36595 21.616C5.6005 21.3815 5.91862 21.2497 6.25033 21.2497C6.58203 21.2497 6.90015 21.3815 7.1347 21.616L15.0003 29.4832L34.116 10.366C34.3505 10.1315 34.6686 9.99969 35.0003 9.99969C35.332 9.99969 35.6502 10.1315 35.8847 10.366C36.1193 10.6006 36.251 10.9187 36.251 11.2504C36.251 11.5821 36.1193 11.9002 35.8847 12.1348Z" fill="black"/>
</svg>
