<svg width="40" height="40" viewBox="0 0 40 40" fill="none" xmlns="http://www.w3.org/2000/svg">
<path d="M27.5 2.49982H12.5C11.5054 2.49982 10.5516 2.89491 9.84835 3.59817C9.14509 4.30143 8.75 5.25526 8.75 6.24982V33.7498C8.75 34.7444 9.14509 35.6982 9.84835 36.4015C10.5516 37.1047 11.5054 37.4998 12.5 37.4998H27.5C28.4946 37.4998 29.4484 37.1047 30.1517 36.4015C30.8549 35.6982 31.25 34.7444 31.25 33.7498V6.24982C31.25 5.25526 30.8549 4.30143 30.1517 3.59817C29.4484 2.89491 28.4946 2.49982 27.5 2.49982ZM11.25 9.99982H28.75V29.9998H11.25V9.99982ZM12.5 4.99982H27.5C27.8315 4.99982 28.1495 5.13151 28.3839 5.36593C28.6183 5.60035 28.75 5.9183 28.75 6.24982V7.49982H11.25V6.24982C11.25 5.9183 11.3817 5.60035 11.6161 5.36593C11.8505 5.13151 12.1685 4.99982 12.5 4.99982ZM27.5 34.9998H12.5C12.1685 34.9998 11.8505 34.8681 11.6161 34.6337C11.3817 34.3993 11.25 34.0813 11.25 33.7498V32.4998H28.75V33.7498C28.75 34.0813 28.6183 34.3993 28.3839 34.6337C28.1495 34.8681 27.8315 34.9998 27.5 34.9998Z" fill="black"/>
</svg>
