<svg width="42" height="40" viewBox="0 0 42 40" fill="none" xmlns="http://www.w3.org/2000/svg">
<path d="M20.6659 0.50061C16.8092 0.50061 13.039 1.64427 9.83228 3.78695C6.62552 5.92964 4.12616 8.97512 2.65025 12.5383C1.17434 16.1014 0.788178 20.0222 1.54059 23.8049C2.293 27.5875 4.1502 31.0621 6.87732 33.7892C9.60444 36.5163 13.079 38.3735 16.8616 39.1259C20.6443 39.8783 24.5651 39.4922 28.1282 38.0163C31.6914 36.5404 34.7369 34.041 36.8796 30.8342C39.0223 27.6275 40.1659 23.8573 40.1659 20.0006C40.16 14.8307 38.1036 9.87427 34.4479 6.21861C30.7922 2.56294 25.8358 0.506565 20.6659 0.50061ZM37.1659 20.0006C37.1672 21.5223 36.9571 23.0368 36.5415 24.5006H29.3209C29.7809 21.5182 29.7809 18.483 29.3209 15.5006H36.5415C36.9571 16.9645 37.1672 18.4789 37.1659 20.0006ZM15.7909 27.5006H25.5409C24.5804 30.648 22.9129 33.534 20.6659 35.9381C18.4198 33.5334 16.7524 30.6475 15.7909 27.5006ZM15.0597 24.5006C14.5447 21.5227 14.5447 18.4785 15.0597 15.5006H26.2872C26.8021 18.4785 26.8021 21.5227 26.2872 24.5006H15.0597ZM4.1659 20.0006C4.1646 18.4789 4.37473 16.9645 4.79028 15.5006H12.0109C11.5509 18.483 11.5509 21.5182 12.0109 24.5006H4.79028C4.37473 23.0368 4.1646 21.5223 4.1659 20.0006ZM25.5409 12.5006H15.7909C16.7514 9.35325 18.4189 6.4672 20.6659 4.06311C22.912 6.46784 24.5794 9.35368 25.5409 12.5006ZM35.3528 12.5006H28.674C27.8323 9.41231 26.4135 6.51125 24.4928 3.95061C26.8135 4.5081 28.9862 5.56082 30.862 7.03659C32.7378 8.51236 34.2723 10.3763 35.3603 12.5006H35.3528ZM16.839 3.95061C14.9183 6.51125 13.4996 9.41231 12.6578 12.5006H5.97153C7.05954 10.3763 8.59403 8.51236 10.4698 7.03659C12.3456 5.56082 14.5183 4.5081 16.839 3.95061ZM5.97153 27.5006H12.6578C13.4996 30.5889 14.9183 33.49 16.839 36.0506C14.5183 35.4931 12.3456 34.4404 10.4698 32.9646C8.59403 31.4889 7.05954 29.6249 5.97153 27.5006ZM24.4928 36.0506C26.4135 33.49 27.8323 30.5889 28.674 27.5006H35.3603C34.2723 29.6249 32.7378 31.4889 30.862 32.9646C28.9862 34.4404 26.8135 35.4931 24.4928 36.0506Z" fill="black"/>
</svg>
