<svg width="40" height="40" viewBox="0 0 40 40" fill="none" xmlns="http://www.w3.org/2000/svg">
<path d="M39.3371 12.5327L20.5871 2.47022C20.4063 2.37331 20.2045 2.32263 19.9996 2.32263C19.7947 2.32263 19.593 2.37331 19.4121 2.47022L0.662109 12.5327C0.462116 12.64 0.29486 12.7999 0.178234 12.9954C0.0616083 13.191 0 13.4147 0 13.6427C0 13.8708 0.0616083 14.0945 0.178234 14.29C0.29486 14.4856 0.462116 14.6455 0.662109 14.7528L4.99961 17.0813V24.6942C4.99831 25.312 5.22428 25.9085 5.63398 26.3687C7.68086 28.6626 12.2668 32.5099 19.9996 32.5099C22.5636 32.5313 25.1084 32.0639 27.4996 31.1326V36.2834C27.4996 36.617 27.6313 36.9369 27.8657 37.1728C28.1001 37.4087 28.4181 37.5412 28.7496 37.5412C29.0811 37.5412 29.3991 37.4087 29.6335 37.1728C29.8679 36.9369 29.9996 36.617 29.9996 36.2834V29.9173C31.6296 28.9704 33.1026 27.7731 34.3652 26.3687C34.7749 25.9085 35.0009 25.312 34.9996 24.6942V17.0813L39.3371 14.7528C39.5371 14.6455 39.7044 14.4856 39.821 14.29C39.9376 14.0945 39.9992 13.8708 39.9992 13.6427C39.9992 13.4147 39.9376 13.191 39.821 12.9954C39.7044 12.7999 39.5371 12.64 39.3371 12.5327ZM19.9996 29.9943C13.2387 29.9943 9.26211 26.6705 7.49961 24.6942V18.4224L19.4121 24.8153C19.593 24.9122 19.7947 24.9628 19.9996 24.9628C20.2045 24.9628 20.4063 24.9122 20.5871 24.8153L27.4996 21.1063V28.3922C25.5309 29.3167 23.0496 29.9943 19.9996 29.9943ZM32.4996 24.6879C31.7503 25.5246 30.9119 26.2759 29.9996 26.9284V19.7636L32.4996 18.4224V24.6879ZM29.3746 17.2495L29.3402 17.2291L20.5902 12.5327C20.2983 12.3827 19.9595 12.354 19.6468 12.453C19.334 12.5519 19.0724 12.7705 18.9184 13.0616C18.7643 13.3528 18.73 13.6932 18.8229 14.0095C18.9159 14.3258 19.1286 14.5927 19.4152 14.7528L26.7184 18.674L19.9996 22.2792L3.90586 13.6427L19.9996 5.00628L36.0934 13.6427L29.3746 17.2495Z" fill="black"/>
</svg>
