<svg width="22" height="22" viewBox="0 0 22 22" fill="none" xmlns="http://www.w3.org/2000/svg">
<path d="M8.65446 2.60053C9.64469 1.29459 11.6079 1.29459 12.5982 2.60053C13.1385 3.31309 14.0212 3.67872 14.9071 3.55692C16.5307 3.33368 17.919 4.7219 17.6957 6.34554C17.5739 7.23145 17.9395 8.11416 18.6521 8.65446C19.958 9.64469 19.958 11.6079 18.6521 12.5982C17.9395 13.1385 17.5739 14.0212 17.6957 14.9071C17.919 16.5307 16.5307 17.919 14.9071 17.6957C14.0212 17.5739 13.1385 17.9395 12.5982 18.6521C11.6079 19.958 9.64469 19.958 8.65446 18.6521C8.11416 17.9395 7.23145 17.5739 6.34554 17.6957C4.7219 17.919 3.33368 16.5307 3.55692 14.9071C3.67872 14.0212 3.31309 13.1385 2.60053 12.5982C1.29459 11.6079 1.29459 9.64469 2.60053 8.65446C3.31309 8.11416 3.67872 7.23145 3.55692 6.34554C3.33368 4.7219 4.7219 3.33368 6.34554 3.55692C7.23145 3.67872 8.11416 3.31309 8.65446 2.60053Z" fill="#22C55E"/>
<g clip-path="url(#clip0_3780_3798)">
<path d="M14.9637 8.13088L9.65055 13.444C9.60427 13.4905 9.54929 13.5273 9.48874 13.5525C9.42819 13.5776 9.36328 13.5905 9.29772 13.5905C9.23216 13.5905 9.16725 13.5776 9.10671 13.5525C9.04616 13.5273 8.99117 13.4905 8.9449 13.444L6.62039 11.1195C6.57405 11.0732 6.5373 11.0182 6.51223 10.9576C6.48715 10.8971 6.47424 10.8322 6.47424 10.7667C6.47424 10.7012 6.48715 10.6363 6.51223 10.5758C6.5373 10.5152 6.57405 10.4602 6.62039 10.4139C6.66672 10.3675 6.72173 10.3308 6.78227 10.3057C6.84281 10.2806 6.90769 10.2677 6.97322 10.2677C7.03874 10.2677 7.10363 10.2806 7.16416 10.3057C7.2247 10.3308 7.27971 10.3675 7.32604 10.4139L9.29814 12.386L14.2589 7.42605C14.3525 7.33248 14.4794 7.27991 14.6117 7.27991C14.744 7.27991 14.871 7.33248 14.9645 7.42605C15.0581 7.51963 15.1107 7.64654 15.1107 7.77888C15.1107 7.91122 15.0581 8.03813 14.9645 8.13171L14.9637 8.13088Z" fill="white"/>
</g>
<defs>
<clipPath id="clip0_3780_3798">
<rect width="10.6263" height="10.6263" fill="white" transform="translate(5.31311 4.78967)"/>
</clipPath>
</defs>
</svg>
