<svg width="40" height="40" viewBox="0 0 40 40" fill="none" xmlns="http://www.w3.org/2000/svg">
<path d="M35.8843 34.0828L28.0608 26.2609C30.3284 23.5386 31.4591 20.0468 31.2177 16.5121C30.9764 12.9773 29.3816 9.67162 26.7651 7.28273C24.1486 4.89385 20.7118 3.60568 17.1697 3.68618C13.6276 3.76667 10.2529 5.20965 7.74765 7.71494C5.24237 10.2202 3.79939 13.5949 3.71889 17.137C3.63839 20.6791 4.92657 24.1159 7.31545 26.7324C9.70433 29.3489 13.01 30.9437 16.5448 31.185C20.0795 31.4264 23.5713 30.2956 26.2936 28.0281L34.1155 35.8515C34.2316 35.9677 34.3695 36.0598 34.5213 36.1227C34.673 36.1855 34.8356 36.2179 34.9999 36.2179C35.1641 36.2179 35.3268 36.1855 35.4785 36.1227C35.6302 36.0598 35.7681 35.9677 35.8843 35.8515C36.0004 35.7354 36.0925 35.5975 36.1554 35.4458C36.2182 35.294 36.2506 35.1314 36.2506 34.9672C36.2506 34.8029 36.2182 34.6403 36.1554 34.4885C36.0925 34.3368 36.0004 34.1989 35.8843 34.0828ZM6.24987 17.4672C6.24987 15.2421 6.90967 13.067 8.14584 11.217C9.382 9.36694 11.139 7.925 13.1947 7.07351C15.2503 6.22202 17.5124 5.99924 19.6946 6.43332C21.8769 6.8674 23.8815 7.93886 25.4548 9.5122C27.0282 11.0855 28.0996 13.0901 28.5337 15.2724C28.9678 17.4547 28.745 19.7167 27.8935 21.7723C27.042 23.828 25.6001 25.585 23.75 26.8212C21.9 28.0574 19.7249 28.7172 17.4999 28.7172C14.5172 28.7139 11.6576 27.5275 9.54857 25.4185C7.4395 23.3094 6.25318 20.4498 6.24987 17.4672Z" fill="black"/>
</svg>
