<svg width="40" height="40" viewBox="0 0 40 40" fill="none" xmlns="http://www.w3.org/2000/svg">
<path d="M36.2228 9.08145L31.2228 4.08145C31.1067 3.96523 30.9688 3.87303 30.8171 3.81013C30.6653 3.74722 30.5027 3.71484 30.3384 3.71484C30.1741 3.71484 30.0115 3.74722 29.8597 3.81013C29.708 3.87303 29.5701 3.96523 29.454 4.08145L14.454 19.0815C14.338 19.1976 14.2459 19.3355 14.1832 19.4873C14.1205 19.639 14.0883 19.8016 14.0884 19.9658V24.9658C14.0884 25.2973 14.2201 25.6153 14.4545 25.8497C14.6889 26.0841 15.0069 26.2158 15.3384 26.2158H20.3384C20.5026 26.216 20.6652 26.1837 20.8169 26.121C20.9687 26.0583 21.1066 25.9662 21.2228 25.8502L36.2228 10.8502C36.339 10.7341 36.4312 10.5963 36.4941 10.4445C36.557 10.2928 36.5894 10.1301 36.5894 9.96583C36.5894 9.80156 36.557 9.6389 36.4941 9.48715C36.4312 9.33541 36.339 9.19754 36.2228 9.08145ZM19.8212 23.7158H16.5884V20.483L26.5884 10.483L29.8212 13.7158L19.8212 23.7158ZM31.5884 11.9486L28.3556 8.71583L30.3384 6.73302L33.5712 9.96583L31.5884 11.9486ZM35.3384 19.9658V32.4658C35.3384 33.1289 35.075 33.7648 34.6062 34.2336C34.1373 34.7024 33.5014 34.9658 32.8384 34.9658H7.83838C7.17534 34.9658 6.53945 34.7024 6.07061 34.2336C5.60177 33.7648 5.33838 33.1289 5.33838 32.4658V7.46583C5.33838 6.80279 5.60177 6.1669 6.07061 5.69806C6.53945 5.22922 7.17534 4.96583 7.83838 4.96583H20.3384C20.6699 4.96583 20.9878 5.09752 21.2223 5.33194C21.4567 5.56636 21.5884 5.88431 21.5884 6.21583C21.5884 6.54735 21.4567 6.86529 21.2223 7.09971C20.9878 7.33413 20.6699 7.46583 20.3384 7.46583H7.83838V32.4658H32.8384V19.9658C32.8384 19.6343 32.9701 19.3164 33.2045 19.0819C33.4389 18.8475 33.7569 18.7158 34.0884 18.7158C34.4199 18.7158 34.7378 18.8475 34.9723 19.0819C35.2067 19.3164 35.3384 19.6343 35.3384 19.9658Z" fill="black"/>
</svg>
