<svg width="114" height="113" viewBox="0 0 114 113" fill="none" xmlns="http://www.w3.org/2000/svg">
<path d="M54.4988 2.54628C55.4704 0.391855 58.5296 0.391855 59.5012 2.54628C60.3798 4.49441 63.0498 4.73472 64.2621 2.97477C65.6027 1.02845 68.6128 1.5747 69.1841 3.86799C69.7007 5.94168 72.2849 6.65487 73.7919 5.13966C75.4586 3.46401 78.3228 4.53896 78.4754 6.8974C78.6134 9.03001 81.0287 10.1932 82.7821 8.9714C84.7212 7.62026 87.3474 9.18935 87.0764 11.5371C86.8314 13.6601 89.0002 15.2359 90.9436 14.3468C93.0928 13.3636 95.3966 15.3764 94.7108 17.6381C94.0907 19.6832 95.9433 21.6209 98.0141 21.0931C100.304 20.5095 102.212 22.9013 101.133 25.0042C100.158 26.9057 101.635 29.143 103.766 28.9935C106.124 28.8282 107.574 31.5222 106.137 33.3987C104.838 35.0955 105.891 37.5605 108.016 37.7941C110.365 38.0524 111.31 40.9619 109.561 42.5517C107.98 43.9892 108.577 46.6028 110.625 47.2119C112.89 47.8855 113.301 50.9171 111.297 52.1691C109.484 53.3012 109.604 55.9793 111.511 56.9444C113.62 58.0116 113.483 61.0678 111.287 61.9418C109.301 62.732 108.941 65.3885 110.645 66.6786C112.529 68.1052 111.848 71.0878 109.532 71.5556C107.437 71.9786 106.609 74.5282 108.055 76.1017C109.654 77.8419 108.452 80.655 106.089 80.7016C103.952 80.7438 102.682 83.1045 103.824 84.9109C105.086 86.9087 103.401 89.4618 101.068 89.0858C98.9578 88.7458 97.2864 90.8418 98.0874 92.8231C98.9732 95.0142 96.859 97.2254 94.6304 96.4388C92.6151 95.7275 90.5963 97.4913 91.0306 99.5838C91.5109 101.898 89.0359 103.696 86.9836 102.524C85.1277 101.464 82.8264 102.839 82.8801 104.976C82.9395 107.338 80.1832 108.666 78.3731 107.146C76.7362 105.772 74.2264 106.714 73.8978 108.826C73.5344 111.161 70.5853 111.975 69.0756 110.157C67.7104 108.513 65.0727 108.991 64.3723 111.01C63.5978 113.243 60.5508 113.517 59.39 111.459C58.3404 109.597 55.6596 109.597 54.61 111.459C53.4492 113.517 50.4022 113.243 49.6277 111.01C48.9273 108.991 46.2896 108.513 44.9244 110.157C43.4147 111.975 40.4656 111.161 40.1022 108.826C39.7736 106.714 37.2638 105.772 35.6269 107.146C33.8168 108.666 31.0605 107.338 31.1199 104.976C31.1736 102.839 28.8723 101.464 27.0164 102.524C24.9641 103.696 22.4891 101.898 22.9694 99.5838C23.4037 97.4913 21.3849 95.7275 19.3696 96.4388C17.141 97.2254 15.0269 95.0142 15.9126 92.8231C16.7136 90.8418 15.0422 88.7458 12.9323 89.0858C10.599 89.4618 8.91369 86.9087 10.1765 84.9109C11.3183 83.1045 10.048 80.7438 7.91134 80.7016C5.54842 80.655 4.34606 77.8419 5.94525 76.1017C7.39132 74.5282 6.56291 71.9786 4.46813 71.5556C2.15152 71.0878 1.47076 68.1052 3.35498 66.6786C5.05877 65.3886 4.69892 62.732 2.71333 61.9418C0.517482 61.0678 0.38023 58.0116 2.4889 56.9444C4.39565 55.9793 4.51592 53.3012 2.70335 52.1691C0.698845 50.9171 1.1095 47.8855 3.37485 47.2119C5.42328 46.6028 6.01981 43.9892 4.43852 42.5517C2.68977 40.9619 3.63514 38.0524 5.98436 37.7941C8.10863 37.5605 9.16225 35.0955 7.86305 33.3987C6.42628 31.5222 7.87597 28.8282 10.2336 28.9935C12.3654 29.143 13.8422 26.9057 12.8669 25.0042C11.7883 22.9013 13.6957 20.5095 15.9859 21.0931C18.0567 21.6209 19.9093 19.6832 19.2892 17.6381C18.6034 15.3764 20.9072 13.3636 23.0564 14.3468C24.9998 15.2359 27.1686 13.6601 26.9236 11.5371C26.6526 9.18935 29.2788 7.62026 31.2179 8.9714C32.9713 10.1932 35.3866 9.03001 35.5246 6.8974C35.6772 4.53896 38.5414 3.46401 40.2081 5.13966C41.7151 6.65487 44.2993 5.94168 44.8159 3.86799C45.3872 1.5747 48.3973 1.02845 49.7379 2.97477C50.9502 4.73472 53.6202 4.49442 54.4988 2.54628Z" fill="#17A2B8"/>
</svg>
