<svg width="81" height="20" viewBox="0 0 81 20" fill="none" xmlns="http://www.w3.org/2000/svg">
<path d="M34.3672 10.3281C34.3672 12.9323 33.4427 15.1589 31.5938 17.0078C29.7708 18.8568 27.5833 19.7812 25.0312 19.7812C23.8073 19.7812 22.8828 19.612 22.2578 19.2734L23.7031 15.9531C24.1458 16.0833 24.5885 16.1484 25.0312 16.1484C26.6198 16.1484 27.974 15.5755 29.0938 14.4297C30.2135 13.2839 30.7734 11.9167 30.7734 10.3281C30.7734 8.73958 30.2135 7.38542 29.0938 6.26562C27.974 5.11979 26.6198 4.54688 25.0312 4.54688C23.5208 4.54688 22.1536 5.26302 20.9297 6.69531C19.7318 8.1276 19.1328 9.59896 19.1328 11.1094C19.1328 13.0625 18.8464 14.7292 18.2734 16.1094C17.7266 17.4896 16.8151 18.7135 15.5391 19.7812L13.4297 16.8125C14.1849 15.9271 14.7188 15.0807 15.0312 14.2734C15.3438 13.4661 15.5 12.3724 15.5 10.9922C15.5 9.22135 14.9531 7.71094 13.8594 6.46094C12.7917 5.1849 11.3984 4.54688 9.67969 4.54688C7.96094 4.54688 6.55469 5.1849 5.46094 6.46094C4.39323 7.71094 3.85938 9.22135 3.85938 10.9922C3.85938 12.3724 4.01562 13.4661 4.32812 14.2734C4.64062 15.0807 5.1875 15.9271 5.96875 16.8125L3.85938 19.7812C2.55729 18.7135 1.61979 17.4766 1.04688 16.0703C0.5 14.6641 0.226562 12.9714 0.226562 10.9922C0.226562 8.17969 1.13802 5.79688 2.96094 3.84375C4.78385 1.89062 7.02344 0.914062 9.67969 0.914062C11.3203 0.914062 12.8177 1.31771 14.1719 2.125C15.5521 2.90625 16.6458 3.98698 17.4531 5.36719C18.2865 4.03906 19.3542 2.95833 20.6562 2.125C21.9844 1.29167 23.4427 0.875 25.0312 0.875C27.5833 0.875 29.7708 1.8125 31.5938 3.6875C33.4427 5.53646 34.3672 7.75 34.3672 10.3281ZM50.9688 15.4062C50.4479 14.625 49.7188 13.987 48.7812 13.4922C47.8438 12.9974 46.8672 12.75 45.8516 12.75C44.862 12.75 43.8594 12.9583 42.8438 13.375C44.1719 15.224 45.9167 16.1484 48.0781 16.1484C49.0938 16.1484 50.0573 15.901 50.9688 15.4062ZM57.5312 10.3281C57.5312 12.9062 56.6328 15.1328 54.8359 17.0078C53.0391 18.8568 50.7865 19.7812 48.0781 19.7812C46.724 19.7812 45.3568 19.4948 43.9766 18.9219C42.5964 18.3229 41.3984 17.4245 40.3828 16.2266C39.3672 15.0286 38.8203 13.6745 38.7422 12.1641C41.138 10.4974 43.4948 9.66406 45.8125 9.66406C47.0885 9.66406 48.3906 9.97656 49.7188 10.6016C51.0729 11.2005 52.1927 12.0078 53.0781 13.0234C53.625 12.2161 53.8984 11.3177 53.8984 10.3281C53.8984 9.59896 53.7161 8.81771 53.3516 7.98438C52.987 7.125 52.3359 6.34375 51.3984 5.64062C50.4609 4.91146 49.3542 4.54688 48.0781 4.54688C45.7604 4.54688 43.9245 5.61458 42.5703 7.75L39.4453 6.07031C40.2786 4.45573 41.4766 3.19271 43.0391 2.28125C44.6016 1.34375 46.2812 0.875 48.0781 0.875C50.8646 0.875 53.1302 1.85156 54.875 3.80469C56.6458 5.75781 57.5312 7.93229 57.5312 10.3281ZM80.7734 10.9922C80.7734 12.9714 80.487 14.6641 79.9141 16.0703C79.3672 17.4766 78.4427 18.7135 77.1406 19.7812L75.0312 16.8125C75.7865 15.9271 76.3203 15.0807 76.6328 14.2734C76.9453 13.4661 77.1016 12.3724 77.1016 10.9922C77.1016 9.22135 76.5547 7.71094 75.4609 6.46094C74.3932 5.1849 73 4.54688 71.2812 4.54688C69.5625 4.54688 68.1562 5.1849 67.0625 6.46094C65.9948 7.71094 65.4609 9.22135 65.4609 10.9922C65.4609 12.3724 65.6172 13.4661 65.9297 14.2734C66.2422 15.0807 66.7891 15.9271 67.5703 16.8125L65.4609 19.7812C64.1589 18.7135 63.2214 17.4766 62.6484 16.0703C62.1016 14.6641 61.8281 12.9714 61.8281 10.9922C61.8281 8.17969 62.7396 5.79688 64.5625 3.84375C66.3854 1.89062 68.625 0.914062 71.2812 0.914062C73.8073 0.914062 76.0208 1.86458 77.9219 3.76562C79.8229 5.64062 80.7734 8.04948 80.7734 10.9922Z" fill="black"/>
</svg>
