<svg width="16" height="16" viewBox="0 0 16 16" fill="none" xmlns="http://www.w3.org/2000/svg">
<path d="M8.00005 5.11232L8.34202 5.43292L12.2439 9.09096L11.9019 9.45573L12.2439 9.09096C12.2573 9.10354 12.2784 9.10287 12.291 9.08945L8.00005 5.11232ZM8.00005 5.11232L7.65807 5.43292M8.00005 5.11232L7.65807 5.43292M7.65807 5.43292L3.75625 9.09092L7.65807 5.43292ZM12.2895 9.04233L12.2895 9.04232L8.02285 5.0423C8.01003 5.03028 7.99008 5.03027 7.97725 5.04229C7.97725 5.04229 7.97724 5.04229 7.97724 5.0423L3.7106 9.04228L12.2895 9.04233ZM12.2895 9.04233C12.3029 9.0549 12.3036 9.07599 12.291 9.08944L12.2895 9.04233ZM3.70909 9.0895C3.72171 9.10286 3.74274 9.10354 3.75621 9.09096L3.70909 9.0895ZM3.70909 9.0895C3.69648 9.07605 3.69718 9.05491 3.71055 9.04232L3.70909 9.0895Z" fill="#737373" stroke="#171717"/>
</svg>
