<svg width="16" height="16" viewBox="0 0 16 16" fill="none" xmlns="http://www.w3.org/2000/svg">
<path d="M7.99995 10.8877L7.65798 10.5671L3.75608 6.90904L4.09805 6.54427L3.75608 6.90904C3.74266 6.89646 3.72157 6.89713 3.70897 6.91055L7.99995 10.8877ZM7.99995 10.8877L8.34193 10.5671M7.99995 10.8877L8.34193 10.5671M8.34193 10.5671L12.2437 6.90908L8.34193 10.5671ZM3.71048 6.95767L3.71049 6.95768L7.97715 10.9577C7.98997 10.9697 8.00992 10.9697 8.02275 10.9577C8.02275 10.9577 8.02276 10.9577 8.02276 10.9577L12.2894 6.95772L3.71048 6.95767ZM3.71048 6.95767C3.69707 6.9451 3.69637 6.92401 3.70897 6.91056L3.71048 6.95767ZM12.2909 6.9105C12.2783 6.89714 12.2573 6.89646 12.2438 6.90904L12.2909 6.9105ZM12.2909 6.9105C12.3035 6.92395 12.3028 6.94509 12.2894 6.95768L12.2909 6.9105Z" fill="#737373" stroke="#171717"/>
</svg>
