<svg width="24" height="25" viewBox="0 0 24 25" fill="none" xmlns="http://www.w3.org/2000/svg">
<path d="M20.25 4.20996H3.75C3.35218 4.20996 2.97064 4.368 2.68934 4.6493C2.40804 4.93061 2.25 5.31214 2.25 5.70996V19.21C2.25 19.6078 2.40804 19.9893 2.68934 20.2706C2.97064 20.5519 3.35218 20.71 3.75 20.71H20.25C20.6478 20.71 21.0294 20.5519 21.3107 20.2706C21.592 19.9893 21.75 19.6078 21.75 19.21V5.70996C21.75 5.31214 21.592 4.93061 21.3107 4.6493C21.0294 4.368 20.6478 4.20996 20.25 4.20996ZM20.25 19.21H3.75V5.70996H20.25V19.21ZM17.25 9.45996C17.25 9.65887 17.171 9.84964 17.0303 9.99029C16.8897 10.1309 16.6989 10.21 16.5 10.21H7.5C7.30109 10.21 7.11032 10.1309 6.96967 9.99029C6.82902 9.84964 6.75 9.65887 6.75 9.45996C6.75 9.26105 6.82902 9.07028 6.96967 8.92963C7.11032 8.78898 7.30109 8.70996 7.5 8.70996H16.5C16.6989 8.70996 16.8897 8.78898 17.0303 8.92963C17.171 9.07028 17.25 9.26105 17.25 9.45996ZM17.25 12.46C17.25 12.6589 17.171 12.8496 17.0303 12.9903C16.8897 13.1309 16.6989 13.21 16.5 13.21H7.5C7.30109 13.21 7.11032 13.1309 6.96967 12.9903C6.82902 12.8496 6.75 12.6589 6.75 12.46C6.75 12.261 6.82902 12.0703 6.96967 11.9296C7.11032 11.789 7.30109 11.71 7.5 11.71H16.5C16.6989 11.71 16.8897 11.789 17.0303 11.9296C17.171 12.0703 17.25 12.261 17.25 12.46ZM17.25 15.46C17.25 15.6589 17.171 15.8496 17.0303 15.9903C16.8897 16.1309 16.6989 16.21 16.5 16.21H7.5C7.30109 16.21 7.11032 16.1309 6.96967 15.9903C6.82902 15.8496 6.75 15.6589 6.75 15.46C6.75 15.261 6.82902 15.0703 6.96967 14.9296C7.11032 14.789 7.30109 14.71 7.5 14.71H16.5C16.6989 14.71 16.8897 14.789 17.0303 14.9296C17.171 15.0703 17.25 15.261 17.25 15.46Z" fill="#17A2B8"/>
</svg>
