<svg width="21" height="19" viewBox="0 0 21 19" fill="none" xmlns="http://www.w3.org/2000/svg">
<path d="M9.75 9.45996C9.75 9.65887 9.67098 9.84964 9.53033 9.99029C9.38968 10.1309 9.19891 10.21 9 10.21H4.5C4.30109 10.21 4.11032 10.1309 3.96967 9.99029C3.82902 9.84964 3.75 9.65887 3.75 9.45996C3.75 9.26105 3.82902 9.07028 3.96967 8.92963C4.11032 8.78898 4.30109 8.70996 4.5 8.70996H9C9.19891 8.70996 9.38968 8.78898 9.53033 8.92963C9.67098 9.07028 9.75 9.26105 9.75 9.45996ZM9 5.70996H4.5C4.30109 5.70996 4.11032 5.78898 3.96967 5.92963C3.82902 6.07028 3.75 6.26105 3.75 6.45996C3.75 6.65887 3.82902 6.84964 3.96967 6.99029C4.11032 7.13094 4.30109 7.20996 4.5 7.20996H9C9.19891 7.20996 9.38968 7.13094 9.53033 6.99029C9.67098 6.84964 9.75 6.65887 9.75 6.45996C9.75 6.26105 9.67098 6.07028 9.53033 5.92963C9.38968 5.78898 9.19891 5.70996 9 5.70996ZM19.5 11.8478V17.71C19.5012 17.8422 19.4674 17.9724 19.4021 18.0873C19.3367 18.2023 19.2421 18.2979 19.1279 18.3645C19.0137 18.4312 18.8839 18.4664 18.7517 18.4667C18.6195 18.467 18.4895 18.4323 18.375 18.3662L16.125 17.0781L13.875 18.3662C13.7605 18.4323 13.6305 18.467 13.4983 18.4667C13.3661 18.4664 13.2363 18.4312 13.1221 18.3645C13.0079 18.2979 12.9133 18.2023 12.8479 18.0873C12.7826 17.9724 12.7488 17.8422 12.75 17.71V15.46H1.5C1.10218 15.46 0.720644 15.3019 0.43934 15.0206C0.158035 14.7393 0 14.3578 0 13.96V1.95996C0 1.56214 0.158035 1.18061 0.43934 0.899301C0.720644 0.617996 1.10218 0.459961 1.5 0.459961H18C18.3978 0.459961 18.7794 0.617996 19.0607 0.899301C19.342 1.18061 19.5 1.56214 19.5 1.95996V4.82215C19.9741 5.27616 20.3514 5.82146 20.6092 6.42517C20.8669 7.02888 20.9998 7.67852 20.9998 8.33496C20.9998 8.9914 20.8669 9.64104 20.6092 10.2448C20.3514 10.8485 19.9741 11.3938 19.5 11.8478ZM12.75 13.96V11.8478C11.9327 11.0596 11.4162 10.0108 11.2896 8.88238C11.1629 7.754 11.4342 6.61681 12.0565 5.66705C12.6787 4.71729 13.613 4.01454 14.6981 3.68007C15.7832 3.34559 16.951 3.40038 18 3.83496V1.95996H1.5V13.96H12.75ZM18 12.835C17.406 13.0831 16.7687 13.2109 16.125 13.2109C15.4813 13.2109 14.844 13.0831 14.25 12.835V16.4181L15.75 15.5593C15.8633 15.4945 15.9916 15.4605 16.1222 15.4605C16.2527 15.4605 16.381 15.4945 16.4944 15.5593L17.9944 16.4181L18 12.835ZM19.5 8.33496C19.5 7.66745 19.3021 7.01493 18.9312 6.45991C18.5604 5.9049 18.0333 5.47231 17.4166 5.21687C16.7999 4.96142 16.1213 4.89459 15.4666 5.02481C14.8119 5.15504 14.2105 5.47647 13.7385 5.94848C13.2665 6.42048 12.9451 7.02184 12.8148 7.67653C12.6846 8.33122 12.7515 9.00982 13.0069 9.62652C13.2624 10.2432 13.6949 10.7703 14.25 11.1412C14.805 11.512 15.4575 11.71 16.125 11.71C16.5682 11.71 17.0071 11.6227 17.4166 11.4531C17.826 11.2834 18.1981 11.0348 18.5115 10.7214C18.8249 10.408 19.0735 10.036 19.2431 9.62652C19.4127 9.21704 19.5 8.77817 19.5 8.33496Z" fill="#17A2B8"/>
</svg>
