<svg width="24" height="25" viewBox="0 0 24 25" fill="none" xmlns="http://www.w3.org/2000/svg">
<path d="M12 2.70996C10.0716 2.70996 8.18657 3.28179 6.58319 4.35313C4.97982 5.42448 3.73013 6.94722 2.99218 8.7288C2.25422 10.5104 2.06114 12.4708 2.43735 14.3621C2.81355 16.2534 3.74215 17.9907 5.10571 19.3543C6.46928 20.7178 8.20656 21.6464 10.0979 22.0226C11.9892 22.3988 13.9496 22.2057 15.7312 21.4678C17.5127 20.7298 19.0355 19.4802 20.1068 17.8768C21.1782 16.2734 21.75 14.3883 21.75 12.46C21.7473 9.87494 20.7192 7.39657 18.8913 5.56868C17.0634 3.7408 14.585 2.71269 12 2.70996ZM12 20.71C10.3683 20.71 8.77326 20.2261 7.41655 19.3196C6.05984 18.4131 5.00242 17.1246 4.378 15.6171C3.75358 14.1096 3.5902 12.4508 3.90853 10.8505C4.22685 9.25012 5.01259 7.78011 6.16637 6.62633C7.32016 5.47255 8.79017 4.68681 10.3905 4.36848C11.9909 4.05015 13.6497 4.21353 15.1571 4.83795C16.6646 5.46238 17.9531 6.5198 18.8596 7.87651C19.7661 9.23321 20.25 10.8283 20.25 12.46C20.2475 14.6472 19.3775 16.7442 17.8309 18.2909C16.2843 19.8375 14.1873 20.7075 12 20.71ZM18 12.46C18 12.6589 17.921 12.8496 17.7803 12.9903C17.6397 13.1309 17.4489 13.21 17.25 13.21H12C11.8011 13.21 11.6103 13.1309 11.4697 12.9903C11.329 12.8496 11.25 12.6589 11.25 12.46V7.20996C11.25 7.01105 11.329 6.82028 11.4697 6.67963C11.6103 6.53898 11.8011 6.45996 12 6.45996C12.1989 6.45996 12.3897 6.53898 12.5303 6.67963C12.671 6.82028 12.75 7.01105 12.75 7.20996V11.71H17.25C17.4489 11.71 17.6397 11.789 17.7803 11.9296C17.921 12.0703 18 12.261 18 12.46Z" fill="#17A2B8"/>
</svg>
