<svg width="42" height="42" viewBox="0 0 42 42" fill="none" xmlns="http://www.w3.org/2000/svg">
<path d="M38.1875 13.1875H28.8125V3.8125C28.8125 2.9837 28.4833 2.18884 27.8972 1.60279C27.3112 1.01674 26.5163 0.6875 25.6875 0.6875H16.3125C15.4837 0.6875 14.6888 1.01674 14.1028 1.60279C13.5167 2.18884 13.1875 2.9837 13.1875 3.8125V13.1875H3.8125C2.9837 13.1875 2.18884 13.5167 1.60279 14.1028C1.01674 14.6888 0.6875 15.4837 0.6875 16.3125V25.6875C0.6875 26.5163 1.01674 27.3112 1.60279 27.8972C2.18884 28.4833 2.9837 28.8125 3.8125 28.8125H13.1875V38.1875C13.1875 39.0163 13.5167 39.8112 14.1028 40.3972C14.6888 40.9833 15.4837 41.3125 16.3125 41.3125H25.6875C26.5163 41.3125 27.3112 40.9833 27.8972 40.3972C28.4833 39.8112 28.8125 39.0163 28.8125 38.1875V28.8125H38.1875C39.0163 28.8125 39.8112 28.4833 40.3972 27.8972C40.9833 27.3112 41.3125 26.5163 41.3125 25.6875V16.3125C41.3125 15.4837 40.9833 14.6888 40.3972 14.1028C39.8112 13.5167 39.0163 13.1875 38.1875 13.1875ZM38.1875 25.6875H27.25C26.8356 25.6875 26.4382 25.8521 26.1451 26.1451C25.8521 26.4382 25.6875 26.8356 25.6875 27.25V38.1875H16.3125V27.25C16.3125 26.8356 16.1479 26.4382 15.8549 26.1451C15.5618 25.8521 15.1644 25.6875 14.75 25.6875H3.8125V16.3125H14.75C15.1644 16.3125 15.5618 16.1479 15.8549 15.8549C16.1479 15.5618 16.3125 15.1644 16.3125 14.75V3.8125H25.6875V14.75C25.6875 15.1644 25.8521 15.5618 26.1451 15.8549C26.4382 16.1479 26.8356 16.3125 27.25 16.3125H38.1875V25.6875Z" fill="white"/>
</svg>
