<svg width="50" height="50" viewBox="0 0 50 50" fill="none" xmlns="http://www.w3.org/2000/svg">
<path d="M8.35156 9.76557C8.18347 9.91127 8.04842 10.0912 7.95546 10.2933C7.86249 10.4954 7.81376 10.715 7.8125 10.9374V43.7499C7.8125 44.1643 7.97712 44.5618 8.27015 44.8548C8.56317 45.1478 8.9606 45.3124 9.375 45.3124C9.7894 45.3124 10.1868 45.1478 10.4799 44.8548C10.7729 44.5618 10.9375 44.1643 10.9375 43.7499V35.1113C16.1699 30.9785 20.6777 33.207 25.8691 35.7773C29.0723 37.3613 32.5215 39.0683 36.2207 39.0683C38.9414 39.0683 41.7949 38.1406 44.7793 35.5527C44.9474 35.407 45.0824 35.2271 45.1754 35.025C45.2684 34.8229 45.3171 34.6032 45.3184 34.3808V10.9374C45.3176 10.6375 45.2306 10.3442 45.0677 10.0924C44.9048 9.84055 44.6729 9.64096 44.3996 9.5174C44.1263 9.39384 43.8233 9.35153 43.5266 9.39554C43.2299 9.43954 42.9522 9.568 42.7266 9.76557C37.2578 14.498 32.625 12.205 27.2559 9.54682C21.6934 6.789 15.3867 3.66986 8.35156 9.76557ZM42.1875 33.6425C36.9551 37.7753 32.4473 35.5449 27.2559 32.9765C22.373 30.5644 16.9414 27.873 10.9375 31.3359V11.6777C16.1699 7.54486 20.6777 9.77338 25.8691 12.3417C30.752 14.7538 36.1855 17.4453 42.1875 13.9824V33.6425Z" fill="white"/>
</svg>
