<svg width="41" height="36" viewBox="0 0 41 36" fill="white" xmlns="http://www.w3.org/2000/svg">
<path d="M38.1195 31.44H35.5596V19.9202L35.9339 20.2946C36.1745 20.5348 36.5007 20.6695 36.8407 20.6692C37.1806 20.6689 37.5065 20.5336 37.7467 20.293C37.9869 20.0524 38.1217 19.7262 38.1214 19.3863C38.1211 19.0463 37.9857 18.7204 37.7451 18.4802L22.0093 2.7492C21.5293 2.26948 20.8784 2 20.1998 2C19.5211 2 18.8702 2.26948 18.3902 2.7492L2.65438 18.4802C2.41441 18.7204 2.27969 19.046 2.27984 19.3856C2.27999 19.7251 2.415 20.0506 2.65518 20.2906C2.89536 20.5305 3.22102 20.6653 3.56053 20.6651C3.90004 20.665 4.22559 20.53 4.46556 20.2898L4.83995 19.9202V31.44H2.27998C1.94051 31.44 1.61494 31.5749 1.3749 31.8149C1.13485 32.055 1 32.3805 1 32.72C1 33.0595 1.13485 33.3851 1.3749 33.6251C1.61494 33.8651 1.94051 34 2.27998 34H38.1195C38.459 34 38.7846 33.8651 39.0246 33.6251C39.2647 33.3851 39.3995 33.0595 39.3995 32.72C39.3995 32.3805 39.2647 32.055 39.0246 31.8149C38.7846 31.5749 38.459 31.44 38.1195 31.44ZM7.39992 17.3602L20.1998 4.56038L32.9996 17.3602V31.44H25.3197V22.4801C25.3197 22.1407 25.1848 21.8151 24.9448 21.5751C24.7047 21.335 24.3792 21.2002 24.0397 21.2002H16.3598C16.0203 21.2002 15.6948 21.335 15.4547 21.5751C15.2147 21.8151 15.0798 22.1407 15.0798 22.4801V31.44H7.39992V17.3602ZM22.7597 31.44H17.6398V23.7601H22.7597V31.44Z" fill="white"/>
</svg>
