<svg width="84" height="17" viewBox="0 0 84 17" fill="none" xmlns="http://www.w3.org/2000/svg">
<g clip-path="url(#clip0_4696_14214)">
<path d="M7.0002 15.0625C9.86582 15.0625 12.2939 13.2469 13.1908 10.6875H0.80957C1.70645 13.2469 4.13457 15.0625 7.0002 15.0625Z" fill="#ED4C5C"/>
<path d="M7.0002 1.9375C4.13457 1.9375 1.70645 3.775 0.80957 6.3125H13.1908C12.2939 3.775 9.86582 1.9375 7.0002 1.9375Z" fill="#FFE62E"/>
<path d="M13.1906 10.6875C13.4312 10.0094 13.5625 9.26562 13.5625 8.5C13.5625 7.73438 13.4312 6.99062 13.1906 6.3125H0.809375C0.56875 6.99062 0.4375 7.73438 0.4375 8.5C0.4375 9.26562 0.56875 10.0094 0.809375 10.6875H13.1906Z" fill="#699635"/>
<path d="M7 10.4906L9.55938 12.4375L8.59687 9.26562L11.1562 7.29688H7.98438L7 4.125L6.01562 7.29688H2.84375L5.40313 9.26562L4.44062 12.4375L7 10.4906Z" fill="white"/>
</g>
<path d="M23.233 3.81818H24.7045L28.1648 12.2699H28.2841L31.7443 3.81818H33.2159V14H32.0625V6.2642H31.9631L28.7812 14H27.6676L24.4858 6.2642H24.3864V14H23.233V3.81818ZM36.2846 16.8636C36.0858 16.8636 35.9084 16.8471 35.7527 16.8139C35.5969 16.7841 35.4892 16.7543 35.4295 16.7244L35.7278 15.6903C36.0128 15.7633 36.2647 15.7898 36.4835 15.7699C36.7022 15.75 36.8961 15.6522 37.0652 15.4766C37.2375 15.3042 37.3949 15.0241 37.5375 14.6364L37.7562 14.0398L34.9324 6.36364H36.2051L38.313 12.4489H38.3926L40.5005 6.36364H41.7733L38.5318 15.1136C38.3859 15.508 38.2053 15.8345 37.9899 16.093C37.7744 16.3549 37.5242 16.5488 37.2392 16.6747C36.9574 16.8007 36.6393 16.8636 36.2846 16.8636ZM45.3366 14.179C44.8527 14.179 44.4136 14.0878 44.0192 13.9055C43.6248 13.7199 43.3116 13.4531 43.0795 13.1051C42.8475 12.7538 42.7315 12.3295 42.7315 11.8324C42.7315 11.3949 42.8177 11.0402 42.9901 10.7685C43.1624 10.4934 43.3928 10.2779 43.6811 10.1222C43.9695 9.96638 44.2876 9.85038 44.6357 9.77415C44.987 9.6946 45.34 9.63163 45.6946 9.58523C46.1586 9.52557 46.5348 9.48082 46.8232 9.45099C47.1148 9.41785 47.3269 9.36316 47.4595 9.28693C47.5954 9.2107 47.6634 9.07812 47.6634 8.8892V8.84943C47.6634 8.3589 47.5291 7.97775 47.2607 7.70597C46.9955 7.43419 46.5928 7.2983 46.0526 7.2983C45.4924 7.2983 45.0533 7.42093 44.7351 7.66619C44.4169 7.91146 44.1932 8.1733 44.0639 8.4517L42.9503 8.05398C43.1491 7.58996 43.4143 7.22869 43.7457 6.97017C44.0805 6.70833 44.4451 6.52604 44.8395 6.4233C45.2372 6.31723 45.6283 6.2642 46.0128 6.2642C46.258 6.2642 46.5398 6.29403 46.858 6.35369C47.1795 6.41004 47.4893 6.5277 47.7876 6.70668C48.0893 6.88565 48.3395 7.15578 48.5384 7.51705C48.7372 7.87831 48.8366 8.36222 48.8366 8.96875V14H47.6634V12.9659H47.6037C47.5241 13.1316 47.3916 13.3089 47.206 13.4979C47.0204 13.6868 46.7734 13.8475 46.4652 13.9801C46.157 14.1127 45.7808 14.179 45.3366 14.179ZM45.5156 13.125C45.9796 13.125 46.3707 13.0339 46.6889 12.8516C47.0104 12.6693 47.2524 12.4339 47.4148 12.1456C47.5805 11.8572 47.6634 11.554 47.6634 11.2358V10.1619C47.6136 10.2216 47.5043 10.2763 47.3352 10.326C47.1695 10.3724 46.9773 10.4138 46.7585 10.4503C46.5431 10.4834 46.3326 10.5133 46.1271 10.5398C45.925 10.563 45.7609 10.5829 45.6349 10.5994C45.33 10.6392 45.045 10.7038 44.7798 10.7933C44.518 10.8795 44.3059 11.0104 44.1435 11.1861C43.9844 11.3584 43.9048 11.5937 43.9048 11.892C43.9048 12.2997 44.0556 12.608 44.3572 12.8168C44.6622 13.0223 45.0483 13.125 45.5156 13.125ZM52.1515 9.40625V14H50.9782V6.36364H52.1117V7.55682H52.2111C52.3901 7.16903 52.6619 6.85748 53.0265 6.62216C53.391 6.38352 53.8617 6.2642 54.4384 6.2642C54.9554 6.2642 55.4078 6.37027 55.7956 6.58239C56.1834 6.79119 56.485 7.10938 56.7005 7.53693C56.9159 7.96117 57.0236 8.49811 57.0236 9.14773V14H55.8503V9.22727C55.8503 8.62737 55.6945 8.16004 55.383 7.82528C55.0714 7.48722 54.6439 7.31818 54.1003 7.31818C53.7258 7.31818 53.391 7.39938 53.0961 7.56179C52.8044 7.72419 52.574 7.96117 52.405 8.27273C52.236 8.58428 52.1515 8.96212 52.1515 9.40625ZM59.1676 14V6.36364H60.3011V7.55682H60.4006C60.5597 7.14915 60.8165 6.83262 61.1712 6.60724C61.5258 6.37855 61.9517 6.2642 62.4489 6.2642C62.9527 6.2642 63.3719 6.37855 63.7067 6.60724C64.0447 6.83262 64.3082 7.14915 64.4972 7.55682H64.5767C64.7723 7.16241 65.0656 6.84919 65.4567 6.61719C65.8478 6.38187 66.3168 6.2642 66.8636 6.2642C67.5464 6.2642 68.1049 6.47798 68.5391 6.90554C68.9732 7.32978 69.1903 7.991 69.1903 8.8892V14H68.017V8.8892C68.017 8.32576 67.8629 7.92306 67.5547 7.68111C67.2464 7.43916 66.8835 7.31818 66.4659 7.31818C65.929 7.31818 65.513 7.48059 65.218 7.8054C64.9231 8.12689 64.7756 8.53456 64.7756 9.02841V14H63.5824V8.76989C63.5824 8.3357 63.4415 7.98603 63.1598 7.72088C62.8781 7.45241 62.5152 7.31818 62.071 7.31818C61.7661 7.31818 61.4811 7.39938 61.2159 7.56179C60.9541 7.72419 60.742 7.94957 60.5795 8.23793C60.4205 8.52296 60.3409 8.85275 60.3409 9.22727V14H59.1676ZM73.5827 14.179C73.0988 14.179 72.6597 14.0878 72.2653 13.9055C71.8709 13.7199 71.5576 13.4531 71.3256 13.1051C71.0936 12.7538 70.9776 12.3295 70.9776 11.8324C70.9776 11.3949 71.0638 11.0402 71.2362 10.7685C71.4085 10.4934 71.6388 10.2779 71.9272 10.1222C72.2156 9.96638 72.5337 9.85038 72.8817 9.77415C73.2331 9.6946 73.5861 9.63163 73.9407 9.58523C74.4047 9.52557 74.7809 9.48082 75.0692 9.45099C75.3609 9.41785 75.573 9.36316 75.7056 9.28693C75.8415 9.2107 75.9094 9.07812 75.9094 8.8892V8.84943C75.9094 8.3589 75.7752 7.97775 75.5067 7.70597C75.2416 7.43419 74.8389 7.2983 74.2987 7.2983C73.7385 7.2983 73.2994 7.42093 72.9812 7.66619C72.663 7.91146 72.4393 8.1733 72.31 8.4517L71.1964 8.05398C71.3952 7.58996 71.6604 7.22869 71.9918 6.97017C72.3266 6.70833 72.6912 6.52604 73.0856 6.4233C73.4833 6.31723 73.8744 6.2642 74.2589 6.2642C74.5041 6.2642 74.7859 6.29403 75.104 6.35369C75.4255 6.41004 75.7354 6.5277 76.0337 6.70668C76.3353 6.88565 76.5856 7.15578 76.7844 7.51705C76.9833 7.87831 77.0827 8.36222 77.0827 8.96875V14H75.9094V12.9659H75.8498C75.7702 13.1316 75.6377 13.3089 75.4521 13.4979C75.2665 13.6868 75.0195 13.8475 74.7113 13.9801C74.4031 14.1127 74.0269 14.179 73.5827 14.179ZM73.7617 13.125C74.2257 13.125 74.6168 13.0339 74.935 12.8516C75.2565 12.6693 75.4985 12.4339 75.6609 12.1456C75.8266 11.8572 75.9094 11.554 75.9094 11.2358V10.1619C75.8597 10.2216 75.7504 10.2763 75.5813 10.326C75.4156 10.3724 75.2234 10.4138 75.0046 10.4503C74.7892 10.4834 74.5787 10.5133 74.3732 10.5398C74.171 10.563 74.007 10.5829 73.881 10.5994C73.5761 10.6392 73.2911 10.7038 73.0259 10.7933C72.7641 10.8795 72.552 11.0104 72.3896 11.1861C72.2305 11.3584 72.1509 11.5937 72.1509 11.892C72.1509 12.2997 72.3017 12.608 72.6033 12.8168C72.9083 13.0223 73.2944 13.125 73.7617 13.125ZM79.2243 14V6.36364H80.3578V7.51705H80.4373C80.5765 7.1392 80.8284 6.83262 81.193 6.5973C81.5576 6.36198 81.9686 6.24432 82.426 6.24432C82.5121 6.24432 82.6199 6.24597 82.7491 6.24929C82.8784 6.2526 82.9761 6.25758 83.0424 6.2642V7.45739C83.0027 7.44744 82.9115 7.43253 82.769 7.41264C82.6298 7.38944 82.4823 7.37784 82.3265 7.37784C81.9553 7.37784 81.6239 7.45573 81.3322 7.61151C81.0439 7.76397 80.8152 7.97609 80.6461 8.24787C80.4804 8.51634 80.3975 8.82292 80.3975 9.16761V14H79.2243Z" fill="#171717"/>
<defs>
<clipPath id="clip0_4696_14214">
<rect width="14" height="14" fill="white" transform="translate(0 1.5)"/>
</clipPath>
</defs>
</svg>
