<svg width="24" height="25" viewBox="0 0 24 25" fill="none" xmlns="http://www.w3.org/2000/svg">
<path d="M15.4163 10.3356L10.9163 7.33559C10.8033 7.26021 10.6719 7.21692 10.5363 7.21035C10.4006 7.20378 10.2657 7.23417 10.146 7.29827C10.0263 7.36237 9.9262 7.45778 9.85645 7.57432C9.7867 7.69086 9.74991 7.82415 9.75 7.95996V13.96C9.74991 14.0958 9.7867 14.2291 9.85645 14.3456C9.9262 14.4621 10.0263 14.5576 10.146 14.6217C10.2657 14.6858 10.4006 14.7161 10.5363 14.7096C10.6719 14.703 10.8033 14.6597 10.9163 14.5843L15.4163 11.5843C15.5191 11.5159 15.6035 11.4231 15.6618 11.3141C15.7202 11.2052 15.7507 11.0835 15.7507 10.96C15.7507 10.8364 15.7202 10.7147 15.6618 10.6058C15.6035 10.4969 15.5191 10.404 15.4163 10.3356ZM11.25 12.5584V9.36621L13.6481 10.96L11.25 12.5584ZM20.25 4.20996H3.75C3.35218 4.20996 2.97064 4.368 2.68934 4.6493C2.40804 4.93061 2.25 5.31214 2.25 5.70996V16.21C2.25 16.6078 2.40804 16.9893 2.68934 17.2706C2.97064 17.5519 3.35218 17.71 3.75 17.71H20.25C20.6478 17.71 21.0294 17.5519 21.3107 17.2706C21.592 16.9893 21.75 16.6078 21.75 16.21V5.70996C21.75 5.31214 21.592 4.93061 21.3107 4.6493C21.0294 4.368 20.6478 4.20996 20.25 4.20996ZM20.25 16.21H3.75V5.70996H20.25V16.21ZM21.75 19.96C21.75 20.1589 21.671 20.3496 21.5303 20.4903C21.3897 20.6309 21.1989 20.71 21 20.71H3C2.80109 20.71 2.61032 20.6309 2.46967 20.4903C2.32902 20.3496 2.25 20.1589 2.25 19.96C2.25 19.761 2.32902 19.5703 2.46967 19.4296C2.61032 19.289 2.80109 19.21 3 19.21H21C21.1989 19.21 21.3897 19.289 21.5303 19.4296C21.671 19.5703 21.75 19.761 21.75 19.96Z" fill="#17A2B8"/>
</svg>
