<svg width="24" height="25" viewBox="0 0 24 25" fill="none" xmlns="http://www.w3.org/2000/svg">
<path d="M23.6034 7.30371C23.4838 7.23961 23.3491 7.20915 23.2135 7.21559C23.078 7.22203 22.9467 7.26512 22.8337 7.34027L19.5 9.5584V7.20996C19.5 6.81214 19.342 6.43061 19.0607 6.1493C18.7794 5.868 18.3978 5.70996 18 5.70996H3C2.60218 5.70996 2.22064 5.868 1.93934 6.1493C1.65804 6.43061 1.5 6.81214 1.5 7.20996V17.71C1.5 18.1078 1.65804 18.4893 1.93934 18.7706C2.22064 19.0519 2.60218 19.21 3 19.21H18C18.3978 19.21 18.7794 19.0519 19.0607 18.7706C19.342 18.4893 19.5 18.1078 19.5 17.71V15.3662L22.8337 17.589C22.9576 17.6694 23.1024 17.7115 23.25 17.71C23.4489 17.71 23.6397 17.6309 23.7803 17.4903C23.921 17.3496 24 17.1589 24 16.96V7.95996C23.9991 7.82502 23.9617 7.69283 23.8919 7.57733C23.8221 7.46183 23.7225 7.3673 23.6034 7.30371ZM18 17.71H3V7.20996H18V17.71ZM22.5 15.5584L19.5 13.5587V11.3612L22.5 9.36621V15.5584Z" fill="#17A2B8"/>
</svg>
