<svg width="50" height="50" viewBox="0 0 50 50" fill="none" xmlns="http://www.w3.org/2000/svg">
<path d="M40.168 37.957C40.3132 38.1022 40.4283 38.2746 40.5069 38.4642C40.5854 38.6539 40.6259 38.8572 40.6259 39.0625C40.6259 39.2678 40.5854 39.4711 40.5069 39.6608C40.4283 39.8505 40.3132 40.0228 40.168 40.168C40.0228 40.3132 39.8505 40.4283 39.6608 40.5069C39.4711 40.5854 39.2678 40.6259 39.0625 40.6259C38.8572 40.6259 38.6539 40.5854 38.4642 40.5069C38.2746 40.4283 38.1022 40.3132 37.957 40.168L25 27.209L12.043 40.168C11.7498 40.4612 11.3521 40.6259 10.9375 40.6259C10.5229 40.6259 10.1252 40.4612 9.83205 40.168C9.53886 39.8748 9.37415 39.4771 9.37415 39.0625C9.37415 38.6479 9.53886 38.2502 9.83205 37.957L22.791 25L9.83205 12.043C9.53886 11.7498 9.37415 11.3521 9.37415 10.9375C9.37415 10.5229 9.53886 10.1252 9.83205 9.83205C10.1252 9.53886 10.5229 9.37415 10.9375 9.37415C11.3521 9.37415 11.7498 9.53886 12.043 9.83205L25 22.791L37.957 9.83205C38.2502 9.53886 38.6479 9.37415 39.0625 9.37415C39.4771 9.37415 39.8748 9.53886 40.168 9.83205C40.4612 10.1252 40.6259 10.5229 40.6259 10.9375C40.6259 11.3521 40.4612 11.7498 40.168 12.043L27.209 25L40.168 37.957Z" fill="white"/>
</svg>
