<svg width="208" height="257" viewBox="0 0 208 257" fill="none" xmlns="http://www.w3.org/2000/svg">
<g clip-path="url(#clip0_3719_5655)">
<g clip-path="url(#clip1_3719_5655)">
<g clip-path="url(#clip2_3719_5655)">
<mask id="mask0_3719_5655" style="mask-type:luminance" maskUnits="userSpaceOnUse" x="-63" y="0" width="271" height="257">
<path d="M207.697 58.0365L-8.89844 0L-62.0006 198.18L154.595 256.217L207.697 58.0365Z" fill="white"/>
</mask>
<g mask="url(#mask0_3719_5655)">
<g opacity="0.2">
<path d="M41.3432 147.898C40.0382 147.549 38.9982 146.901 38.3462 145.988C37.1803 144.331 37.5404 142.003 39.3422 139.612L58.8542 113.762C61.5162 110.231 66.8692 107.29 71.8192 106.639C74.6382 106.261 77.0052 106.684 78.4882 107.846L96.8102 122.087C98.0552 123.053 98.5582 124.427 98.2842 126.041C97.5912 129.809 92.6932 134.006 86.8582 135.79L49.0302 147.375C46.0662 148.294 43.3622 148.439 41.3432 147.898ZM76.1132 107.553C74.9312 107.236 73.4982 107.168 71.9052 107.4C67.1472 108.023 62.0122 110.839 59.4712 114.217L39.9592 140.067C38.3592 142.196 37.9997 144.129 38.9962 145.53C40.4272 147.574 44.2652 148.022 48.7762 146.648L86.5872 135.032C92.9122 133.089 96.9202 128.865 97.4832 125.879C97.7332 124.549 97.3372 123.467 96.3052 122.69L77.9832 108.449C77.4832 108.051 76.8512 107.75 76.1132 107.553Z" fill="#17A2B8"/>
<path d="M39.6551 151.242C38.4241 150.912 37.4204 150.327 36.7235 149.481C35.3789 147.803 35.5355 145.446 37.2354 142.844L55.8631 114.094C60.1771 107.447 71.6901 103.178 76.7571 106.328L98.5271 119.911C100.02 120.839 100.72 122.265 100.543 124.01C100.155 128.018 95.2101 132.782 89.0521 135.086L48.6611 150.228C45.2201 151.547 42.0191 151.875 39.6551 151.242ZM74.7791 106.325C69.5351 104.92 60.1591 108.892 56.5171 114.507L37.89 143.256C36.4054 145.547 36.1983 147.6 37.3314 148.985C39.0761 151.139 43.5301 151.357 48.4001 149.526L88.7921 134.384C95.5101 131.861 99.4711 127.123 99.7641 123.96C99.9181 122.498 99.3501 121.371 98.1081 120.59L76.3381 107.007C75.8911 106.702 75.3701 106.484 74.7791 106.325Z" fill="#17A2B8"/>
<path d="M38.1321 154.866C36.9747 154.556 36.0312 154.04 35.3392 153.274C33.8025 151.624 33.7999 149.172 35.3112 146.387L52.6281 114.65C56.6191 107.337 68.8071 101.931 74.7241 104.86L100.207 117.488C101.979 118.358 102.901 119.844 102.863 121.758C102.767 126.055 97.9881 131.286 91.4541 134.201L48.6791 153.317C44.7001 155.071 40.8891 155.605 38.1321 154.866ZM73.1991 105.137C67.3401 103.567 56.8261 108.632 53.3141 115.045L35.9971 146.782C34.6519 149.242 34.6351 151.372 35.9224 152.772C37.6838 154.667 42.1981 155.349 48.3631 152.626L91.1561 133.541C98.1691 130.412 102.034 125.147 102.114 121.795C102.14 120.22 101.363 118.984 99.8731 118.242L74.3901 105.614C74.0291 105.386 73.6171 105.249 73.1991 105.137Z" fill="#17A2B8"/>
<path d="M36.9082 158.836C35.8496 158.552 34.9488 158.073 34.2304 157.406C32.5016 155.783 32.2594 153.24 33.6001 150.305L49.1431 115.536C52.7201 107.506 65.5211 100.892 72.3401 103.51L101.832 114.866C103.939 115.668 105.113 117.195 105.214 119.278C105.461 123.773 100.759 129.603 94.0431 133.102L48.9761 156.534C44.4741 158.86 40.0351 159.673 36.9082 158.836ZM71.3371 104.006C64.7881 102.251 53.0981 108.556 49.8241 115.85L34.2811 150.619C33.1065 153.23 33.2735 155.463 34.753 156.835C36.859 158.822 41.9821 159.299 48.6111 155.829L93.6531 132.391C100.917 128.618 104.636 122.813 104.416 119.301C104.303 117.558 103.304 116.262 101.535 115.577L72.0441 104.222C71.8291 104.138 71.5831 104.072 71.3371 104.006Z" fill="#17A2B8"/>
<path d="M35.9776 163.094C35.0175 162.837 34.1527 162.42 33.4391 161.834C31.4871 160.256 31.0233 157.654 32.095 154.541L45.3532 116.682C48.4032 107.957 61.7342 99.957 69.5172 102.227L103.259 111.901C105.707 112.609 107.183 114.191 107.473 116.457C108.088 121.155 103.549 127.557 96.6622 131.695L49.6872 159.887C44.6542 162.915 39.5232 164.044 35.9776 163.094ZM69.1892 102.956C61.8532 100.991 48.9522 108.763 46.0962 116.96L32.8384 154.819C31.8524 157.613 32.2475 159.88 33.9371 161.256C36.9259 163.691 43.2452 162.853 49.3082 159.232L96.3082 131.047C103.819 126.549 107.248 120.35 106.754 116.58C106.508 114.643 105.239 113.275 103.104 112.676L69.3622 103.002C69.2882 102.983 69.2392 102.969 69.1892 102.956Z" fill="#17A2B8"/>
<path d="M35.4089 167.686C34.5472 167.455 33.7677 167.114 33.0771 166.639C30.877 165.101 30.1359 162.451 30.9631 159.166L41.3722 118.251C43.7662 108.823 57.5291 99.4097 66.3531 101.141L104.587 108.724C107.415 109.297 109.242 110.946 109.745 113.401C110.763 118.366 106.551 125.224 99.4792 130.051L50.8362 163.384C45.2772 167.193 39.4462 168.768 35.4089 167.686ZM105.011 109.602C104.839 109.556 104.642 109.503 104.438 109.475L66.2052 101.892C57.8862 100.243 44.3982 109.519 42.1172 118.424L31.7083 159.34C30.9601 162.329 31.5588 164.624 33.5209 165.967C37.0777 168.449 44.0302 167.123 50.4022 162.741L99.0452 129.407C106.642 124.194 109.814 117.479 108.995 113.543C108.577 111.559 107.202 110.189 105.011 109.602Z" fill="#17A2B8"/>
<path d="M35.1729 172.5C34.4589 172.308 33.796 172.025 33.202 171.682C30.7409 170.231 29.6731 167.52 30.2001 164.076L37.117 120.142C38.712 110.052 52.823 99.0453 62.702 100.19L105.682 105.222C108.958 105.599 111.168 107.298 111.921 110.004C113.369 115.137 109.45 122.574 102.385 128.062L52.506 166.995C46.506 171.661 39.752 173.727 35.1729 172.5ZM105.626 105.628L105.576 106.01L62.596 100.978C53.229 99.8922 39.382 110.706 37.8754 120.267L30.9584 164.2C30.4547 167.36 31.3554 169.711 33.5655 171.014C37.7592 173.483 45.339 171.586 51.984 166.381L101.882 127.479C108.69 122.16 112.517 115.066 111.144 110.244C110.473 107.823 108.537 106.382 105.545 106.028L105.626 105.628Z" fill="#17A2B8"/>
<path d="M35.467 177.613C34.9254 177.468 34.397 177.273 33.9064 177.036C31.1283 175.686 29.6961 172.956 29.8982 169.346L32.6284 122.524C33.246 111.75 47.5631 99.0852 58.5791 99.5325L106.493 101.511C110.249 101.674 112.929 103.393 113.986 106.339C115.871 111.615 112.325 119.628 105.367 125.803L54.7221 170.646C48.3221 176.312 40.7111 179.018 35.467 177.613ZM106.475 101.875L106.45 102.264L58.5351 100.285C48.0951 99.8602 34.0088 112.35 33.4131 122.55L30.6829 169.372C30.4794 172.691 31.7133 175.078 34.2338 176.307C39.1401 178.676 47.3491 176.104 54.1691 170.05L104.796 125.176C111.541 119.207 114.988 111.563 113.192 106.548C112.222 103.863 109.879 102.366 106.407 102.226L106.475 101.875Z" fill="#17A2B8"/>
<path d="M36.329 182.958C35.9844 182.866 35.6463 182.749 35.3328 182.638C32.1754 181.423 30.3542 178.668 30.1755 174.904L27.9932 125.342C27.7682 120.273 30.4694 114.328 35.4356 108.99C40.924 103.08 48.035 99.291 53.991 99.1208L106.967 97.4734C111.278 97.3369 114.434 99.0523 115.857 102.307C118.257 107.827 115.25 116.194 108.353 123.124L57.559 174.333C50.825 181.148 42.287 184.554 36.329 182.958ZM110.33 98.6117C109.32 98.3412 108.216 98.2297 106.991 98.2706L53.997 99.8868C48.251 100.061 41.328 103.741 35.9768 109.53C31.2308 114.637 28.5428 120.534 28.7418 125.305L30.9487 174.874C31.0948 178.366 32.7112 180.802 35.6044 181.92C41.299 184.105 50.083 180.765 57.018 173.793L107.812 122.584C114.357 115.981 117.38 107.75 115.141 102.616C114.26 100.587 112.595 99.2186 110.33 98.6117Z" fill="#17A2B8"/>
<path d="M37.7962 188.517C37.7224 188.497 37.6485 188.478 37.5747 188.458C34.0001 187.421 31.7027 184.67 31.0941 180.738L23.1733 128.663C22.4049 123.554 24.5549 117.303 29.0783 111.451C34.5106 104.471 42.0951 99.7025 48.8751 99.0152L107.065 93.1763C111.975 92.6733 115.687 94.3796 117.532 97.9317C120.456 103.565 117.99 112.473 111.391 120.063L61.1161 178.001C54.1331 186.041 44.5911 190.338 37.7962 188.517ZM107.107 93.6094L107.138 93.9867L48.9481 99.8255C42.3601 100.485 34.9943 105.128 29.6819 111.955C25.2917 117.606 23.1945 123.66 23.9351 128.577L31.8559 180.652C32.4254 184.337 34.462 186.78 37.7904 187.751C44.3311 189.635 53.6611 185.44 60.5301 177.528L110.792 119.639C117.195 112.287 119.618 103.736 116.832 98.3769C115.143 95.13 111.682 93.57 107.125 94.0359L107.107 93.6094Z" fill="#17A2B8"/>
<path d="M39.9762 194.268C36.3326 193.291 33.7856 190.685 32.7549 186.85L18.2433 132.588C16.8757 127.45 18.4005 120.873 22.4746 114.531C27.6715 106.461 35.6194 100.63 43.2382 99.376L106.7 88.7289C112.254 87.7922 116.616 89.4354 118.982 93.3115C122.514 99.1345 120.735 108.332 114.402 116.705L65.4522 181.614C58.6192 190.67 48.4672 195.963 40.7952 194.461C40.5242 194.388 40.2472 194.34 39.9762 194.268ZM112.817 89.6301C111.069 89.1617 109.055 89.0965 106.817 89.4721L43.3552 100.119C35.9536 101.352 28.2062 107.026 23.1292 114.944C19.1883 121.084 17.6736 127.427 18.9888 132.366L33.5005 186.628C34.5491 190.494 37.1111 192.947 40.9252 193.679C48.3262 195.108 58.1482 189.964 64.8172 181.128L113.767 116.218C119.792 108.211 121.635 99.1628 118.295 93.7074C117.056 91.6356 115.181 90.2633 112.817 89.6301Z" fill="#17A2B8"/>
<path d="M42.9441 200.124C39.3501 199.161 36.6518 196.725 35.2467 193.106L13.2162 137.066C11.1756 131.88 12.0687 125.002 15.6441 118.158C20.3741 109.171 28.7631 102.088 37.0422 100.141L105.8 84.007C111.938 82.5675 117.143 84.1201 120.09 88.2841C124.258 94.1982 123.183 103.822 117.334 112.851L70.5991 185.05C64.1531 195.026 53.6681 201.364 45.0831 200.513C44.3431 200.42 43.6341 200.309 42.9441 200.124ZM105.887 84.3729L105.974 84.7388L37.2336 100.904C29.1778 102.805 20.9646 109.725 16.3366 118.528C12.8696 125.164 11.9867 131.808 13.9503 136.789L35.9807 192.828C37.5824 196.895 40.7631 199.303 45.1581 199.742C53.4591 200.569 63.6441 194.363 69.9451 184.637L116.654 112.432C122.326 103.671 123.42 94.3693 119.44 88.7424C116.643 84.8034 111.875 83.3941 105.967 84.7634L105.887 84.3729Z" fill="#17A2B8"/>
<path d="M46.7952 206.033C43.2992 205.097 40.4932 202.868 38.7242 199.521L8.20956 142.157C5.44016 136.934 5.60956 129.704 8.66176 122.35C12.8149 112.365 21.3215 104.153 30.3368 101.429L104.267 79.0888C111.102 77.0188 117.112 78.4185 120.79 82.9098C125.637 88.848 125.365 98.9236 120.117 108.562L76.6772 188.26C70.7982 199.074 60.0772 206.587 50.6762 206.519C49.2972 206.545 48.0012 206.356 46.7952 206.033ZM104.49 79.8338L30.5594 102.174C21.774 104.828 13.4431 112.876 9.37396 122.646C6.39906 129.81 6.22166 136.774 8.88296 141.81L39.3732 199.168C41.6152 203.406 45.6312 205.748 50.6392 205.771C59.7812 205.822 70.2212 198.471 75.9782 187.915L119.418 108.217C124.513 98.8535 124.829 89.106 120.182 83.406C116.722 79.1839 111.007 77.8634 104.49 79.8338Z" fill="#17A2B8"/>
<path d="M51.5371 211.97C48.1401 211.059 45.2991 209.059 43.2281 206.053L3.25468 147.947C-0.373324 142.678 -1.00802 135.101 1.51618 127.157C4.96088 116.271 13.4309 106.916 23.0971 103.338L102.076 74.0732C109.633 71.2744 116.55 72.4424 121.045 77.2318C126.707 83.2827 127.354 93.4728 122.717 103.882L83.7191 191.228C78.4861 202.979 67.9961 211.503 57.6371 212.444C55.4521 212.623 53.4081 212.471 51.5371 211.97ZM113.955 73.8558C110.508 72.9323 106.522 73.2349 102.311 74.769L23.3575 104.04C13.9211 107.548 5.64008 116.69 2.24818 127.38C-0.192124 135.108 0.403377 142.438 3.87398 147.506L43.8541 205.588C46.9151 210.019 51.7691 212.19 57.5581 211.658C67.6431 210.75 77.8771 202.394 82.9891 190.9L121.987 103.554C126.488 93.4519 125.917 83.5719 120.455 77.7591C118.676 75.8326 116.466 74.5287 113.955 73.8558Z" fill="#17A2B8"/>
<path d="M57.284 217.806C54.059 216.942 51.207 215.176 48.908 212.53L-1.58678 154.399C-6.18498 149.107 -7.69098 141.138 -5.78018 132.53C-3.16858 120.814 5.12182 110.356 15.2978 105.86L99.028 68.907C107.286 65.2677 115.191 66.0943 120.689 71.1789C127.186 77.1637 128.841 87.7292 125.005 98.6953L91.745 193.773C87.423 206.164 77.104 215.92 66.121 218.012C63.007 218.601 59.992 218.531 57.284 217.806ZM99.22 69.2747L99.387 69.6358L15.6386 106.558C5.67452 110.953 -2.43358 121.222 -5.00378 132.685C-6.87998 141.066 -5.41308 148.787 -0.972284 153.878L49.491 212.027C53.525 216.667 59.386 218.527 66.01 217.244C76.745 215.191 86.794 205.653 91.051 193.508L124.311 98.4302C128.043 87.7527 126.482 77.5284 120.198 71.7325C114.931 66.8682 107.328 66.0961 99.369 69.6046L99.22 69.2747Z" fill="#17A2B8"/>
<path d="M64.1021 223.481C61.0741 222.67 58.3181 221.14 55.9001 218.937L-6.17422 161.578C-11.8854 156.305 -14.4352 147.898 -13.1671 138.537C-11.4841 126.151 -3.55872 114.594 7.05978 109.136L95.1961 63.7149C104.131 59.1236 113.076 59.5171 119.758 64.8132C127.177 70.7026 129.971 81.547 127.066 93.0787L101.01 195.834C97.6771 208.964 88.0281 219.664 76.3991 223.085C72.0441 224.37 67.8691 224.49 64.1021 223.481ZM95.3701 64.0514L95.5431 64.3879L7.40058 109.833C-2.98142 115.197 -10.7605 126.503 -12.4022 138.637C-13.629 147.745 -11.1742 155.915 -5.65162 161.006L56.4231 218.365C61.6291 223.161 68.6341 224.59 76.1701 222.365C87.5201 219.001 96.9791 208.514 100.24 195.654L126.296 92.8988C129.147 81.6689 126.453 71.1411 119.271 65.4473C112.852 60.3533 104.191 59.9832 95.5551 64.4437L95.3701 64.0514Z" fill="#17A2B8"/>
<path d="M71.9311 228.821C69.1981 228.089 66.6281 226.847 64.2951 225.115L-10.4868 169.491C-17.5032 164.263 -21.2509 155.404 -20.7044 145.191C-20.0287 132.034 -12.7592 119.773 -1.71451 113.217L90.3341 58.5116C99.7501 52.9156 110.083 52.7583 117.969 58.0874C126.571 63.8981 130.54 74.6884 128.624 86.9596L111.326 197.307C109.204 210.841 100.198 222.688 88.3531 227.502C82.7831 229.779 77.0761 230.2 71.9311 228.821ZM90.5511 58.8859L90.7491 59.229L-1.31781 113.903C-12.1129 120.316 -19.236 132.325 -19.9263 145.241C-20.4315 155.202 -16.828 163.812 -10.0068 168.882L64.7751 224.505C71.2921 229.336 79.7721 230.184 88.0931 226.799C99.6761 222.074 108.518 210.446 110.592 197.189L127.884 86.8667C129.77 74.9038 125.907 64.4056 117.55 58.7658C109.932 53.6143 99.9151 53.777 90.7561 59.2044L90.5511 58.8859Z" fill="#17A2B8"/>
<path d="M80.9772 233.855C78.6392 233.229 76.3852 232.282 74.2492 230.998L-14.291 178.172C-22.8425 173.06 -27.9425 163.733 -28.2701 152.548C-28.6807 138.915 -22.0211 125.78 -10.8917 118.218L84.4342 53.4512C94.3692 46.7028 105.894 45.837 115.24 51.1354C125.021 56.6821 130.428 67.6205 129.683 80.4429L122.898 198.035C122.097 212.055 114.148 224.687 102.185 231.024C95.2002 234.74 87.7722 235.676 80.9772 233.855ZM84.6632 53.7763L84.8932 54.1014L-10.4573 118.862C-21.3616 126.273 -27.9061 139.175 -27.5034 152.542C-27.1772 163.437 -22.228 172.54 -13.903 177.512L74.6622 230.344C82.7852 235.183 92.6762 235.198 101.838 230.351C113.582 224.14 121.36 211.752 122.145 197.992L128.93 80.3991C129.644 67.8851 124.406 57.2028 114.87 51.827C105.775 46.675 94.5722 47.5216 84.8862 54.126L84.6632 53.7763Z" fill="#17A2B8"/>
<path d="M91.142 238.371C89.345 237.889 87.594 237.236 85.858 236.428L-17.5793 187.597C-27.909 182.721 -34.596 172.916 -35.9322 160.669C-37.4686 146.708 -31.5372 132.745 -20.484 124.188L77.359 48.5495C87.704 40.5666 100.412 38.8316 111.375 43.9043C122.528 49.0544 129.541 60.1066 130.129 73.4706L135.731 197.915C136.367 212.082 129.52 225.721 117.837 233.477C109.455 239.06 99.981 240.739 91.142 238.371ZM106.169 42.8519C96.69 40.3123 86.435 42.5462 77.849 49.1817L-19.9937 124.82C-30.8399 133.196 -36.6562 146.926 -35.1457 160.59C-33.8421 172.564 -27.3059 182.144 -17.2339 186.899L86.204 235.729C96.208 240.44 107.57 239.398 117.427 232.84C128.885 225.234 135.611 211.853 134.982 197.951L129.356 73.5006C128.763 60.4516 121.919 49.6555 111.054 44.6091C109.459 43.8654 107.818 43.2939 106.169 42.8519Z" fill="#17A2B8"/>
<path d="M102.253 242.192C101.244 241.922 100.248 241.602 99.2342 241.251L-20.1377 197.826C-32.3294 193.399 -41.0875 182.854 -43.5883 169.637C-46.2735 155.237 -41.3497 140.898 -30.3463 131.246L69.0372 43.9483C79.6022 34.6536 93.4832 31.8885 106.203 36.5094C118.899 41.1237 127.753 52.195 129.891 66.0795L149.878 196.803C152.099 211.264 146.665 225.439 135.34 234.715C125.752 242.531 113.603 245.233 102.253 242.192ZM102.937 36.2931C91.3412 33.1861 79.0642 36.17 69.5412 44.5314L-29.8429 131.829C-40.6392 141.299 -45.4972 155.392 -42.8379 169.495C-40.3943 182.434 -31.8182 192.771 -19.8907 197.101L99.4812 240.527C111.408 244.856 124.609 242.462 134.812 234.125C145.93 225.031 151.26 211.144 149.079 196.932L129.091 66.208C127.017 52.5778 118.332 41.7626 105.932 37.2274C104.917 36.8766 103.921 36.5569 102.937 36.2931Z" fill="#17A2B8"/>
<path d="M114.511 245.292L-21.8266 208.76C-36.3023 204.881 -47.273 193.928 -51.15 179.446C-55.027 164.964 -51.0203 150.01 -40.4281 139.431L59.3221 39.7368C69.9451 29.1397 84.9231 25.1395 99.3981 29.0182C113.874 32.897 124.845 43.85 128.722 58.3324L165.285 194.552C169.162 209.034 165.156 223.988 154.563 234.567C143.971 245.146 128.987 249.171 114.511 245.292ZM59.6201 40.0013L59.8881 40.2838L-39.8868 139.972C-50.2966 150.362 -54.2309 165.045 -50.4111 179.249C-46.5913 193.452 -35.8272 204.192 -21.6223 207.998L114.716 244.53C128.921 248.336 143.612 244.417 154.022 234.026C164.432 223.636 168.366 208.953 164.546 194.749L127.983 58.5298C124.163 44.3263 113.406 33.5623 99.2011 29.756C84.9961 25.9498 70.3041 29.8685 59.8941 40.2592L59.6201 40.0013Z" fill="#17A2B8"/>
</g>
</g>
</g>
</g>
</g>
<defs>
<clipPath id="clip0_3719_5655">
<rect width="270" height="257" fill="white" transform="translate(-62)"/>
</clipPath>
<clipPath id="clip1_3719_5655">
<rect width="270" height="257" fill="white" transform="translate(-62)"/>
</clipPath>
<clipPath id="clip2_3719_5655">
<rect width="270" height="257" fill="white" transform="translate(-62)"/>
</clipPath>
</defs>
</svg>
