<svg width="640" height="640" viewBox="0 0 640 640" fill="none" xmlns="http://www.w3.org/2000/svg">
<path d="M456.179 167.501C456.179 167.501 404.646 111.04 323.059 113.741C241.472 116.441 171.878 171.149 114.342 213.952C56.8064 256.755 41.3824 323.238 74.8288 375.142C108.275 427.046 161.574 405.197 229.427 438.886C297.28 472.576 310.17 491.712 385.754 483.52C461.338 475.328 518.874 391.539 510.298 302.285C501.722 213.03 456.179 167.501 456.179 167.501Z" fill="#17A2B8"/>
<path opacity="0.7" d="M456.179 167.501C456.179 167.501 404.646 111.04 323.059 113.741C241.472 116.441 171.878 171.149 114.342 213.952C56.8064 256.755 41.3824 323.238 74.8288 375.142C108.275 427.046 161.574 405.197 229.427 438.886C297.28 472.576 310.17 491.712 385.754 483.52C461.338 475.328 518.874 391.539 510.298 302.285C501.722 213.03 456.179 167.501 456.179 167.501Z" fill="white"/>
<path d="M329.754 516.185C470.092 516.185 583.859 509.979 583.859 502.323C583.859 494.667 470.092 488.46 329.754 488.46C189.415 488.46 75.6479 494.667 75.6479 502.323C75.6479 509.979 189.415 516.185 329.754 516.185Z" fill="#17A2B8"/>
<path opacity="0.3" d="M329.754 516.185C470.092 516.185 583.859 509.979 583.859 502.323C583.859 494.667 470.092 488.46 329.754 488.46C189.415 488.46 75.6479 494.667 75.6479 502.323C75.6479 509.979 189.415 516.185 329.754 516.185Z" fill="white"/>
<path d="M479.923 293.376C479.846 293.376 480.806 288.602 480.909 288.256C482.009 284.851 486.157 278.912 490.163 278.925C490.829 278.944 491.484 279.103 492.085 279.392C492.685 279.68 493.218 280.092 493.649 280.601C494.08 281.109 494.4 281.702 494.586 282.342C494.773 282.982 494.823 283.654 494.733 284.314C494.438 287.143 491.904 289.536 489.613 290.931C486.925 292.608 479.923 293.376 479.923 293.376Z" fill="#17A2B8"/>
<path d="M472.153 261.235C475.929 262.592 477.811 269.581 477.683 273.165C477.683 273.472 476.966 278.285 476.902 278.285H476.825C477.12 279.386 477.44 280.576 477.76 281.869C478.323 284.275 478.937 286.989 479.411 290.01C479.96 293.25 480.319 296.519 480.486 299.802C480.69 303.475 480.566 307.159 480.115 310.81C480.108 310.852 480.108 310.895 480.115 310.938C480.614 309.875 482.086 306.931 482.227 306.714C484.198 303.718 489.753 299.034 493.632 300.16C494.267 300.356 494.855 300.683 495.356 301.121C495.857 301.558 496.261 302.096 496.541 302.699C496.821 303.303 496.971 303.958 496.981 304.623C496.992 305.288 496.862 305.948 496.601 306.56C495.577 309.197 492.505 310.848 489.933 311.578C487.027 312.41 480.55 311.424 480.038 311.347C479.492 315.049 478.697 318.71 477.657 322.304C477.06 324.403 476.412 326.502 475.712 328.602C476.16 327.693 476.582 326.886 476.646 326.771C478.617 323.776 484.173 319.091 488.051 320.205C488.688 320.399 489.277 320.725 489.779 321.162C490.281 321.599 490.685 322.138 490.966 322.741C491.246 323.345 491.395 324.002 491.405 324.667C491.414 325.333 491.284 325.993 491.021 326.605C489.997 329.254 486.925 330.893 484.352 331.635C481.779 332.378 476.198 331.635 474.739 331.443C474.47 332.237 474.201 333.043 473.92 333.837C472.64 337.677 471.257 341.517 470.08 345.28C469.657 346.56 469.286 347.942 468.915 349.274C469.325 348.467 469.67 347.789 469.734 347.699C471.693 344.704 477.261 340.019 481.126 341.133C481.762 341.329 482.349 341.656 482.851 342.094C483.352 342.531 483.756 343.068 484.037 343.671C484.318 344.274 484.47 344.929 484.482 345.594C484.494 346.26 484.367 346.92 484.109 347.533C483.085 350.17 480 351.821 477.427 352.55C474.854 353.28 469.824 352.64 468.083 352.397C467.737 353.779 467.405 355.149 467.136 356.493C466.969 357.414 466.752 358.298 466.637 359.232C466.521 360.166 466.381 361.075 466.253 361.971C466.073 363.725 465.869 365.542 465.741 367.258C465.638 368.448 465.561 369.587 465.485 370.726C465.881 369.446 466.765 366.81 466.829 366.592C468.25 363.778 470.364 361.373 472.973 359.603C473.115 359.282 473.291 358.978 473.497 358.694C473.86 358.136 474.336 357.66 474.895 357.297C475.454 356.935 476.082 356.693 476.74 356.59C477.398 356.486 478.07 356.522 478.714 356.695C479.357 356.868 479.956 357.174 480.473 357.594C483.52 360.154 482.752 367.424 481.357 370.726C481.28 370.918 480.141 372.928 479.411 374.182C479.961 373.517 480.473 372.902 481.049 372.16C482.163 370.803 483.315 369.472 484.544 368.038L486.425 366.003C487.04 365.299 487.782 364.646 488.461 363.968C490.061 362.419 491.763 360.922 493.517 359.45C492.313 358.477 488.128 354.931 486.925 352.525C485.721 350.118 484.864 346.752 486.118 344.218C486.393 343.609 486.792 343.065 487.291 342.621C487.79 342.177 488.377 341.843 489.013 341.641C489.65 341.44 490.322 341.374 490.985 341.45C491.649 341.526 492.289 341.74 492.864 342.08C496.256 344.205 496.601 351.437 495.718 354.88C495.718 355.098 494.745 357.517 494.221 358.835C495.283 357.965 496.333 357.082 497.433 356.275C500.608 353.818 503.897 351.437 507.161 349.043L510.144 346.829C509.721 346.483 504.653 342.387 503.296 339.699C502.105 337.306 501.235 333.926 502.489 331.379C502.765 330.772 503.166 330.229 503.665 329.786C504.164 329.344 504.75 329.011 505.386 328.809C506.022 328.608 506.694 328.542 507.357 328.616C508.02 328.691 508.66 328.904 509.235 329.242C512.627 331.379 512.973 338.611 512.089 342.042C512.025 342.31 510.707 345.792 510.323 346.662C512.512 345.024 514.675 343.386 516.723 341.683C519.527 339.393 522.178 336.922 524.659 334.285C524.467 334.131 519.155 329.882 517.773 327.117C516.569 324.723 515.712 321.344 516.966 318.81C517.239 318.201 517.638 317.657 518.135 317.213C518.633 316.77 519.219 316.436 519.854 316.234C520.49 316.032 521.161 315.967 521.823 316.042C522.486 316.118 523.125 316.332 523.699 316.672C527.104 318.797 527.449 326.029 526.566 329.472C526.502 329.69 525.504 332.352 524.992 333.606L525.197 333.722C527.624 331.003 529.805 328.073 531.712 324.966C532.774 323.277 533.709 321.6 534.579 319.936C533.504 319.245 528.653 316.096 527.129 313.69C525.606 311.283 524.454 308.186 525.414 305.523C525.621 304.897 525.956 304.32 526.398 303.83C526.841 303.341 527.38 302.948 527.982 302.678C528.584 302.409 529.236 302.267 529.896 302.264C530.556 302.26 531.209 302.393 531.814 302.656C535.437 304.397 536.563 311.552 536.064 315.098C536.064 315.29 535.552 317.222 535.181 318.63C535.552 317.875 535.961 317.107 536.307 316.378C537.587 313.638 538.675 311.053 539.571 308.698C540.083 307.418 540.505 306.138 540.851 305.075C540.147 303.795 537.408 298.867 537.139 296.115C536.87 293.363 537.305 289.984 539.392 288.064C539.868 287.597 540.437 287.236 541.061 287.003C541.686 286.771 542.353 286.673 543.018 286.715C543.683 286.757 544.332 286.939 544.923 287.249C545.513 287.558 546.032 287.989 546.445 288.512C548.851 291.725 546.56 298.586 544.486 301.517C544.307 301.76 541.043 305.357 541.005 305.357V305.28C540.646 306.368 540.262 307.533 539.801 308.787C538.957 311.104 537.958 313.728 536.704 316.467C535.367 319.47 533.858 322.393 532.185 325.222C530.322 328.393 528.18 331.391 525.785 334.182L525.696 334.285C526.694 333.658 529.536 332.032 529.779 331.93C533.081 330.522 540.275 329.715 542.912 332.749C543.334 333.264 543.644 333.862 543.821 334.504C543.998 335.146 544.038 335.818 543.94 336.476C543.841 337.135 543.605 337.766 543.247 338.327C542.889 338.889 542.417 339.37 541.862 339.738C539.545 341.376 536.064 341.018 533.517 340.237C530.637 339.328 525.837 334.938 525.389 334.592C522.893 337.377 520.211 339.99 517.363 342.413C515.699 343.846 513.997 345.229 512.243 346.586C513.126 346.086 513.92 345.638 514.035 345.587C517.325 344.179 524.518 343.373 527.155 346.406C527.579 346.921 527.891 347.518 528.069 348.161C528.247 348.803 528.288 349.476 528.189 350.135C528.09 350.794 527.853 351.425 527.494 351.987C527.135 352.549 526.662 353.028 526.105 353.395C523.801 355.034 520.32 354.675 517.773 353.894C515.225 353.114 510.963 349.427 509.862 348.442L507.853 349.99C504.627 352.461 501.453 354.906 498.317 357.402C497.229 358.285 496.192 359.194 495.142 360.09C495.936 359.642 496.589 359.27 496.704 359.232C499.993 357.811 507.187 357.018 509.824 360.038C510.25 360.552 510.563 361.149 510.743 361.792C510.922 362.435 510.963 363.108 510.864 363.768C510.765 364.428 510.528 365.059 510.168 365.621C509.807 366.183 509.333 366.662 508.774 367.027C506.457 368.666 502.989 368.307 500.441 367.539C497.894 366.771 494.041 363.418 492.761 362.253C491.725 363.213 490.675 364.16 489.715 365.146C489.062 365.824 488.435 366.426 487.795 367.155C487.155 367.885 486.515 368.538 485.952 369.229C484.838 370.586 483.673 371.994 482.611 373.35C481.869 374.285 481.177 375.194 480.486 376.102C481.549 375.219 483.699 373.542 483.891 373.402C486.925 371.507 493.913 369.626 496.985 372.211C497.482 372.658 497.878 373.204 498.15 373.813C498.421 374.423 498.562 375.083 498.562 375.75C498.562 376.418 498.421 377.078 498.15 377.688C497.878 378.297 497.482 378.843 496.985 379.29C494.95 381.248 491.469 381.466 488.832 381.056C485.913 380.595 480.64 377.216 479.987 376.73C478.835 378.24 477.734 379.725 476.71 381.146C473.165 386.048 470.4 390.259 468.505 393.242L468.313 393.536L465.856 392.346C465.984 392.154 466.112 391.974 466.24 391.77C468.224 388.8 471.117 384.602 474.803 379.725C475.968 378.189 477.235 376.563 478.553 374.899C477.181 373.407 475.899 371.834 474.713 370.189C471.885 371.29 466.009 371.341 465.254 371.341C465.139 373.235 465.037 375.078 464.96 376.819C464.704 382.874 464.729 387.917 464.793 391.437V391.859L462.093 390.579C462.093 387.085 462.233 382.336 462.592 376.742C462.707 374.81 462.873 372.749 463.065 370.65C462.31 370.458 456.205 368.883 453.901 367.04C451.814 365.376 449.613 362.662 449.689 359.834C449.682 359.166 449.816 358.505 450.082 357.893C450.349 357.282 450.741 356.733 451.234 356.283C451.727 355.834 452.31 355.493 452.944 355.285C453.577 355.076 454.248 355.003 454.912 355.072C458.893 355.584 462.221 362.01 462.886 365.53C462.886 365.734 463.091 368.09 463.168 369.498C463.257 368.627 463.321 367.795 463.411 366.938C463.59 365.184 463.821 363.43 464.064 361.549C464.205 360.653 464.358 359.744 464.499 358.822C464.64 357.901 464.883 356.954 465.075 356.006C465.561 353.83 466.15 351.642 466.803 349.453C465.267 349.286 459.827 348.646 457.485 347.315C455.142 345.984 452.582 343.629 452.237 340.826C452.128 340.167 452.159 339.492 452.329 338.846C452.499 338.2 452.804 337.598 453.223 337.078C453.643 336.558 454.168 336.133 454.763 335.83C455.358 335.527 456.011 335.354 456.678 335.322C460.685 335.219 464.96 341.069 466.137 344.448C466.214 344.666 466.79 347.187 467.072 348.582C467.481 347.302 467.865 345.946 468.352 344.64C469.632 340.8 471.078 337.037 472.486 333.235C472.921 332.07 473.331 330.906 473.766 329.754C473.216 329.754 466.726 329.075 464.115 327.578C461.798 326.298 459.213 323.891 458.854 321.088C458.749 320.43 458.784 319.757 458.955 319.112C459.127 318.468 459.432 317.867 459.851 317.348C460.27 316.829 460.793 316.404 461.386 316.1C461.979 315.796 462.63 315.621 463.296 315.584C467.315 315.482 471.59 321.331 472.768 324.71C472.857 324.966 473.677 328.55 473.843 329.536C474.765 326.976 475.673 324.416 476.403 321.856C477.486 318.4 478.341 314.877 478.963 311.309C478.707 311.309 471.923 310.669 469.261 309.133C466.931 307.853 464.345 305.446 464 302.643C463.895 301.985 463.929 301.312 464.101 300.667C464.273 300.023 464.578 299.422 464.997 298.903C465.415 298.385 465.938 297.959 466.532 297.656C467.125 297.352 467.776 297.176 468.441 297.139C472.448 297.05 476.723 302.886 477.901 306.266C477.977 306.496 478.605 309.261 478.873 310.579H479.104C479.632 306.974 479.838 303.328 479.718 299.686C479.718 297.677 479.526 295.77 479.334 293.901C478.054 293.901 472.243 293.901 469.683 292.8C467.123 291.699 464.397 289.677 463.731 286.925C463.554 286.28 463.514 285.605 463.615 284.944C463.717 284.283 463.956 283.651 464.319 283.089C464.681 282.528 465.159 282.049 465.719 281.684C466.279 281.319 466.911 281.077 467.571 280.973C471.552 280.435 476.441 285.773 477.99 289.011C478.067 289.19 478.733 291.072 479.181 292.442C479.091 291.61 479.001 290.739 478.886 289.946C478.489 286.938 477.926 284.198 477.414 281.792C477.107 280.422 476.813 279.232 476.518 278.042C475.238 277.402 470.221 274.765 468.493 272.627C466.765 270.49 465.254 267.43 465.933 264.678C466.079 264.022 466.363 263.405 466.765 262.867C467.168 262.329 467.68 261.882 468.268 261.557C468.856 261.231 469.506 261.034 470.176 260.979C470.846 260.923 471.52 261.011 472.153 261.235Z" fill="#17A2B8"/>
<path d="M544.704 323.098C541.568 322.97 535.296 319.757 535.296 319.744C535.296 319.731 538.662 316.262 538.905 316.07C541.709 313.83 548.441 311.168 551.782 313.382C552.327 313.768 552.785 314.263 553.126 314.836C553.467 315.41 553.684 316.048 553.762 316.711C553.841 317.373 553.779 318.045 553.581 318.682C553.384 319.319 553.054 319.908 552.614 320.41C550.822 322.56 547.379 323.2 544.704 323.098Z" fill="#17A2B8"/>
<g opacity="0.5">
<path d="M479.923 293.376C479.846 293.376 480.806 288.602 480.909 288.256C482.009 284.851 486.157 278.912 490.163 278.925C490.829 278.944 491.484 279.103 492.085 279.392C492.685 279.68 493.218 280.092 493.649 280.601C494.08 281.109 494.4 281.702 494.586 282.342C494.773 282.982 494.823 283.654 494.733 284.314C494.438 287.143 491.904 289.536 489.613 290.931C486.925 292.608 479.923 293.376 479.923 293.376Z" fill="white"/>
<path d="M472.153 261.235C475.929 262.592 477.811 269.581 477.683 273.165C477.683 273.472 476.966 278.285 476.902 278.285H476.825C477.12 279.386 477.44 280.576 477.76 281.869C478.323 284.275 478.937 286.989 479.411 290.01C479.96 293.25 480.319 296.519 480.486 299.802C480.69 303.475 480.566 307.159 480.115 310.81C480.108 310.852 480.108 310.895 480.115 310.938C480.614 309.875 482.086 306.931 482.227 306.714C484.198 303.718 489.753 299.034 493.632 300.16C494.267 300.356 494.855 300.683 495.356 301.121C495.857 301.558 496.261 302.096 496.541 302.699C496.821 303.303 496.971 303.958 496.981 304.623C496.992 305.288 496.862 305.948 496.601 306.56C495.577 309.197 492.505 310.848 489.933 311.578C487.027 312.41 480.55 311.424 480.038 311.347C479.492 315.049 478.697 318.71 477.657 322.304C477.06 324.403 476.412 326.502 475.712 328.602C476.16 327.693 476.582 326.886 476.646 326.771C478.617 323.776 484.173 319.091 488.051 320.205C488.688 320.399 489.277 320.725 489.779 321.162C490.281 321.599 490.685 322.138 490.966 322.741C491.246 323.345 491.395 324.002 491.405 324.667C491.414 325.333 491.284 325.993 491.021 326.605C489.997 329.254 486.925 330.893 484.352 331.635C481.779 332.378 476.198 331.635 474.739 331.443C474.47 332.237 474.201 333.043 473.92 333.837C472.64 337.677 471.257 341.517 470.08 345.28C469.657 346.56 469.286 347.942 468.915 349.274C469.325 348.467 469.67 347.789 469.734 347.699C471.693 344.704 477.261 340.019 481.126 341.133C481.762 341.329 482.349 341.656 482.851 342.094C483.352 342.531 483.756 343.068 484.037 343.671C484.318 344.274 484.47 344.929 484.482 345.594C484.494 346.26 484.367 346.92 484.109 347.533C483.085 350.17 480 351.821 477.427 352.55C474.854 353.28 469.824 352.64 468.083 352.397C467.737 353.779 467.405 355.149 467.136 356.493C466.969 357.414 466.752 358.298 466.637 359.232C466.521 360.166 466.381 361.075 466.253 361.971C466.073 363.725 465.869 365.542 465.741 367.258C465.638 368.448 465.561 369.587 465.485 370.726C465.881 369.446 466.765 366.81 466.829 366.592C468.25 363.778 470.364 361.373 472.973 359.603C473.115 359.282 473.291 358.978 473.497 358.694C473.86 358.136 474.336 357.66 474.895 357.297C475.454 356.935 476.082 356.693 476.74 356.59C477.398 356.486 478.07 356.522 478.714 356.695C479.357 356.868 479.956 357.174 480.473 357.594C483.52 360.154 482.752 367.424 481.357 370.726C481.28 370.918 480.141 372.928 479.411 374.182C479.961 373.517 480.473 372.902 481.049 372.16C482.163 370.803 483.315 369.472 484.544 368.038L486.425 366.003C487.04 365.299 487.782 364.646 488.461 363.968C490.061 362.419 491.763 360.922 493.517 359.45C492.313 358.477 488.128 354.931 486.925 352.525C485.721 350.118 484.864 346.752 486.118 344.218C486.393 343.609 486.792 343.065 487.291 342.621C487.79 342.177 488.377 341.843 489.013 341.641C489.65 341.44 490.322 341.374 490.985 341.45C491.649 341.526 492.289 341.74 492.864 342.08C496.256 344.205 496.601 351.437 495.718 354.88C495.718 355.098 494.745 357.517 494.221 358.835C495.283 357.965 496.333 357.082 497.433 356.275C500.608 353.818 503.897 351.437 507.161 349.043L510.144 346.829C509.721 346.483 504.653 342.387 503.296 339.699C502.105 337.306 501.235 333.926 502.489 331.379C502.765 330.772 503.166 330.229 503.665 329.786C504.164 329.344 504.75 329.011 505.386 328.809C506.022 328.608 506.694 328.542 507.357 328.616C508.02 328.691 508.66 328.904 509.235 329.242C512.627 331.379 512.973 338.611 512.089 342.042C512.025 342.31 510.707 345.792 510.323 346.662C512.512 345.024 514.675 343.386 516.723 341.683C519.527 339.393 522.178 336.922 524.659 334.285C524.467 334.131 519.155 329.882 517.773 327.117C516.569 324.723 515.712 321.344 516.966 318.81C517.239 318.201 517.638 317.657 518.135 317.213C518.633 316.77 519.219 316.436 519.854 316.234C520.49 316.032 521.161 315.967 521.823 316.042C522.486 316.118 523.125 316.332 523.699 316.672C527.104 318.797 527.449 326.029 526.566 329.472C526.502 329.69 525.504 332.352 524.992 333.606L525.197 333.722C527.624 331.003 529.805 328.073 531.712 324.966C532.774 323.277 533.709 321.6 534.579 319.936C533.504 319.245 528.653 316.096 527.129 313.69C525.606 311.283 524.454 308.186 525.414 305.523C525.621 304.897 525.956 304.32 526.398 303.83C526.841 303.341 527.38 302.948 527.982 302.678C528.584 302.409 529.236 302.267 529.896 302.264C530.556 302.26 531.209 302.393 531.814 302.656C535.437 304.397 536.563 311.552 536.064 315.098C536.064 315.29 535.552 317.222 535.181 318.63C535.552 317.875 535.961 317.107 536.307 316.378C537.587 313.638 538.675 311.053 539.571 308.698C540.083 307.418 540.505 306.138 540.851 305.075C540.147 303.795 537.408 298.867 537.139 296.115C536.87 293.363 537.305 289.984 539.392 288.064C539.868 287.597 540.437 287.236 541.061 287.003C541.686 286.771 542.353 286.673 543.018 286.715C543.683 286.757 544.332 286.939 544.923 287.249C545.513 287.558 546.032 287.989 546.445 288.512C548.851 291.725 546.56 298.586 544.486 301.517C544.307 301.76 541.043 305.357 541.005 305.357V305.28C540.646 306.368 540.262 307.533 539.801 308.787C538.957 311.104 537.958 313.728 536.704 316.467C535.367 319.47 533.858 322.393 532.185 325.222C530.322 328.393 528.18 331.391 525.785 334.182L525.696 334.285C526.694 333.658 529.536 332.032 529.779 331.93C533.081 330.522 540.275 329.715 542.912 332.749C543.334 333.264 543.644 333.862 543.821 334.504C543.998 335.146 544.038 335.818 543.94 336.476C543.841 337.135 543.605 337.766 543.247 338.327C542.889 338.889 542.417 339.37 541.862 339.738C539.545 341.376 536.064 341.018 533.517 340.237C530.637 339.328 525.837 334.938 525.389 334.592C522.893 337.377 520.211 339.99 517.363 342.413C515.699 343.846 513.997 345.229 512.243 346.586C513.126 346.086 513.92 345.638 514.035 345.587C517.325 344.179 524.518 343.373 527.155 346.406C527.579 346.921 527.891 347.518 528.069 348.161C528.247 348.803 528.288 349.476 528.189 350.135C528.09 350.794 527.853 351.425 527.494 351.987C527.135 352.549 526.662 353.028 526.105 353.395C523.801 355.034 520.32 354.675 517.773 353.894C515.225 353.114 510.963 349.427 509.862 348.442L507.853 349.99C504.627 352.461 501.453 354.906 498.317 357.402C497.229 358.285 496.192 359.194 495.142 360.09C495.936 359.642 496.589 359.27 496.704 359.232C499.993 357.811 507.187 357.018 509.824 360.038C510.25 360.552 510.563 361.149 510.743 361.792C510.922 362.435 510.963 363.108 510.864 363.768C510.765 364.428 510.528 365.059 510.168 365.621C509.807 366.183 509.333 366.662 508.774 367.027C506.457 368.666 502.989 368.307 500.441 367.539C497.894 366.771 494.041 363.418 492.761 362.253C491.725 363.213 490.675 364.16 489.715 365.146C489.062 365.824 488.435 366.426 487.795 367.155C487.155 367.885 486.515 368.538 485.952 369.229C484.838 370.586 483.673 371.994 482.611 373.35C481.869 374.285 481.177 375.194 480.486 376.102C481.549 375.219 483.699 373.542 483.891 373.402C486.925 371.507 493.913 369.626 496.985 372.211C497.482 372.658 497.878 373.204 498.15 373.813C498.421 374.423 498.562 375.083 498.562 375.75C498.562 376.418 498.421 377.078 498.15 377.688C497.878 378.297 497.482 378.843 496.985 379.29C494.95 381.248 491.469 381.466 488.832 381.056C485.913 380.595 480.64 377.216 479.987 376.73C478.835 378.24 477.734 379.725 476.71 381.146C473.165 386.048 470.4 390.259 468.505 393.242L468.313 393.536L465.856 392.346C465.984 392.154 466.112 391.974 466.24 391.77C468.224 388.8 471.117 384.602 474.803 379.725C475.968 378.189 477.235 376.563 478.553 374.899C477.181 373.407 475.899 371.834 474.713 370.189C471.885 371.29 466.009 371.341 465.254 371.341C465.139 373.235 465.037 375.078 464.96 376.819C464.704 382.874 464.729 387.917 464.793 391.437V391.859L462.093 390.579C462.093 387.085 462.233 382.336 462.592 376.742C462.707 374.81 462.873 372.749 463.065 370.65C462.31 370.458 456.205 368.883 453.901 367.04C451.814 365.376 449.613 362.662 449.689 359.834C449.682 359.166 449.816 358.505 450.082 357.893C450.349 357.282 450.741 356.733 451.234 356.283C451.727 355.834 452.31 355.493 452.944 355.285C453.577 355.076 454.248 355.003 454.912 355.072C458.893 355.584 462.221 362.01 462.886 365.53C462.886 365.734 463.091 368.09 463.168 369.498C463.257 368.627 463.321 367.795 463.411 366.938C463.59 365.184 463.821 363.43 464.064 361.549C464.205 360.653 464.358 359.744 464.499 358.822C464.64 357.901 464.883 356.954 465.075 356.006C465.561 353.83 466.15 351.642 466.803 349.453C465.267 349.286 459.827 348.646 457.485 347.315C455.142 345.984 452.582 343.629 452.237 340.826C452.128 340.167 452.159 339.492 452.329 338.846C452.499 338.2 452.804 337.598 453.223 337.078C453.643 336.558 454.168 336.133 454.763 335.83C455.358 335.527 456.011 335.354 456.678 335.322C460.685 335.219 464.96 341.069 466.137 344.448C466.214 344.666 466.79 347.187 467.072 348.582C467.481 347.302 467.865 345.946 468.352 344.64C469.632 340.8 471.078 337.037 472.486 333.235C472.921 332.07 473.331 330.906 473.766 329.754C473.216 329.754 466.726 329.075 464.115 327.578C461.798 326.298 459.213 323.891 458.854 321.088C458.749 320.43 458.784 319.757 458.955 319.112C459.127 318.468 459.432 317.867 459.851 317.348C460.27 316.829 460.793 316.404 461.386 316.1C461.979 315.796 462.63 315.621 463.296 315.584C467.315 315.482 471.59 321.331 472.768 324.71C472.857 324.966 473.677 328.55 473.843 329.536C474.765 326.976 475.673 324.416 476.403 321.856C477.486 318.4 478.341 314.877 478.963 311.309C478.707 311.309 471.923 310.669 469.261 309.133C466.931 307.853 464.345 305.446 464 302.643C463.895 301.985 463.929 301.312 464.101 300.667C464.273 300.023 464.578 299.422 464.997 298.903C465.415 298.385 465.938 297.959 466.532 297.656C467.125 297.352 467.776 297.176 468.441 297.139C472.448 297.05 476.723 302.886 477.901 306.266C477.977 306.496 478.605 309.261 478.873 310.579H479.104C479.632 306.974 479.838 303.328 479.718 299.686C479.718 297.677 479.526 295.77 479.334 293.901C478.054 293.901 472.243 293.901 469.683 292.8C467.123 291.699 464.397 289.677 463.731 286.925C463.554 286.28 463.514 285.605 463.615 284.944C463.717 284.283 463.956 283.651 464.319 283.089C464.681 282.528 465.159 282.049 465.719 281.684C466.279 281.319 466.911 281.077 467.571 280.973C471.552 280.435 476.441 285.773 477.99 289.011C478.067 289.19 478.733 291.072 479.181 292.442C479.091 291.61 479.001 290.739 478.886 289.946C478.489 286.938 477.926 284.198 477.414 281.792C477.107 280.422 476.813 279.232 476.518 278.042C475.238 277.402 470.221 274.765 468.493 272.627C466.765 270.49 465.254 267.43 465.933 264.678C466.079 264.022 466.363 263.405 466.765 262.867C467.168 262.329 467.68 261.882 468.268 261.557C468.856 261.231 469.506 261.034 470.176 260.979C470.846 260.923 471.52 261.011 472.153 261.235Z" fill="white"/>
<path d="M544.704 323.098C541.568 322.97 535.296 319.757 535.296 319.744C535.296 319.731 538.662 316.262 538.905 316.07C541.709 313.83 548.441 311.168 551.782 313.382C552.327 313.768 552.785 314.263 553.126 314.836C553.467 315.41 553.684 316.048 553.762 316.711C553.841 317.373 553.779 318.045 553.581 318.682C553.384 319.319 553.054 319.908 552.614 320.41C550.822 322.56 547.379 323.2 544.704 323.098Z" fill="white"/>
</g>
<path d="M508.083 401.638C508.083 401.638 489.049 355.75 478.4 357.747C467.75 359.744 496.64 430.886 496.64 430.886C496.64 430.886 463.155 367.718 440.32 367.718C417.485 367.718 448.691 437.542 477.606 460.813C477.606 460.813 431.949 411.61 405.312 422.246C378.675 432.883 458.585 482.752 458.585 482.752C458.585 482.752 412.16 468.122 417.485 479.424C422.809 490.726 437.273 492.723 437.273 492.723L384.793 495.386H567.449L526.349 491.392C526.349 491.392 568.973 470.118 557.555 461.478C546.137 452.838 521.024 471.45 521.024 471.45C521.024 471.45 564.403 423.578 556.032 405.619C547.661 387.661 510.361 438.208 510.361 438.208C510.361 438.208 540.813 373.709 534.681 362.406C528.55 351.104 508.083 401.638 508.083 401.638Z" fill="#17A2B8"/>
<path opacity="0.4" d="M508.083 401.638C508.083 401.638 489.049 355.75 478.4 357.747C467.75 359.744 496.64 430.886 496.64 430.886C496.64 430.886 463.155 367.718 440.32 367.718C417.485 367.718 448.691 437.542 477.606 460.813C477.606 460.813 431.949 411.61 405.312 422.246C378.675 432.883 458.585 482.752 458.585 482.752C458.585 482.752 412.16 468.122 417.485 479.424C422.809 490.726 437.273 492.723 437.273 492.723L384.793 495.386H567.449L526.349 491.392C526.349 491.392 568.973 470.118 557.555 461.478C546.137 452.838 521.024 471.45 521.024 471.45C521.024 471.45 564.403 423.578 556.032 405.619C547.661 387.661 510.361 438.208 510.361 438.208C510.361 438.208 540.813 373.709 534.681 362.406C528.55 351.104 508.083 401.638 508.083 401.638Z" fill="white"/>
<path d="M514.176 404.045C497.421 453.517 497.421 488.525 497.421 488.525C497.421 488.525 517.21 489.28 537.767 474.061" stroke="#263238" stroke-width="1.188" stroke-linecap="round" stroke-linejoin="round"/>
<path d="M505.805 430.695C502.349 415.902 497.766 401.395 492.096 387.302" stroke="#263238" stroke-width="1.188" stroke-linecap="round" stroke-linejoin="round"/>
<path d="M456.333 401.767L498.944 464.935C498.944 464.935 527.872 440.615 537.766 426.88" stroke="#263238" stroke-width="1.188" stroke-linecap="round" stroke-linejoin="round"/>
<path d="M498.189 480.167C498.189 480.167 453.286 458.855 435.021 446.72" stroke="#263238" stroke-width="1.188" stroke-linecap="round" stroke-linejoin="round"/>
<path d="M457.881 139.52H321.126C315.527 139.52 310.989 144.059 310.989 149.658V485.248C310.989 490.847 315.527 495.386 321.126 495.386H457.881C463.48 495.386 468.019 490.847 468.019 485.248V149.658C468.019 144.059 463.48 139.52 457.881 139.52Z" fill="white" stroke="#263238" stroke-width="1.188" stroke-linecap="round" stroke-linejoin="round"/>
<path d="M462.771 201.818C462.218 201.818 461.687 201.598 461.296 201.207C460.904 200.815 460.685 200.285 460.685 199.731V171.763C460.726 171.237 460.964 170.745 461.352 170.386C461.74 170.027 462.249 169.828 462.777 169.828C463.306 169.828 463.815 170.027 464.203 170.386C464.591 170.745 464.829 171.237 464.87 171.763V199.68C464.875 199.959 464.825 200.236 464.722 200.495C464.618 200.754 464.465 200.99 464.269 201.189C464.074 201.388 463.841 201.546 463.583 201.654C463.326 201.762 463.05 201.818 462.771 201.818Z" fill="#263238"/>
<path d="M462.771 227.725C462.218 227.725 461.687 227.505 461.296 227.114C460.904 226.722 460.685 226.192 460.685 225.638V210.01C460.726 209.483 460.964 208.991 461.352 208.632C461.74 208.273 462.249 208.074 462.777 208.074C463.306 208.074 463.815 208.273 464.203 208.632C464.591 208.991 464.829 209.483 464.87 210.01V225.638C464.867 226.193 464.644 226.724 464.251 227.115C463.858 227.505 463.326 227.725 462.771 227.725Z" fill="#263238"/>
<path d="M446.041 139.52H309.286C303.687 139.52 299.149 144.059 299.149 149.658V485.248C299.149 490.847 303.687 495.386 309.286 495.386H446.041C451.64 495.386 456.179 490.847 456.179 485.248V149.658C456.179 144.059 451.64 139.52 446.041 139.52Z" fill="#263238" stroke="#263238" stroke-width="1.188" stroke-linecap="round" stroke-linejoin="round"/>
<path d="M445.721 163.213H309.606V468.442H445.721V163.213Z" fill="#17A2B8"/>
<path d="M357.453 153.459H393.689" stroke="white" stroke-width="3.564" stroke-linecap="round" stroke-linejoin="round"/>
<path d="M372.787 479.245C372.787 481.741 371.225 483.763 369.293 483.763C367.36 483.763 365.811 481.741 365.811 479.245C365.811 476.749 367.373 474.714 369.293 474.714C371.213 474.714 372.787 476.736 372.787 479.245Z" fill="white"/>
<path d="M377.664 239.168C390.7 239.168 401.267 226.847 401.267 211.648C401.267 196.449 390.7 184.128 377.664 184.128C364.628 184.128 354.061 196.449 354.061 211.648C354.061 226.847 364.628 239.168 377.664 239.168Z" fill="white"/>
<path d="M377.664 211.302C382.612 211.302 386.624 206.62 386.624 200.845C386.624 195.069 382.612 190.387 377.664 190.387C372.715 190.387 368.704 195.069 368.704 200.845C368.704 206.62 372.715 211.302 377.664 211.302Z" fill="#263238" stroke="#263238" stroke-width="1.188" stroke-linecap="round" stroke-linejoin="round"/>
<path d="M377.664 214.08C368.704 214.08 361.369 220.954 361.369 229.44C361.377 230.23 361.449 231.018 361.587 231.795C363.574 234.115 366.04 235.977 368.816 237.254C371.591 238.53 374.609 239.191 377.664 239.191C380.718 239.191 383.737 238.53 386.512 237.254C389.287 235.977 391.753 234.115 393.741 231.795C393.868 231.016 393.936 230.229 393.945 229.44C393.945 220.954 386.649 214.08 377.664 214.08Z" fill="#263238" stroke="#263238" stroke-width="1.188" stroke-linecap="round" stroke-linejoin="round"/>
<path d="M406.362 331.52H348.966C347.447 331.46 346.014 330.8 344.982 329.684C343.95 328.567 343.403 327.087 343.462 325.568V290.138C343.462 269.722 358.822 253.107 377.664 253.107C396.506 253.107 411.853 269.747 411.853 290.138V325.543C411.885 326.296 411.769 327.048 411.511 327.756C411.252 328.465 410.857 329.115 410.347 329.67C409.837 330.225 409.222 330.675 408.538 330.992C407.855 331.309 407.115 331.489 406.362 331.52ZM354.458 319.616H400.858V290.176C400.858 276.327 390.451 265.05 377.664 265.05C364.877 265.05 354.458 276.327 354.458 290.176V319.616Z" fill="#263238"/>
<path d="M417.51 307.341H337.817V382.733H417.51V307.341Z" fill="white"/>
<path d="M389.273 359.245L383.36 345.024C384.667 344.035 385.725 342.754 386.448 341.282C387.17 339.81 387.537 338.19 387.52 336.551C387.52 330.88 383.283 326.311 378.048 326.311C372.813 326.311 368.589 330.893 368.589 336.551C368.569 338.189 368.933 339.809 369.654 341.281C370.374 342.753 371.43 344.035 372.736 345.024L366.835 359.245H389.273Z" fill="#263238" stroke="#263238" stroke-width="1.188" stroke-linecap="round" stroke-linejoin="round"/>
<path d="M353.382 450.483C353.505 450.573 353.653 450.622 353.805 450.624C353.913 450.624 354.02 450.597 354.116 450.545C354.212 450.494 354.294 450.42 354.355 450.33L445.721 326.054V323.699L353.28 449.51C353.223 449.581 353.18 449.662 353.154 449.749C353.128 449.836 353.12 449.928 353.129 450.018C353.139 450.108 353.166 450.196 353.209 450.276C353.253 450.356 353.311 450.426 353.382 450.483Z" fill="white"/>
<path d="M427.341 207.987C427.286 208.061 427.247 208.145 427.225 208.234C427.204 208.323 427.2 208.415 427.214 208.506C427.228 208.596 427.26 208.683 427.309 208.761C427.357 208.839 427.42 208.907 427.494 208.96C427.644 209.067 427.83 209.11 428.012 209.082C428.194 209.053 428.357 208.954 428.467 208.806L445.722 185.344V183.04L427.341 207.987Z" fill="white"/>
<path d="M309.606 370.509L422.4 217.127C422.508 216.977 422.553 216.791 422.524 216.608C422.496 216.426 422.396 216.262 422.246 216.154C422.097 216.045 421.91 216 421.728 216.029C421.546 216.058 421.382 216.158 421.273 216.307L309.657 368.154L309.606 370.509Z" fill="white"/>
<path d="M342.784 465.613C342.893 465.611 343 465.585 343.097 465.536C343.195 465.487 343.28 465.417 343.347 465.331L349.747 456.678C349.801 456.605 349.841 456.521 349.862 456.432C349.884 456.343 349.888 456.25 349.874 456.16C349.86 456.069 349.827 455.983 349.779 455.905C349.731 455.827 349.668 455.759 349.593 455.706C349.443 455.599 349.258 455.555 349.076 455.584C348.894 455.613 348.73 455.712 348.621 455.859L342.221 464.499C342.165 464.572 342.125 464.655 342.103 464.744C342.08 464.832 342.075 464.925 342.088 465.015C342.101 465.106 342.132 465.193 342.179 465.271C342.226 465.349 342.288 465.418 342.361 465.472C342.481 465.567 342.631 465.617 342.784 465.613Z" fill="white"/>
<path d="M445.721 350.938L370.713 452.966C370.637 453.07 370.591 453.192 370.581 453.32C370.571 453.448 370.596 453.576 370.655 453.691C370.713 453.805 370.802 453.901 370.912 453.967C371.022 454.034 371.148 454.068 371.276 454.067C371.386 454.069 371.495 454.045 371.593 453.996C371.691 453.947 371.776 453.874 371.84 453.785L445.721 353.28V350.938Z" fill="white"/>
<path d="M182.285 207.539C183.554 204.727 184.167 201.663 184.077 198.579C184.077 192.857 177.152 189.542 169.011 188.633C160.871 187.725 157.261 191.04 158.464 193.152C159.714 194.894 161.241 196.42 162.983 197.67C162.983 197.67 154.842 193.152 149.415 196.774C143.987 200.397 151.834 198.886 150.323 202.496C148.813 206.105 140.378 204.608 138.266 214.246C136.154 223.885 142.183 233.536 136.755 237.76C131.328 241.984 114.995 236.249 110.234 246.797C105.472 257.344 112.231 262.029 100.787 268.659C89.3441 275.289 80.9985 281.766 84.3137 298.035C87.6289 314.304 98.4833 320 119.885 314.253C141.287 308.505 139.776 295.565 146.765 282.253C153.754 268.941 164.557 271.705 167.872 264.166C171.187 256.627 166.963 247.59 167.271 240.653C167.578 233.715 174.503 232.217 177.216 224.013C179.93 215.808 182.285 207.539 182.285 207.539Z" fill="#263238" stroke="#263238" stroke-width="1.188" stroke-linecap="round" stroke-linejoin="round"/>
<path d="M86.8098 297.728C86.2485 298.861 85.9634 300.111 85.9778 301.376" stroke="white" stroke-width="0.594" stroke-linecap="round" stroke-linejoin="round"/>
<path d="M170.714 201.561C170.714 201.561 166.95 197.209 174.195 199.232C183.322 201.792 172.608 212.352 168.486 214.477C160.218 218.713 149.286 217.357 142.886 225.062C137.075 232.025 144.922 239.283 141.44 244.8C137.958 250.317 124.019 247.117 119.386 253.76C114.752 260.403 127.795 274.662 114.445 282.496C104.794 288.166 94.2207 290.342 89.1135 294.835" stroke="white" stroke-width="0.594" stroke-linecap="round" stroke-linejoin="round"/>
<path d="M149.069 227.315C148.278 229.166 148.038 231.206 148.378 233.19C149.53 238.118 156.211 247.411 150.118 252.634C144.026 257.856 133.568 257.562 131.84 263.68C130.112 269.798 133.581 286.605 127.782 294.4C121.984 302.195 110.656 301.658 104.563 306.88C98.4704 312.102 99.3408 315.008 99.3408 315.008" stroke="white" stroke-width="0.594" stroke-linecap="round" stroke-linejoin="round"/>
<path d="M152.141 221.581C151.613 222.327 151.126 223.1 150.682 223.898" stroke="white" stroke-width="0.594" stroke-linecap="round" stroke-linejoin="round"/>
<path d="M186.189 297.267L187.661 308.787C187.661 308.787 195.341 316.467 200.986 321.216C206.631 325.965 221.095 336.013 221.095 336.013L213.76 338.099C213.76 338.099 189.786 323.891 185.05 322.739C180.314 321.587 176.768 314.752 175.296 312.678C173.824 310.605 182.336 295.194 186.189 297.267Z" fill="white" stroke="#263238" stroke-width="1.188" stroke-linecap="round" stroke-linejoin="round"/>
<path d="M200.832 484.698C200.832 484.698 208.077 490.816 211.072 492.864C214.067 494.912 217.562 495.834 217.011 496.947C216.461 498.061 214.963 499.174 207.91 498.227C200.858 497.28 198.822 494.886 197.517 494.515C196.211 494.144 193.062 495.078 190.656 493.594C188.25 492.109 192.064 483.264 192.064 483.264C193.121 484.5 194.581 485.321 196.186 485.584C197.791 485.846 199.436 485.532 200.832 484.698Z" fill="white" stroke="#263238" stroke-width="1.188" stroke-linecap="round" stroke-linejoin="round"/>
<path d="M216.986 496.947C216.991 496.888 216.991 496.828 216.986 496.768C212.914 497.142 208.808 496.756 204.877 495.629C200.32 494.554 198.976 492.134 194.637 492.134C192.934 492.15 191.241 491.873 189.632 491.315C189.585 491.742 189.644 492.174 189.802 492.574C189.961 492.973 190.214 493.327 190.541 493.606C192.947 495.091 196.109 494.157 197.402 494.528C198.694 494.899 200.742 497.318 207.795 498.24C214.848 499.162 216.422 498.061 216.986 496.947Z" fill="white" stroke="#263238" stroke-width="1.188" stroke-linecap="round" stroke-linejoin="round"/>
<path d="M162.906 237.312C162.906 237.312 164.301 246.707 162.509 250.496C160.717 254.285 155.11 254.694 150.323 255.501C145.536 256.307 134.541 260.493 135.731 271.283C136.922 282.073 150.72 305.446 150.72 312.038C150.72 318.63 146.522 322.022 141.926 334.809C137.331 347.597 137.933 371.379 139.366 386.765C140.417 396.919 142.423 406.952 145.357 416.729C145.357 416.729 133.837 435.315 128.717 443.302C123.597 451.289 105.677 486.067 105.677 486.067C105.677 486.067 105.677 487.257 108.467 488.064C110.43 488.541 112.461 488.676 114.47 488.461C114.47 488.461 148.826 447.104 155.226 440.115C161.626 433.126 167.616 420.915 168.41 415.334C169.203 409.753 168.218 375.577 168.218 375.577C168.218 375.577 175.398 392.755 181.018 401.549C184.426 406.93 187.553 412.484 190.387 418.189C189.6 425.421 189.6 432.717 190.387 439.949C191.782 449.933 190.605 482.009 192 484.608C193.395 487.206 198.81 486.118 200.013 484.928C201.216 483.737 201.779 475.968 201.779 475.968C201.779 475.968 204.173 451.648 205.619 440.205C207.066 428.761 209.459 419.021 208.627 416.422C207.795 413.824 202.829 386.048 199.027 372.902C195.226 359.757 183.667 335.142 181.107 328.755C178.547 322.368 177.101 316.557 177.51 314.56C177.92 312.563 185.702 300.582 187.75 297.382C188.918 295.213 189.562 292.801 189.631 290.338C189.7 287.875 189.192 285.431 188.147 283.2C185.754 278.003 188.147 271.001 187.75 266.816C187.354 262.63 181.158 260.813 177.958 259.225C174.758 257.638 173.555 254.029 173.555 251.033C173.751 248.51 174.36 246.037 175.36 243.712C175.36 243.712 165.504 237.312 162.906 237.312Z" fill="white" stroke="#263238" stroke-width="1.188" stroke-linecap="round" stroke-linejoin="round"/>
<path d="M187.123 280.051C186.071 277.376 185.194 274.635 184.499 271.846" stroke="#263238" stroke-width="1.188" stroke-linecap="round" stroke-linejoin="round"/>
<path d="M161.178 302.297C161.178 302.297 164.787 303.091 172.019 299.481" stroke="#263238" stroke-width="1.188" stroke-linecap="round" stroke-linejoin="round"/>
<path d="M199.066 372.774C195.443 360.179 184.704 337.177 181.491 329.587C166.131 335.347 151.77 330.432 145.024 327.257C144.051 329.382 143.002 331.84 141.926 334.809C137.331 347.609 137.933 371.379 139.366 386.765C140.417 396.919 142.423 406.951 145.357 416.729C145.357 416.729 133.837 435.315 128.717 443.302C123.597 451.289 105.677 486.067 105.677 486.067C105.677 486.067 105.677 487.257 108.467 488.064C110.43 488.541 112.461 488.676 114.47 488.461C114.47 488.461 148.826 447.104 155.226 440.115C161.626 433.126 167.616 420.915 168.41 415.334C169.203 409.753 168.218 375.577 168.218 375.577C168.218 375.577 175.398 392.755 181.018 401.549C184.426 406.93 187.553 412.484 190.387 418.189C189.6 425.421 189.6 432.717 190.387 439.949C191.782 449.933 190.605 482.009 192 484.608C193.395 487.206 198.81 486.118 200.013 484.928C201.216 483.737 201.779 475.968 201.779 475.968C201.779 475.968 204.173 451.648 205.619 440.205C207.066 428.761 209.459 419.021 208.627 416.422C207.795 413.824 202.867 385.958 199.066 372.774Z" fill="#263238" stroke="#263238" stroke-width="1.188" stroke-linecap="round" stroke-linejoin="round"/>
<path d="M277.325 360.089V357.478H279.514V336.973H277.325H255.718H253.53V357.478H255.718V360.089H253.517V364.851H261.952V363.251H271.091V364.851H279.526V360.089H277.325Z" fill="#17A2B8" stroke="#263238" stroke-width="1.188" stroke-linecap="round" stroke-linejoin="round"/>
<path d="M137.677 330.841H288.41C289.014 330.841 289.594 331.081 290.021 331.509C290.448 331.936 290.688 332.516 290.688 333.12V337.702C290.688 338.306 290.448 338.886 290.021 339.313C289.594 339.741 289.014 339.981 288.41 339.981H137.677V330.829V330.841Z" fill="#17A2B8" stroke="#263238" stroke-width="1.188" stroke-linecap="round" stroke-linejoin="round"/>
<path d="M245.863 329.472H236.685C235.985 329.472 235.418 330.039 235.418 330.739V340.096C235.418 340.796 235.985 341.363 236.685 341.363H245.863C246.562 341.363 247.13 340.796 247.13 340.096V330.739C247.13 330.039 246.562 329.472 245.863 329.472Z" fill="#17A2B8" stroke="#263238" stroke-width="1.188" stroke-linecap="round" stroke-linejoin="round"/>
<path d="M142.393 339.266C144.517 326.297 135.725 314.062 122.756 311.938C109.787 309.815 97.5517 318.606 95.4279 331.575C93.3042 344.544 102.096 356.78 115.065 358.903C128.034 361.027 140.269 352.235 142.393 339.266Z" fill="#17A2B8" stroke="#263238" stroke-width="1.188" stroke-linecap="round" stroke-linejoin="round"/>
<path d="M123.802 335.36C125.181 334.699 126.352 333.671 127.185 332.388C128.018 331.106 128.482 329.618 128.525 328.089C128.525 323.417 124.224 319.629 118.912 319.629C113.6 319.629 109.299 323.469 109.299 328.089C109.339 329.619 109.802 331.108 110.635 332.391C111.469 333.674 112.641 334.702 114.023 335.36C112.642 336.023 111.471 337.053 110.638 338.338C109.804 339.623 109.341 341.112 109.299 342.643C109.299 347.315 113.6 351.104 118.912 351.104C124.224 351.104 128.525 347.264 128.525 342.643C128.48 341.113 128.016 339.625 127.183 338.34C126.35 337.056 125.18 336.025 123.802 335.36Z" fill="white" stroke="#263238" stroke-width="1.188" stroke-linecap="round" stroke-linejoin="round"/>
<path d="M216.397 340.186C216.397 340.186 223.847 343.335 226.151 343.335C228.455 343.335 231.117 341.018 232.435 338.215C233.754 335.411 233.715 334.08 232.935 334.746L231.283 336.026C231.283 336.026 232.563 333.222 231.117 333.555C230.115 333.889 229.284 334.601 228.8 335.539C228.8 335.539 228.634 333.056 227.315 334.259C226.443 335.05 225.665 335.939 224.999 336.909C224.999 336.909 224.832 333.773 224 334.592C223.168 335.411 220.045 339.878 220.045 339.878L216.397 340.186Z" fill="white" stroke="#263238" stroke-width="1.188" stroke-linecap="round" stroke-linejoin="round"/>
<path d="M224.998 336.883C224.998 336.883 224.499 340.851 222.029 341.517L224.998 336.883Z" fill="white"/>
<path d="M224.998 336.883C224.998 336.883 224.499 340.851 222.029 341.517" stroke="#263238" stroke-width="1.188" stroke-linecap="round" stroke-linejoin="round"/>
<path d="M228.8 335.564C228.8 335.564 227.52 341.836 225.498 342.835L228.8 335.564Z" fill="white"/>
<path d="M228.8 335.564C228.8 335.564 227.52 341.836 225.498 342.835" stroke="#263238" stroke-width="1.188" stroke-linecap="round" stroke-linejoin="round"/>
<path d="M231.283 336.051C230.623 338.34 229.735 340.557 228.634 342.669L231.283 336.051Z" fill="white"/>
<path d="M231.283 336.051C230.623 338.34 229.735 340.557 228.634 342.669" stroke="#263238" stroke-width="1.188" stroke-linecap="round" stroke-linejoin="round"/>
<path d="M177.485 258.841C176.196 257.971 175.151 256.784 174.452 255.395C173.753 254.005 173.422 252.459 173.491 250.905C173.721 248.422 174.352 245.993 175.36 243.712C175.36 243.712 165.568 237.312 162.97 237.312C162.97 237.312 164.365 246.707 162.573 250.496C161.986 251.674 161.028 252.628 159.846 253.209C162.213 259.581 165.42 265.607 169.382 271.129C172.979 275.648 174.733 266.125 177.485 258.841Z" fill="white" stroke="#263238" stroke-width="1.188" stroke-linecap="round" stroke-linejoin="round"/>
<path d="M147.264 256.794C144.821 257.211 142.509 258.19 140.51 259.654C138.511 261.118 136.879 263.026 135.744 265.229C131.802 272.832 114.573 307.341 116.045 309.402C124.416 321.178 154.867 329.651 157.965 332.749C161.061 335.988 164.46 338.924 168.115 341.517C171.213 343.488 177.395 342.643 178.522 342.08C179.648 341.517 180.493 338.982 178.522 338.982C177.768 338.992 177.035 338.744 176.443 338.278C175.851 337.812 175.437 337.157 175.27 336.422C174.989 335.296 178.368 337.549 180.058 336.704C181.747 335.859 176.282 332.775 174.592 331.367C172.902 329.959 171.494 328 169.242 328C166.989 328 162.752 328 162.752 328C162.752 328 152.384 320.486 146.112 314.893C141.232 310.489 135.908 306.603 130.227 303.296L149.235 272.026" fill="white"/>
<path d="M147.264 256.794C144.821 257.211 142.509 258.19 140.51 259.654C138.511 261.118 136.879 263.026 135.744 265.229C131.802 272.832 114.573 307.341 116.045 309.402C124.416 321.178 154.867 329.651 157.965 332.749C161.061 335.988 164.46 338.924 168.115 341.517C171.213 343.488 177.395 342.643 178.522 342.08C179.648 341.517 180.493 338.982 178.522 338.982C177.768 338.992 177.035 338.744 176.443 338.278C175.851 337.812 175.437 337.157 175.27 336.422C174.989 335.296 178.368 337.549 180.058 336.704C181.747 335.859 176.282 332.775 174.592 331.367C172.902 329.959 171.494 328 169.242 328C166.989 328 162.752 328 162.752 328C162.752 328 152.384 320.486 146.112 314.893C141.232 310.489 135.908 306.603 130.227 303.296L149.235 272.026" stroke="#263238" stroke-width="1.188" stroke-linecap="round" stroke-linejoin="round"/>
<path d="M174.579 331.379C172.89 329.971 171.482 328.013 169.229 328.013C166.976 328.013 162.739 328.013 162.739 328.013C162.739 328.013 152.371 320.499 146.099 314.906C141.219 310.502 135.896 306.616 130.215 303.309L137.818 290.791C133.931 288.438 129.484 287.169 124.941 287.117C119.821 297.792 115.226 308.339 115.981 309.453C124.352 321.229 154.803 329.703 157.901 332.8C160.998 336.039 164.396 338.975 168.051 341.568C171.149 343.539 177.331 342.695 178.458 342.131C179.584 341.568 180.429 339.034 178.458 339.034C177.705 339.044 176.971 338.795 176.379 338.329C175.787 337.863 175.373 337.208 175.207 336.474C174.925 335.347 178.304 337.6 179.994 336.755C181.683 335.911 176.269 332.8 174.579 331.379Z" fill="white" stroke="#263238" stroke-width="1.188" stroke-linecap="round" stroke-linejoin="round"/>
<path d="M184.883 223.526C183.885 221.529 183.885 219.929 184.282 217.126C184.678 214.323 182.285 207.526 182.285 207.526C179.84 211.75 172.774 214.259 169.651 215.206C166.208 216.256 171.238 218.637 170.701 221.824C170.163 225.011 163.29 226.854 163.29 226.854C163.29 226.854 161.28 222.72 158.49 222.72C155.699 222.72 153.715 229.12 155.302 232.512C155.716 233.451 156.436 234.223 157.346 234.699C158.255 235.176 159.299 235.33 160.307 235.136C160.307 235.136 160.115 241.139 163.904 242.931C167.947 244.86 172.164 246.399 176.499 247.526C178.893 247.923 181.286 246.733 182.285 243.136C183.066 239.511 183.6 235.837 183.885 232.141C185.561 231.044 187.103 229.755 188.48 228.301C189.44 226.918 185.882 225.523 184.883 223.526Z" fill="white" stroke="#263238" stroke-width="1.188" stroke-linecap="round" stroke-linejoin="round"/>
<path d="M180.992 223.616C180.992 224.717 180.634 225.6 180.198 225.6C179.763 225.6 179.405 224.717 179.405 223.616C179.405 222.515 179.763 221.632 180.198 221.632C180.634 221.632 180.992 222.515 180.992 223.616Z" fill="#263238"/>
<path d="M177.549 220.314C177.549 220.314 179.674 217.92 181.261 218.458" stroke="#263238" stroke-width="1.188" stroke-linecap="round" stroke-linejoin="round"/>
<path d="M181.261 236.723C180.302 237.012 179.283 237.047 178.307 236.822C177.331 236.598 176.429 236.122 175.693 235.443" stroke="#263238" stroke-width="1.188" stroke-linecap="round" stroke-linejoin="round"/>
<path d="M105.766 486.067C105.766 486.067 100.992 495.641 101.171 496.947C101.35 498.252 110.822 505.113 115.251 507.52C119.68 509.926 127.693 510.31 127.13 506.969C126.566 503.629 118.963 501.401 117.107 496.384C116.119 493.788 115.264 491.144 114.547 488.46C111.453 488.506 108.409 487.677 105.766 486.067Z" fill="white" stroke="#263238" stroke-width="1.188" stroke-linecap="round" stroke-linejoin="round"/>
<path d="M127.155 507.021C123.747 507.478 120.28 506.986 117.133 505.6C110.259 502.618 103.603 496.525 101.773 494.797C101.448 495.487 101.24 496.227 101.158 496.986C101.35 498.266 110.81 505.152 115.238 507.558C119.667 509.965 127.616 510.298 127.155 507.021Z" fill="white" stroke="#263238" stroke-width="1.188" stroke-linecap="round" stroke-linejoin="round"/>
</svg>
