<svg width="673" height="690" viewBox="0 0 673 690" fill="none" xmlns="http://www.w3.org/2000/svg">
<path d="M543.568 625.319C543.568 625.512 450.102 625.678 334.844 625.678C219.586 625.678 126.08 625.512 126.08 625.319C126.08 625.126 219.532 624.96 334.844 624.96C450.156 624.96 543.568 625.14 543.568 625.319Z" fill="#263238"/>
<path d="M452.498 456.38C431.703 441.49 426.992 413.848 427.813 388.994C427.947 384.854 427.503 380.466 429.428 376.837C431.353 373.207 435.848 370.709 439.469 372.448C442.471 373.897 443.776 377.485 445.459 380.452C447.704 384.404 450.993 387.624 454.948 389.74C457.519 391.12 460.709 391.948 463.253 390.512C466.752 388.539 467.156 383.612 467.129 379.472C467.129 371.772 467.084 364.081 466.995 356.399C466.753 352.274 467.162 348.136 468.206 344.144C469.458 340.225 472.244 336.596 476.053 335.492C479.862 334.388 484.614 336.665 485.475 340.694C485.623 342.401 485.664 344.116 485.596 345.828C485.704 347.553 486.485 349.444 488.06 349.968C489.634 350.492 491.277 349.292 492.488 348.077C496.634 343.937 499.46 338.542 502.085 333.215C504.71 327.888 507.28 322.409 511.049 317.869C514.818 313.329 520.027 309.727 525.855 309.382C531.683 309.037 537.754 312.708 539.208 318.504C540.661 324.3 537.364 330.22 533.824 334.926C528.482 341.911 522.185 348.07 515.128 353.211C513.75 353.982 512.651 355.187 511.991 356.647C511.117 359.407 513.66 362.167 516.312 363.037C519.314 364.058 522.571 363.74 525.734 364.127C528.897 364.513 532.262 365.921 533.46 368.957C535.102 373.18 531.656 377.596 528.278 380.494C521.494 386.29 513.791 390.85 505.504 393.976C502.543 395.08 499.433 396.06 497.037 398.185C494.641 400.31 493.215 404.023 494.655 406.934C496.095 409.846 499.797 410.771 502.906 410.177C506.015 409.584 508.774 407.873 511.736 406.727C517.268 404.588 524.402 404.975 527.888 409.874C528.968 411.561 529.651 413.483 529.885 415.487C530.118 417.491 529.896 419.524 529.234 421.424C527.887 425.208 525.813 428.675 523.136 431.623C514.321 442.422 502.866 450.627 489.944 455.4C477.117 459.954 465.231 461.196 452.485 456.407" fill="#17A2B8"/>
<path d="M533.285 312.791C533.285 312.791 533.164 312.929 532.895 313.177L531.697 314.267C530.647 315.233 529.099 316.641 527.147 318.504C521.614 323.772 516.475 329.46 511.776 335.519C508.774 339.342 505.665 343.675 502.354 348.381C499.043 353.087 495.624 358.165 492.232 363.561C488.616 369.251 485.304 375.138 482.312 381.197C480.751 384.358 479.378 387.656 477.965 391.023L473.792 401.304C468.292 414.254 463.502 427.509 459.444 441.007C456.175 452.05 453.922 463.384 452.714 474.858C451.931 482.602 451.805 490.4 452.337 498.166C452.552 500.926 452.754 503.038 452.942 504.473C453.023 505.163 453.077 505.715 453.131 506.115V506.681C453.073 506.501 453.032 506.316 453.01 506.129C452.942 505.729 452.862 505.19 452.754 504.5C452.512 503.12 452.256 500.94 452.014 498.18C451.364 490.4 451.409 482.575 452.148 474.803C453.281 463.279 455.485 451.893 458.73 440.8C462.754 427.264 467.531 413.976 473.038 401L477.318 390.761C478.732 387.407 480.118 384.082 481.693 380.908C484.706 374.83 488.045 368.929 491.694 363.23C495.139 357.71 498.612 352.714 501.883 348.05C505.154 343.385 508.317 339.025 511.305 335.216C516.052 329.172 521.26 323.524 526.878 318.325C528.87 316.489 530.458 315.109 531.535 314.185L532.787 313.15C532.94 313.013 533.107 312.892 533.285 312.791Z" fill="#263238"/>
<path d="M481.868 380.88C481.678 380.312 481.547 379.724 481.478 379.128C481.262 377.982 481.02 376.368 480.737 374.27C480.159 370.13 479.566 364.458 478.934 358.179C478.301 351.9 477.588 346.215 476.996 342.116C476.686 340.074 476.417 338.431 476.228 337.286C476.081 336.7 476.004 336.097 476 335.492C476.231 336.045 476.398 336.624 476.498 337.217C476.794 338.349 477.13 339.977 477.507 342.033C478.274 346.173 479.028 351.804 479.661 358.096C480.293 364.389 480.832 369.909 481.249 374.201C481.451 376.133 481.626 377.775 481.76 379.086C481.865 379.678 481.901 380.28 481.868 380.88Z" fill="#263238"/>
<path d="M533.662 370.972C533.007 371.118 532.34 371.201 531.67 371.22C530.324 371.344 528.413 371.51 526.044 371.786C521.306 372.31 514.791 373.276 507.644 374.656C500.497 376.036 494.076 377.596 489.46 378.796C487.158 379.403 485.301 379.955 484.076 380.328C483.422 380.566 482.745 380.733 482.057 380.825C482.679 380.504 483.327 380.241 483.995 380.038C485.26 379.583 487.091 378.948 489.379 378.272C493.969 376.892 500.389 375.25 507.563 373.842C513.641 372.651 519.773 371.776 525.936 371.22C528.319 371.013 530.243 370.93 531.589 370.903C532.281 370.854 532.975 370.878 533.662 370.972Z" fill="#263238"/>
<path d="M459.39 439.834C459.246 439.634 459.129 439.416 459.04 439.185L458.151 437.267C457.384 435.597 456.348 433.127 455.11 430.105C452.606 424.033 449.416 415.532 446.024 406.093C442.632 396.653 439.509 388.153 437.14 382.012C435.983 379.031 435.027 376.588 434.314 374.767L433.56 372.793C433.456 372.566 433.383 372.324 433.345 372.076C433.488 372.275 433.606 372.493 433.695 372.724L434.583 374.643C435.337 376.312 436.387 378.783 437.625 381.805C440.129 387.877 443.319 396.377 446.71 405.817C450.102 415.256 453.225 423.757 455.594 429.898C456.752 432.878 457.707 435.321 458.407 437.143C458.717 437.929 458.973 438.523 459.174 439.116C459.279 439.344 459.351 439.585 459.39 439.834Z" fill="#263238"/>
<path d="M528.144 417.105C527.928 417.232 527.697 417.329 527.457 417.395L525.465 418.085L518.102 420.527C511.884 422.597 503.296 425.551 493.874 428.807C484.452 432.064 475.825 434.962 469.566 436.894C466.443 437.874 463.899 438.619 462.136 439.116L460.103 439.654C459.867 439.731 459.623 439.782 459.376 439.806C459.592 439.679 459.823 439.582 460.063 439.516L462.055 438.826L469.418 436.384C475.636 434.314 484.224 431.36 493.646 428.104C503.068 424.847 511.682 421.949 517.941 420.017C521.077 419.037 523.608 418.292 525.384 417.795L527.417 417.257C527.653 417.18 527.897 417.129 528.144 417.105Z" fill="#263238"/>
<path d="M500.093 82.3584L493.161 84.8976L490.186 75.6102C484.722 58.4844 467.304 49.3902 451.3 55.1724C435.297 60.9546 426.776 79.7364 432.241 96.8622L435.216 106.15L428.257 108.703C425.603 109.758 423.449 111.821 422.24 114.463C421.032 117.105 420.863 120.123 421.769 122.889L441.057 183.319C441.458 184.689 442.123 185.962 443.012 187.062C443.902 188.163 444.998 189.069 446.236 189.727C447.474 190.385 448.829 190.781 450.219 190.892C451.609 191.002 453.007 190.825 454.329 190.371L526.165 164.027C528.854 162.973 531.039 160.892 532.261 158.221C533.484 155.549 533.648 152.496 532.72 149.702L513.418 89.2722C513.008 87.9066 512.333 86.6399 511.434 85.5476C510.535 84.4552 509.431 83.5597 508.187 82.9145C506.944 82.2692 505.586 81.8874 504.195 81.7919C502.805 81.6963 501.409 81.889 500.093 82.3584ZM445.338 92.0184C443.864 87.5654 444.129 82.7006 446.076 78.4431C448.023 74.1857 451.501 70.8659 455.783 69.1794C457.897 68.4378 460.135 68.1404 462.363 68.305C464.592 68.4696 466.765 69.0927 468.754 70.1372C470.742 71.1817 472.505 72.6262 473.938 74.3845C475.37 76.1428 476.442 78.1789 477.09 80.3712L480.051 89.6586L448.299 101.306L445.338 92.0184ZM485.718 145.645L490.644 161.074C490.735 161.383 490.705 161.716 490.562 162.004C490.42 162.292 490.174 162.512 489.877 162.619L482.972 165.145C482.697 165.223 482.403 165.189 482.152 165.05C481.902 164.911 481.713 164.678 481.626 164.399L476.659 149.04C473.92 148.887 471.293 147.88 469.128 146.153C466.963 144.427 465.364 142.064 464.545 139.38C463.374 135.832 463.588 131.957 465.141 128.567C466.694 125.177 469.466 122.534 472.877 121.192C474.561 120.602 476.344 120.365 478.118 120.497C479.893 120.628 481.624 121.125 483.208 121.957C484.792 122.789 486.196 123.939 487.338 125.339C488.479 126.739 489.333 128.36 489.85 130.106C490.716 132.833 490.788 135.759 490.056 138.526C489.324 141.293 487.821 143.782 485.731 145.687L485.718 145.645Z" fill="#17A2B8"/>
<path d="M492.851 84.732C492.851 84.9252 479.997 89.8794 464.007 95.772C448.016 101.665 434.973 106.398 434.906 106.26C434.839 106.122 447.76 101.126 463.764 95.22C479.768 89.3136 492.784 84.5526 492.851 84.732Z" fill="#263238"/>
<path d="M508.115 87.2712C508.174 87.391 508.224 87.5156 508.263 87.6438C508.371 87.9198 508.492 88.2786 508.653 88.7202C509.003 89.7276 509.488 91.1214 510.094 92.8602L515.262 108.289C517.416 114.83 519.987 122.585 522.84 131.197C524.186 135.516 525.775 140.015 527.255 144.748C528.048 147.187 528.39 149.757 528.265 152.324C528.151 153.66 527.78 154.959 527.174 156.147C526.528 157.331 525.664 158.376 524.63 159.224C522.551 160.781 520.243 161.987 517.793 162.799L510.861 165.352L497.737 170.168L475.515 178.282L460.507 183.692L456.469 185.072L455.392 185.431C455.277 185.483 455.154 185.516 455.029 185.527C455.029 185.527 455.136 185.527 455.365 185.362L456.415 184.934L460.453 183.374L475.38 177.744L497.562 169.464L510.659 164.606L517.591 162.04C519.971 161.261 522.212 160.091 524.227 158.576C525.188 157.789 525.992 156.819 526.596 155.719C527.166 154.62 527.509 153.413 527.605 152.173C527.729 149.699 527.4 147.223 526.636 144.872C525.182 140.18 523.648 135.64 522.262 131.321C519.462 122.696 516.878 114.913 514.832 108.371C512.786 101.83 511.063 96.5724 509.878 92.874C509.313 91.0662 508.882 89.6586 508.532 88.6374L508.209 87.5334C508.169 87.4498 508.137 87.3619 508.115 87.2712Z" fill="#263238"/>
<path d="M470.212 68.2409C470.212 68.2409 469.498 67.8821 468.179 67.3301C466.299 66.5894 464.31 66.1789 462.297 66.1157C459.313 66.0108 456.343 66.5858 453.602 67.7993C450.268 69.3104 447.418 71.7545 445.378 74.8511C443.324 77.9389 442.222 81.5879 442.215 85.3253C442.243 88.3885 442.696 91.432 443.561 94.3643C444.261 96.8759 444.988 98.8769 445.472 100.271C445.758 100.979 445.992 101.707 446.172 102.451C445.79 101.789 445.47 101.091 445.216 100.367C444.665 98.9873 443.87 97.0277 443.09 94.5023C442.131 91.5393 441.61 88.4462 441.542 85.3253C441.506 81.4467 442.634 77.6505 444.772 74.4509C446.884 71.2412 449.85 68.7215 453.319 67.1921C456.146 65.9719 459.208 65.4337 462.27 65.6189C464.327 65.7264 466.348 66.2174 468.233 67.0679C468.737 67.3063 469.223 67.5831 469.687 67.8959C469.878 67.9821 470.055 68.0985 470.212 68.2409Z" fill="#263238"/>
<path d="M470.831 122.24C471.046 122.107 471.271 121.992 471.504 121.895C472.178 121.584 472.875 121.33 473.59 121.136C474.725 120.793 475.895 120.589 477.076 120.529C478.683 120.441 480.291 120.69 481.801 121.261C485.247 122.503 488.41 126.104 489.971 130.921C490.72 133.505 490.72 136.257 489.971 138.842C489.141 141.647 487.653 144.201 485.637 146.28L485.718 145.907C487.508 150.944 489.459 156.409 491.478 162.109L491.6 162.454L491.263 162.578L488.181 163.627L481.451 165.931L481.114 166.042L481.007 165.697C479.163 159.983 477.144 154.657 475.623 149.426L475.919 149.661C473.287 149.437 470.778 148.424 468.704 146.749C466.827 145.267 465.289 143.383 464.195 141.229C463.208 139.319 462.717 137.18 462.768 135.019C462.831 132.81 463.368 130.643 464.344 128.672C465.319 126.702 466.706 124.977 468.408 123.62C469.108 123.037 469.894 122.572 470.737 122.24C469.976 122.703 469.24 123.205 468.529 123.745C466.66 125.366 465.228 127.452 464.37 129.803C463.634 131.576 463.289 133.494 463.361 135.419C463.433 137.344 463.92 139.23 464.787 140.939C465.863 143.012 467.364 144.82 469.189 146.239C471.167 147.831 473.56 148.791 476.067 148.999H476.296L476.363 149.206C477.844 154.339 479.876 159.707 481.747 165.448L481.303 165.227L488.033 162.923L491.102 161.86L490.886 162.329C488.881 156.63 486.942 151.151 485.166 146.114V145.907L485.327 145.742C487.284 143.749 488.743 141.301 489.581 138.607C490.295 136.135 490.295 133.503 489.581 131.031C488.113 126.394 485.085 122.875 481.801 121.633C480.347 121.058 478.795 120.791 477.238 120.847C476.075 120.874 474.919 121.036 473.792 121.33C471.786 121.84 470.844 122.309 470.831 122.24Z" fill="#263238"/>
<path d="M429.226 520.702L294.774 520.067C287.009 520.023 279.579 516.822 274.116 511.165C268.652 505.509 265.601 497.861 265.633 489.9L267.06 144.334C267.076 140.39 267.85 136.488 269.337 132.851C270.825 129.214 272.997 125.913 275.73 123.137C278.462 120.361 281.702 118.164 285.263 116.673C288.824 115.181 292.637 114.424 296.483 114.444L430.922 115.078C438.686 115.118 446.118 118.317 451.584 123.97C457.051 129.624 460.105 137.271 460.076 145.231L458.649 490.783C458.634 494.729 457.86 498.632 456.373 502.271C454.885 505.909 452.714 509.212 449.981 511.99C447.249 514.769 444.01 516.968 440.449 518.462C436.887 519.957 433.074 520.718 429.226 520.702Z" fill="#455A64"/>
<path d="M430.72 126.96H404.661C403.811 126.976 402.972 127.164 402.193 127.513C401.413 127.861 400.708 128.364 400.118 128.992C399.528 129.62 399.065 130.361 398.754 131.172C398.444 131.984 398.292 132.85 398.308 133.722V138.566C398.324 139.437 398.172 140.303 397.862 141.114C397.551 141.924 397.087 142.664 396.497 143.291C395.907 143.918 395.202 144.419 394.422 144.767C393.643 145.114 392.805 145.3 391.955 145.314L341.157 145.079C339.438 145.032 337.808 144.288 336.625 143.01C335.441 141.732 334.801 140.024 334.844 138.262V133.418C334.888 131.659 334.249 129.953 333.068 128.675C331.888 127.398 330.261 126.652 328.545 126.601H319.379L296.564 126.491C291.137 126.458 285.919 128.631 282.052 132.534C278.184 136.436 275.983 141.752 275.93 147.315L274.584 484.615C274.571 487.375 275.089 490.11 276.108 492.665C277.127 495.22 278.626 497.544 280.521 499.505C282.416 501.465 284.669 503.024 287.151 504.092C289.634 505.16 292.297 505.716 294.989 505.729L429.158 506.363C431.852 506.376 434.522 505.845 437.016 504.8C439.509 503.754 441.777 502.216 443.691 500.272C445.605 498.328 447.126 496.017 448.168 493.47C449.21 490.923 449.753 488.191 449.766 485.429L451.112 148.129C451.144 142.55 449.014 137.186 445.19 133.217C441.366 129.247 436.161 126.997 430.72 126.96Z" fill="white"/>
<path d="M412.67 461.362L312.905 460.92C311.868 460.92 311.034 459.761 311.047 458.353L311.155 431.595C311.155 430.215 312.003 429.028 313.039 429.028L412.805 429.498C413.379 429.599 413.893 429.925 414.239 430.405C414.585 430.886 414.737 431.485 414.662 432.078L414.568 458.809C414.568 460.23 413.706 461.376 412.67 461.362Z" fill="#17A2B8"/>
<path d="M342.482 445.027C342.059 445.027 341.653 444.96 341.262 444.824C340.878 444.683 340.579 444.504 340.368 444.287L340.604 443.824C340.804 444.019 341.073 444.184 341.409 444.32C341.75 444.45 342.108 444.515 342.482 444.515C342.84 444.515 343.13 444.472 343.352 444.385C343.58 444.293 343.745 444.171 343.848 444.019C343.957 443.867 344.011 443.699 344.011 443.515C344.011 443.293 343.946 443.114 343.816 442.978C343.691 442.843 343.526 442.737 343.32 442.661C343.114 442.58 342.886 442.509 342.637 442.45C342.387 442.39 342.138 442.328 341.889 442.263C341.639 442.192 341.409 442.1 341.197 441.986C340.991 441.872 340.823 441.723 340.693 441.539C340.569 441.349 340.506 441.103 340.506 440.799C340.506 440.517 340.579 440.26 340.726 440.027C340.878 439.788 341.108 439.598 341.417 439.457C341.726 439.311 342.122 439.238 342.604 439.238C342.924 439.238 343.241 439.284 343.555 439.376C343.87 439.463 344.141 439.585 344.369 439.742L344.165 440.222C343.921 440.059 343.661 439.94 343.385 439.864C343.114 439.788 342.851 439.75 342.596 439.75C342.254 439.75 341.973 439.796 341.75 439.888C341.528 439.98 341.363 440.105 341.254 440.262C341.151 440.414 341.1 440.588 341.1 440.783C341.1 441.005 341.162 441.184 341.287 441.319C341.417 441.455 341.585 441.561 341.791 441.637C342.002 441.712 342.233 441.78 342.482 441.84C342.732 441.899 342.978 441.965 343.222 442.035C343.471 442.105 343.699 442.198 343.905 442.311C344.117 442.42 344.285 442.566 344.409 442.751C344.539 442.935 344.604 443.176 344.604 443.474C344.604 443.751 344.529 444.008 344.377 444.247C344.225 444.48 343.992 444.67 343.677 444.816C343.368 444.957 342.97 445.027 342.482 445.027ZM345.915 444.979V439.287H346.517V444.979H345.915ZM348.369 444.979V439.287H348.865L352.793 444.23H352.532V439.287H353.126V444.979H352.63L348.711 440.035H348.971V444.979H348.369ZM357.48 445.027C357.046 445.027 356.645 444.957 356.277 444.816C355.913 444.67 355.596 444.466 355.325 444.206C355.06 443.946 354.851 443.64 354.699 443.287C354.553 442.935 354.48 442.55 354.48 442.133C354.48 441.715 354.553 441.33 354.699 440.978C354.851 440.626 355.062 440.319 355.333 440.059C355.604 439.799 355.922 439.598 356.285 439.457C356.653 439.311 357.055 439.238 357.488 439.238C357.922 439.238 358.318 439.306 358.675 439.441C359.039 439.577 359.348 439.783 359.602 440.059L359.228 440.441C358.99 440.203 358.727 440.032 358.44 439.929C358.152 439.826 357.843 439.774 357.513 439.774C357.16 439.774 356.835 439.834 356.537 439.953C356.244 440.067 355.987 440.233 355.764 440.449C355.548 440.661 355.377 440.91 355.252 441.197C355.133 441.479 355.073 441.791 355.073 442.133C355.073 442.469 355.133 442.78 355.252 443.068C355.377 443.355 355.548 443.607 355.764 443.824C355.987 444.035 356.244 444.201 356.537 444.32C356.835 444.434 357.158 444.491 357.504 444.491C357.83 444.491 358.136 444.442 358.423 444.344C358.716 444.247 358.984 444.081 359.228 443.848L359.57 444.304C359.299 444.542 358.982 444.724 358.618 444.848C358.255 444.968 357.876 445.027 357.48 445.027ZM358.992 444.23V442.133H359.57V444.304L358.992 444.23ZM365.694 445.027C364.968 445.027 364.396 444.819 363.978 444.401C363.561 443.984 363.352 443.366 363.352 442.547V439.287H363.954V442.523C363.954 443.195 364.106 443.691 364.409 444.011C364.713 444.331 365.141 444.491 365.694 444.491C366.252 444.491 366.683 444.331 366.987 444.011C367.29 443.691 367.442 443.195 367.442 442.523V439.287H368.028V442.547C368.028 443.366 367.819 443.984 367.401 444.401C366.99 444.819 366.42 445.027 365.694 445.027ZM369.841 444.979V439.287H371.971C372.454 439.287 372.868 439.365 373.215 439.522C373.562 439.674 373.828 439.896 374.012 440.189C374.202 440.476 374.297 440.826 374.297 441.238C374.297 441.639 374.202 441.986 374.012 442.279C373.828 442.566 373.562 442.788 373.215 442.946C372.868 443.103 372.454 443.182 371.971 443.182H370.174L370.443 442.897V444.979H369.841ZM370.443 442.946L370.174 442.653H371.955C372.524 442.653 372.955 442.531 373.248 442.287C373.546 442.038 373.695 441.688 373.695 441.238C373.695 440.783 373.546 440.43 373.248 440.181C372.955 439.932 372.524 439.807 371.955 439.807H370.174L370.443 439.522V442.946Z" fill="#E8E8E3"/>
<path d="M332.804 226.113L298.185 225.952L298.156 232.466L332.775 232.627L332.804 226.113Z" fill="#17A2B8"/>
<path opacity="0.1" d="M332.804 226.113L298.185 225.952L298.156 232.466L332.775 232.627L332.804 226.113Z" fill="black"/>
<path d="M434.287 266.106C434.559 266.077 434.826 266.012 435.081 265.912C435.453 265.763 435.777 265.509 436.015 265.179C436.254 264.85 436.396 264.458 436.427 264.049C436.427 261.855 436.427 258.654 436.427 254.541C436.427 252.485 436.427 250.18 436.427 247.641C436.427 247.02 436.427 246.372 436.427 245.723C436.515 245.094 436.381 244.453 436.05 243.915C435.865 243.657 435.624 243.447 435.346 243.301C435.068 243.155 434.761 243.077 434.448 243.073H432.349H412.899L300.319 242.646C300.031 242.641 299.746 242.707 299.488 242.839C299.231 242.971 299.008 243.165 298.839 243.405C298.514 243.944 298.389 244.586 298.489 245.212C298.489 246.592 298.489 247.972 298.489 249.352C298.489 252.112 298.489 254.872 298.489 257.632C298.489 259.012 298.489 260.392 298.489 261.772C298.433 262.415 298.433 263.062 298.489 263.704C298.56 263.98 298.691 264.235 298.873 264.45C299.055 264.666 299.283 264.835 299.539 264.946C299.804 265.055 300.088 265.106 300.373 265.098H307.224L337.119 265.264L387.729 265.581L421.85 265.857L431.124 265.968H433.533C434.085 265.968 434.354 265.968 434.354 265.968H433.533H431.124H421.85H387.729L337.119 265.802L307.224 265.678H300.373C299.996 265.693 299.62 265.628 299.27 265.485C298.915 265.33 298.6 265.093 298.348 264.795C298.096 264.496 297.914 264.142 297.816 263.76C297.738 263.397 297.711 263.026 297.735 262.656V261.634C297.735 260.254 297.735 258.874 297.735 257.494C297.735 254.734 297.735 251.974 297.735 249.214C297.735 247.834 297.735 246.454 297.735 245.074C297.709 244.707 297.709 244.338 297.735 243.97C297.786 243.564 297.939 243.179 298.179 242.853C298.411 242.519 298.719 242.249 299.075 242.064C299.431 241.879 299.826 241.785 300.225 241.79L412.805 242.425L432.254 242.563H434.354C434.724 242.563 435.088 242.655 435.416 242.83C435.744 243.006 436.026 243.259 436.238 243.57C436.618 244.17 436.771 244.891 436.669 245.599C436.669 246.247 436.669 246.896 436.669 247.517C436.669 250.029 436.669 252.333 436.669 254.417C436.669 258.557 436.575 261.731 436.548 263.939C436.515 264.364 436.365 264.77 436.114 265.109C435.864 265.449 435.524 265.709 435.135 265.857C434.88 266.019 434.586 266.105 434.287 266.106Z" fill="#E0E0E0"/>
<path d="M371.9 249.573H308.584V255.659H371.9V249.573Z" fill="#17A2B8"/>
<path opacity="0.2" d="M371.9 249.573H308.584V255.659H371.9V249.573Z" fill="white"/>
<path d="M332.568 285.534L297.949 285.373L297.92 291.887L332.539 292.048L332.568 285.534Z" fill="#17A2B8"/>
<path opacity="0.1" d="M332.568 285.534L297.949 285.373L297.92 291.887L332.539 292.048L332.568 285.534Z" fill="black"/>
<path d="M433.412 325.528C433.684 325.494 433.953 325.443 434.22 325.376C434.595 325.254 434.941 325.05 435.234 324.779C435.527 324.507 435.759 324.175 435.915 323.803C436.127 323.246 436.21 322.646 436.158 322.051C436.158 321.388 436.158 320.671 436.158 319.87C436.158 318.269 436.158 316.448 436.158 314.35V305.587C436.222 304.953 436.085 304.314 435.767 303.766C435.435 303.203 434.913 302.786 434.3 302.593C433.63 302.47 432.947 302.433 432.268 302.482H412.899L300.71 302.055C300.106 302.056 299.524 302.282 299.071 302.691C298.618 303.099 298.325 303.663 298.247 304.276C298.247 305.587 298.247 307.036 298.247 308.416C298.247 311.176 298.247 313.936 298.247 316.696C298.247 318.076 298.247 319.456 298.247 320.836C298.196 321.481 298.224 322.13 298.327 322.768C298.495 323.328 298.841 323.814 299.31 324.148C299.807 324.472 300.391 324.626 300.979 324.59H302.85H306.74L336.527 324.742L386.961 325.059L420.961 325.335L430.208 325.445H420.961H386.961L336.5 325.39L306.713 325.28H300.858C300.13 325.324 299.407 325.126 298.798 324.714C298.186 324.279 297.739 323.64 297.533 322.906C297.413 322.205 297.376 321.491 297.426 320.781C297.426 319.401 297.426 318.021 297.426 316.641C297.426 313.881 297.426 311.121 297.426 308.361C297.426 306.981 297.426 305.601 297.426 304.221C297.524 303.432 297.899 302.707 298.481 302.181C299.064 301.655 299.813 301.365 300.589 301.365L412.778 301.999L432.147 302.151C432.868 302.106 433.592 302.157 434.3 302.303C435 302.537 435.589 303.029 435.956 303.683C436.304 304.291 436.455 304.996 436.387 305.698C436.387 306.346 436.387 306.981 436.387 307.616C436.387 310.114 436.387 312.405 436.387 314.516C436.387 316.627 436.387 318.408 436.387 320.036C436.387 320.823 436.387 321.554 436.387 322.23C436.436 322.847 436.339 323.467 436.104 324.038C435.929 324.419 435.676 324.756 435.363 325.028C435.049 325.299 434.682 325.498 434.287 325.611C433.993 325.636 433.697 325.608 433.412 325.528Z" fill="#E0E0E0"/>
<path d="M332.307 347.536L297.688 347.375L297.659 353.889L332.278 354.05L332.307 347.536Z" fill="#17A2B8"/>
<path opacity="0.1" d="M332.307 347.536L297.688 347.375L297.659 353.889L332.278 354.05L332.307 347.536Z" fill="black"/>
<path d="M433.143 387.504C433.415 387.471 433.685 387.42 433.95 387.352C434.325 387.23 434.669 387.028 434.962 386.759C435.254 386.491 435.488 386.161 435.646 385.793C435.857 385.236 435.94 384.636 435.889 384.04C435.889 383.364 435.889 382.66 435.889 381.846C435.889 380.259 435.889 378.424 435.889 376.326V367.563C435.953 366.929 435.816 366.29 435.498 365.741C435.158 365.189 434.639 364.779 434.031 364.582C433.361 364.455 432.679 364.413 431.999 364.458H412.63L300.441 364.03C299.837 364.032 299.255 364.258 298.802 364.667C298.349 365.075 298.056 365.639 297.978 366.252C297.978 367.632 297.978 369.012 297.978 370.392C297.978 373.152 297.978 375.912 297.978 378.672C297.978 380.052 297.978 381.432 297.978 382.812C297.927 383.452 297.955 384.097 298.058 384.73C298.219 385.293 298.567 385.781 299.041 386.11C299.535 386.441 300.121 386.596 300.71 386.552H306.565L336.352 386.717L386.787 387.035L420.787 387.311L430.034 387.421H420.787H386.787L336.352 387.269L306.565 387.145H300.71C299.981 387.196 299.257 386.997 298.651 386.579C298.038 386.145 297.591 385.506 297.385 384.772C297.265 384.07 297.228 383.357 297.278 382.646C297.278 381.266 297.278 379.886 297.278 378.506C297.278 375.746 297.278 372.986 297.278 370.226C297.278 368.846 297.278 367.466 297.278 366.017C297.373 365.23 297.745 364.504 298.325 363.978C298.905 363.452 299.653 363.162 300.427 363.161L412.616 363.796L431.985 363.947C432.707 363.902 433.43 363.953 434.139 364.099C434.838 364.334 435.428 364.825 435.794 365.479C436.143 366.087 436.293 366.793 436.225 367.494C436.225 368.143 436.225 368.791 436.225 369.412C436.225 371.91 436.225 374.201 436.225 376.312C436.225 378.424 436.225 380.204 436.225 381.832C436.225 382.619 436.225 383.35 436.225 384.026C436.277 384.644 436.18 385.265 435.943 385.834C435.768 386.215 435.515 386.553 435.201 386.824C434.888 387.096 434.521 387.295 434.125 387.407C433.81 387.518 433.473 387.551 433.143 387.504Z" fill="#E0E0E0"/>
<path d="M370.548 310.716L307.233 310.422L307.206 316.508L370.521 316.802L370.548 310.716Z" fill="#17A2B8"/>
<path opacity="0.2" d="M370.548 310.716L307.233 310.422L307.206 316.508L370.521 316.802L370.548 310.716Z" fill="white"/>
<path d="M312.958 376.243C312.919 376.798 312.721 377.329 312.39 377.77C312.058 378.211 311.608 378.543 311.095 378.724C310.581 378.904 310.027 378.927 309.502 378.788C308.976 378.649 308.502 378.355 308.137 377.943C307.773 377.53 307.535 377.017 307.453 376.467C307.37 375.916 307.447 375.354 307.674 374.848C307.901 374.342 308.267 373.916 308.728 373.622C309.189 373.328 309.724 373.179 310.266 373.193C311.016 373.236 311.72 373.58 312.224 374.151C312.727 374.722 312.992 375.474 312.958 376.243Z" fill="#17A2B8"/>
<path d="M321.532 376.285C321.559 376.674 321.507 377.064 321.38 377.432C321.253 377.799 321.054 378.136 320.794 378.422C320.535 378.707 320.221 378.934 319.872 379.09C319.523 379.245 319.147 379.325 318.766 379.325C318.386 379.325 318.01 379.245 317.661 379.09C317.312 378.934 316.998 378.707 316.739 378.422C316.479 378.136 316.28 377.799 316.153 377.432C316.026 377.064 315.974 376.674 316 376.285C315.974 375.896 316.026 375.505 316.153 375.138C316.28 374.77 316.479 374.433 316.739 374.148C316.998 373.863 317.312 373.635 317.661 373.48C318.01 373.324 318.386 373.244 318.766 373.244C319.147 373.244 319.523 373.324 319.872 373.48C320.221 373.635 320.535 373.863 320.794 374.148C321.054 374.433 321.253 374.77 321.38 375.138C321.507 375.505 321.559 375.896 321.532 376.285Z" fill="#17A2B8"/>
<path d="M330.12 376.326C330.08 376.881 329.883 377.412 329.551 377.853C329.22 378.294 328.77 378.626 328.256 378.807C327.743 378.988 327.189 379.01 326.663 378.871C326.138 378.732 325.663 378.438 325.299 378.026C324.935 377.613 324.697 377.1 324.614 376.55C324.532 375.999 324.609 375.437 324.835 374.931C325.062 374.425 325.429 373.999 325.89 373.705C326.35 373.411 326.885 373.262 327.428 373.276C328.177 373.323 328.878 373.668 329.381 374.238C329.884 374.808 330.15 375.558 330.12 376.326Z" fill="#17A2B8"/>
<path d="M338.694 376.367C338.654 376.923 338.456 377.453 338.125 377.894C337.794 378.335 337.343 378.667 336.83 378.848C336.317 379.029 335.763 379.051 335.237 378.912C334.711 378.774 334.237 378.48 333.873 378.067C333.508 377.654 333.27 377.141 333.188 376.591C333.105 376.041 333.182 375.478 333.409 374.972C333.636 374.466 334.002 374.04 334.463 373.746C334.924 373.452 335.459 373.303 336.002 373.318C336.75 373.364 337.452 373.709 337.955 374.279C338.458 374.849 338.723 375.599 338.694 376.367Z" fill="#17A2B8"/>
<path d="M347.268 376.395C347.231 376.951 347.035 377.484 346.705 377.926C346.376 378.369 345.926 378.703 345.413 378.886C344.899 379.069 344.345 379.093 343.818 378.956C343.291 378.819 342.816 378.526 342.45 378.113C342.084 377.701 341.845 377.188 341.762 376.637C341.678 376.086 341.755 375.523 341.981 375.016C342.208 374.51 342.575 374.083 343.036 373.788C343.497 373.493 344.033 373.344 344.576 373.359C345.322 373.405 346.021 373.749 346.524 374.316C347.027 374.883 347.294 375.629 347.268 376.395Z" fill="#17A2B8"/>
<path d="M355.856 376.436C355.819 376.989 355.625 377.519 355.298 377.961C354.972 378.403 354.526 378.737 354.017 378.922C353.507 379.108 352.956 379.136 352.431 379.005C351.905 378.873 351.429 378.587 351.061 378.181C350.692 377.776 350.447 377.268 350.356 376.722C350.265 376.176 350.332 375.614 350.548 375.106C350.764 374.598 351.121 374.166 351.574 373.863C352.026 373.56 352.556 373.399 353.096 373.4C353.854 373.429 354.57 373.765 355.088 374.334C355.605 374.903 355.881 375.659 355.856 376.436Z" fill="#17A2B8"/>
<path d="M364.429 376.478C364.456 376.867 364.404 377.258 364.277 377.625C364.15 377.993 363.951 378.33 363.691 378.615C363.432 378.9 363.118 379.128 362.769 379.283C362.42 379.439 362.044 379.519 361.663 379.519C361.283 379.519 360.907 379.439 360.558 379.283C360.209 379.128 359.895 378.9 359.636 378.615C359.376 378.33 359.177 377.993 359.05 377.625C358.923 377.258 358.871 376.867 358.897 376.478C358.871 376.089 358.923 375.698 359.05 375.331C359.177 374.963 359.376 374.626 359.636 374.341C359.895 374.056 360.209 373.829 360.558 373.673C360.907 373.518 361.283 373.437 361.663 373.437C362.044 373.437 362.42 373.518 362.769 373.673C363.118 373.829 363.432 374.056 363.691 374.341C363.951 374.626 364.15 374.963 364.277 375.331C364.404 375.698 364.456 376.089 364.429 376.478Z" fill="#17A2B8"/>
<path d="M373.003 376.519C372.967 377.072 372.773 377.602 372.446 378.044C372.12 378.486 371.674 378.82 371.165 379.005C370.655 379.191 370.104 379.219 369.579 379.088C369.053 378.956 368.577 378.67 368.209 378.264C367.84 377.859 367.595 377.351 367.504 376.805C367.413 376.259 367.48 375.697 367.696 375.189C367.912 374.681 368.269 374.249 368.721 373.946C369.174 373.643 369.703 373.482 370.244 373.483C371.002 373.512 371.718 373.848 372.236 374.417C372.753 374.986 373.029 375.742 373.003 376.519Z" fill="#17A2B8"/>
<path d="M381.578 376.561C381.54 377.117 381.345 377.649 381.015 378.092C380.685 378.535 380.236 378.868 379.722 379.051C379.209 379.235 378.654 379.259 378.128 379.122C377.601 378.984 377.125 378.691 376.76 378.279C376.394 377.866 376.155 377.353 376.071 376.802C375.988 376.252 376.064 375.688 376.291 375.182C376.517 374.675 376.884 374.248 377.345 373.953C377.807 373.659 378.342 373.51 378.886 373.525C379.632 373.571 380.331 373.914 380.834 374.481C381.337 375.049 381.604 375.795 381.578 376.561Z" fill="#17A2B8"/>
<g opacity="0.2">
<path d="M312.958 376.243C312.919 376.798 312.721 377.329 312.39 377.77C312.058 378.211 311.608 378.543 311.095 378.724C310.581 378.904 310.027 378.927 309.502 378.788C308.976 378.649 308.502 378.355 308.137 377.943C307.773 377.53 307.535 377.017 307.453 376.467C307.37 375.916 307.447 375.354 307.674 374.848C307.901 374.342 308.267 373.916 308.728 373.622C309.189 373.328 309.724 373.179 310.266 373.193C311.016 373.236 311.72 373.58 312.224 374.151C312.727 374.722 312.992 375.474 312.958 376.243Z" fill="white"/>
<path d="M321.532 376.285C321.559 376.674 321.507 377.064 321.38 377.432C321.253 377.799 321.054 378.136 320.794 378.422C320.535 378.707 320.221 378.934 319.872 379.09C319.523 379.245 319.147 379.325 318.766 379.325C318.386 379.325 318.01 379.245 317.661 379.09C317.312 378.934 316.998 378.707 316.739 378.422C316.479 378.136 316.28 377.799 316.153 377.432C316.026 377.064 315.974 376.674 316 376.285C315.974 375.896 316.026 375.505 316.153 375.138C316.28 374.77 316.479 374.433 316.739 374.148C316.998 373.863 317.312 373.635 317.661 373.48C318.01 373.324 318.386 373.244 318.766 373.244C319.147 373.244 319.523 373.324 319.872 373.48C320.221 373.635 320.535 373.863 320.794 374.148C321.054 374.433 321.253 374.77 321.38 375.138C321.507 375.505 321.559 375.896 321.532 376.285Z" fill="white"/>
<path d="M330.12 376.326C330.08 376.881 329.883 377.412 329.551 377.853C329.22 378.294 328.77 378.625 328.256 378.806C327.743 378.987 327.189 379.01 326.663 378.871C326.138 378.732 325.663 378.438 325.299 378.025C324.935 377.613 324.697 377.1 324.614 376.549C324.532 375.999 324.609 375.436 324.835 374.931C325.062 374.425 325.429 373.999 325.89 373.704C326.35 373.41 326.885 373.261 327.428 373.276C328.177 373.322 328.878 373.668 329.381 374.238C329.884 374.808 330.15 375.558 330.12 376.326Z" fill="white"/>
<path d="M338.694 376.367C338.654 376.923 338.456 377.453 338.125 377.894C337.794 378.335 337.343 378.667 336.83 378.848C336.317 379.029 335.763 379.051 335.237 378.912C334.711 378.774 334.237 378.48 333.873 378.067C333.508 377.654 333.27 377.141 333.188 376.591C333.105 376.041 333.182 375.478 333.409 374.972C333.636 374.466 334.002 374.04 334.463 373.746C334.924 373.452 335.459 373.303 336.002 373.318C336.75 373.364 337.452 373.709 337.955 374.279C338.458 374.849 338.723 375.599 338.694 376.367Z" fill="white"/>
<path d="M347.268 376.395C347.231 376.951 347.035 377.483 346.705 377.926C346.376 378.369 345.926 378.703 345.413 378.886C344.899 379.069 344.345 379.093 343.818 378.956C343.291 378.818 342.816 378.525 342.45 378.113C342.084 377.701 341.845 377.187 341.762 376.637C341.678 376.086 341.755 375.522 341.981 375.016C342.208 374.509 342.575 374.082 343.036 373.788C343.497 373.493 344.033 373.344 344.576 373.359C345.322 373.405 346.021 373.749 346.524 374.316C347.027 374.883 347.294 375.629 347.268 376.395Z" fill="white"/>
<path d="M355.856 376.436C355.819 376.989 355.625 377.519 355.298 377.961C354.972 378.403 354.526 378.737 354.017 378.922C353.507 379.108 352.956 379.136 352.431 379.005C351.905 378.873 351.429 378.587 351.061 378.181C350.692 377.776 350.447 377.268 350.356 376.722C350.265 376.176 350.332 375.614 350.548 375.106C350.764 374.598 351.121 374.166 351.574 373.863C352.026 373.56 352.556 373.399 353.096 373.4C353.854 373.429 354.57 373.765 355.088 374.334C355.605 374.903 355.881 375.659 355.856 376.436Z" fill="white"/>
<path d="M364.429 376.478C364.456 376.867 364.404 377.257 364.277 377.625C364.15 377.993 363.951 378.329 363.691 378.615C363.432 378.9 363.118 379.127 362.769 379.283C362.42 379.438 362.044 379.518 361.663 379.518C361.283 379.518 360.907 379.438 360.558 379.283C360.209 379.127 359.895 378.9 359.636 378.615C359.376 378.329 359.177 377.993 359.05 377.625C358.923 377.257 358.871 376.867 358.897 376.478C358.871 376.089 358.923 375.698 359.05 375.331C359.177 374.963 359.376 374.626 359.636 374.341C359.895 374.056 360.209 373.828 360.558 373.673C360.907 373.517 361.283 373.437 361.663 373.437C362.044 373.437 362.42 373.517 362.769 373.673C363.118 373.828 363.432 374.056 363.691 374.341C363.951 374.626 364.15 374.963 364.277 375.331C364.404 375.698 364.456 376.089 364.429 376.478Z" fill="white"/>
<path d="M373.003 376.519C372.967 377.072 372.773 377.602 372.446 378.044C372.12 378.486 371.674 378.82 371.165 379.005C370.655 379.19 370.104 379.219 369.579 379.087C369.053 378.956 368.577 378.669 368.209 378.264C367.84 377.858 367.595 377.351 367.504 376.805C367.413 376.258 367.48 375.697 367.696 375.189C367.912 374.681 368.269 374.248 368.721 373.945C369.174 373.642 369.703 373.482 370.244 373.483C371.002 373.512 371.718 373.848 372.236 374.417C372.753 374.986 373.029 375.742 373.003 376.519Z" fill="white"/>
<path d="M381.578 376.561C381.54 377.117 381.345 377.649 381.015 378.092C380.685 378.535 380.236 378.868 379.722 379.051C379.209 379.235 378.654 379.259 378.128 379.122C377.601 378.984 377.125 378.691 376.76 378.279C376.394 377.866 376.155 377.353 376.071 376.802C375.988 376.252 376.064 375.688 376.291 375.182C376.517 374.675 376.884 374.248 377.345 373.953C377.807 373.659 378.342 373.51 378.886 373.525C379.632 373.571 380.331 373.914 380.834 374.481C381.337 375.049 381.604 375.795 381.578 376.561Z" fill="white"/>
</g>
<path d="M369.396 177.344C370.331 176.922 371.124 176.227 371.677 175.346C372.23 174.465 372.518 173.437 372.505 172.39C372.54 171.709 372.439 171.028 372.209 170.388C371.979 169.748 371.624 169.163 371.167 168.669C370.709 168.174 370.158 167.78 369.547 167.511C368.936 167.242 368.278 167.103 367.612 167.103C366.947 167.103 366.289 167.242 365.678 167.511C365.067 167.78 364.516 168.174 364.058 168.669C363.601 169.163 363.246 169.748 363.016 170.388C362.786 171.028 362.685 171.709 362.72 172.39C362.699 173.448 362.985 174.488 363.541 175.38C364.096 176.271 364.897 176.974 365.842 177.399C358.305 178.558 358.641 186.949 358.641 186.949L376.462 187.031C376.462 187.031 376.88 178.489 369.396 177.344Z" fill="#17A2B8"/>
<path opacity="0.1" d="M369.396 177.344C370.331 176.922 371.124 176.227 371.677 175.346C372.23 174.465 372.518 173.437 372.505 172.39C372.54 171.709 372.439 171.028 372.209 170.388C371.979 169.748 371.624 169.163 371.167 168.669C370.709 168.174 370.158 167.78 369.547 167.511C368.936 167.242 368.278 167.103 367.612 167.103C366.947 167.103 366.289 167.242 365.678 167.511C365.067 167.78 364.516 168.174 364.058 168.669C363.601 169.163 363.246 169.748 363.016 170.388C362.786 171.028 362.685 171.709 362.72 172.39C362.699 173.448 362.985 174.488 363.541 175.38C364.096 176.271 364.897 176.974 365.842 177.399C358.305 178.558 358.641 186.949 358.641 186.949L376.462 187.031C376.462 187.031 376.88 178.489 369.396 177.344Z" fill="black"/>
<path d="M398.354 192.443L334.837 192.148L334.803 199.931L398.32 200.226L398.354 192.443Z" fill="#17A2B8"/>
<path opacity="0.2" d="M398.354 192.443L334.837 192.148L334.803 199.931L398.32 200.226L398.354 192.443Z" fill="white"/>
<path d="M164.845 232.778H164.212L162.382 232.916C161.391 232.977 160.406 233.111 159.434 233.317C158.804 233.407 158.18 233.532 157.563 233.689L155.477 234.283C151.926 235.4 148.575 237.101 145.557 239.32C141.568 242.288 138.238 246.088 135.785 250.47C134.343 252.996 133.195 255.687 132.366 258.488C131.494 261.532 130.992 264.674 130.872 267.844C130.791 269.509 130.818 271.178 130.952 272.84C130.952 273.682 131.181 274.523 131.289 275.379C131.38 276.242 131.537 277.095 131.76 277.932C132.97 283.47 135.426 288.641 138.932 293.032C142.437 297.424 146.895 300.915 151.95 303.227C155.609 304.846 159.53 305.749 163.512 305.891C167.625 306.123 171.742 305.518 175.626 304.111L176.811 303.655H176.972L177.107 303.738L194.08 312.57L193.582 313.012C191.765 307.243 190.015 301.654 188.319 296.286V296.079L188.467 295.927C192.584 291.675 195.641 286.468 197.378 280.747C198.95 275.517 199.409 270.001 198.724 264.574C198.114 259.75 196.601 255.092 194.268 250.856C192.258 247.218 189.664 243.952 186.596 241.196C184.065 239.015 181.263 237.187 178.264 235.759C175.995 234.756 173.632 233.993 171.211 233.482L168.519 233.027L166.568 232.875L165.383 232.792H164.979C165.114 232.777 165.249 232.777 165.383 232.792H166.581L168.533 232.875L171.225 233.275C173.675 233.748 176.071 234.484 178.372 235.469C181.423 236.88 184.275 238.704 186.852 240.893C189.976 243.636 192.625 246.903 194.686 250.553C197.084 254.834 198.643 259.555 199.275 264.449C200.018 269.961 199.591 275.572 198.024 280.899C196.276 286.739 193.172 292.057 188.979 296.396L189.059 296.038C190.755 301.406 192.519 306.995 194.349 312.749L194.605 313.591L193.838 313.191L176.865 304.373H177.161L175.949 304.828C171.991 306.256 167.797 306.875 163.606 306.65C159.538 306.491 155.535 305.555 151.802 303.89C144.681 300.763 138.757 295.329 134.937 288.42C133.179 285.229 131.895 281.787 131.127 278.208C130.917 277.35 130.76 276.478 130.656 275.6C130.549 274.73 130.374 273.875 130.333 273.019C129.969 268.109 130.475 263.172 131.827 258.446C132.677 255.607 133.857 252.883 135.34 250.332C137.852 245.91 141.252 242.086 145.314 239.113C148.383 236.888 151.789 235.2 155.396 234.117L157.509 233.565C158.131 233.417 158.76 233.302 159.393 233.22C160.376 233.034 161.37 232.923 162.368 232.889L164.212 232.82C164.422 232.791 164.633 232.777 164.845 232.778Z" fill="#17A2B8"/>
<path d="M172.517 264.96H170.027L164.643 257.204V252.112C164.643 252.112 160.793 251.864 161.251 258.529C161.708 265.195 161.251 263.497 161.251 263.497C161.251 263.497 153.08 263.497 152.407 264.256C151.734 265.015 151.694 273.102 151.6 277.615C151.548 278.702 151.853 279.777 152.465 280.667C153.077 281.557 153.962 282.212 154.978 282.527C155.263 282.608 155.558 282.65 155.853 282.652C157.899 282.652 168.304 280.954 168.304 280.954H172.597L172.517 264.96Z" fill="#17A2B8"/>
<path d="M179.637 263.594L178.103 281.037H173.85V263.953L179.637 263.594Z" fill="#17A2B8"/>
<path d="M230.368 618.709V606.91L209.734 606.759L209.559 624.602L210.837 624.699C216.531 625.071 239.803 625.623 243.626 624.409C247.879 623.056 230.368 618.709 230.368 618.709Z" fill="#17A2B8"/>
<path d="M244.11 623.305C244.11 623.498 236.384 623.663 226.868 623.663C217.352 623.663 209.626 623.498 209.626 623.305C209.626 623.111 217.352 622.946 226.868 622.946C236.384 622.946 244.11 623.111 244.11 623.305Z" fill="#263238"/>
<path d="M230.731 621.124C230.556 621.028 230.731 620.407 231.148 619.744C231.565 619.082 232.131 618.806 232.265 618.944C232.4 619.082 232.117 619.606 231.714 620.172C231.31 620.738 230.906 621.221 230.731 621.124Z" fill="#263238"/>
<path d="M232.05 621.897C231.862 621.897 231.956 621.124 232.36 620.393C232.764 619.661 233.302 619.22 233.45 619.33C233.598 619.441 233.356 620.062 232.979 620.71C232.602 621.359 232.225 621.966 232.05 621.897Z" fill="#263238"/>
<path d="M215.844 623.249C215.763 623.249 215.454 623.001 215.01 622.477C214.468 621.802 213.864 621.183 213.206 620.627C212.56 620.098 211.789 619.751 210.972 619.62C210.339 619.537 209.935 619.62 209.895 619.537C209.855 619.454 210.245 619.165 210.985 619.109C211.962 619.088 212.915 619.42 213.677 620.048C214.391 620.644 214.993 621.369 215.454 622.187C215.764 622.794 215.925 623.194 215.844 623.249Z" fill="#263238"/>
<path d="M230.798 618.903C230.893 619.068 230.543 619.482 229.95 619.703C229.358 619.924 228.833 619.841 228.806 619.703C228.779 619.565 229.197 619.275 229.708 619.082C230.22 618.889 230.691 618.737 230.798 618.903Z" fill="#263238"/>
<path d="M230.475 617.757C230.475 617.964 229.937 618.13 229.237 618.144C228.537 618.157 227.985 617.992 227.999 617.799C228.012 617.605 228.564 617.426 229.237 617.412C229.91 617.398 230.448 617.564 230.475 617.757Z" fill="#263238"/>
<path d="M281.179 618.709V606.91L260.545 606.759L260.37 624.423L261.649 624.519C267.342 624.892 290.628 625.623 294.437 624.409C298.691 623.056 281.179 618.709 281.179 618.709Z" fill="#17A2B8"/>
<path d="M294.922 623.332C294.922 623.525 287.209 623.691 277.679 623.691C268.15 623.691 260.451 623.525 260.451 623.332C260.451 623.139 268.163 622.973 277.679 622.973C287.196 622.973 294.922 623.139 294.922 623.332Z" fill="#263238"/>
<path d="M281.543 621.124C281.381 621.028 281.543 620.407 281.96 619.744C282.377 619.082 282.942 618.806 283.077 618.944C283.212 619.082 282.929 619.606 282.525 620.172C282.121 620.738 281.718 621.221 281.543 621.124Z" fill="#263238"/>
<path d="M282.862 621.897C282.687 621.897 282.767 621.124 283.185 620.393C283.602 619.661 284.127 619.22 284.275 619.33C284.423 619.441 284.167 620.062 283.79 620.71C283.414 621.359 283.05 621.966 282.862 621.897Z" fill="#263238"/>
<path d="M266.656 623.249C266.575 623.249 266.279 623.001 265.821 622.477C265.279 621.802 264.675 621.183 264.018 620.627C263.371 620.098 262.601 619.751 261.783 619.62C261.164 619.537 260.747 619.62 260.706 619.537C260.666 619.454 261.056 619.165 261.797 619.109C262.774 619.088 263.727 619.42 264.489 620.048C265.206 620.64 265.809 621.366 266.265 622.187C266.575 622.794 266.737 623.194 266.656 623.249Z" fill="#263238"/>
<path d="M281.61 618.903C281.704 619.068 281.354 619.482 280.762 619.703C280.17 619.924 279.645 619.841 279.618 619.703C279.591 619.565 280.008 619.275 280.52 619.082C281.031 618.889 281.502 618.737 281.61 618.903Z" fill="#263238"/>
<path d="M281.314 617.757C281.314 617.964 280.776 618.13 280.076 618.144C279.376 618.157 278.837 617.992 278.851 617.799C278.864 617.605 279.403 617.426 280.076 617.412C280.749 617.398 281.314 617.564 281.314 617.757Z" fill="#263238"/>
<path d="M357.201 268.327C356.663 267.761 355.33 268.037 355.33 268.037C355.464 267.243 355.464 266.431 355.33 265.636C355.088 264.863 353.392 265.015 353.392 265.015C353.314 264.364 353.314 263.706 353.392 263.056C353.406 262.911 353.375 262.766 353.306 262.64C353.236 262.514 353.13 262.414 353.002 262.352C352.199 262.016 351.338 261.857 350.471 261.883C349.435 261.124 353.634 255.093 355.196 253.161C356.757 251.229 356.475 249.725 355.088 249.725C354.132 249.725 349.233 255.521 347.726 257.467C346.218 259.412 342.22 264.822 342.086 260.503C341.951 256.183 340.255 252.926 339.192 252.374C338.129 251.822 336.998 253.12 337.577 254.32C338.085 255.684 338.402 257.115 338.519 258.571C338.665 259.73 338.615 260.906 338.371 262.048C337.925 264.173 337.317 266.258 336.554 268.286H336.446C336.446 268.286 307.076 297.169 304.95 299.225C303.052 301.075 264.879 297.031 257.22 296.203C254.618 295.813 251.99 295.628 249.36 295.651C246.035 295.803 245.443 296.286 242.132 296.327C233.77 296.423 225.427 297.175 217.177 298.577C213.441 299.228 209.952 300.919 207.089 303.464C204.227 306.01 202.101 309.312 200.944 313.012C193.232 337.714 175.761 396.184 172.678 429.028C170.349 433.359 168.246 437.813 166.379 442.373C164.212 448.417 164.737 448.624 165.464 448.762C167.429 449.135 169.663 438.288 170.498 440.91C171.332 443.532 166.258 453.841 168.317 454.144C171.009 454.531 173.149 443.104 173.405 442.193C173.661 441.283 174.993 441.572 174.751 442.428C174.361 443.642 170.578 456.518 173.217 456.932C174.67 457.153 174.832 454.434 174.832 454.434C174.832 454.434 177.524 442.111 178.749 442.359C179.974 442.607 178.668 449.88 178.049 452.309C177.43 454.738 178.291 455.966 179.556 455.372C180.418 454.958 182.477 447.575 183.042 445.174C183.608 442.773 185.021 436.121 186.919 439.972C188.817 443.822 191.697 446.057 192.882 446.113C193.149 446.081 193.4 445.968 193.604 445.789C193.808 445.61 193.955 445.372 194.026 445.106C194.097 444.84 194.088 444.559 194.002 444.298C193.916 444.037 193.755 443.809 193.541 443.642C192.522 442.622 191.648 441.461 190.943 440.192C190.316 439.204 189.86 438.112 189.597 436.963C189.055 434.674 188.739 432.335 188.655 429.98L188.44 428.6C191.455 413.296 200.137 368.377 212.668 339.687L217.81 350.534L220.044 358.565L206.342 393.245L264.785 392.458L256.063 358.041L266.656 322.161C278.11 322.423 307.521 322.865 312.42 320.588C318.585 317.828 350.471 276.538 350.471 276.538C352.55 274.882 354.54 273.113 356.434 271.239C356.434 271.239 358.372 269.569 357.201 268.327Z" fill="#FFBE9D"/>
<path d="M203.771 367.618C205.467 361.684 214.175 332.345 214.175 332.345C214.175 332.345 218.456 356.261 217.325 359.145C216.285 361.614 215.056 363.995 213.65 366.266C203.771 381.68 205.063 389.395 205.063 389.395L264.758 387.532C264.893 378.976 259.953 359.076 258.93 355.902C257.907 352.728 261.312 342.337 261.312 342.337C261.312 342.337 268.042 335.312 267.8 331.697C267.672 328.449 267.28 325.218 266.629 322.037L302.971 323.417L301.827 298.163L249.629 292.808C247.812 298.066 231.377 295.486 231.377 295.486C213.637 296.093 212.533 299.432 205.157 305.311C197.781 311.19 185.573 361.643 185.573 361.643L203.771 367.618Z" fill="#17A2B8"/>
<path d="M239.063 361.643C238.028 361.832 236.975 361.888 235.927 361.809C233.975 361.809 231.297 361.671 228.349 361.367C225.401 361.063 222.736 360.636 220.838 360.249C219.792 360.111 218.766 359.842 217.783 359.449C218.835 359.449 219.885 359.551 220.919 359.752C222.83 360.001 225.482 360.346 228.416 360.649C231.35 360.953 234.015 361.16 235.94 361.298C236.989 361.312 238.035 361.427 239.063 361.643Z" fill="#263238"/>
<path d="M243.155 356.44C242.12 356.96 241.026 357.345 239.897 357.586C234.527 359.032 228.987 359.706 223.436 359.587C222.287 359.625 221.138 359.514 220.017 359.255C221.151 359.109 222.294 359.049 223.436 359.076C225.549 359.007 228.457 358.855 231.66 358.469C234.863 358.082 237.717 357.53 239.736 357.089C240.857 356.782 242 356.565 243.155 356.44Z" fill="#263238"/>
<path d="M263.237 333.229C263.21 334.281 263.07 335.327 262.82 336.348C262.47 338.266 261.931 340.888 261.245 343.758C260.558 346.629 259.899 349.278 259.307 351.072C259.069 352.099 258.716 353.095 258.257 354.039C258.332 352.99 258.521 351.953 258.822 350.948C259.334 348.795 259.912 346.311 260.559 343.593C261.205 340.874 261.824 338.39 262.335 336.237C262.517 335.201 262.82 334.191 263.237 333.229Z" fill="#263238"/>
<path d="M204.403 364.099C201.289 363.606 198.216 362.873 195.21 361.905C192.138 361.169 189.124 360.2 186.192 359.007C189.304 359.508 192.377 360.241 195.385 361.201C198.458 361.935 201.472 362.904 204.403 364.099Z" fill="#263238"/>
<path d="M267.275 321.733C266.767 321.823 266.248 321.823 265.74 321.733C264.335 321.585 262.954 321.247 261.635 320.726C259.433 319.877 257.429 318.566 255.751 316.877C254.072 315.187 252.757 313.156 251.89 310.914C250.932 308.448 250.522 305.794 250.692 303.145C250.752 300.96 251.39 298.832 252.536 296.99C253.343 295.748 254.547 294.835 255.942 294.409C256.314 294.304 256.699 294.253 257.086 294.257C257.355 294.257 257.49 294.257 257.49 294.257C257.49 294.257 256.924 294.257 256.022 294.63C254.743 295.114 253.659 296.023 252.94 297.211C251.109 300.164 250.598 305.56 252.55 310.597C253.458 312.972 254.88 315.104 256.709 316.834C258.207 318.25 259.933 319.389 261.81 320.201C263.572 320.915 265.404 321.429 267.275 321.733Z" fill="#263238"/>
<path d="M298.65 322.92C298.313 318.688 298.206 314.44 298.327 310.196C298.222 305.956 298.347 301.713 298.704 297.487C299.041 301.714 299.149 305.957 299.027 310.196C299.14 314.441 299.014 318.69 298.65 322.92Z" fill="#263238"/>
<path d="M249.279 294.354C249.427 291.277 249.736 287.799 249.736 287.799C249.736 287.799 257.166 286.957 257.611 279.091C258.055 271.225 257.611 253.078 257.611 253.078L244.151 246.013L229.21 258.06L231.512 297.39L245.214 298.287C246.261 298.317 247.277 297.919 248.039 297.182C248.801 296.445 249.247 295.428 249.279 294.354Z" fill="#FFBE9D"/>
<path d="M250.612 272.867C250.612 272.867 250.612 273.019 250.491 273.199C250.39 273.329 250.261 273.432 250.113 273.499C249.965 273.567 249.804 273.596 249.643 273.585C248.781 273.585 247.947 272.564 247.65 271.377C247.51 270.802 247.51 270.2 247.65 269.624C247.678 269.373 247.766 269.133 247.907 268.926C248.048 268.719 248.238 268.551 248.458 268.438C248.639 268.361 248.842 268.361 249.023 268.438C249.158 268.506 249.266 268.617 249.333 268.755C249.427 268.99 249.333 269.141 249.333 269.128C249.333 269.114 249.333 268.99 249.198 268.852C249.128 268.753 249.025 268.684 248.908 268.659C248.791 268.633 248.669 268.653 248.566 268.714C248.401 268.816 248.263 268.959 248.167 269.131C248.07 269.302 248.018 269.496 248.014 269.693C247.901 270.207 247.901 270.74 248.014 271.253C248.283 272.329 249.01 273.199 249.656 273.281C249.782 273.299 249.911 273.29 250.034 273.254C250.156 273.218 250.271 273.157 250.369 273.074C250.531 272.964 250.585 272.854 250.612 272.867Z" fill="#EB996E"/>
<path d="M262.228 248.828C261.191 245.212 257.436 243.418 254.017 242.425C248.808 240.907 243.182 240.244 238.094 242.162C233.006 244.081 226.895 247.448 226.895 253.202C223.893 252.954 222.171 255.645 220.986 258.985C220.229 261.019 219.775 263.159 219.64 265.333C219.263 272.867 217.204 283.273 212.439 288.793C209.747 291.87 206.019 293.995 204.484 297.832C203.138 301.157 203.838 305.104 202.586 308.471C201.469 311.438 199.006 313.55 197.202 316.13C195.365 319.058 194.283 322.416 194.06 325.89C193.836 329.364 194.477 332.839 195.924 335.989C197.38 339.058 199.431 341.791 201.951 344.021C204.471 346.251 207.407 347.932 210.581 348.961C216.869 350.922 223.573 350.989 229.897 349.154C234.642 347.99 239.069 345.74 242.845 342.571C246.709 339.337 249.362 334.832 250.356 329.82C251.311 324.19 249.777 318.463 248.633 312.86C245.053 295.154 246.075 294.23 250.598 277.794C250.706 277.504 250.76 277.201 250.84 276.911C250.921 276.621 250.961 276.483 251.015 276.262C251.144 275.613 251.211 274.952 251.217 274.289C250.557 274.541 249.84 274.594 249.151 274.442C248.462 274.291 247.829 273.941 247.327 273.433C246.824 272.892 246.474 272.222 246.313 271.493C246.152 270.764 246.186 270.004 246.412 269.293C246.73 268.516 247.203 267.816 247.801 267.238C248.399 266.661 249.109 266.218 249.885 265.94C251.379 265.305 252.98 264.974 254.448 264.27C257.557 262.752 259.71 259.606 261.178 256.307C262.384 254.022 262.756 251.37 262.228 248.828Z" fill="#263238"/>
<path d="M251.15 273.24C251.435 273.671 251.669 274.134 251.85 274.62C252.254 275.489 252.792 276.718 253.385 278.139L253.492 278.401H253.21L251.864 278.525C250.935 278.525 250.154 278.705 249.239 278.691C249.159 278.673 249.085 278.634 249.024 278.578C248.963 278.523 248.916 278.452 248.889 278.374C248.849 278.248 248.849 278.113 248.889 277.987C248.92 277.801 248.961 277.617 249.01 277.435L249.252 276.455C249.374 275.802 249.564 275.163 249.818 274.551C249.793 275.217 249.698 275.879 249.535 276.524L249.347 277.504C249.279 277.835 249.158 278.346 249.347 278.305C250.02 278.305 250.975 278.153 251.864 278.098L253.21 277.973L253.035 278.277C252.456 276.897 251.971 275.6 251.689 274.703C251.441 274.245 251.259 273.752 251.15 273.24Z" fill="#17A2B8"/>
<path d="M205.063 389.395L264.758 387.532L290.736 491.501L285.957 610.761H254.394L258.257 494.04L235.173 421.659L238.726 615.384L206.826 615.867L203.475 433.776C203.326 428.711 201.711 417.298 202.317 412.275L205.063 389.395Z" fill="#263238"/>
<path d="M243.115 423.136C242.137 423.199 241.156 423.138 240.194 422.956C238.39 422.735 235.927 422.349 233.221 421.797C230.516 421.245 228.093 420.61 226.343 420.1C225.408 419.889 224.503 419.555 223.651 419.106C223.651 418.899 228.039 419.975 233.423 421.093C238.807 422.211 243.141 422.929 243.115 423.136Z" fill="#455A64"/>
<path d="M285.634 604.219C285.634 604.412 278.487 604.578 269.671 604.578C260.855 604.578 253.694 604.412 253.694 604.219C253.694 604.026 260.841 603.86 269.671 603.86C278.501 603.86 285.634 604.012 285.634 604.219Z" fill="#455A64"/>
<path d="M238.444 610.346C238.444 610.553 231.498 610.705 222.938 610.705C214.377 610.705 207.445 610.553 207.445 610.346C207.445 610.139 214.391 609.988 222.938 609.988C231.485 609.988 238.444 610.153 238.444 610.346Z" fill="#455A64"/>
<path d="M234.325 609.85C234.136 609.85 233.302 567.525 232.454 515.32C231.606 463.114 231.108 420.762 231.283 420.762C231.458 420.762 232.319 463.073 233.154 515.306C233.988 567.539 234.527 609.85 234.325 609.85Z" fill="#455A64"/>
<path d="M281.395 604.219C281.38 604.031 281.38 603.842 281.395 603.654V601.998C281.395 600.507 281.502 598.368 281.583 595.65C281.771 590.13 282.041 582.112 282.377 572.286C283.104 552.525 284.127 525.283 285.244 495.213C285.244 494.923 285.244 494.647 285.244 494.399V494.496C278.178 465.516 271.784 439.213 267.14 420.183L261.756 397.675C261.137 395.039 260.666 392.983 260.33 391.548C260.168 390.871 260.06 390.347 259.966 389.947C259.914 389.767 259.882 389.582 259.872 389.395C259.942 389.569 259.996 389.749 260.034 389.933C260.141 390.319 260.276 390.844 260.464 391.506C260.828 392.886 261.353 394.984 262.026 397.606C263.372 402.933 265.27 410.605 267.638 420.058C272.323 439.075 278.783 465.309 285.944 494.33V494.427C285.944 494.675 285.944 494.965 285.944 495.241C284.746 525.311 283.656 552.538 282.862 572.3C282.444 582.139 282.095 590.102 281.852 595.65C281.718 598.41 281.61 600.507 281.543 601.998C281.543 602.701 281.462 603.253 281.448 603.654C281.45 603.844 281.432 604.033 281.395 604.219Z" fill="#455A64"/>
<path d="M271.098 491.97C268.83 492.734 266.495 493.266 264.125 493.557C261.218 494.068 258.741 494.427 257.624 494.482V494.206C257.988 494.316 258.176 494.385 258.176 494.44C258.176 494.496 257.947 494.44 257.57 494.44H256.763L257.57 494.192C258.62 493.875 261.097 493.35 264.004 492.812C266.336 492.293 268.712 492.011 271.098 491.97Z" fill="#455A64"/>
<path d="M270.546 495.931C268.446 496.029 266.342 495.932 264.26 495.641C262.157 495.597 260.063 495.361 258.001 494.937C262.207 494.585 266.442 494.921 270.546 495.931Z" fill="#455A64"/>
<path opacity="0.2" d="M204.807 391.589C205.514 392.52 206.405 393.287 207.42 393.841C208.436 394.395 209.555 394.723 210.703 394.804C213.107 395.096 215.539 395.05 217.931 394.666C233.342 392.914 249.669 391.299 264.758 387.532C245.228 388.65 224.593 388.277 205.063 389.395L204.861 391.106" fill="black"/>
<g opacity="0.2">
<path d="M224.93 419.81L235.94 463.611L235.173 421.659L224.93 419.81Z" fill="black"/>
</g>
</svg>
