<svg width="126" height="77" viewBox="0 0 126 77" fill="none" xmlns="http://www.w3.org/2000/svg">
<path d="M70.3942 12.9999C70.3942 12.7999 70.3942 12.7999 70.3942 12.6999V12.5999C69.9943 12.7999 69.5943 12.8999 69.2944 12.9999C68.9944 13.0999 68.7944 13.6999 68.2945 13.3999C67.7945 13.0999 67.6945 13.8999 67.2946 13.6999C67.2946 13.5999 67.2946 13.4999 67.2946 13.1999L66.0947 14.1999C66.0947 13.9999 66.0947 13.9999 66.0947 13.8999V13.7999C66.0947 13.7999 65.9947 13.7999 65.9947 13.6999C65.6947 13.7999 65.3948 14.3999 64.9948 13.9999C64.6948 14.1999 64.4949 14.3999 64.1949 14.5999C64.0949 14.6999 63.8949 14.4999 63.6949 14.3999C63.395 14.5999 63.095 14.7999 62.795 14.9999C62.2951 14.4999 62.0951 15.0999 61.7951 15.1999C61.6952 15.2999 61.4952 15.3999 61.4952 15.2999C60.9952 14.7999 60.7953 15.3999 60.4953 15.5999C60.2953 15.6999 60.1953 15.7999 59.9953 15.5999C59.9953 15.5999 59.6954 15.5999 59.5954 15.6999C59.3954 15.8999 59.1954 15.9999 58.9954 16.1999C58.2955 15.5999 58.0955 16.5999 57.6956 16.4999C57.5956 16.3999 57.4956 16.2999 57.2956 16.1999L55.9958 17.4999C55.9958 17.2999 55.9958 17.1999 55.9958 17.0999C54.8959 17.1999 53.896 17.6999 52.7961 17.9999C51.9962 18.1999 50.9963 18.3999 50.3964 19.1999C50.3964 19.1999 50.2964 19.1999 50.1964 19.2999C50.1964 19.1999 50.1964 19.0999 50.1964 18.8999C49.5964 19.0999 48.8965 19.1999 48.3966 19.3999C47.2967 19.8999 45.9968 19.8999 45.1969 20.8999C45.1969 20.8999 45.0969 20.8999 44.9969 20.8999C44.9969 20.7999 44.9969 20.6999 44.9969 20.5999C44.097 20.7999 43.6971 20.9999 42.9971 21.5999C42.9971 21.4999 42.9971 21.3999 42.9971 21.1999C41.9972 21.4999 41.0973 21.8999 40.0975 22.1999L39.1975 22.8999C39.0976 22.8999 39.0976 22.8999 38.9976 22.8999C38.9976 22.7999 38.9976 22.6999 38.9976 22.4999C38.5976 22.6999 38.1977 22.9999 37.8977 22.9999C37.1978 22.7999 37.4977 23.7999 36.9978 23.5999C36.9978 23.4999 36.9978 23.3999 36.9978 23.1999C35.6979 23.6999 34.2981 24.0999 32.9982 24.5999C32.7982 24.6999 32.6982 24.7999 32.5982 24.9999C32.5982 25.0999 32.3983 25.1999 32.2983 25.3999C32.2983 25.0999 32.2983 24.9999 32.2983 24.8999C31.5984 25.0999 30.8984 25.2999 30.1985 25.5999C30.0985 25.5999 30.0985 25.7999 29.9985 25.9999C29.8985 26.0999 29.7985 26.1999 29.5986 26.3999C29.5986 26.0999 29.5986 25.9999 29.5986 25.8999C28.8986 26.0999 28.1987 26.2999 27.4988 26.5999C27.3988 26.5999 27.3988 26.8999 27.2988 26.9999C27.1988 27.0999 27.0988 27.1999 26.8989 27.3999C26.8989 27.0999 26.8989 26.9999 26.8989 26.8999C26.1989 27.0999 25.499 27.2999 24.7991 27.5999C24.6991 27.5999 24.6991 27.8999 24.5991 27.9999C24.4991 28.0999 24.3991 28.1999 24.1991 28.3999C24.1991 28.0999 24.1991 27.9999 24.1991 27.7999C23.5992 28.0999 22.9993 28.2999 22.3993 28.5999C22.2993 28.5999 20.8995 29.4999 20.8995 29.4999H20.7995C20.7995 29.3999 20.7995 29.2999 20.7995 29.0999C19.3996 29.5999 17.8998 30.0999 16.5 30.5999C14.3002 31.3999 12.0004 32.2999 9.80067 33.0999C8.30083 33.6999 6.80099 34.0999 5.30115 34.6999C4.20126 35.0999 3.10138 35.3999 1.90151 35.6999C1.70153 35.7999 1.40156 35.7999 1.20158 35.7999H1.10159C1.30157 35.2999 0.801624 35.4999 0.701635 35.2999C0.401666 34.9999 0.701635 34.7999 0.701635 34.5999C0.501656 34.4999 0.301677 34.3999 0.101698 34.1999C0.401667 33.9999 0.501656 33.7999 0.701635 33.6999C0.901613 33.5999 1.10159 33.5999 1.30157 33.4999C0.901613 32.9999 0.301677 33.7999 0.00170898 32.9999C0.201688 32.8999 0.501656 32.5999 0.701635 32.4999C2.70142 31.9999 4.60122 31.1999 6.60101 30.3999C9.20073 29.3999 11.8005 28.4999 14.3002 27.3999C16 26.6999 17.7998 26.0999 19.4996 25.4999C20.8995 24.8999 22.2993 24.3999 23.7992 23.8999C26.1989 23.0999 28.4987 21.9999 30.8984 21.2999C32.4983 20.7999 34.0981 20.0999 35.6979 19.5999C38.1977 18.6999 40.6974 17.7999 43.1971 16.9999C44.597 16.4999 45.9968 15.9999 47.3967 15.4999C49.0965 14.9999 50.6963 14.1999 52.3961 13.6999C54.3959 13.0999 56.2957 12.3999 58.1955 11.7999C59.4954 11.3999 60.8952 10.9999 62.1951 10.5999C64.1949 9.89988 66.1947 9.29988 68.1945 8.69988C69.2943 8.39988 70.3942 7.99988 71.4941 7.79988C72.494 7.49988 73.4939 7.19988 74.4938 6.89988C75.4937 6.49988 76.5936 6.29988 77.6935 5.99988C79.2933 5.49988 80.9931 5.09988 82.5929 4.59988C83.9928 4.19988 85.4926 3.89988 86.9925 3.49988C89.1922 2.89988 91.392 2.59988 93.6918 1.99988C95.7915 1.49988 97.7913 1.09988 99.7911 0.399877C100.091 0.299877 100.591 -0.000123054 100.891 0.599877C100.691 0.799877 100.491 0.999877 100.291 1.09988C99.9911 1.19988 99.6911 1.19988 99.4911 1.59988C100.191 1.39988 100.691 1.19988 101.491 0.999877C101.191 1.39988 101.091 1.69988 100.891 2.09988C100.991 2.19988 101.191 2.29988 101.191 2.39988C101.091 2.79988 101.191 3.19988 101.091 3.59988C100.991 3.99988 100.591 3.99988 100.291 3.99988C100.191 3.99988 100.191 4.19988 100.091 4.29988C100.091 4.39988 99.9911 4.39988 99.8911 4.39988C99.2912 4.39988 98.8912 4.49988 98.5912 4.99988C98.4912 5.09988 98.3913 5.09988 98.2913 5.19988C98.2913 4.99988 98.2913 4.89988 98.2913 4.79988C97.3914 4.89988 96.4915 5.29988 95.7915 5.99988C95.6916 5.79988 95.6915 5.69988 95.6915 5.39988C95.0916 5.69988 94.4917 6.09988 93.9917 6.39988C93.9917 6.29988 93.9917 6.09988 93.9917 5.99988C93.2918 5.99988 92.7919 6.49988 92.2919 6.89988C92.2919 6.69988 92.1919 6.59988 92.1919 6.39988C91.492 6.69988 90.6921 6.99988 89.9922 7.29988C89.9922 7.19988 89.9922 7.09988 89.9922 6.89988C89.1922 7.29988 88.3923 7.59988 87.6924 7.99988C87.6924 7.89988 87.6924 7.79988 87.6924 7.59988C86.8925 7.99988 86.0926 8.29988 85.3926 8.69988C85.3926 8.59988 85.3926 8.49988 85.3926 8.29988C84.5927 8.69988 83.7928 8.99988 83.0929 9.29988C83.0929 9.19988 83.0929 9.09988 83.0929 8.89988C82.293 9.29988 81.4931 9.59988 80.7931 9.99988C80.7931 9.89988 80.7931 9.79988 80.7931 9.59988C80.1932 9.89988 79.5933 10.1999 78.9933 10.4999C78.9933 10.2999 78.9933 10.1999 78.9933 9.99988C78.5934 10.2999 78.2934 10.4999 77.8934 10.5999C77.4935 10.7999 77.3935 10.2999 77.1935 10.4999C76.9935 10.6999 76.7936 10.8999 76.4936 10.9999C76.0936 11.1999 75.7937 11.2999 75.3937 11.3999C75.3937 11.2999 75.3937 11.1999 75.3937 10.9999C74.7938 11.2999 74.1938 11.5999 73.5939 11.8999C73.5939 11.7999 73.5939 11.5999 73.5939 11.4999C72.994 11.7999 72.394 12.0999 71.7941 12.3999C71.7941 12.1999 71.7941 12.0999 71.7941 11.8999L70.3942 12.9999Z" fill="#171717"/>
<path d="M52.896 71.2C56.5956 68.3 56.8956 68.1 57.1956 67.9C61.3951 64.5 65.5947 61.1 69.6942 57.7C70.0942 57.4 70.2942 56.9 70.8941 57C70.9941 56.5 71.3941 56.3 71.694 56.1C71.994 55.9 72.394 55.8 72.5939 55.5C72.7939 55.3 73.0939 55.2 73.1939 54.9C75.0937 54 76.3935 52.5 77.9934 51.3C79.5932 50.1 81.193 48.7 82.7929 47.4C82.9928 47.2 83.1928 46.9 83.5928 47C83.5928 46.6 83.8927 46.5 84.0927 46.3C84.2927 46.1 84.4927 45.9 84.8926 45.9C84.8926 45.4 85.2926 45.3 85.5926 45.1C85.7925 45 86.0925 45 86.1925 44.9C86.2925 44.8 86.2925 44.5 86.5925 44.6C86.6924 44.6 86.8924 44.3 86.9924 44.2C87.0924 44.1 87.1924 43.8 87.1924 43.8C87.6923 43.9 87.9923 43.4 88.2923 43.2C89.5921 42.2 90.792 41.1 92.0919 40.1C92.2919 39.9 92.5918 39.8 92.6918 39.5C92.8918 39.2 93.2917 39.5 93.3917 39C93.3917 38.8 93.7917 38.6 93.9917 38.4C95.7915 37.5 97.1913 36 98.7912 34.8C98.9911 34.6 99.4911 34.8 99.3911 34.3C99.891 34.5 99.6911 34 99.891 33.9C101.491 33.2 102.491 31.7 103.991 30.9C105.59 30 106.69 28.6 108.29 27.7C109.59 27 110.59 26 111.79 25.1C111.89 25 111.99 24.9 112.09 24.7C111.99 24.8 111.89 24.8 111.79 24.9C111.19 25.4 110.59 26.1 109.89 26.4C109.09 26.7 108.69 27.3 108.09 27.7C107.39 28.2 106.89 28.9 106.19 29.2C104.691 30 103.591 31.4 102.091 32.2C100.291 33.3 98.8911 34.9 97.0913 36C95.0916 37.2 93.5917 38.9 91.6919 40.1C89.0922 41.7 86.9924 43.8 84.5927 45.6C84.2927 45.8 83.8927 46 83.6928 46.3C83.4928 46.5 83.0928 46.7 82.7929 46.8C82.4929 46.9 82.1929 47.2 82.0929 47.4C81.9929 47.7 81.893 47.8 81.593 47.8C81.493 47.8 81.493 47.9 81.393 47.9C80.9931 48 80.9931 48.6 80.4931 48.7C80.1931 48.8 79.7932 49 79.7932 49.6C79.4932 49.4 79.4932 49.9 79.2932 49.9C78.6933 50.1 78.2933 50.5 77.8934 51C77.6934 51.2 77.4934 51.6 77.2934 51.7C76.3935 52 75.8936 52.7 75.0937 53.2C74.6937 53.4 74.4937 53.9 73.9938 53.8C73.8938 53.8 73.7938 54 73.7938 54C73.7938 54.5 73.3939 54.6 73.0939 54.8C68.5944 58.5 64.0948 62.2 59.5953 65.8C59.2954 66 59.0954 66.4 58.5954 66.3C58.4954 66.3 58.2955 66.5 58.1955 66.6C58.0955 66.7 56.9956 67.5 56.8956 67.7C56.5956 68 56.3957 68.3 56.1957 68.7C56.2957 68.5 56.2957 68.5 52.896 71.2C51.3962 72.3 53.196 70.8 55.0958 69.3C55.1958 69.2 55.3958 69 55.4958 69C55.8957 69.1 55.8957 68.7 55.9957 68.6C56.0957 68.5 56.0957 68.4 56.0957 68.4C55.9957 68.4 55.8957 68.4 55.8957 68.4C54.4959 69.5 53.096 70.6 51.6962 71.8C50.9962 72.4 50.1963 72.7 49.4964 73.2C49.3964 73.2 49.1964 73 49.0964 72.9C50.4963 71.7 51.8961 70.7 53.196 69.5C53.596 69.1 54.3959 69.2 54.4959 68.5C55.5957 68.2 56.2957 67.3 57.0956 66.6C63.2949 61.5 69.4943 56.5 75.6936 51.4C75.9936 51.1 76.3935 50.7 76.7935 50.6C77.1935 50.5 77.1935 49.9 77.7934 50C77.8934 50 78.0934 49.6 78.2933 49.4C78.3933 49.3 78.4933 49.2 78.5933 49C78.7933 48.8 79.2932 49.1 79.2932 48.5C79.2932 48.1 79.9932 48.5 79.9932 47.9C79.9932 47.8 80.3931 47.5 80.5931 47.5C81.093 47.6 80.7931 46.9 81.093 47C81.593 47.1 81.793 46.7 82.0929 46.5C82.8928 45.9 83.6928 45.2 84.4927 44.6C84.7926 44.4 85.2926 44.3 85.3926 44.1C85.4926 43.6 85.8925 43.5 86.1925 43.2C86.3925 43 86.6924 42.8 86.9924 42.6L87.6923 42.1L88.4923 41.5L89.2922 40.9L89.9921 40.4C90.2921 40.2 90.492 40 90.792 39.8C90.992 39.6 91.4919 39.6 91.4919 39.4C91.5919 39.1 92.0919 39.2 91.9919 38.8C92.2919 38.9 92.4918 38.7 92.6918 38.5C92.9918 38.3 93.1918 38.1 93.4917 37.9C95.5915 36.3 97.4913 34.4 99.7911 33C101.491 31.9 102.891 30.4 104.591 29.4C105.99 28.6 106.99 27.2 108.59 26.5C109.39 26.1 109.99 25.4 110.69 24.8C111.39 24.2 112.19 24 112.89 23.4C113.39 22.9 113.89 22.4 114.689 22.2C115.189 22 115.589 21.5 115.989 21.2C116.489 20.9 116.989 20.6 117.489 20.3C118.089 19.9 118.589 19.2 119.389 19.1C120.289 18.3 121.489 17.8 122.489 17.2C123.089 16.8 123.689 16.7 124.388 16.8C124.488 16.8 124.488 16.9 124.588 17C124.588 17.2 124.588 17.5 124.588 17.7C125.188 18 125.488 18.6 125.288 19.2C125.188 19.5 125.088 19.7 125.188 20.1C125.288 20.5 124.888 20.9 125.088 21.3C125.088 21.4 124.688 21.6 124.488 21.8C123.888 21.4 123.389 21.6 122.889 21.9C122.389 22.2 121.889 22.6 121.289 22.9C120.289 23.5 119.289 24.2 118.389 24.9C117.889 25.3 117.389 25.7 116.989 26.1C116.989 26.1 116.889 26.1 116.789 26.1C116.989 25.8 117.189 25.6 117.489 25.4C116.989 25.6 116.489 25.8 116.389 26.1C116.289 26.7 115.589 26.6 115.589 26.9C115.589 27.4 114.789 27 114.989 27.5C114.689 27.8 114.39 28 114.09 28.3C114.09 28.3 113.99 28.3 113.89 28.2C113.99 28 114.19 27.8 114.29 27.6C113.79 27.8 113.29 28.1 112.99 28.5C112.39 29.5 111.49 29.9 110.59 30.4C110.79 30.2 111.09 29.9 111.29 29.7C111.09 29.7 110.99 29.7 110.89 29.8C110.29 30.2 109.99 30.8 109.49 31.2C108.79 31.8 108.09 32.4 107.39 32.9C107.39 32.9 107.29 32.9 107.19 32.8C107.39 32.6 107.59 32.3 107.79 32.1C107.19 32.4 106.69 32.9 106.19 33.2C105.89 33.4 105.59 33.4 105.49 33.8C105.39 34.2 104.991 34.1 104.691 33.9C104.691 34.2 104.791 34.5 104.791 34.8C104.591 34.7 104.491 34.6 104.291 34.5C103.391 35.2 102.491 36 101.591 36.7C101.291 36.9 100.991 37.1 100.491 37.3C100.491 38.4 99.3911 38.6 98.6912 39.1C98.9911 38.8 99.2911 38.5 99.4911 38.3C98.8912 38.6 98.3912 39 97.8913 39.4C97.2913 39.8 96.7914 40.5 95.9915 40.6C95.6915 40.7 95.3915 41 95.4915 41.5C95.4915 41.6 95.4915 41.6 95.3915 41.7C95.2915 41.6 95.0916 41.5 94.9916 41.4L93.9917 42.2C93.7917 42.1 93.5917 41.8 93.3917 42.1C93.3917 42.1 93.5917 42.3 93.6917 42.5C92.7918 43 92.2919 43.9 91.292 44.2C90.792 45 89.9921 45.6 89.0922 46C89.0922 46.2 89.0922 46.4 89.0922 46.6C88.1923 46.3 87.7923 47.2 87.3924 47.4C86.9924 47.4 86.7924 47.4 86.5925 47.4C86.5925 47.6 86.5925 47.8 86.6924 48C85.7925 48.7 84.9926 49.4 84.0927 50.1C83.8927 50.3 83.4928 50.3 83.3928 50.5C83.1928 50.8 83.0928 51 82.6929 51C82.4929 51.1 82.3929 51.5 82.0929 51.6C81.9929 51.7 81.693 51.7 81.493 51.7C81.393 51.7 81.193 51.6 81.093 51.5C81.093 51.5 80.9931 51.6 80.8931 51.6C80.8931 51.6 80.8931 51.7 80.8931 51.8C81.193 51.8 81.293 51.9 81.193 52.1C81.093 52.3 80.9931 52.5 80.8931 52.5C80.4931 52.5 80.2931 52.6 80.1931 53.1C80.0931 53.4 79.3932 53.2 79.3932 53.8L79.2932 53.9C78.7933 53.8 78.4933 54.2 78.1933 54.5C75.1937 56.9 72.194 59.4 69.2943 61.8C69.0943 62 68.8943 62.3 68.5944 62.3C67.8944 62.4 67.4945 62.7 67.4945 63.5C67.4945 63.6 67.3945 63.6 67.3945 63.7C67.0945 64 66.6946 64.3 66.3946 64.6C66.0946 64.9 65.6947 65.1 65.3947 65.4L65.2947 65.3C65.4947 65.1 65.6947 64.8 65.9946 64.5C65.8947 64.5 65.7947 64.5 65.7947 64.5C65.4947 64.8 65.1947 65 64.7948 65.3C64.4948 65.6 64.1948 65.8 63.8949 66.1L62.895 67C62.595 67.3 62.295 67.7 61.8951 67.7C61.3951 67.8 61.3951 68.2 61.0952 68.4C60.1953 69.1 59.2954 69.7 58.3955 70.3C57.1956 71 56.1957 72 55.1958 72.9C54.1959 73.8 52.896 74.3 51.8961 75.3C51.8961 75.3 51.7962 75.3 51.6962 75.3C51.6962 75.2 51.6962 75.1 51.6962 75C51.3962 75 51.0962 75 50.6963 75.1C50.9962 74.7 51.0962 74.4 51.2962 74.1C50.1963 73.7 49.9963 74.5 52.896 71.2Z" fill="#171717"/>
<path d="M84.3926 23.7C84.7925 23.6 84.9925 23.5 85.1925 23.5C85.7924 23.2 86.3923 23 86.8923 22.4C87.3922 22.6 87.4922 22 87.9922 22C88.4921 22 88.6921 21.6 88.9921 21.4C89.492 21.1 90.0919 21 90.5919 20.7C91.3918 20.2 92.2917 19.9 93.0916 19.4C93.5916 19.1 94.0915 18.9 94.5915 18.6C95.3914 18.2 96.2913 17.9 97.0912 17.4C97.7911 16.9 98.691 16.6 99.491 16.2C100.091 15.9 100.891 15.7 101.491 15.4C102.791 14.6 104.29 14.2 105.59 13.7C105.99 14 106.29 14.2 106.69 14.5C106.39 15 106.49 15.6 106.29 16.3C106.09 16.4 105.79 16.6 105.49 16.6C104.99 16.6 104.49 16.5 104.19 17C102.491 17.4 101.191 18.4 99.5909 18.9C98.691 19.2 97.7911 19.6 96.9912 20.1C96.0913 20.7 95.0914 20.7 94.2915 21.5C92.5917 22.1 91.0918 23.1 89.492 23.9C88.7921 23.8 88.3921 24.6 87.7922 24.8C86.9923 25 86.3923 25.9 85.3925 25.8V25.9C84.9925 26.4 84.2926 26.5 83.7926 27C83.3927 27 83.1927 27.1 82.9927 27C82.7927 27 82.4928 26.6 82.3928 26.9C82.2928 27.2 82.0928 27.2 81.8928 27.4C81.6928 27.6 81.4929 27.9 81.2929 28.1C80.8929 28.3 80.393 28.5 79.993 28.5C79.4931 28.5 79.5931 28.9 79.2931 29.2C78.9931 29.2 78.5932 29.1 78.1932 29.1C77.6933 29.6 77.2933 30.1 76.7934 30.6C76.7934 30.3 76.7934 30.2 76.7934 30.1C76.1934 30.2 76.0934 30.7 75.8935 31.1C75.6935 31 75.5935 30.9 75.3935 30.7999C75.4935 31.4 74.6936 31.2 74.5936 31.6C74.3936 31.5 74.2936 31.3 74.0936 31.2C73.9937 31.4 73.8937 31.6 73.7937 31.7C73.3937 32.1 72.6938 32.1999 72.3938 32.7999C72.3938 32.7999 72.0939 32.9 71.9939 32.7999C71.6939 32.5999 71.5939 33 71.3939 33C71.094 32.9 71.094 33.2999 70.894 33.2999L70.394 32.7C71.094 31.7 72.2938 31.5 73.0938 30.7999C73.7937 30.7999 73.9937 30.3 74.3936 29.9C73.8937 30.1 73.2937 30.4 72.7938 30.6C72.7938 30.5 72.6938 30.5 72.6938 30.4C73.7937 29.8 74.7936 29.2 75.8935 28.5L75.9934 28.6C75.5935 29 75.0935 29.4 74.6936 29.7999C75.4935 29.4 76.2934 29.1 76.9933 28.7C77.7933 28.3 78.4932 27.7 79.1931 27.2C78.7931 27.2 78.3932 27.4 77.9932 27.6C77.5933 27.8 77.3933 28.4 76.6934 28C76.9933 27.7 77.2933 27.3 77.5933 27.3C78.0932 27.3 78.2932 26.8 78.6932 26.8C79.1931 26.8 79.3931 26.3 79.793 26.1C79.993 26 80.293 25.9 80.493 25.8C80.593 25.8 80.7929 25.9 80.8929 26C80.193 26.1 79.893 26.6 79.5931 27.1C80.193 26.5 81.1929 26.6 81.5929 25.8C81.3929 25.6 80.9929 26.2 80.8929 25.5C81.1929 25.4 81.4929 25.2 81.7928 25.1C82.3928 24.8 82.8927 24.4 83.4927 24C83.7926 23.9 84.0926 23.8 84.3926 23.7C84.4925 23.7 84.5925 23.8 84.6925 23.9C84.5925 24 84.4925 24.1 84.4925 24.2C84.3926 24.3 84.3926 24.4 84.2926 24.5C84.2926 24.5 84.3926 24.5 84.3926 24.6L85.2925 23.9C84.9925 23.9 84.7925 23.9 84.3926 23.7Z" fill="#171717"/>
</svg>
