<svg width="24" height="24" viewBox="0 0 24 24" fill="none" xmlns="http://www.w3.org/2000/svg">
<path d="M22.8381 22.4496L15.018 10.1598L22.7344 1.67145C22.9089 1.47473 22.9988 1.21715 22.9847 0.954551C22.9706 0.691957 22.8535 0.445513 22.6589 0.268651C22.4643 0.0917879 22.2078 -0.00123902 21.9451 0.00973863C21.6823 0.0207163 21.4345 0.134813 21.2553 0.327294L13.9049 8.4122L8.84687 0.463458C8.75667 0.321491 8.63211 0.204584 8.48471 0.123569C8.33731 0.0425546 8.17185 5.213e-05 8.00365 1.18219e-07H2.00743C1.82824 -8.70245e-05 1.65233 0.0480039 1.49811 0.139237C1.34389 0.23047 1.21703 0.36149 1.13083 0.518576C1.04462 0.675662 1.00224 0.853036 1.00811 1.03213C1.01398 1.21122 1.0679 1.38543 1.16421 1.53653L8.98428 13.825L1.2679 22.3197C1.17779 22.4165 1.10778 22.5302 1.06195 22.6543C1.01611 22.7783 0.995351 22.9102 1.00087 23.0423C1.00639 23.1745 1.03808 23.3042 1.09411 23.424C1.15013 23.5438 1.22938 23.6513 1.32725 23.7402C1.42512 23.8292 1.53967 23.8978 1.66426 23.9421C1.78885 23.9865 1.921 24.0057 2.05306 23.9986C2.18511 23.9915 2.31445 23.9582 2.43356 23.9008C2.55267 23.8433 2.6592 23.7628 2.74696 23.6638L10.0973 15.5789L15.1554 23.5277C15.2463 23.6685 15.3712 23.7842 15.5186 23.8641C15.6659 23.944 15.831 23.9855 15.9986 23.9849H21.9948C22.1738 23.9848 22.3495 23.9367 22.5036 23.8455C22.6576 23.7544 22.7843 23.6235 22.8705 23.4666C22.9566 23.3097 22.9991 23.1326 22.9934 22.9537C22.9877 22.7748 22.934 22.6007 22.8381 22.4496ZM16.547 21.9861L3.82753 1.99874H7.45025L20.1747 21.9861H16.547Z" fill="black"/>
</svg>
