<svg width="16" height="16" viewBox="0 0 16 16" fill="none" xmlns="http://www.w3.org/2000/svg">
<path d="M7.94995 14.85C4.46245 14.85 0.699951 12.6625 0.699951 7.8625C0.699951 3.0625 4.46245 0.875 7.94995 0.875C9.88745 0.875 11.675 1.5125 13 2.675C14.4375 3.95 15.2 5.75 15.2 7.8625C15.2 9.975 14.4375 11.7625 13 13.0375C11.675 14.2 9.87495 14.85 7.94995 14.85Z" fill="url(#paint0_radial_3640_21097)"/>
<path d="M13.9362 3.70874C14.6025 4.78374 14.95 6.06374 14.95 7.48749C14.95 9.59999 14.1875 11.3875 12.75 12.6625C11.425 13.825 9.62499 14.475 7.69999 14.475C5.44249 14.475 3.07499 13.5562 1.67749 11.6075C3.02249 13.815 5.55249 14.85 7.94999 14.85C9.87499 14.85 11.675 14.2 13 13.0375C14.4375 11.7625 15.2 9.97499 15.2 7.86249C15.2 6.26999 14.7662 4.85499 13.9362 3.70874Z" fill="#EB8F00"/>
<path d="M11.99 2.14126L10.9825 3.47876C10.9325 3.54376 10.855 3.58126 10.7725 3.57751L9.1 3.50626C8.9625 3.50001 8.845 3.60751 8.83875 3.74501C8.83625 3.80001 8.8525 3.85376 8.88375 3.89876L9.845 5.27376C9.89125 5.34001 9.9025 5.42376 9.875 5.50001L9.29 7.07001C9.2425 7.20001 9.30875 7.34376 9.4375 7.39126C9.48875 7.41001 9.54375 7.41126 9.59625 7.39626L11.1975 6.90626C11.2763 6.88251 11.3613 6.89876 11.4263 6.95001L12.7375 7.99126C12.8463 8.07626 13.0025 8.05876 13.0888 7.95001C13.1225 7.90626 13.1413 7.85376 13.1425 7.79876L13.1713 6.12501C13.1725 6.04251 13.215 5.96626 13.2838 5.92126L14.6788 5.00001C14.7938 4.92376 14.8263 4.76876 14.75 4.65376C14.72 4.60751 14.675 4.57251 14.6225 4.55501L13.0388 4.01001C12.9588 3.98376 12.8975 3.91876 12.875 3.83751L12.43 2.22376C12.3925 2.09126 12.2538 2.01376 12.1213 2.05126C12.0688 2.06626 12.0225 2.09751 11.99 2.14126Z" fill="url(#paint1_radial_3640_21097)"/>
<path d="M12.4763 2.11129L12.8513 3.85129C12.88 3.98504 12.9788 4.09254 13.11 4.13129L14.7825 4.63129C14.9075 4.67629 14.9725 4.81379 14.9275 4.93879C14.91 4.98879 14.8763 5.03004 14.8313 5.05879L13.3313 5.87379C13.205 5.93754 13.125 6.06754 13.125 6.20879L13.14 8.03254C13.1363 8.16379 13.0263 8.26754 12.8938 8.26379C12.8413 8.26254 12.79 8.24379 12.75 8.21004L11.44 7.03379C11.3388 6.94129 11.195 6.91254 11.065 6.95754L9.4025 7.52379C9.275 7.56004 9.1425 7.48629 9.105 7.35879C9.09 7.30879 9.0925 7.25504 9.1125 7.20629L9.845 5.53504C9.9 5.40754 9.88125 5.26129 9.795 5.15254L8.73125 3.81129C8.6575 3.70004 8.6875 3.55129 8.7975 3.47629C8.84 3.44754 8.89125 3.43379 8.94375 3.43629L10.68 3.63379C10.8163 3.64879 10.9488 3.58879 11.0275 3.47754L12.055 2.02504C12.1363 1.92004 12.2875 1.90129 12.3913 1.98379C12.4338 2.01629 12.4625 2.06004 12.4763 2.11129Z" fill="#E7281C"/>
<path d="M12.0788 3.79251L12.2038 2.59251C12.2125 2.52626 12.2225 2.41126 12.3288 2.43251C12.4125 2.45001 12.4213 2.63126 12.4213 2.63126L12.5838 3.64876C12.6438 4.03501 12.5638 4.14876 12.4188 4.19376C12.25 4.25001 12.0438 4.13626 12.0788 3.79251Z" fill="#FF847A"/>
<path d="M13.2063 5.75004L14.39 5.16379C14.4488 5.13129 14.5538 5.08254 14.4975 4.99129C14.4513 4.92004 14.2775 4.97379 14.2775 4.97379L13.3138 5.14004C13.0288 5.17754 12.8238 5.27754 12.7725 5.44629C12.7063 5.66379 12.875 5.88254 13.2063 5.75004Z" fill="#C62828"/>
<path d="M4.06253 1.81252L5.06253 3.28002C5.14003 3.39252 5.27128 3.45377 5.40753 3.44127L7.14753 3.27002C7.28003 3.26627 7.39128 3.37002 7.39503 3.50252C7.39628 3.55377 7.38253 3.60377 7.35378 3.64502L6.27503 4.97377C6.18753 5.08127 6.16628 5.22752 6.22003 5.35502L6.92628 7.03627C6.97253 7.16002 6.91003 7.29877 6.78628 7.34502C6.73628 7.36377 6.68253 7.36502 6.63128 7.35002L4.97253 6.75877C4.84378 6.71252 4.70003 6.73877 4.59753 6.82877L3.27503 7.98502C3.17253 8.06752 3.02253 8.05127 2.93878 7.94877C2.90503 7.90752 2.88628 7.85502 2.88628 7.80252L2.92753 5.97877C2.93128 5.84002 2.85753 5.71252 2.73753 5.64377L1.25003 4.80627C1.13753 4.73877 1.10003 4.59127 1.16878 4.47877C1.19753 4.43002 1.24378 4.39252 1.29753 4.37502L2.97878 3.89752C3.10878 3.86127 3.20878 3.75627 3.24128 3.62502L3.64003 1.89127C3.67628 1.76377 3.80878 1.69002 3.93628 1.72627C3.98628 1.74002 4.03128 1.77127 4.06253 1.81252Z" fill="#E7281C"/>
<path d="M4.33257 3.51879L3.99007 2.36129C3.97382 2.29629 3.93882 2.18629 4.04382 2.16629C4.12757 2.15004 4.20632 2.31504 4.20632 2.31504L4.74132 3.19004C4.94507 3.52504 4.91257 3.65879 4.79632 3.75629C4.68007 3.85379 4.43007 3.85004 4.33257 3.51879Z" fill="#FF847A"/>
<path d="M6.11754 4.89503L6.99254 3.90253C7.03504 3.85128 7.11754 3.76628 7.02504 3.70378C6.95629 3.65378 6.81629 3.77003 6.81629 3.77003L5.98754 4.29003C5.73754 4.43253 5.58629 4.60253 5.60379 4.77878C5.62504 5.01128 5.86254 5.14878 6.11754 4.89503Z" fill="#C62828"/>
<path d="M12.7588 8.9525C12.5838 8.63625 12.2038 8.4975 11.8663 8.625C10.5838 8.99875 9.25377 9.185 7.91752 9.17875C6.58127 9.185 5.25127 8.99875 3.96877 8.625C3.63252 8.4975 3.25252 8.635 3.07752 8.95C2.90752 9.26375 3.03002 9.6275 3.17377 9.94125C3.97627 11.7038 5.74502 12.7588 7.90752 12.765H7.92752C10.09 12.765 11.8588 11.7038 12.6625 9.94125C12.805 9.625 12.9288 9.26625 12.7588 8.9525Z" fill="#422B0D"/>
<path d="M9.91875 12.2675C9.8725 12.225 9.82501 12.1863 9.7775 12.1425C9.2675 11.6938 8.6075 11.4525 7.9275 11.4663C7.2275 11.455 6.54625 11.6875 6 12.125C5.9525 12.1638 5.9025 12.2013 5.85625 12.25C5.81 12.2988 5.785 12.3338 5.755 12.375C6.4425 12.6438 7.175 12.7813 7.91375 12.7775H7.93375C8.64125 12.7775 9.3425 12.6513 10.005 12.4025C9.98 12.355 9.95125 12.31 9.91875 12.2675Z" fill="#ED7770"/>
<path d="M11.8663 8.62504C10.5838 8.99879 9.25377 9.18504 7.91752 9.17879C6.58127 9.18504 5.25127 8.99879 3.96877 8.62504C3.63252 8.49754 3.25252 8.63504 3.07752 8.95004C3.05252 8.99754 3.03252 9.04754 3.02002 9.09879C3.06127 9.12004 3.10877 9.14129 3.16502 9.16379C4.67002 9.91754 6.33377 10.3 8.01627 10.28C9.63002 10.2988 11.225 9.94754 12.6825 9.25504C12.7413 9.23004 12.79 9.20629 12.8338 9.18379C12.8238 9.10254 12.7975 9.02254 12.7588 8.95004C12.5838 8.63504 12.2038 8.49629 11.8663 8.62504Z" fill="white"/>
<path d="M12.7638 8.95375C12.5863 8.6375 12.205 8.4975 11.865 8.625C10.5825 8.99875 9.25252 9.185 7.91752 9.17875C6.58127 9.185 5.25127 8.99875 3.96877 8.625C3.63252 8.4975 3.25252 8.635 3.07752 8.95C2.90752 9.26375 3.03002 9.6275 3.17377 9.94125C3.23752 10.0825 3.30877 10.2213 3.38752 10.355C3.38752 10.355 3.12502 9.3825 3.35252 9.1C3.43002 8.98 3.56002 8.905 3.70252 8.8975C3.76127 8.8975 3.81877 8.9075 3.87502 8.925C5.18002 9.30875 6.53377 9.5025 7.89502 9.5H7.93877C9.30002 9.5025 10.6538 9.30875 11.9588 8.925C12.015 8.9075 12.0725 8.8975 12.1313 8.8975C12.2738 8.905 12.405 8.98 12.4825 9.1C12.7138 9.3825 12.4475 10.3588 12.4475 10.3588C12.525 10.225 12.6025 10.0875 12.6675 9.945C12.81 9.63125 12.9338 9.26875 12.7638 8.95375Z" fill="#EB8F00"/>
<defs>
<radialGradient id="paint0_radial_3640_21097" cx="0" cy="0" r="1" gradientUnits="userSpaceOnUse" gradientTransform="translate(7.94995 7.8625) scale(7.11996)">
<stop offset="0.5" stop-color="#FDE030"/>
<stop offset="0.92" stop-color="#F7C02B"/>
<stop offset="1" stop-color="#F4A223"/>
</radialGradient>
<radialGradient id="paint1_radial_3640_21097" cx="0" cy="0" r="1" gradientUnits="userSpaceOnUse" gradientTransform="translate(11.815 5.04351) scale(2.98886)">
<stop offset="0.2" stop-color="#FF4081"/>
<stop offset="0.88" stop-color="#CC1775"/>
</radialGradient>
</defs>
</svg>
