<svg width="12" height="12" viewBox="0 0 12 12" fill="#FFFFFF" xmlns="http://www.w3.org/2000/svg">
<path d="M6 3.325C7.575 3.325 8.875 4.625 8.875 6.2C8.875 7.8 7.575 9.075 6 9.075C4.4 9.075 3.125 7.8 3.125 6.2C3.125 4.625 4.4 3.325 6 3.325ZM6 8.075C7.025 8.075 7.85 7.25 7.85 6.2C7.85 5.175 7.025 4.35 6 4.35C4.95 4.35 4.125 5.175 4.125 6.2C4.125 7.25 4.975 8.075 6 8.075ZM9.65 3.225C9.65 3.6 9.35 3.9 8.975 3.9C8.6 3.9 8.3 3.6 8.3 3.225C8.3 2.85 8.6 2.55 8.975 2.55C9.35 2.55 9.65 2.85 9.65 3.225ZM11.55 3.9C11.6 4.825 11.6 7.6 11.55 8.525C11.5 9.425 11.3 10.2 10.65 10.875C10 11.525 9.2 11.725 8.3 11.775C7.375 11.825 4.6 11.825 3.675 11.775C2.775 11.725 2 11.525 1.325 10.875C0.675 10.2 0.475 9.425 0.425 8.525C0.375 7.6 0.375 4.825 0.425 3.9C0.475 3 0.675 2.2 1.325 1.55C2 0.9 2.775 0.7 3.675 0.65C4.6 0.6 7.375 0.6 8.3 0.65C9.2 0.7 10 0.9 10.65 1.55C11.3 2.2 11.5 3 11.55 3.9ZM10.35 9.5C10.65 8.775 10.575 7.025 10.575 6.2C10.575 5.4 10.65 3.65 10.35 2.9C10.15 2.425 9.775 2.025 9.3 1.85C8.55 1.55 6.8 1.625 6 1.625C5.175 1.625 3.425 1.55 2.7 1.85C2.2 2.05 1.825 2.425 1.625 2.9C1.325 3.65 1.4 5.4 1.4 6.2C1.4 7.025 1.325 8.775 1.625 9.5C1.825 10 2.2 10.375 2.7 10.575C3.425 10.875 5.175 10.8 6 10.8C6.8 10.8 8.55 10.875 9.3 10.575C9.775 10.375 10.175 10 10.35 9.5Z" fill="white"/>
</svg>
