<svg width="15" height="10" viewBox="0 0 15 10" fill="white" xmlns="http://www.w3.org/2000/svg">
<path d="M14.025 1.925C14.325 2.975 14.325 5.225 14.325 5.225C14.325 5.225 14.325 7.45 14.025 8.525C13.875 9.125 13.4 9.575 12.825 9.725C11.75 10 7.5 10 7.5 10C7.5 10 3.225 10 2.15 9.725C1.575 9.575 1.1 9.125 0.95 8.525C0.65 7.45 0.65 5.225 0.65 5.225C0.65 5.225 0.65 2.975 0.95 1.925C1.1 1.325 1.575 0.85 2.15 0.7C3.225 0.4 7.5 0.4 7.5 0.4C7.5 0.4 11.75 0.4 12.825 0.7C13.4 0.85 13.875 1.325 14.025 1.925ZM6.1 7.25L9.65 5.225L6.1 3.2V7.25Z" fill="white"/>
</svg>
