<svg width="50" height="60" viewBox="0 0 50 60" fill="none" xmlns="http://www.w3.org/2000/svg">
<g clip-path="url(#clip0_3640_21314)">
<path d="M48.1474 33.3814L45.0988 26.04C44.836 25.4068 44.2074 25.1297 43.6651 25.4074L40.565 26.9965C40.1884 26.0377 39.3875 25.4513 38.4729 25.5019C37.4347 25.5618 36.6041 26.4247 36.4064 27.6493C36.2857 28.3965 36.2063 29.2185 36.1294 30.0131C35.9848 31.5085 35.821 33.2032 35.379 34.0519C34.8888 34.993 34.6841 36.1249 34.6369 37.2489C32.8499 39.473 29.7384 40.2628 28.0757 39.9609C27.3073 39.8214 26.2784 39.5659 25.1893 39.2955C24.3702 39.0921 23.4895 38.8735 22.5884 38.6705C24.699 34.2998 24.6899 28.808 22.4387 24.406L21.7103 22.9821C21.7734 22.86 21.8364 22.7379 21.9006 22.6146C23.995 18.5916 24.7539 13.8074 24.0379 9.14375C24.0091 8.95567 23.9602 8.72991 23.8884 8.45393C22.6526 3.70282 19.0189 0.353914 14.8466 0.120412L12.9249 0.0128787C8.77127 -0.218619 4.90162 2.6892 3.29307 7.25062C1.62296 11.9866 1.89101 17.3891 3.99504 21.8105C3.03503 23.8677 1.99365 27.2098 1.77669 32.2523C1.48136 39.1134 2.79325 47.3061 5.67595 56.6031C5.68675 56.6379 5.69877 56.6724 5.71202 56.7061C6.25125 58.081 7.24454 59.0408 8.66429 59.5588C9.52301 59.8721 10.4841 60.0002 11.4821 60.0002C13.6641 60.0002 16.0214 59.3877 17.8653 58.7593C21.178 57.6304 24.6767 55.8316 27.464 53.8242C33.9187 49.1772 42.533 43.5338 42.6193 43.4773C42.7636 43.3828 42.8886 43.2514 42.9854 43.0922L48.0504 34.7647C48.2954 34.3616 48.3328 33.8281 48.1474 33.3814ZM41.3336 41.276C39.9422 42.1905 32.2345 47.2741 26.3182 51.5334C21.1226 55.2755 13.0494 58.3665 9.31183 57.0026C8.52648 56.7161 8.01319 56.2612 7.74436 55.613C2.28174 37.9622 3.8717 28.4926 5.48048 24.2077C5.70356 24.544 5.91963 24.8887 6.12445 25.2395C6.47722 25.8436 7.1714 25.9902 7.6749 25.5669C8.17839 25.1435 8.30051 24.3105 7.94774 23.7063C7.59252 23.0981 7.20947 22.5036 6.80906 21.9392C6.35956 21.3055 6.18123 20.9939 6.11499 20.8646C4.18417 17.0972 3.89564 12.3973 5.34333 8.2919C6.59032 4.75598 9.59703 2.50098 12.8211 2.68185L14.7428 2.78938C17.9839 2.97079 20.805 5.56709 21.7631 9.24995C21.8232 9.48104 21.8426 9.59045 21.8483 9.62732C22.4634 13.6337 21.8114 17.7432 20.0124 21.199C19.2689 22.627 18.5948 23.98 18.0085 25.2204C17.7051 25.8621 17.8927 26.6773 18.4275 27.0413C18.6009 27.1594 18.7896 27.2155 18.9757 27.2155C19.3634 27.2155 19.74 26.9722 19.9451 26.5385C20.0959 26.2195 20.2532 25.8921 20.4158 25.5581L20.5414 25.8036C22.5123 29.6574 22.3553 34.5441 20.1988 38.1932C18.9412 37.9817 17.7129 37.8513 16.6241 37.8862C16.0095 37.9058 15.5246 38.5197 15.541 39.2572C15.5574 39.9947 16.0708 40.5779 16.6835 40.5569C18.9847 40.4821 22.1755 41.2752 24.7381 41.9117C25.9062 42.2018 26.9149 42.4523 27.7428 42.6026C28.0577 42.6598 28.4118 42.6898 28.7947 42.6898C30.555 42.6898 32.9209 42.0536 34.8576 40.4897C35.0187 41.487 35.2134 42.2207 35.2669 42.4132C35.4223 42.9726 35.8563 43.3262 36.3221 43.3262C36.4385 43.3262 36.5569 43.304 36.6733 43.2577C37.2563 43.0254 37.5721 42.2697 37.3793 41.5697C37.3764 41.5588 37.0755 40.4575 36.9307 39.1011C36.7599 37.5024 36.8793 36.2122 37.267 35.468C37.9748 34.1089 38.1609 32.1833 38.3409 30.3212C38.413 29.5753 38.4814 28.8687 38.5789 28.2417C39.4346 31.8447 38.6487 36.3186 38.6407 36.3638C38.5107 37.0843 38.8917 37.795 39.4921 37.9517C40.0928 38.1078 40.6858 37.6511 40.8164 36.9302C40.8284 36.8635 40.9246 36.321 41.0182 35.4761L43.1278 33.5432C43.6165 33.0954 43.7101 32.2572 43.3371 31.6708C42.964 31.0846 42.2655 30.9719 41.7767 31.4198L41.2038 31.9447C41.1979 31.2043 41.1605 30.4256 41.0763 29.6399L43.5745 28.3594L45.8529 33.8462L41.3336 41.276Z" fill="#525252"/>
</g>
<defs>
<clipPath id="clip0_3640_21314">
<rect width="50" height="60" fill="white"/>
</clipPath>
</defs>
</svg>
