<svg width="50" height="50" viewBox="0 0 50 50" fill="none" xmlns="http://www.w3.org/2000/svg">
<path d="M47.3887 18.836L11.4512 6.33599C11.2156 6.254 10.9639 6.22959 10.717 6.26479C10.4701 6.29999 10.2352 6.39378 10.0319 6.53833C9.82868 6.68288 9.66299 6.87398 9.5487 7.09566C9.43441 7.31734 9.37485 7.56315 9.375 7.81256V42.1876C9.375 42.602 9.53962 42.9994 9.83265 43.2924C10.1257 43.5854 10.5231 43.7501 10.9375 43.7501C11.3519 43.7501 11.7493 43.5854 12.0424 43.2924C12.3354 42.9994 12.5 42.602 12.5 42.1876V33.9239L47.3887 21.7891C47.6957 21.6829 47.9619 21.4835 48.1504 21.2189C48.3389 20.9543 48.4401 20.6374 48.4401 20.3126C48.4401 19.9877 48.3389 19.6709 48.1504 19.4062C47.9619 19.1416 47.6957 18.9423 47.3887 18.836ZM12.5 30.6153V10.0098L42.1191 20.3126L12.5 30.6153Z" fill="#525252"/>
</svg>
