<svg width="50" height="50" viewBox="0 0 50 50" fill="none" xmlns="http://www.w3.org/2000/svg">
<path d="M49.1719 17.3711L25.7344 4.87108C25.5083 4.7507 25.2561 4.68774 25 4.68774C24.7439 4.68774 24.4917 4.7507 24.2656 4.87108L0.828125 17.3711C0.578134 17.5043 0.369064 17.703 0.223281 17.9459C0.0774987 18.1888 0.000488281 18.4667 0.000488281 18.75C0.000488281 19.0333 0.0774987 19.3112 0.223281 19.5541C0.369064 19.797 0.578134 19.9957 0.828125 20.1289L6.25 23.0215V32.4785C6.24838 33.246 6.53084 33.9869 7.04297 34.5586C9.60156 37.4082 15.334 42.1875 25 42.1875C28.205 42.214 31.386 41.6335 34.375 40.4765V46.875C34.375 47.2894 34.5396 47.6868 34.8326 47.9798C35.1257 48.2729 35.5231 48.4375 35.9375 48.4375C36.3519 48.4375 36.7493 48.2729 37.0424 47.9798C37.3354 47.6868 37.5 47.2894 37.5 46.875V38.9668C39.5375 37.7906 41.3787 36.3032 42.957 34.5586C43.4692 33.9869 43.7516 33.246 43.75 32.4785V23.0215L49.1719 20.1289C49.4219 19.9957 49.6309 19.797 49.7767 19.5541C49.9225 19.3112 49.9995 19.0333 49.9995 18.75C49.9995 18.4667 49.9225 18.1888 49.7767 17.9459C49.6309 17.703 49.4219 17.5043 49.1719 17.3711ZM25 39.0625C16.5488 39.0625 11.5781 34.9336 9.375 32.4785V24.6875L24.2656 32.6289C24.4917 32.7493 24.7439 32.8122 25 32.8122C25.2561 32.8122 25.5083 32.7493 25.7344 32.6289L34.375 28.0215V37.0723C31.9141 38.2207 28.8125 39.0625 25 39.0625ZM40.625 32.4707C39.6884 33.51 38.6404 34.4434 37.5 35.2539V26.3535L40.625 24.6875V32.4707ZM36.7188 23.2305L36.6758 23.2051L25.7383 17.3711C25.3734 17.1847 24.9498 17.1491 24.5589 17.272C24.168 17.3949 23.8411 17.6664 23.6484 18.0281C23.4558 18.3898 23.413 18.8126 23.5292 19.2056C23.6453 19.5985 23.9112 19.9301 24.2695 20.1289L33.3984 25L25 29.4785L4.88281 18.75L25 8.02147L45.1172 18.75L36.7188 23.2305Z" fill="#525252"/>
</svg>
