<svg width="50" height="50" viewBox="0 0 50 50" fill="none" xmlns="http://www.w3.org/2000/svg">
<path d="M43.0215 30.9649C42.7988 30.8243 42.5441 30.7424 42.2811 30.7267C42.0182 30.711 41.7556 30.762 41.5176 30.875C40.9223 31.1566 40.2653 31.2831 39.608 31.2427C38.9506 31.2023 38.3141 30.9963 37.7577 30.644C37.2013 30.2916 36.743 29.8043 36.4254 29.2273C36.1079 28.6503 35.9413 28.0024 35.9413 27.3438C35.9413 26.6852 36.1079 26.0373 36.4254 25.4603C36.743 24.8833 37.2013 24.396 37.7577 24.0436C38.3141 23.6912 38.9506 23.4853 39.608 23.4449C40.2653 23.4045 40.9223 23.5309 41.5176 23.8125C41.7558 23.9256 42.0188 23.9765 42.2819 23.9606C42.5451 23.9446 42.8 23.8624 43.0228 23.7214C43.2457 23.5805 43.4292 23.3854 43.5563 23.1545C43.6835 22.9235 43.7501 22.6641 43.7501 22.4004V14.0625C43.7501 13.2337 43.4208 12.4389 42.8348 11.8528C42.2487 11.2668 41.4539 10.9375 40.6251 10.9375H33.5508C33.5799 10.6781 33.5943 10.4173 33.5938 10.1563C33.5924 9.19597 33.3948 8.24607 33.0133 7.36481C32.6318 6.48354 32.0743 5.68947 31.3751 5.03128C30.4068 4.12192 29.2008 3.50543 27.8967 3.25319C26.5926 3.00095 25.2437 3.12327 24.0062 3.606C22.7687 4.08873 21.6933 4.91212 20.9044 5.98081C20.1156 7.0495 19.6456 8.31978 19.5489 9.64456C19.5189 10.0755 19.528 10.5082 19.5762 10.9375H12.5001C11.6713 10.9375 10.8764 11.2668 10.2903 11.8528C9.70429 12.4389 9.37505 13.2337 9.37505 14.0625V20.3555C9.11566 20.3264 8.85482 20.3121 8.5938 20.3125C7.63351 20.3141 6.68365 20.5117 5.8024 20.8932C4.92115 21.2747 4.12707 21.8321 3.4688 22.5313C2.80581 23.2316 2.2953 24.0618 1.96954 24.9695C1.64378 25.8772 1.50986 26.8426 1.57622 27.8047C1.68819 29.4988 2.40801 31.0955 3.60331 32.3012C4.79862 33.5069 6.38903 34.2406 8.08208 34.3672C8.51299 34.3982 8.94584 34.389 9.37505 34.3399V40.625C9.37505 41.4538 9.70429 42.2487 10.2903 42.8347C10.8764 43.4208 11.6713 43.75 12.5001 43.75H40.6251C41.4539 43.75 42.2487 43.4208 42.8348 42.8347C43.4208 42.2487 43.7501 41.4538 43.7501 40.625V32.2871C43.7502 32.0231 43.6835 31.7634 43.5561 31.5322C43.4287 31.301 43.2448 31.1058 43.0215 30.9649ZM40.6251 40.625H12.5001V32.2871C12.5001 32.0235 12.4335 31.7641 12.3063 31.5331C12.1792 31.3021 11.9957 31.1071 11.7728 30.9661C11.55 30.8252 11.2951 30.7429 11.0319 30.727C10.7688 30.7111 10.5058 30.762 10.2676 30.875C9.67225 31.1566 9.01534 31.2831 8.35797 31.2427C7.70061 31.2023 7.06413 30.9963 6.50771 30.644C5.95128 30.2916 5.49299 29.8043 5.17542 29.2273C4.85786 28.6503 4.69133 28.0024 4.69133 27.3438C4.69133 26.6852 4.85786 26.0373 5.17542 25.4603C5.49299 24.8833 5.95128 24.396 6.50771 24.0436C7.06413 23.6912 7.70061 23.4853 8.35797 23.4449C9.01534 23.4045 9.67225 23.5309 10.2676 23.8125C10.5058 23.9256 10.7688 23.9765 11.0319 23.9606C11.2951 23.9446 11.55 23.8624 11.7728 23.7214C11.9957 23.5805 12.1792 23.3854 12.3063 23.1545C12.4335 22.9235 12.5001 22.6641 12.5001 22.4004V14.0625H21.6192C21.8829 14.0626 22.1423 13.996 22.3732 13.8688C22.6042 13.7417 22.7993 13.5581 22.9402 13.3353C23.0812 13.1125 23.1634 12.8576 23.1793 12.5944C23.1953 12.3312 23.1443 12.0683 23.0313 11.8301C22.7497 11.2347 22.6233 10.5778 22.6637 9.92045C22.7041 9.26308 22.91 8.6266 23.2624 8.07018C23.6147 7.51376 24.1021 7.05546 24.679 6.73789C25.256 6.42033 25.9039 6.25381 26.5626 6.25381C27.2212 6.25381 27.8691 6.42033 28.4461 6.73789C29.0231 7.05546 29.5104 7.51376 29.8627 8.07018C30.2151 8.6266 30.421 9.26308 30.4614 9.92045C30.5018 10.5778 30.3754 11.2347 30.0938 11.8301C29.9808 12.0683 29.9298 12.3312 29.9458 12.5944C29.9617 12.8576 30.044 13.1125 30.1849 13.3353C30.3259 13.5581 30.5209 13.7417 30.7519 13.8688C30.9828 13.996 31.2422 14.0626 31.5059 14.0625H40.6251V20.3574C40.1958 20.3083 39.763 20.2991 39.3321 20.3301C37.5136 20.4589 35.8161 21.2889 34.5979 22.6452C33.3796 24.0015 32.7358 25.7779 32.8021 27.5998C32.8685 29.4217 33.6399 31.1465 34.9537 32.4106C36.2674 33.6746 38.0207 34.3789 39.8438 34.375C40.1048 34.3755 40.3657 34.3611 40.6251 34.3321V40.625Z" fill="#525252"/>
</svg>
