<svg width="50" height="50" viewBox="0 0 50 50" fill="none" xmlns="http://www.w3.org/2000/svg">
<path d="M37.5 18.75C37.5 24.3184 32.7207 28.9277 26.5625 29.6016V31.25C26.5625 31.6644 26.3979 32.0618 26.1049 32.3549C25.8118 32.6479 25.4144 32.8125 25 32.8125C24.5856 32.8125 24.1882 32.6479 23.8951 32.3549C23.6021 32.0618 23.4375 31.6644 23.4375 31.25V28.125C23.4375 27.7106 23.6021 27.3132 23.8951 27.0201C24.1882 26.7271 24.5856 26.5625 25 26.5625C30.1699 26.5625 34.375 23.0586 34.375 18.75C34.375 14.4414 30.1699 10.9375 25 10.9375C19.8301 10.9375 15.625 14.4414 15.625 18.75C15.625 19.1644 15.4604 19.5618 15.1674 19.8549C14.8743 20.1479 14.4769 20.3125 14.0625 20.3125C13.6481 20.3125 13.2507 20.1479 12.9576 19.8549C12.6646 19.5618 12.5 19.1644 12.5 18.75C12.5 12.7188 18.1074 7.8125 25 7.8125C31.8926 7.8125 37.5 12.7188 37.5 18.75ZM25 37.5C24.3819 37.5 23.7777 37.6833 23.2638 38.0267C22.7499 38.37 22.3494 38.8581 22.1129 39.4291C21.8764 40.0001 21.8145 40.6285 21.935 41.2347C22.0556 41.8408 22.3533 42.3977 22.7903 42.8347C23.2273 43.2717 23.7842 43.5694 24.3903 43.69C24.9965 43.8105 25.6249 43.7486 26.1959 43.5121C26.7669 43.2756 27.255 42.8751 27.5983 42.3612C27.9417 41.8473 28.125 41.2431 28.125 40.625C28.125 39.7962 27.7958 39.0013 27.2097 38.4153C26.6237 37.8292 25.8288 37.5 25 37.5Z" fill="#525252"/>
</svg>
