<svg width="50" height="50" viewBox="0 0 50 50" fill="none" xmlns="http://www.w3.org/2000/svg">
<path d="M20.3125 7.8125H10.9375C10.1087 7.8125 9.31384 8.14174 8.72779 8.72779C8.14174 9.31384 7.8125 10.1087 7.8125 10.9375V20.3125C7.8125 21.1413 8.14174 21.9362 8.72779 22.5222C9.31384 23.1083 10.1087 23.4375 10.9375 23.4375H20.3125C21.1413 23.4375 21.9362 23.1083 22.5222 22.5222C23.1083 21.9362 23.4375 21.1413 23.4375 20.3125V10.9375C23.4375 10.1087 23.1083 9.31384 22.5222 8.72779C21.9362 8.14174 21.1413 7.8125 20.3125 7.8125ZM20.3125 20.3125H10.9375V10.9375H20.3125V20.3125ZM39.0625 7.8125H29.6875C28.8587 7.8125 28.0638 8.14174 27.4778 8.72779C26.8917 9.31384 26.5625 10.1087 26.5625 10.9375V20.3125C26.5625 21.1413 26.8917 21.9362 27.4778 22.5222C28.0638 23.1083 28.8587 23.4375 29.6875 23.4375H39.0625C39.8913 23.4375 40.6862 23.1083 41.2722 22.5222C41.8583 21.9362 42.1875 21.1413 42.1875 20.3125V10.9375C42.1875 10.1087 41.8583 9.31384 41.2722 8.72779C40.6862 8.14174 39.8913 7.8125 39.0625 7.8125ZM39.0625 20.3125H29.6875V10.9375H39.0625V20.3125ZM20.3125 26.5625H10.9375C10.1087 26.5625 9.31384 26.8917 8.72779 27.4778C8.14174 28.0638 7.8125 28.8587 7.8125 29.6875V39.0625C7.8125 39.8913 8.14174 40.6862 8.72779 41.2722C9.31384 41.8583 10.1087 42.1875 10.9375 42.1875H20.3125C21.1413 42.1875 21.9362 41.8583 22.5222 41.2722C23.1083 40.6862 23.4375 39.8913 23.4375 39.0625V29.6875C23.4375 28.8587 23.1083 28.0638 22.5222 27.4778C21.9362 26.8917 21.1413 26.5625 20.3125 26.5625ZM20.3125 39.0625H10.9375V29.6875H20.3125V39.0625ZM39.0625 26.5625H29.6875C28.8587 26.5625 28.0638 26.8917 27.4778 27.4778C26.8917 28.0638 26.5625 28.8587 26.5625 29.6875V39.0625C26.5625 39.8913 26.8917 40.6862 27.4778 41.2722C28.0638 41.8583 28.8587 42.1875 29.6875 42.1875H39.0625C39.8913 42.1875 40.6862 41.8583 41.2722 41.2722C41.8583 40.6862 42.1875 39.8913 42.1875 39.0625V29.6875C42.1875 28.8587 41.8583 28.0638 41.2722 27.4778C40.6862 26.8917 39.8913 26.5625 39.0625 26.5625ZM39.0625 39.0625H29.6875V29.6875H39.0625V39.0625Z" fill="#525252"/>
</svg>
